G04 #@! TF.GenerationSoftware,KiCad,Pcbnew,7.0.10*
G04 #@! TF.CreationDate,2024-03-31T17:07:34-04:00*
G04 #@! TF.ProjectId,Breeze,42726565-7a65-42e6-9b69-6361645f7063,Rev1.2*
G04 #@! TF.SameCoordinates,Original*
G04 #@! TF.FileFunction,Copper,L1,Top*
G04 #@! TF.FilePolarity,Positive*
%FSLAX46Y46*%
G04 Gerber Fmt 4.6, Leading zero omitted, Abs format (unit mm)*
G04 Created by KiCad (PCBNEW 7.0.10) date 2024-03-31 17:07:34*
%MOMM*%
%LPD*%
G01*
G04 APERTURE LIST*
G04 Aperture macros list*
%AMRoundRect*
0 Rectangle with rounded corners*
0 $1 Rounding radius*
0 $2 $3 $4 $5 $6 $7 $8 $9 X,Y pos of 4 corners*
0 Add a 4 corners polygon primitive as box body*
4,1,4,$2,$3,$4,$5,$6,$7,$8,$9,$2,$3,0*
0 Add four circle primitives for the rounded corners*
1,1,$1+$1,$2,$3*
1,1,$1+$1,$4,$5*
1,1,$1+$1,$6,$7*
1,1,$1+$1,$8,$9*
0 Add four rect primitives between the rounded corners*
20,1,$1+$1,$2,$3,$4,$5,0*
20,1,$1+$1,$4,$5,$6,$7,0*
20,1,$1+$1,$6,$7,$8,$9,0*
20,1,$1+$1,$8,$9,$2,$3,0*%
%AMRotRect*
0 Rectangle, with rotation*
0 The origin of the aperture is its center*
0 $1 length*
0 $2 width*
0 $3 Rotation angle, in degrees counterclockwise*
0 Add horizontal line*
21,1,$1,$2,0,0,$3*%
G04 Aperture macros list end*
%ADD10C,0.200000*%
G04 #@! TA.AperFunction,NonConductor*
%ADD11C,0.200000*%
G04 #@! TD*
%ADD12C,0.150000*%
G04 #@! TA.AperFunction,NonConductor*
%ADD13C,0.150000*%
G04 #@! TD*
G04 #@! TA.AperFunction,EtchedComponent*
%ADD14C,0.010000*%
G04 #@! TD*
G04 #@! TA.AperFunction,SMDPad,CuDef*
%ADD15RoundRect,0.250000X-0.300000X-0.300000X0.300000X-0.300000X0.300000X0.300000X-0.300000X0.300000X0*%
G04 #@! TD*
G04 #@! TA.AperFunction,SMDPad,CuDef*
%ADD16RoundRect,0.250000X0.409808X-0.109808X0.109808X0.409808X-0.409808X0.109808X-0.109808X-0.409808X0*%
G04 #@! TD*
G04 #@! TA.AperFunction,ComponentPad*
%ADD17C,2.000000*%
G04 #@! TD*
G04 #@! TA.AperFunction,ComponentPad*
%ADD18RotRect,1.000000X2.100000X30.000000*%
G04 #@! TD*
G04 #@! TA.AperFunction,ComponentPad*
%ADD19C,1.524000*%
G04 #@! TD*
G04 #@! TA.AperFunction,SMDPad,CuDef*
%ADD20R,0.700000X1.500000*%
G04 #@! TD*
G04 #@! TA.AperFunction,SMDPad,CuDef*
%ADD21R,2.400000X2.400000*%
G04 #@! TD*
G04 #@! TA.AperFunction,SMDPad,CuDef*
%ADD22R,2.000000X2.000000*%
G04 #@! TD*
G04 #@! TA.AperFunction,SMDPad,CuDef*
%ADD23R,1.800000X2.000000*%
G04 #@! TD*
G04 #@! TA.AperFunction,SMDPad,CuDef*
%ADD24R,2.500000X2.500000*%
G04 #@! TD*
G04 #@! TA.AperFunction,SMDPad,CuDef*
%ADD25RotRect,0.700000X1.500000X300.000000*%
G04 #@! TD*
G04 #@! TA.AperFunction,SMDPad,CuDef*
%ADD26RotRect,2.400000X2.400000X120.000000*%
G04 #@! TD*
G04 #@! TA.AperFunction,SMDPad,CuDef*
%ADD27RotRect,2.000000X2.000000X120.000000*%
G04 #@! TD*
G04 #@! TA.AperFunction,SMDPad,CuDef*
%ADD28RotRect,1.800000X2.000000X120.000000*%
G04 #@! TD*
G04 #@! TA.AperFunction,SMDPad,CuDef*
%ADD29RotRect,2.500000X2.500000X120.000000*%
G04 #@! TD*
G04 #@! TA.AperFunction,ComponentPad*
%ADD30C,4.000000*%
G04 #@! TD*
G04 #@! TA.AperFunction,ComponentPad*
%ADD31C,2.600000*%
G04 #@! TD*
G04 #@! TA.AperFunction,ViaPad*
%ADD32C,0.800000*%
G04 #@! TD*
G04 #@! TA.AperFunction,ViaPad*
%ADD33C,0.400000*%
G04 #@! TD*
G04 #@! TA.AperFunction,Conductor*
%ADD34C,0.250000*%
G04 #@! TD*
G04 #@! TA.AperFunction,Conductor*
%ADD35C,0.500000*%
G04 #@! TD*
G04 #@! TA.AperFunction,Conductor*
%ADD36C,0.400000*%
G04 #@! TD*
G04 APERTURE END LIST*
D10*
D11*
X118608144Y-162844885D02*
X119179573Y-162844885D01*
X118493858Y-163187742D02*
X118893858Y-161987742D01*
X118893858Y-161987742D02*
X119293858Y-163187742D01*
X119522429Y-162387742D02*
X119979572Y-162387742D01*
X119693858Y-163187742D02*
X119693858Y-162159171D01*
X119693858Y-162159171D02*
X119751001Y-162044885D01*
X119751001Y-162044885D02*
X119865286Y-161987742D01*
X119865286Y-161987742D02*
X119979572Y-161987742D01*
X120208143Y-162387742D02*
X120665286Y-162387742D01*
X120379572Y-161987742D02*
X120379572Y-163016314D01*
X120379572Y-163016314D02*
X120436715Y-163130600D01*
X120436715Y-163130600D02*
X120551000Y-163187742D01*
X120551000Y-163187742D02*
X120665286Y-163187742D01*
X121522429Y-163130600D02*
X121408143Y-163187742D01*
X121408143Y-163187742D02*
X121179572Y-163187742D01*
X121179572Y-163187742D02*
X121065286Y-163130600D01*
X121065286Y-163130600D02*
X121008143Y-163016314D01*
X121008143Y-163016314D02*
X121008143Y-162559171D01*
X121008143Y-162559171D02*
X121065286Y-162444885D01*
X121065286Y-162444885D02*
X121179572Y-162387742D01*
X121179572Y-162387742D02*
X121408143Y-162387742D01*
X121408143Y-162387742D02*
X121522429Y-162444885D01*
X121522429Y-162444885D02*
X121579572Y-162559171D01*
X121579572Y-162559171D02*
X121579572Y-162673457D01*
X121579572Y-162673457D02*
X121008143Y-162787742D01*
X122093857Y-163187742D02*
X122093857Y-162387742D01*
X122093857Y-162616314D02*
X122151000Y-162502028D01*
X122151000Y-162502028D02*
X122208143Y-162444885D01*
X122208143Y-162444885D02*
X122322428Y-162387742D01*
X122322428Y-162387742D02*
X122436714Y-162387742D01*
X122836714Y-162387742D02*
X122836714Y-163187742D01*
X122836714Y-162502028D02*
X122893857Y-162444885D01*
X122893857Y-162444885D02*
X123008142Y-162387742D01*
X123008142Y-162387742D02*
X123179571Y-162387742D01*
X123179571Y-162387742D02*
X123293857Y-162444885D01*
X123293857Y-162444885D02*
X123351000Y-162559171D01*
X123351000Y-162559171D02*
X123351000Y-163187742D01*
X124093856Y-163187742D02*
X123979571Y-163130600D01*
X123979571Y-163130600D02*
X123922428Y-163073457D01*
X123922428Y-163073457D02*
X123865285Y-162959171D01*
X123865285Y-162959171D02*
X123865285Y-162616314D01*
X123865285Y-162616314D02*
X123922428Y-162502028D01*
X123922428Y-162502028D02*
X123979571Y-162444885D01*
X123979571Y-162444885D02*
X124093856Y-162387742D01*
X124093856Y-162387742D02*
X124265285Y-162387742D01*
X124265285Y-162387742D02*
X124379571Y-162444885D01*
X124379571Y-162444885D02*
X124436714Y-162502028D01*
X124436714Y-162502028D02*
X124493856Y-162616314D01*
X124493856Y-162616314D02*
X124493856Y-162959171D01*
X124493856Y-162959171D02*
X124436714Y-163073457D01*
X124436714Y-163073457D02*
X124379571Y-163130600D01*
X124379571Y-163130600D02*
X124265285Y-163187742D01*
X124265285Y-163187742D02*
X124093856Y-163187742D01*
X125179570Y-163187742D02*
X125065285Y-163130600D01*
X125065285Y-163130600D02*
X125008142Y-163073457D01*
X125008142Y-163073457D02*
X124950999Y-162959171D01*
X124950999Y-162959171D02*
X124950999Y-162616314D01*
X124950999Y-162616314D02*
X125008142Y-162502028D01*
X125008142Y-162502028D02*
X125065285Y-162444885D01*
X125065285Y-162444885D02*
X125179570Y-162387742D01*
X125179570Y-162387742D02*
X125350999Y-162387742D01*
X125350999Y-162387742D02*
X125465285Y-162444885D01*
X125465285Y-162444885D02*
X125522428Y-162502028D01*
X125522428Y-162502028D02*
X125579570Y-162616314D01*
X125579570Y-162616314D02*
X125579570Y-162959171D01*
X125579570Y-162959171D02*
X125522428Y-163073457D01*
X125522428Y-163073457D02*
X125465285Y-163130600D01*
X125465285Y-163130600D02*
X125350999Y-163187742D01*
X125350999Y-163187742D02*
X125179570Y-163187742D01*
X126093856Y-162387742D02*
X126093856Y-163187742D01*
X126093856Y-162502028D02*
X126150999Y-162444885D01*
X126150999Y-162444885D02*
X126265284Y-162387742D01*
X126265284Y-162387742D02*
X126436713Y-162387742D01*
X126436713Y-162387742D02*
X126550999Y-162444885D01*
X126550999Y-162444885D02*
X126608142Y-162559171D01*
X126608142Y-162559171D02*
X126608142Y-163187742D01*
X128665284Y-163187742D02*
X128093856Y-163187742D01*
X128093856Y-163187742D02*
X128093856Y-161987742D01*
X129579571Y-163187742D02*
X129579571Y-162559171D01*
X129579571Y-162559171D02*
X129522428Y-162444885D01*
X129522428Y-162444885D02*
X129408142Y-162387742D01*
X129408142Y-162387742D02*
X129179571Y-162387742D01*
X129179571Y-162387742D02*
X129065285Y-162444885D01*
X129579571Y-163130600D02*
X129465285Y-163187742D01*
X129465285Y-163187742D02*
X129179571Y-163187742D01*
X129179571Y-163187742D02*
X129065285Y-163130600D01*
X129065285Y-163130600D02*
X129008142Y-163016314D01*
X129008142Y-163016314D02*
X129008142Y-162902028D01*
X129008142Y-162902028D02*
X129065285Y-162787742D01*
X129065285Y-162787742D02*
X129179571Y-162730600D01*
X129179571Y-162730600D02*
X129465285Y-162730600D01*
X129465285Y-162730600D02*
X129579571Y-162673457D01*
X130150999Y-163187742D02*
X130150999Y-161987742D01*
X130150999Y-162444885D02*
X130265285Y-162387742D01*
X130265285Y-162387742D02*
X130493856Y-162387742D01*
X130493856Y-162387742D02*
X130608142Y-162444885D01*
X130608142Y-162444885D02*
X130665285Y-162502028D01*
X130665285Y-162502028D02*
X130722427Y-162616314D01*
X130722427Y-162616314D02*
X130722427Y-162959171D01*
X130722427Y-162959171D02*
X130665285Y-163073457D01*
X130665285Y-163073457D02*
X130608142Y-163130600D01*
X130608142Y-163130600D02*
X130493856Y-163187742D01*
X130493856Y-163187742D02*
X130265285Y-163187742D01*
X130265285Y-163187742D02*
X130150999Y-163130600D01*
X131179570Y-163130600D02*
X131293856Y-163187742D01*
X131293856Y-163187742D02*
X131522427Y-163187742D01*
X131522427Y-163187742D02*
X131636713Y-163130600D01*
X131636713Y-163130600D02*
X131693856Y-163016314D01*
X131693856Y-163016314D02*
X131693856Y-162959171D01*
X131693856Y-162959171D02*
X131636713Y-162844885D01*
X131636713Y-162844885D02*
X131522427Y-162787742D01*
X131522427Y-162787742D02*
X131350999Y-162787742D01*
X131350999Y-162787742D02*
X131236713Y-162730600D01*
X131236713Y-162730600D02*
X131179570Y-162616314D01*
X131179570Y-162616314D02*
X131179570Y-162559171D01*
X131179570Y-162559171D02*
X131236713Y-162444885D01*
X131236713Y-162444885D02*
X131350999Y-162387742D01*
X131350999Y-162387742D02*
X131522427Y-162387742D01*
X131522427Y-162387742D02*
X131636713Y-162444885D01*
D10*
D11*
X120951001Y-164762600D02*
X121865287Y-164762600D01*
X122836715Y-164591171D02*
X123008143Y-164648314D01*
X123008143Y-164648314D02*
X123065286Y-164705457D01*
X123065286Y-164705457D02*
X123122429Y-164819742D01*
X123122429Y-164819742D02*
X123122429Y-164991171D01*
X123122429Y-164991171D02*
X123065286Y-165105457D01*
X123065286Y-165105457D02*
X123008143Y-165162600D01*
X123008143Y-165162600D02*
X122893858Y-165219742D01*
X122893858Y-165219742D02*
X122436715Y-165219742D01*
X122436715Y-165219742D02*
X122436715Y-164019742D01*
X122436715Y-164019742D02*
X122836715Y-164019742D01*
X122836715Y-164019742D02*
X122951001Y-164076885D01*
X122951001Y-164076885D02*
X123008143Y-164134028D01*
X123008143Y-164134028D02*
X123065286Y-164248314D01*
X123065286Y-164248314D02*
X123065286Y-164362600D01*
X123065286Y-164362600D02*
X123008143Y-164476885D01*
X123008143Y-164476885D02*
X122951001Y-164534028D01*
X122951001Y-164534028D02*
X122836715Y-164591171D01*
X122836715Y-164591171D02*
X122436715Y-164591171D01*
X123636715Y-165219742D02*
X123636715Y-164419742D01*
X123636715Y-164648314D02*
X123693858Y-164534028D01*
X123693858Y-164534028D02*
X123751001Y-164476885D01*
X123751001Y-164476885D02*
X123865286Y-164419742D01*
X123865286Y-164419742D02*
X123979572Y-164419742D01*
X124836715Y-165162600D02*
X124722429Y-165219742D01*
X124722429Y-165219742D02*
X124493858Y-165219742D01*
X124493858Y-165219742D02*
X124379572Y-165162600D01*
X124379572Y-165162600D02*
X124322429Y-165048314D01*
X124322429Y-165048314D02*
X124322429Y-164591171D01*
X124322429Y-164591171D02*
X124379572Y-164476885D01*
X124379572Y-164476885D02*
X124493858Y-164419742D01*
X124493858Y-164419742D02*
X124722429Y-164419742D01*
X124722429Y-164419742D02*
X124836715Y-164476885D01*
X124836715Y-164476885D02*
X124893858Y-164591171D01*
X124893858Y-164591171D02*
X124893858Y-164705457D01*
X124893858Y-164705457D02*
X124322429Y-164819742D01*
X125865286Y-165162600D02*
X125751000Y-165219742D01*
X125751000Y-165219742D02*
X125522429Y-165219742D01*
X125522429Y-165219742D02*
X125408143Y-165162600D01*
X125408143Y-165162600D02*
X125351000Y-165048314D01*
X125351000Y-165048314D02*
X125351000Y-164591171D01*
X125351000Y-164591171D02*
X125408143Y-164476885D01*
X125408143Y-164476885D02*
X125522429Y-164419742D01*
X125522429Y-164419742D02*
X125751000Y-164419742D01*
X125751000Y-164419742D02*
X125865286Y-164476885D01*
X125865286Y-164476885D02*
X125922429Y-164591171D01*
X125922429Y-164591171D02*
X125922429Y-164705457D01*
X125922429Y-164705457D02*
X125351000Y-164819742D01*
X126322428Y-164419742D02*
X126951000Y-164419742D01*
X126951000Y-164419742D02*
X126322428Y-165219742D01*
X126322428Y-165219742D02*
X126951000Y-165219742D01*
X127865286Y-165162600D02*
X127751000Y-165219742D01*
X127751000Y-165219742D02*
X127522429Y-165219742D01*
X127522429Y-165219742D02*
X127408143Y-165162600D01*
X127408143Y-165162600D02*
X127351000Y-165048314D01*
X127351000Y-165048314D02*
X127351000Y-164591171D01*
X127351000Y-164591171D02*
X127408143Y-164476885D01*
X127408143Y-164476885D02*
X127522429Y-164419742D01*
X127522429Y-164419742D02*
X127751000Y-164419742D01*
X127751000Y-164419742D02*
X127865286Y-164476885D01*
X127865286Y-164476885D02*
X127922429Y-164591171D01*
X127922429Y-164591171D02*
X127922429Y-164705457D01*
X127922429Y-164705457D02*
X127351000Y-164819742D01*
X128436714Y-164762600D02*
X129351000Y-164762600D01*
D12*
D13*
X208117255Y-177611819D02*
X208307731Y-177611819D01*
X208307731Y-177611819D02*
X208402969Y-177659438D01*
X208402969Y-177659438D02*
X208498207Y-177754676D01*
X208498207Y-177754676D02*
X208545826Y-177945152D01*
X208545826Y-177945152D02*
X208545826Y-178278485D01*
X208545826Y-178278485D02*
X208498207Y-178468961D01*
X208498207Y-178468961D02*
X208402969Y-178564200D01*
X208402969Y-178564200D02*
X208307731Y-178611819D01*
X208307731Y-178611819D02*
X208117255Y-178611819D01*
X208117255Y-178611819D02*
X208022017Y-178564200D01*
X208022017Y-178564200D02*
X207926779Y-178468961D01*
X207926779Y-178468961D02*
X207879160Y-178278485D01*
X207879160Y-178278485D02*
X207879160Y-177945152D01*
X207879160Y-177945152D02*
X207926779Y-177754676D01*
X207926779Y-177754676D02*
X208022017Y-177659438D01*
X208022017Y-177659438D02*
X208117255Y-177611819D01*
X209402969Y-178564200D02*
X209307731Y-178611819D01*
X209307731Y-178611819D02*
X209117255Y-178611819D01*
X209117255Y-178611819D02*
X209022017Y-178564200D01*
X209022017Y-178564200D02*
X208974398Y-178516580D01*
X208974398Y-178516580D02*
X208926779Y-178421342D01*
X208926779Y-178421342D02*
X208926779Y-178135628D01*
X208926779Y-178135628D02*
X208974398Y-178040390D01*
X208974398Y-178040390D02*
X209022017Y-177992771D01*
X209022017Y-177992771D02*
X209117255Y-177945152D01*
X209117255Y-177945152D02*
X209307731Y-177945152D01*
X209307731Y-177945152D02*
X209402969Y-177992771D01*
X210212493Y-178564200D02*
X210117255Y-178611819D01*
X210117255Y-178611819D02*
X209926779Y-178611819D01*
X209926779Y-178611819D02*
X209831541Y-178564200D01*
X209831541Y-178564200D02*
X209783922Y-178468961D01*
X209783922Y-178468961D02*
X209783922Y-178088009D01*
X209783922Y-178088009D02*
X209831541Y-177992771D01*
X209831541Y-177992771D02*
X209926779Y-177945152D01*
X209926779Y-177945152D02*
X210117255Y-177945152D01*
X210117255Y-177945152D02*
X210212493Y-177992771D01*
X210212493Y-177992771D02*
X210260112Y-178088009D01*
X210260112Y-178088009D02*
X210260112Y-178183247D01*
X210260112Y-178183247D02*
X209783922Y-178278485D01*
X211117255Y-178611819D02*
X211117255Y-178088009D01*
X211117255Y-178088009D02*
X211069636Y-177992771D01*
X211069636Y-177992771D02*
X210974398Y-177945152D01*
X210974398Y-177945152D02*
X210783922Y-177945152D01*
X210783922Y-177945152D02*
X210688684Y-177992771D01*
X211117255Y-178564200D02*
X211022017Y-178611819D01*
X211022017Y-178611819D02*
X210783922Y-178611819D01*
X210783922Y-178611819D02*
X210688684Y-178564200D01*
X210688684Y-178564200D02*
X210641065Y-178468961D01*
X210641065Y-178468961D02*
X210641065Y-178373723D01*
X210641065Y-178373723D02*
X210688684Y-178278485D01*
X210688684Y-178278485D02*
X210783922Y-178230866D01*
X210783922Y-178230866D02*
X211022017Y-178230866D01*
X211022017Y-178230866D02*
X211117255Y-178183247D01*
X211593446Y-177945152D02*
X211593446Y-178611819D01*
X211593446Y-178040390D02*
X211641065Y-177992771D01*
X211641065Y-177992771D02*
X211736303Y-177945152D01*
X211736303Y-177945152D02*
X211879160Y-177945152D01*
X211879160Y-177945152D02*
X211974398Y-177992771D01*
X211974398Y-177992771D02*
X212022017Y-178088009D01*
X212022017Y-178088009D02*
X212022017Y-178611819D01*
X213164875Y-177945152D02*
X213355351Y-178611819D01*
X213355351Y-178611819D02*
X213545827Y-178135628D01*
X213545827Y-178135628D02*
X213736303Y-178611819D01*
X213736303Y-178611819D02*
X213926779Y-177945152D01*
X214736303Y-178611819D02*
X214736303Y-178088009D01*
X214736303Y-178088009D02*
X214688684Y-177992771D01*
X214688684Y-177992771D02*
X214593446Y-177945152D01*
X214593446Y-177945152D02*
X214402970Y-177945152D01*
X214402970Y-177945152D02*
X214307732Y-177992771D01*
X214736303Y-178564200D02*
X214641065Y-178611819D01*
X214641065Y-178611819D02*
X214402970Y-178611819D01*
X214402970Y-178611819D02*
X214307732Y-178564200D01*
X214307732Y-178564200D02*
X214260113Y-178468961D01*
X214260113Y-178468961D02*
X214260113Y-178373723D01*
X214260113Y-178373723D02*
X214307732Y-178278485D01*
X214307732Y-178278485D02*
X214402970Y-178230866D01*
X214402970Y-178230866D02*
X214641065Y-178230866D01*
X214641065Y-178230866D02*
X214736303Y-178183247D01*
X215117256Y-177945152D02*
X215355351Y-178611819D01*
X215355351Y-178611819D02*
X215593446Y-177945152D01*
X216355351Y-178564200D02*
X216260113Y-178611819D01*
X216260113Y-178611819D02*
X216069637Y-178611819D01*
X216069637Y-178611819D02*
X215974399Y-178564200D01*
X215974399Y-178564200D02*
X215926780Y-178468961D01*
X215926780Y-178468961D02*
X215926780Y-178088009D01*
X215926780Y-178088009D02*
X215974399Y-177992771D01*
X215974399Y-177992771D02*
X216069637Y-177945152D01*
X216069637Y-177945152D02*
X216260113Y-177945152D01*
X216260113Y-177945152D02*
X216355351Y-177992771D01*
X216355351Y-177992771D02*
X216402970Y-178088009D01*
X216402970Y-178088009D02*
X216402970Y-178183247D01*
X216402970Y-178183247D02*
X215926780Y-178278485D01*
X216783923Y-178564200D02*
X216879161Y-178611819D01*
X216879161Y-178611819D02*
X217069637Y-178611819D01*
X217069637Y-178611819D02*
X217164875Y-178564200D01*
X217164875Y-178564200D02*
X217212494Y-178468961D01*
X217212494Y-178468961D02*
X217212494Y-178421342D01*
X217212494Y-178421342D02*
X217164875Y-178326104D01*
X217164875Y-178326104D02*
X217069637Y-178278485D01*
X217069637Y-178278485D02*
X216926780Y-178278485D01*
X216926780Y-178278485D02*
X216831542Y-178230866D01*
X216831542Y-178230866D02*
X216783923Y-178135628D01*
X216783923Y-178135628D02*
X216783923Y-178088009D01*
X216783923Y-178088009D02*
X216831542Y-177992771D01*
X216831542Y-177992771D02*
X216926780Y-177945152D01*
X216926780Y-177945152D02*
X217069637Y-177945152D01*
X217069637Y-177945152D02*
X217164875Y-177992771D01*
X217688685Y-178564200D02*
X217688685Y-178611819D01*
X217688685Y-178611819D02*
X217641066Y-178707057D01*
X217641066Y-178707057D02*
X217593447Y-178754676D01*
X208069636Y-180221819D02*
X207974398Y-180174200D01*
X207974398Y-180174200D02*
X207926779Y-180126580D01*
X207926779Y-180126580D02*
X207879160Y-180031342D01*
X207879160Y-180031342D02*
X207879160Y-179745628D01*
X207879160Y-179745628D02*
X207926779Y-179650390D01*
X207926779Y-179650390D02*
X207974398Y-179602771D01*
X207974398Y-179602771D02*
X208069636Y-179555152D01*
X208069636Y-179555152D02*
X208212493Y-179555152D01*
X208212493Y-179555152D02*
X208307731Y-179602771D01*
X208307731Y-179602771D02*
X208355350Y-179650390D01*
X208355350Y-179650390D02*
X208402969Y-179745628D01*
X208402969Y-179745628D02*
X208402969Y-180031342D01*
X208402969Y-180031342D02*
X208355350Y-180126580D01*
X208355350Y-180126580D02*
X208307731Y-180174200D01*
X208307731Y-180174200D02*
X208212493Y-180221819D01*
X208212493Y-180221819D02*
X208069636Y-180221819D01*
X208831541Y-179555152D02*
X208831541Y-180555152D01*
X208831541Y-179602771D02*
X208926779Y-179555152D01*
X208926779Y-179555152D02*
X209117255Y-179555152D01*
X209117255Y-179555152D02*
X209212493Y-179602771D01*
X209212493Y-179602771D02*
X209260112Y-179650390D01*
X209260112Y-179650390D02*
X209307731Y-179745628D01*
X209307731Y-179745628D02*
X209307731Y-180031342D01*
X209307731Y-180031342D02*
X209260112Y-180126580D01*
X209260112Y-180126580D02*
X209212493Y-180174200D01*
X209212493Y-180174200D02*
X209117255Y-180221819D01*
X209117255Y-180221819D02*
X208926779Y-180221819D01*
X208926779Y-180221819D02*
X208831541Y-180174200D01*
X210117255Y-180174200D02*
X210022017Y-180221819D01*
X210022017Y-180221819D02*
X209831541Y-180221819D01*
X209831541Y-180221819D02*
X209736303Y-180174200D01*
X209736303Y-180174200D02*
X209688684Y-180078961D01*
X209688684Y-180078961D02*
X209688684Y-179698009D01*
X209688684Y-179698009D02*
X209736303Y-179602771D01*
X209736303Y-179602771D02*
X209831541Y-179555152D01*
X209831541Y-179555152D02*
X210022017Y-179555152D01*
X210022017Y-179555152D02*
X210117255Y-179602771D01*
X210117255Y-179602771D02*
X210164874Y-179698009D01*
X210164874Y-179698009D02*
X210164874Y-179793247D01*
X210164874Y-179793247D02*
X209688684Y-179888485D01*
X210593446Y-179555152D02*
X210593446Y-180221819D01*
X210593446Y-179650390D02*
X210641065Y-179602771D01*
X210641065Y-179602771D02*
X210736303Y-179555152D01*
X210736303Y-179555152D02*
X210879160Y-179555152D01*
X210879160Y-179555152D02*
X210974398Y-179602771D01*
X210974398Y-179602771D02*
X211022017Y-179698009D01*
X211022017Y-179698009D02*
X211022017Y-180221819D01*
X212164875Y-179555152D02*
X212355351Y-180221819D01*
X212355351Y-180221819D02*
X212545827Y-179745628D01*
X212545827Y-179745628D02*
X212736303Y-180221819D01*
X212736303Y-180221819D02*
X212926779Y-179555152D01*
X213307732Y-180221819D02*
X213307732Y-179555152D01*
X213307732Y-179221819D02*
X213260113Y-179269438D01*
X213260113Y-179269438D02*
X213307732Y-179317057D01*
X213307732Y-179317057D02*
X213355351Y-179269438D01*
X213355351Y-179269438D02*
X213307732Y-179221819D01*
X213307732Y-179221819D02*
X213307732Y-179317057D01*
X213783922Y-179555152D02*
X213783922Y-180221819D01*
X213783922Y-179650390D02*
X213831541Y-179602771D01*
X213831541Y-179602771D02*
X213926779Y-179555152D01*
X213926779Y-179555152D02*
X214069636Y-179555152D01*
X214069636Y-179555152D02*
X214164874Y-179602771D01*
X214164874Y-179602771D02*
X214212493Y-179698009D01*
X214212493Y-179698009D02*
X214212493Y-180221819D01*
X215117255Y-180221819D02*
X215117255Y-179221819D01*
X215117255Y-180174200D02*
X215022017Y-180221819D01*
X215022017Y-180221819D02*
X214831541Y-180221819D01*
X214831541Y-180221819D02*
X214736303Y-180174200D01*
X214736303Y-180174200D02*
X214688684Y-180126580D01*
X214688684Y-180126580D02*
X214641065Y-180031342D01*
X214641065Y-180031342D02*
X214641065Y-179745628D01*
X214641065Y-179745628D02*
X214688684Y-179650390D01*
X214688684Y-179650390D02*
X214736303Y-179602771D01*
X214736303Y-179602771D02*
X214831541Y-179555152D01*
X214831541Y-179555152D02*
X215022017Y-179555152D01*
X215022017Y-179555152D02*
X215117255Y-179602771D01*
X215736303Y-180221819D02*
X215641065Y-180174200D01*
X215641065Y-180174200D02*
X215593446Y-180126580D01*
X215593446Y-180126580D02*
X215545827Y-180031342D01*
X215545827Y-180031342D02*
X215545827Y-179745628D01*
X215545827Y-179745628D02*
X215593446Y-179650390D01*
X215593446Y-179650390D02*
X215641065Y-179602771D01*
X215641065Y-179602771D02*
X215736303Y-179555152D01*
X215736303Y-179555152D02*
X215879160Y-179555152D01*
X215879160Y-179555152D02*
X215974398Y-179602771D01*
X215974398Y-179602771D02*
X216022017Y-179650390D01*
X216022017Y-179650390D02*
X216069636Y-179745628D01*
X216069636Y-179745628D02*
X216069636Y-180031342D01*
X216069636Y-180031342D02*
X216022017Y-180126580D01*
X216022017Y-180126580D02*
X215974398Y-180174200D01*
X215974398Y-180174200D02*
X215879160Y-180221819D01*
X215879160Y-180221819D02*
X215736303Y-180221819D01*
X216402970Y-179555152D02*
X216593446Y-180221819D01*
X216593446Y-180221819D02*
X216783922Y-179745628D01*
X216783922Y-179745628D02*
X216974398Y-180221819D01*
X216974398Y-180221819D02*
X217164874Y-179555152D01*
X217593446Y-180174200D02*
X217593446Y-180221819D01*
X217593446Y-180221819D02*
X217545827Y-180317057D01*
X217545827Y-180317057D02*
X217498208Y-180364676D01*
X207926779Y-181831819D02*
X207926779Y-181165152D01*
X207926779Y-181260390D02*
X207974398Y-181212771D01*
X207974398Y-181212771D02*
X208069636Y-181165152D01*
X208069636Y-181165152D02*
X208212493Y-181165152D01*
X208212493Y-181165152D02*
X208307731Y-181212771D01*
X208307731Y-181212771D02*
X208355350Y-181308009D01*
X208355350Y-181308009D02*
X208355350Y-181831819D01*
X208355350Y-181308009D02*
X208402969Y-181212771D01*
X208402969Y-181212771D02*
X208498207Y-181165152D01*
X208498207Y-181165152D02*
X208641064Y-181165152D01*
X208641064Y-181165152D02*
X208736303Y-181212771D01*
X208736303Y-181212771D02*
X208783922Y-181308009D01*
X208783922Y-181308009D02*
X208783922Y-181831819D01*
X209402969Y-181831819D02*
X209307731Y-181784200D01*
X209307731Y-181784200D02*
X209260112Y-181736580D01*
X209260112Y-181736580D02*
X209212493Y-181641342D01*
X209212493Y-181641342D02*
X209212493Y-181355628D01*
X209212493Y-181355628D02*
X209260112Y-181260390D01*
X209260112Y-181260390D02*
X209307731Y-181212771D01*
X209307731Y-181212771D02*
X209402969Y-181165152D01*
X209402969Y-181165152D02*
X209545826Y-181165152D01*
X209545826Y-181165152D02*
X209641064Y-181212771D01*
X209641064Y-181212771D02*
X209688683Y-181260390D01*
X209688683Y-181260390D02*
X209736302Y-181355628D01*
X209736302Y-181355628D02*
X209736302Y-181641342D01*
X209736302Y-181641342D02*
X209688683Y-181736580D01*
X209688683Y-181736580D02*
X209641064Y-181784200D01*
X209641064Y-181784200D02*
X209545826Y-181831819D01*
X209545826Y-181831819D02*
X209402969Y-181831819D01*
X210307731Y-181831819D02*
X210212493Y-181784200D01*
X210212493Y-181784200D02*
X210164874Y-181736580D01*
X210164874Y-181736580D02*
X210117255Y-181641342D01*
X210117255Y-181641342D02*
X210117255Y-181355628D01*
X210117255Y-181355628D02*
X210164874Y-181260390D01*
X210164874Y-181260390D02*
X210212493Y-181212771D01*
X210212493Y-181212771D02*
X210307731Y-181165152D01*
X210307731Y-181165152D02*
X210450588Y-181165152D01*
X210450588Y-181165152D02*
X210545826Y-181212771D01*
X210545826Y-181212771D02*
X210593445Y-181260390D01*
X210593445Y-181260390D02*
X210641064Y-181355628D01*
X210641064Y-181355628D02*
X210641064Y-181641342D01*
X210641064Y-181641342D02*
X210593445Y-181736580D01*
X210593445Y-181736580D02*
X210545826Y-181784200D01*
X210545826Y-181784200D02*
X210450588Y-181831819D01*
X210450588Y-181831819D02*
X210307731Y-181831819D01*
X211069636Y-181165152D02*
X211069636Y-181831819D01*
X211069636Y-181260390D02*
X211117255Y-181212771D01*
X211117255Y-181212771D02*
X211212493Y-181165152D01*
X211212493Y-181165152D02*
X211355350Y-181165152D01*
X211355350Y-181165152D02*
X211450588Y-181212771D01*
X211450588Y-181212771D02*
X211498207Y-181308009D01*
X211498207Y-181308009D02*
X211498207Y-181831819D01*
X212117255Y-181831819D02*
X212022017Y-181784200D01*
X212022017Y-181784200D02*
X211974398Y-181688961D01*
X211974398Y-181688961D02*
X211974398Y-180831819D01*
X212498208Y-181831819D02*
X212498208Y-181165152D01*
X212498208Y-180831819D02*
X212450589Y-180879438D01*
X212450589Y-180879438D02*
X212498208Y-180927057D01*
X212498208Y-180927057D02*
X212545827Y-180879438D01*
X212545827Y-180879438D02*
X212498208Y-180831819D01*
X212498208Y-180831819D02*
X212498208Y-180927057D01*
X212831541Y-181165152D02*
X213212493Y-181165152D01*
X212974398Y-180831819D02*
X212974398Y-181688961D01*
X212974398Y-181688961D02*
X213022017Y-181784200D01*
X213022017Y-181784200D02*
X213117255Y-181831819D01*
X213117255Y-181831819D02*
X213212493Y-181831819D01*
X214307732Y-181831819D02*
X214307732Y-180831819D01*
X214307732Y-181212771D02*
X214402970Y-181165152D01*
X214402970Y-181165152D02*
X214593446Y-181165152D01*
X214593446Y-181165152D02*
X214688684Y-181212771D01*
X214688684Y-181212771D02*
X214736303Y-181260390D01*
X214736303Y-181260390D02*
X214783922Y-181355628D01*
X214783922Y-181355628D02*
X214783922Y-181641342D01*
X214783922Y-181641342D02*
X214736303Y-181736580D01*
X214736303Y-181736580D02*
X214688684Y-181784200D01*
X214688684Y-181784200D02*
X214593446Y-181831819D01*
X214593446Y-181831819D02*
X214402970Y-181831819D01*
X214402970Y-181831819D02*
X214307732Y-181784200D01*
X215212494Y-181831819D02*
X215212494Y-181165152D01*
X215212494Y-181355628D02*
X215260113Y-181260390D01*
X215260113Y-181260390D02*
X215307732Y-181212771D01*
X215307732Y-181212771D02*
X215402970Y-181165152D01*
X215402970Y-181165152D02*
X215498208Y-181165152D01*
X216212494Y-181784200D02*
X216117256Y-181831819D01*
X216117256Y-181831819D02*
X215926780Y-181831819D01*
X215926780Y-181831819D02*
X215831542Y-181784200D01*
X215831542Y-181784200D02*
X215783923Y-181688961D01*
X215783923Y-181688961D02*
X215783923Y-181308009D01*
X215783923Y-181308009D02*
X215831542Y-181212771D01*
X215831542Y-181212771D02*
X215926780Y-181165152D01*
X215926780Y-181165152D02*
X216117256Y-181165152D01*
X216117256Y-181165152D02*
X216212494Y-181212771D01*
X216212494Y-181212771D02*
X216260113Y-181308009D01*
X216260113Y-181308009D02*
X216260113Y-181403247D01*
X216260113Y-181403247D02*
X215783923Y-181498485D01*
X217069637Y-181784200D02*
X216974399Y-181831819D01*
X216974399Y-181831819D02*
X216783923Y-181831819D01*
X216783923Y-181831819D02*
X216688685Y-181784200D01*
X216688685Y-181784200D02*
X216641066Y-181688961D01*
X216641066Y-181688961D02*
X216641066Y-181308009D01*
X216641066Y-181308009D02*
X216688685Y-181212771D01*
X216688685Y-181212771D02*
X216783923Y-181165152D01*
X216783923Y-181165152D02*
X216974399Y-181165152D01*
X216974399Y-181165152D02*
X217069637Y-181212771D01*
X217069637Y-181212771D02*
X217117256Y-181308009D01*
X217117256Y-181308009D02*
X217117256Y-181403247D01*
X217117256Y-181403247D02*
X216641066Y-181498485D01*
X217450590Y-181165152D02*
X217974399Y-181165152D01*
X217974399Y-181165152D02*
X217450590Y-181831819D01*
X217450590Y-181831819D02*
X217974399Y-181831819D01*
X218736304Y-181784200D02*
X218641066Y-181831819D01*
X218641066Y-181831819D02*
X218450590Y-181831819D01*
X218450590Y-181831819D02*
X218355352Y-181784200D01*
X218355352Y-181784200D02*
X218307733Y-181688961D01*
X218307733Y-181688961D02*
X218307733Y-181308009D01*
X218307733Y-181308009D02*
X218355352Y-181212771D01*
X218355352Y-181212771D02*
X218450590Y-181165152D01*
X218450590Y-181165152D02*
X218641066Y-181165152D01*
X218641066Y-181165152D02*
X218736304Y-181212771D01*
X218736304Y-181212771D02*
X218783923Y-181308009D01*
X218783923Y-181308009D02*
X218783923Y-181403247D01*
X218783923Y-181403247D02*
X218307733Y-181498485D01*
X219212495Y-181736580D02*
X219260114Y-181784200D01*
X219260114Y-181784200D02*
X219212495Y-181831819D01*
X219212495Y-181831819D02*
X219164876Y-181784200D01*
X219164876Y-181784200D02*
X219212495Y-181736580D01*
X219212495Y-181736580D02*
X219212495Y-181831819D01*
D14*
X121376603Y-160255861D02*
X121732147Y-160273480D01*
X121951415Y-160301155D01*
X122067451Y-160346618D01*
X122113296Y-160417600D01*
X122115772Y-160428834D01*
X122112482Y-160499373D01*
X122049600Y-160543325D01*
X121896829Y-160566796D01*
X121623872Y-160575896D01*
X121380872Y-160577000D01*
X120997438Y-160566956D01*
X120718246Y-160539000D01*
X120572359Y-160496392D01*
X120560774Y-160484956D01*
X120541375Y-160368440D01*
X120659802Y-160292983D01*
X120925285Y-160255993D01*
X121347060Y-160254877D01*
X121376603Y-160255861D01*
G04 #@! TA.AperFunction,EtchedComponent*
G36*
X121376603Y-160255861D02*
G01*
X121732147Y-160273480D01*
X121951415Y-160301155D01*
X122067451Y-160346618D01*
X122113296Y-160417600D01*
X122115772Y-160428834D01*
X122112482Y-160499373D01*
X122049600Y-160543325D01*
X121896829Y-160566796D01*
X121623872Y-160575896D01*
X121380872Y-160577000D01*
X120997438Y-160566956D01*
X120718246Y-160539000D01*
X120572359Y-160496392D01*
X120560774Y-160484956D01*
X120541375Y-160368440D01*
X120659802Y-160292983D01*
X120925285Y-160255993D01*
X121347060Y-160254877D01*
X121376603Y-160255861D01*
G37*
G04 #@! TD.AperFunction*
X121940940Y-159562036D02*
X122353402Y-159566500D01*
X122639977Y-159576428D01*
X122822387Y-159593854D01*
X122922351Y-159620813D01*
X122961591Y-159659341D01*
X122962281Y-159709167D01*
X122938338Y-159761574D01*
X122874396Y-159800776D01*
X122747808Y-159829184D01*
X122535930Y-159849207D01*
X122216114Y-159863255D01*
X121765716Y-159873737D01*
X121353544Y-159880346D01*
X120737037Y-159884613D01*
X120257448Y-159877798D01*
X119924111Y-159860263D01*
X119746363Y-159832372D01*
X119719807Y-159816846D01*
X119688076Y-159731893D01*
X119723521Y-159667602D01*
X119843760Y-159621260D01*
X120066410Y-159590152D01*
X120409089Y-159571565D01*
X120889414Y-159562786D01*
X121380872Y-159561000D01*
X121940940Y-159562036D01*
G04 #@! TA.AperFunction,EtchedComponent*
G36*
X121940940Y-159562036D02*
G01*
X122353402Y-159566500D01*
X122639977Y-159576428D01*
X122822387Y-159593854D01*
X122922351Y-159620813D01*
X122961591Y-159659341D01*
X122962281Y-159709167D01*
X122938338Y-159761574D01*
X122874396Y-159800776D01*
X122747808Y-159829184D01*
X122535930Y-159849207D01*
X122216114Y-159863255D01*
X121765716Y-159873737D01*
X121353544Y-159880346D01*
X120737037Y-159884613D01*
X120257448Y-159877798D01*
X119924111Y-159860263D01*
X119746363Y-159832372D01*
X119719807Y-159816846D01*
X119688076Y-159731893D01*
X119723521Y-159667602D01*
X119843760Y-159621260D01*
X120066410Y-159590152D01*
X120409089Y-159571565D01*
X120889414Y-159562786D01*
X121380872Y-159561000D01*
X121940940Y-159562036D01*
G37*
G04 #@! TD.AperFunction*
X120763610Y-158813539D02*
X121481889Y-158817642D01*
X121495528Y-158817744D01*
X122308483Y-158824333D01*
X122968180Y-158831200D01*
X123490693Y-158839219D01*
X123892095Y-158849262D01*
X124188460Y-158862204D01*
X124395863Y-158878919D01*
X124530377Y-158900280D01*
X124608076Y-158927160D01*
X124645033Y-158960434D01*
X124655569Y-158989500D01*
X124654263Y-159026742D01*
X124624423Y-159057182D01*
X124550761Y-159081502D01*
X124417989Y-159100384D01*
X124210821Y-159114509D01*
X123913970Y-159124560D01*
X123512146Y-159131218D01*
X122990064Y-159135165D01*
X122332436Y-159137083D01*
X121523974Y-159137654D01*
X121333542Y-159137667D01*
X120482044Y-159136996D01*
X119785033Y-159134614D01*
X119227665Y-159129964D01*
X118795096Y-159122492D01*
X118472483Y-159111642D01*
X118244984Y-159096858D01*
X118097755Y-159077586D01*
X118015952Y-159053268D01*
X117984732Y-159023351D01*
X117983000Y-159012280D01*
X118054764Y-158896941D01*
X118173500Y-158840524D01*
X118299584Y-158830575D01*
X118574812Y-158822622D01*
X118979007Y-158816803D01*
X119491991Y-158813258D01*
X120093584Y-158812123D01*
X120763610Y-158813539D01*
G04 #@! TA.AperFunction,EtchedComponent*
G36*
X120763610Y-158813539D02*
G01*
X121481889Y-158817642D01*
X121495528Y-158817744D01*
X122308483Y-158824333D01*
X122968180Y-158831200D01*
X123490693Y-158839219D01*
X123892095Y-158849262D01*
X124188460Y-158862204D01*
X124395863Y-158878919D01*
X124530377Y-158900280D01*
X124608076Y-158927160D01*
X124645033Y-158960434D01*
X124655569Y-158989500D01*
X124654263Y-159026742D01*
X124624423Y-159057182D01*
X124550761Y-159081502D01*
X124417989Y-159100384D01*
X124210821Y-159114509D01*
X123913970Y-159124560D01*
X123512146Y-159131218D01*
X122990064Y-159135165D01*
X122332436Y-159137083D01*
X121523974Y-159137654D01*
X121333542Y-159137667D01*
X120482044Y-159136996D01*
X119785033Y-159134614D01*
X119227665Y-159129964D01*
X118795096Y-159122492D01*
X118472483Y-159111642D01*
X118244984Y-159096858D01*
X118097755Y-159077586D01*
X118015952Y-159053268D01*
X117984732Y-159023351D01*
X117983000Y-159012280D01*
X118054764Y-158896941D01*
X118173500Y-158840524D01*
X118299584Y-158830575D01*
X118574812Y-158822622D01*
X118979007Y-158816803D01*
X119491991Y-158813258D01*
X120093584Y-158812123D01*
X120763610Y-158813539D01*
G37*
G04 #@! TD.AperFunction*
X121737940Y-153004442D02*
X122032663Y-153026064D01*
X122264807Y-153073710D01*
X122487674Y-153156870D01*
X122655761Y-153235912D01*
X123147383Y-153553137D01*
X123599477Y-153984240D01*
X123966243Y-154479252D01*
X124165846Y-154883450D01*
X124311258Y-155460846D01*
X124342715Y-156078964D01*
X124266269Y-156692920D01*
X124087967Y-157257832D01*
X123813859Y-157728815D01*
X123776090Y-157775376D01*
X123642846Y-157946103D01*
X123573713Y-158058853D01*
X123571000Y-158070389D01*
X123650296Y-158089892D01*
X123866719Y-158105982D01*
X124188072Y-158117087D01*
X124582161Y-158121633D01*
X124620275Y-158121667D01*
X125081174Y-158125824D01*
X125397257Y-158140056D01*
X125592880Y-158167005D01*
X125692396Y-158209310D01*
X125715108Y-158240389D01*
X125727456Y-158376005D01*
X125710055Y-158409723D01*
X125618023Y-158419517D01*
X125372724Y-158428686D01*
X124990228Y-158437047D01*
X124486601Y-158444413D01*
X123877911Y-158450600D01*
X123180225Y-158455423D01*
X122409611Y-158458697D01*
X121582135Y-158460237D01*
X121313222Y-158460334D01*
X120344839Y-158460201D01*
X119532147Y-158459449D01*
X118861505Y-158457546D01*
X118319271Y-158453961D01*
X117891805Y-158448161D01*
X117565463Y-158439616D01*
X117326604Y-158427795D01*
X117161587Y-158412165D01*
X117056771Y-158392194D01*
X116998512Y-158367353D01*
X116973170Y-158337109D01*
X116967104Y-158300930D01*
X116967000Y-158291000D01*
X116976340Y-158221856D01*
X117022352Y-158174621D01*
X117132031Y-158145139D01*
X117332367Y-158129257D01*
X117650352Y-158122820D01*
X118067108Y-158121667D01*
X119167215Y-158121667D01*
X118872216Y-157735197D01*
X118672343Y-157416916D01*
X118498993Y-157046524D01*
X118439372Y-156874558D01*
X118349374Y-156366603D01*
X118340023Y-155795651D01*
X118407311Y-155232398D01*
X118547228Y-154747542D01*
X118561959Y-154713076D01*
X118832847Y-154256142D01*
X119217699Y-153813301D01*
X119665517Y-153436873D01*
X120004299Y-153233381D01*
X120248401Y-153122638D01*
X120468217Y-153053300D01*
X120716877Y-153015969D01*
X121047513Y-153001248D01*
X121327334Y-152999351D01*
X121737940Y-153004442D01*
G04 #@! TA.AperFunction,EtchedComponent*
G36*
X121737940Y-153004442D02*
G01*
X122032663Y-153026064D01*
X122264807Y-153073710D01*
X122487674Y-153156870D01*
X122655761Y-153235912D01*
X123147383Y-153553137D01*
X123599477Y-153984240D01*
X123966243Y-154479252D01*
X124165846Y-154883450D01*
X124311258Y-155460846D01*
X124342715Y-156078964D01*
X124266269Y-156692920D01*
X124087967Y-157257832D01*
X123813859Y-157728815D01*
X123776090Y-157775376D01*
X123642846Y-157946103D01*
X123573713Y-158058853D01*
X123571000Y-158070389D01*
X123650296Y-158089892D01*
X123866719Y-158105982D01*
X124188072Y-158117087D01*
X124582161Y-158121633D01*
X124620275Y-158121667D01*
X125081174Y-158125824D01*
X125397257Y-158140056D01*
X125592880Y-158167005D01*
X125692396Y-158209310D01*
X125715108Y-158240389D01*
X125727456Y-158376005D01*
X125710055Y-158409723D01*
X125618023Y-158419517D01*
X125372724Y-158428686D01*
X124990228Y-158437047D01*
X124486601Y-158444413D01*
X123877911Y-158450600D01*
X123180225Y-158455423D01*
X122409611Y-158458697D01*
X121582135Y-158460237D01*
X121313222Y-158460334D01*
X120344839Y-158460201D01*
X119532147Y-158459449D01*
X118861505Y-158457546D01*
X118319271Y-158453961D01*
X117891805Y-158448161D01*
X117565463Y-158439616D01*
X117326604Y-158427795D01*
X117161587Y-158412165D01*
X117056771Y-158392194D01*
X116998512Y-158367353D01*
X116973170Y-158337109D01*
X116967104Y-158300930D01*
X116967000Y-158291000D01*
X116976340Y-158221856D01*
X117022352Y-158174621D01*
X117132031Y-158145139D01*
X117332367Y-158129257D01*
X117650352Y-158122820D01*
X118067108Y-158121667D01*
X119167215Y-158121667D01*
X118872216Y-157735197D01*
X118672343Y-157416916D01*
X118498993Y-157046524D01*
X118439372Y-156874558D01*
X118349374Y-156366603D01*
X118340023Y-155795651D01*
X118407311Y-155232398D01*
X118547228Y-154747542D01*
X118561959Y-154713076D01*
X118832847Y-154256142D01*
X119217699Y-153813301D01*
X119665517Y-153436873D01*
X120004299Y-153233381D01*
X120248401Y-153122638D01*
X120468217Y-153053300D01*
X120716877Y-153015969D01*
X121047513Y-153001248D01*
X121327334Y-152999351D01*
X121737940Y-153004442D01*
G37*
G04 #@! TD.AperFunction*
G04 #@! TA.AperFunction,EtchedComponent*
G36*
X130291068Y-151835559D02*
G01*
X130317216Y-151843393D01*
X130317253Y-151843409D01*
X130326635Y-151848957D01*
X130348646Y-151862926D01*
X130382599Y-151884864D01*
X130427804Y-151914315D01*
X130483572Y-151950825D01*
X130549217Y-151993940D01*
X130624048Y-152043205D01*
X130707377Y-152098166D01*
X130798517Y-152158370D01*
X130896777Y-152223360D01*
X131001471Y-152292684D01*
X131111908Y-152365887D01*
X131227402Y-152442515D01*
X131347262Y-152522112D01*
X131470801Y-152604226D01*
X131528535Y-152642626D01*
X131679797Y-152743223D01*
X131818302Y-152835273D01*
X131944597Y-152919130D01*
X132059226Y-152995150D01*
X132162736Y-153063686D01*
X132255670Y-153125094D01*
X132338575Y-153179729D01*
X132411996Y-153227945D01*
X132476478Y-153270096D01*
X132532565Y-153306538D01*
X132580804Y-153337625D01*
X132621740Y-153363712D01*
X132655918Y-153385154D01*
X132683882Y-153402305D01*
X132706179Y-153415520D01*
X132723354Y-153425154D01*
X132735951Y-153431561D01*
X132744517Y-153435097D01*
X132748088Y-153436009D01*
X132783572Y-153444544D01*
X132827417Y-153459776D01*
X132874614Y-153479602D01*
X132920157Y-153501920D01*
X132958997Y-153524599D01*
X133002484Y-153557137D01*
X133046417Y-153597061D01*
X133086879Y-153640291D01*
X133119956Y-153682745D01*
X133136569Y-153709719D01*
X133141875Y-153722067D01*
X133152353Y-153748684D01*
X133167715Y-153788796D01*
X133187676Y-153841625D01*
X133211948Y-153906398D01*
X133240245Y-153982337D01*
X133272280Y-154068668D01*
X133307767Y-154164613D01*
X133346418Y-154269399D01*
X133387948Y-154382248D01*
X133432070Y-154502385D01*
X133478497Y-154629034D01*
X133526942Y-154761420D01*
X133577119Y-154898767D01*
X133628742Y-155040299D01*
X133666476Y-155143896D01*
X133729248Y-155316326D01*
X133786772Y-155474364D01*
X133839264Y-155618662D01*
X133886941Y-155749872D01*
X133930017Y-155868645D01*
X133968710Y-155975635D01*
X134003234Y-156071491D01*
X134033807Y-156156868D01*
X134060643Y-156232415D01*
X134083959Y-156298785D01*
X134103971Y-156356630D01*
X134120894Y-156406601D01*
X134134945Y-156449351D01*
X134146339Y-156485531D01*
X134155293Y-156515794D01*
X134162023Y-156540790D01*
X134166744Y-156561172D01*
X134169672Y-156577592D01*
X134171023Y-156590701D01*
X134171014Y-156601151D01*
X134169860Y-156609595D01*
X134167777Y-156616684D01*
X134164981Y-156623069D01*
X134161688Y-156629403D01*
X134159797Y-156632997D01*
X134154196Y-156641942D01*
X134140178Y-156663519D01*
X134118200Y-156697039D01*
X134088717Y-156741814D01*
X134052187Y-156797155D01*
X134009066Y-156862374D01*
X133959810Y-156936782D01*
X133904874Y-157019690D01*
X133844717Y-157110410D01*
X133779793Y-157208253D01*
X133710560Y-157312531D01*
X133637473Y-157422556D01*
X133560989Y-157537638D01*
X133481564Y-157657089D01*
X133399654Y-157780221D01*
X133366430Y-157830151D01*
X133268601Y-157977168D01*
X133179256Y-158111475D01*
X133098003Y-158233681D01*
X133024449Y-158344393D01*
X132958201Y-158444221D01*
X132898865Y-158533771D01*
X132846050Y-158613653D01*
X132799363Y-158684474D01*
X132758411Y-158746842D01*
X132722801Y-158801366D01*
X132692141Y-158848654D01*
X132666037Y-158889314D01*
X132644097Y-158923954D01*
X132625928Y-158953182D01*
X132611138Y-158977607D01*
X132599333Y-158997836D01*
X132590121Y-159014477D01*
X132583110Y-159028140D01*
X132577905Y-159039431D01*
X132574116Y-159048960D01*
X132571348Y-159057334D01*
X132569449Y-159064221D01*
X132537192Y-159159599D01*
X132491587Y-159247155D01*
X132433418Y-159325543D01*
X132391895Y-159368476D01*
X132383883Y-159376300D01*
X132377294Y-159383240D01*
X132371548Y-159389522D01*
X132366069Y-159395369D01*
X132360278Y-159401005D01*
X132353598Y-159406656D01*
X132345450Y-159412546D01*
X132335257Y-159418899D01*
X132322441Y-159425940D01*
X132306423Y-159433892D01*
X132286626Y-159442981D01*
X132262472Y-159453431D01*
X132233383Y-159465467D01*
X132198782Y-159479312D01*
X132158089Y-159495191D01*
X132110727Y-159513329D01*
X132056119Y-159533950D01*
X131993686Y-159557278D01*
X131922850Y-159583539D01*
X131843034Y-159612955D01*
X131753660Y-159645752D01*
X131654149Y-159682155D01*
X131543923Y-159722387D01*
X131422406Y-159766673D01*
X131289018Y-159815238D01*
X131143183Y-159868305D01*
X130984321Y-159926100D01*
X130811855Y-159988846D01*
X130625207Y-160056769D01*
X130533429Y-160090177D01*
X130383451Y-160144772D01*
X130247758Y-160194138D01*
X130125597Y-160238522D01*
X130016214Y-160278172D01*
X129918855Y-160313334D01*
X129832767Y-160344256D01*
X129757195Y-160371183D01*
X129691385Y-160394363D01*
X129634585Y-160414044D01*
X129586039Y-160430470D01*
X129544994Y-160443891D01*
X129510697Y-160454551D01*
X129482394Y-160462699D01*
X129459330Y-160468581D01*
X129440751Y-160472444D01*
X129425905Y-160474535D01*
X129414037Y-160475101D01*
X129404394Y-160474388D01*
X129396221Y-160472643D01*
X129388765Y-160470114D01*
X129381870Y-160467298D01*
X129373616Y-160462218D01*
X129352726Y-160448710D01*
X129319884Y-160427228D01*
X129275769Y-160398222D01*
X129221065Y-160362144D01*
X129156452Y-160319447D01*
X129082613Y-160270581D01*
X129000229Y-160215999D01*
X128909981Y-160156153D01*
X128812552Y-160091493D01*
X128708622Y-160022472D01*
X128598875Y-159949542D01*
X128483990Y-159873154D01*
X128364651Y-159793759D01*
X128241538Y-159711811D01*
X128185493Y-159674490D01*
X127121302Y-158965766D01*
X127675448Y-158965766D01*
X127681651Y-158970395D01*
X127700251Y-158983248D01*
X127730308Y-159003699D01*
X127770884Y-159031123D01*
X127821038Y-159064893D01*
X127879831Y-159104385D01*
X127946326Y-159148971D01*
X128019582Y-159198027D01*
X128098660Y-159250927D01*
X128182621Y-159307044D01*
X128270526Y-159365753D01*
X128361435Y-159426428D01*
X128454411Y-159488443D01*
X128548512Y-159551172D01*
X128642801Y-159613990D01*
X128736338Y-159676271D01*
X128828184Y-159737388D01*
X128917400Y-159796717D01*
X129003046Y-159853630D01*
X129084184Y-159907503D01*
X129159874Y-159957710D01*
X129229177Y-160003625D01*
X129291154Y-160044621D01*
X129344865Y-160080074D01*
X129389372Y-160109356D01*
X129423736Y-160131844D01*
X129447016Y-160146910D01*
X129458275Y-160153928D01*
X129459175Y-160154372D01*
X129467131Y-160151736D01*
X129489363Y-160143896D01*
X129525111Y-160131126D01*
X129573612Y-160113702D01*
X129634106Y-160091901D01*
X129705831Y-160065997D01*
X129788026Y-160036267D01*
X129879930Y-160002986D01*
X129980781Y-159966430D01*
X130089819Y-159926875D01*
X130206283Y-159884596D01*
X130329410Y-159839869D01*
X130458440Y-159792970D01*
X130592612Y-159744175D01*
X130731164Y-159693759D01*
X130793225Y-159671167D01*
X130933786Y-159619975D01*
X131070475Y-159570154D01*
X131202519Y-159521988D01*
X131329143Y-159475763D01*
X131449570Y-159431761D01*
X131563026Y-159390267D01*
X131668737Y-159351566D01*
X131765926Y-159315941D01*
X131853820Y-159283677D01*
X131931642Y-159255057D01*
X131998619Y-159230367D01*
X132053974Y-159209890D01*
X132096933Y-159193910D01*
X132126721Y-159182711D01*
X132142563Y-159176578D01*
X132144857Y-159175588D01*
X132183946Y-159147419D01*
X132219249Y-159106790D01*
X132248357Y-159057187D01*
X132268861Y-159002098D01*
X132271275Y-158992616D01*
X132273669Y-158978475D01*
X132277747Y-158949441D01*
X132283388Y-158906526D01*
X132290469Y-158850739D01*
X132298870Y-158783091D01*
X132308467Y-158704592D01*
X132319138Y-158616252D01*
X132330762Y-158519083D01*
X132343217Y-158414094D01*
X132356380Y-158302295D01*
X132370129Y-158184698D01*
X132384342Y-158062312D01*
X132398824Y-157936787D01*
X132514480Y-156931033D01*
X132483132Y-156824437D01*
X132407300Y-156586399D01*
X132322287Y-156356304D01*
X132228646Y-156135286D01*
X132126929Y-155924476D01*
X132017688Y-155725009D01*
X131901476Y-155538015D01*
X131778845Y-155364628D01*
X131758032Y-155337405D01*
X131719545Y-155290296D01*
X131672463Y-155236908D01*
X131619342Y-155179804D01*
X131562736Y-155121543D01*
X131505201Y-155064688D01*
X131449292Y-155011799D01*
X131397564Y-154965437D01*
X131352573Y-154928163D01*
X131340509Y-154918940D01*
X131213151Y-154832347D01*
X131084467Y-154761599D01*
X130954038Y-154706563D01*
X130821444Y-154667105D01*
X130686264Y-154643091D01*
X130548078Y-154634387D01*
X130455113Y-154636958D01*
X130360834Y-154642849D01*
X130467583Y-154696035D01*
X130617098Y-154778872D01*
X130756493Y-154873498D01*
X130886302Y-154980391D01*
X131007059Y-155100030D01*
X131119297Y-155232894D01*
X131214725Y-155366066D01*
X131288847Y-155487281D01*
X131359583Y-155621684D01*
X131425930Y-155766637D01*
X131486885Y-155919503D01*
X131541444Y-156077642D01*
X131588603Y-156238416D01*
X131627359Y-156399187D01*
X131648066Y-156505257D01*
X131658913Y-156580350D01*
X131666980Y-156664160D01*
X131672153Y-156752513D01*
X131674320Y-156841232D01*
X131673365Y-156926143D01*
X131669175Y-157003070D01*
X131663147Y-157057947D01*
X131638379Y-157192413D01*
X131603495Y-157319649D01*
X131557335Y-157442649D01*
X131498736Y-157564409D01*
X131426536Y-157687925D01*
X131407060Y-157718155D01*
X131305740Y-157859085D01*
X131189248Y-157995965D01*
X131057967Y-158128517D01*
X130912280Y-158256464D01*
X130752568Y-158379528D01*
X130579215Y-158497431D01*
X130392603Y-158609895D01*
X130193115Y-158716643D01*
X129981133Y-158817398D01*
X129769992Y-158906724D01*
X129712832Y-158928807D01*
X129646300Y-158953267D01*
X129573475Y-158979074D01*
X129497438Y-159005200D01*
X129421266Y-159030614D01*
X129348040Y-159054289D01*
X129280839Y-159075196D01*
X129222742Y-159092304D01*
X129181012Y-159103547D01*
X129092189Y-159125841D01*
X128385149Y-159044473D01*
X128280568Y-159032470D01*
X128180597Y-159021060D01*
X128086371Y-159010368D01*
X127999023Y-159000520D01*
X127919687Y-158991643D01*
X127849498Y-158983860D01*
X127789590Y-158977300D01*
X127741096Y-158972086D01*
X127705152Y-158968346D01*
X127682891Y-158966204D01*
X127675448Y-158965766D01*
X127121302Y-158965766D01*
X127005122Y-158888393D01*
X126933110Y-158869075D01*
X126850855Y-158840638D01*
X126772986Y-158801415D01*
X126701918Y-158753225D01*
X126640067Y-158697884D01*
X126589850Y-158637211D01*
X126561300Y-158589351D01*
X126556710Y-158578149D01*
X126546932Y-158552672D01*
X126532247Y-158513685D01*
X126512937Y-158461953D01*
X126489285Y-158398242D01*
X126461570Y-158323318D01*
X126430076Y-158237946D01*
X126395083Y-158142892D01*
X126356874Y-158038921D01*
X126315730Y-157926800D01*
X126271933Y-157807294D01*
X126225763Y-157681168D01*
X126177504Y-157549188D01*
X126127437Y-157412119D01*
X126075843Y-157270728D01*
X126035198Y-157159244D01*
X125973089Y-156988798D01*
X125916244Y-156832732D01*
X125864433Y-156690394D01*
X125817428Y-156561131D01*
X125774999Y-156444292D01*
X125736917Y-156339223D01*
X125702952Y-156245273D01*
X125672876Y-156161788D01*
X125646459Y-156088117D01*
X125623472Y-156023608D01*
X125603685Y-155967606D01*
X125586870Y-155919461D01*
X125572796Y-155878520D01*
X125561236Y-155844130D01*
X125551959Y-155815638D01*
X125544737Y-155792394D01*
X125539339Y-155773743D01*
X125537219Y-155765540D01*
X125854451Y-155765540D01*
X125857162Y-155773996D01*
X125865036Y-155796555D01*
X125877736Y-155832292D01*
X125894924Y-155880281D01*
X125916264Y-155939595D01*
X125941417Y-156009309D01*
X125970046Y-156088496D01*
X126001814Y-156176230D01*
X126036383Y-156271586D01*
X126073415Y-156373636D01*
X126112573Y-156481455D01*
X126153520Y-156594117D01*
X126195918Y-156710695D01*
X126239430Y-156830264D01*
X126283718Y-156951898D01*
X126328444Y-157074670D01*
X126373271Y-157197653D01*
X126417862Y-157319924D01*
X126461879Y-157440554D01*
X126504985Y-157558617D01*
X126546841Y-157673189D01*
X126587111Y-157783342D01*
X126625458Y-157888151D01*
X126661543Y-157986689D01*
X126695029Y-158078031D01*
X126725579Y-158161249D01*
X126752854Y-158235419D01*
X126776519Y-158299614D01*
X126796234Y-158352907D01*
X126811664Y-158394374D01*
X126822469Y-158423086D01*
X126828313Y-158438120D01*
X126828919Y-158439543D01*
X126854838Y-158479918D01*
X126893361Y-158516844D01*
X126941099Y-158547455D01*
X126973778Y-158561983D01*
X126999648Y-158569599D01*
X127036419Y-158577749D01*
X127079062Y-158585423D01*
X127119840Y-158591282D01*
X127137034Y-158593354D01*
X127168446Y-158597077D01*
X127212877Y-158602310D01*
X127269123Y-158608912D01*
X127335983Y-158616745D01*
X127412254Y-158625669D01*
X127496735Y-158635542D01*
X127588225Y-158646226D01*
X127685520Y-158657580D01*
X127787419Y-158669465D01*
X127892720Y-158681740D01*
X128000222Y-158694265D01*
X128108721Y-158706902D01*
X128217017Y-158719509D01*
X128323908Y-158731946D01*
X128428191Y-158744075D01*
X128528664Y-158755754D01*
X128624126Y-158766844D01*
X128713375Y-158777205D01*
X128795208Y-158786697D01*
X128868425Y-158795179D01*
X128931822Y-158802513D01*
X128984198Y-158808558D01*
X129024351Y-158813175D01*
X129051079Y-158816222D01*
X129063180Y-158817561D01*
X129063404Y-158817583D01*
X129074033Y-158815759D01*
X129097188Y-158810126D01*
X129130049Y-158801422D01*
X129169796Y-158790387D01*
X129197551Y-158782440D01*
X129345733Y-158736317D01*
X129500335Y-158682241D01*
X129657695Y-158621748D01*
X129814146Y-158556377D01*
X129966026Y-158487664D01*
X130109669Y-158417147D01*
X130241413Y-158346363D01*
X130254145Y-158339128D01*
X130400432Y-158250675D01*
X130540632Y-158156282D01*
X130672809Y-158057481D01*
X130795021Y-157955805D01*
X130905332Y-157852788D01*
X131001801Y-157749962D01*
X131007333Y-157743570D01*
X131102788Y-157623971D01*
X131183057Y-157504179D01*
X131248910Y-157382740D01*
X131301116Y-157258201D01*
X131340445Y-157129109D01*
X131346985Y-157101961D01*
X131353302Y-157066340D01*
X131358928Y-157019267D01*
X131363676Y-156964520D01*
X131367358Y-156905874D01*
X131369788Y-156847106D01*
X131370778Y-156791993D01*
X131370142Y-156744311D01*
X131367693Y-156707837D01*
X131366831Y-156701285D01*
X131361083Y-156662954D01*
X131335021Y-156722888D01*
X131266902Y-156860052D01*
X131184068Y-156992844D01*
X131087447Y-157120285D01*
X130977964Y-157241397D01*
X130856547Y-157355203D01*
X130724121Y-157460724D01*
X130581614Y-157556982D01*
X130498222Y-157606212D01*
X130380266Y-157667508D01*
X130249687Y-157726526D01*
X130109829Y-157782132D01*
X129964033Y-157833187D01*
X129815642Y-157878557D01*
X129667998Y-157917104D01*
X129524443Y-157947692D01*
X129461895Y-157958585D01*
X129409163Y-157965242D01*
X129344810Y-157970496D01*
X129273169Y-157974241D01*
X129198573Y-157976370D01*
X129125354Y-157976776D01*
X129057844Y-157975351D01*
X129000376Y-157971989D01*
X128983926Y-157970389D01*
X128834163Y-157945806D01*
X128686731Y-157905394D01*
X128541655Y-157849162D01*
X128398959Y-157777121D01*
X128283809Y-157706301D01*
X128214262Y-157658574D01*
X128151985Y-157612422D01*
X128093103Y-157564639D01*
X128033745Y-157512023D01*
X127970038Y-157451367D01*
X127940740Y-157422411D01*
X127864287Y-157343862D01*
X127794970Y-157267327D01*
X127729088Y-157188415D01*
X127662938Y-157102735D01*
X127610212Y-157030398D01*
X127514531Y-156888262D01*
X127420421Y-156732639D01*
X127329029Y-156566041D01*
X127241504Y-156390979D01*
X127158996Y-156209966D01*
X127082652Y-156025513D01*
X127013623Y-155840134D01*
X126953055Y-155656339D01*
X126905276Y-155488833D01*
X126881391Y-155397797D01*
X126884184Y-155373417D01*
X127190930Y-155373417D01*
X127205032Y-155429434D01*
X127215931Y-155469330D01*
X127231304Y-155520879D01*
X127250053Y-155580730D01*
X127271080Y-155645531D01*
X127293287Y-155711933D01*
X127315577Y-155776584D01*
X127336851Y-155836133D01*
X127349257Y-155869573D01*
X127434888Y-156082562D01*
X127526474Y-156284327D01*
X127623681Y-156474420D01*
X127726174Y-156652389D01*
X127833619Y-156817787D01*
X127945682Y-156970163D01*
X128062027Y-157109067D01*
X128182321Y-157234051D01*
X128306230Y-157344664D01*
X128433418Y-157440458D01*
X128563551Y-157520981D01*
X128587423Y-157533904D01*
X128712719Y-157591829D01*
X128841826Y-157634610D01*
X128973742Y-157662503D01*
X129004151Y-157666018D01*
X129044821Y-157668948D01*
X129092200Y-157671222D01*
X129142739Y-157672769D01*
X129192889Y-157673521D01*
X129239098Y-157673405D01*
X129277818Y-157672353D01*
X129305499Y-157670294D01*
X129312507Y-157669208D01*
X129320760Y-157666879D01*
X129323121Y-157663435D01*
X129318018Y-157657780D01*
X129303881Y-157648822D01*
X129279140Y-157635466D01*
X129242225Y-157616619D01*
X129223479Y-157607187D01*
X129076961Y-157525315D01*
X128939742Y-157431426D01*
X128811690Y-157325334D01*
X128692672Y-157206853D01*
X128582555Y-157075794D01*
X128481207Y-156931972D01*
X128388497Y-156775200D01*
X128304290Y-156605290D01*
X128228456Y-156422057D01*
X128181440Y-156285212D01*
X128518664Y-156285212D01*
X128521012Y-156315599D01*
X128527038Y-156345469D01*
X128537509Y-156378260D01*
X128553192Y-156417410D01*
X128574854Y-156466356D01*
X128583620Y-156485626D01*
X128662720Y-156642579D01*
X128750966Y-156787108D01*
X128848088Y-156918969D01*
X128953818Y-157037921D01*
X129067887Y-157143721D01*
X129190027Y-157236128D01*
X129319967Y-157314899D01*
X129457439Y-157379792D01*
X129602175Y-157430565D01*
X129646901Y-157442989D01*
X129757265Y-157467658D01*
X129863913Y-157483302D01*
X129960505Y-157489259D01*
X129995266Y-157488935D01*
X130022694Y-157486075D01*
X130049262Y-157479358D01*
X130081441Y-157467463D01*
X130095601Y-157461677D01*
X130250938Y-157391530D01*
X130392611Y-157315131D01*
X130522049Y-157231565D01*
X130640676Y-157139915D01*
X130743077Y-157046100D01*
X130847690Y-156931567D01*
X130938985Y-156809282D01*
X131016553Y-156680140D01*
X131079988Y-156545038D01*
X131128884Y-156404868D01*
X131162832Y-156260528D01*
X131181426Y-156112910D01*
X131183533Y-156077639D01*
X131188059Y-155981608D01*
X131154781Y-155902527D01*
X131078594Y-155738417D01*
X130993594Y-155587097D01*
X130899954Y-155448738D01*
X130797846Y-155323509D01*
X130687441Y-155211583D01*
X130568911Y-155113129D01*
X130442427Y-155028319D01*
X130308161Y-154957322D01*
X130166285Y-154900310D01*
X130136963Y-154890586D01*
X130082822Y-154874895D01*
X130022738Y-154860286D01*
X129959589Y-154847200D01*
X129896251Y-154836076D01*
X129835600Y-154827357D01*
X129780512Y-154821483D01*
X129733864Y-154818894D01*
X129698531Y-154820033D01*
X129687746Y-154821731D01*
X129662804Y-154829226D01*
X129626734Y-154842758D01*
X129582612Y-154860986D01*
X129533514Y-154882572D01*
X129482516Y-154906176D01*
X129432695Y-154930458D01*
X129402239Y-154946054D01*
X129256212Y-155030496D01*
X129122291Y-155124264D01*
X129000816Y-155226874D01*
X128892122Y-155337840D01*
X128796550Y-155456678D01*
X128714436Y-155582902D01*
X128646119Y-155716028D01*
X128591937Y-155855570D01*
X128552227Y-156001043D01*
X128527329Y-156151963D01*
X128521934Y-156209136D01*
X128519227Y-156250870D01*
X128518664Y-156285212D01*
X128181440Y-156285212D01*
X128160861Y-156225313D01*
X128105166Y-156029623D01*
X128065461Y-155853411D01*
X128039705Y-155684571D01*
X128028041Y-155522377D01*
X128029465Y-155435796D01*
X128331773Y-155435796D01*
X128332832Y-155546867D01*
X128335180Y-155577394D01*
X128341543Y-155645327D01*
X128395006Y-155537381D01*
X128476176Y-155390109D01*
X128569201Y-155252323D01*
X128674322Y-155123833D01*
X128791778Y-155004449D01*
X128921810Y-154893982D01*
X129064656Y-154792242D01*
X129220557Y-154699039D01*
X129389751Y-154614185D01*
X129572480Y-154537488D01*
X129729980Y-154481412D01*
X129894932Y-154431056D01*
X130054921Y-154390446D01*
X130208429Y-154359866D01*
X130353934Y-154339605D01*
X130489917Y-154329946D01*
X130539387Y-154329115D01*
X130694542Y-154336952D01*
X130847190Y-154360519D01*
X130997173Y-154399713D01*
X131144339Y-154454435D01*
X131288530Y-154524581D01*
X131429592Y-154610052D01*
X131567370Y-154710744D01*
X131701708Y-154826558D01*
X131832451Y-154957390D01*
X131959443Y-155103141D01*
X132082530Y-155263707D01*
X132174972Y-155398021D01*
X132270003Y-155551170D01*
X132362842Y-155717728D01*
X132452306Y-155895131D01*
X132537212Y-156080815D01*
X132616378Y-156272216D01*
X132688619Y-156466770D01*
X132741663Y-156626227D01*
X132767340Y-156709298D01*
X132787585Y-156778262D01*
X132802620Y-156833983D01*
X132812671Y-156877325D01*
X132817960Y-156909154D01*
X132818953Y-156924445D01*
X132818064Y-156935284D01*
X132815504Y-156960601D01*
X132811435Y-156998975D01*
X132806016Y-157048983D01*
X132799409Y-157109203D01*
X132791775Y-157178214D01*
X132783274Y-157254594D01*
X132774067Y-157336921D01*
X132764316Y-157423773D01*
X132754179Y-157513729D01*
X132743820Y-157605366D01*
X132733397Y-157697263D01*
X132723073Y-157787998D01*
X132713008Y-157876149D01*
X132703362Y-157960294D01*
X132694297Y-158039011D01*
X132685973Y-158110879D01*
X132678552Y-158174475D01*
X132672193Y-158228379D01*
X132667058Y-158271167D01*
X132663307Y-158301419D01*
X132662672Y-158306341D01*
X132662726Y-158310402D01*
X132664583Y-158311353D01*
X132668665Y-158308581D01*
X132675395Y-158301474D01*
X132685196Y-158289418D01*
X132698490Y-158271801D01*
X132715700Y-158248010D01*
X132737248Y-158217431D01*
X132763558Y-158179453D01*
X132795052Y-158133462D01*
X132832153Y-158078845D01*
X132875283Y-158014990D01*
X132924865Y-157941283D01*
X132981322Y-157857113D01*
X133045077Y-157761865D01*
X133116551Y-157654927D01*
X133196169Y-157535686D01*
X133255299Y-157447076D01*
X133338167Y-157322739D01*
X133416085Y-157205557D01*
X133488709Y-157096056D01*
X133555697Y-156994761D01*
X133616706Y-156902196D01*
X133671392Y-156818887D01*
X133719413Y-156745357D01*
X133760425Y-156682133D01*
X133794085Y-156629739D01*
X133820050Y-156588699D01*
X133837977Y-156559539D01*
X133847524Y-156542783D01*
X133849072Y-156538790D01*
X133845965Y-156529887D01*
X133837711Y-156506878D01*
X133824649Y-156470695D01*
X133807119Y-156422268D01*
X133785458Y-156362526D01*
X133760007Y-156292401D01*
X133731103Y-156212824D01*
X133699086Y-156124723D01*
X133664295Y-156029031D01*
X133627069Y-155926677D01*
X133587746Y-155818591D01*
X133546665Y-155705705D01*
X133504166Y-155588949D01*
X133460588Y-155469252D01*
X133416268Y-155347546D01*
X133371547Y-155224761D01*
X133326763Y-155101827D01*
X133282255Y-154979675D01*
X133238362Y-154859236D01*
X133195423Y-154741439D01*
X133153777Y-154627215D01*
X133113762Y-154517494D01*
X133075718Y-154413208D01*
X133039984Y-154315286D01*
X133006898Y-154224659D01*
X132976800Y-154142257D01*
X132950028Y-154069011D01*
X132926921Y-154005851D01*
X132907818Y-153953707D01*
X132893059Y-153913511D01*
X132882982Y-153886192D01*
X132877925Y-153872680D01*
X132877604Y-153871860D01*
X132858896Y-153841093D01*
X132828556Y-153809251D01*
X132790322Y-153779712D01*
X132750534Y-153757067D01*
X132742801Y-153753428D01*
X132735193Y-153750072D01*
X132726893Y-153746891D01*
X132717087Y-153743778D01*
X132704959Y-153740626D01*
X132689692Y-153737327D01*
X132670472Y-153733772D01*
X132646482Y-153729856D01*
X132616907Y-153725469D01*
X132580931Y-153720504D01*
X132537739Y-153714855D01*
X132486514Y-153708412D01*
X132426441Y-153701070D01*
X132356704Y-153692719D01*
X132276488Y-153683253D01*
X132184977Y-153672563D01*
X132081355Y-153660543D01*
X131964806Y-153647085D01*
X131834515Y-153632080D01*
X131689667Y-153615423D01*
X131588088Y-153603745D01*
X130633310Y-153493988D01*
X130575769Y-153508592D01*
X130533480Y-153520264D01*
X130479368Y-153536639D01*
X130416548Y-153556664D01*
X130348131Y-153579285D01*
X130277230Y-153603449D01*
X130206957Y-153628104D01*
X130140425Y-153652195D01*
X130080747Y-153674670D01*
X130054082Y-153685119D01*
X129849480Y-153771583D01*
X129656009Y-153863372D01*
X129474080Y-153960138D01*
X129304103Y-154061534D01*
X129146490Y-154167212D01*
X129001650Y-154276825D01*
X128869995Y-154390025D01*
X128751935Y-154506466D01*
X128647880Y-154625799D01*
X128558242Y-154747678D01*
X128483430Y-154871755D01*
X128423856Y-154997683D01*
X128389361Y-155093329D01*
X128360602Y-155203986D01*
X128341218Y-155319822D01*
X128331773Y-155435796D01*
X128029465Y-155435796D01*
X128030611Y-155366107D01*
X128047557Y-155215036D01*
X128079023Y-155068440D01*
X128125151Y-154925595D01*
X128186083Y-154785776D01*
X128261962Y-154648260D01*
X128352930Y-154512322D01*
X128421350Y-154423058D01*
X128534253Y-154293836D01*
X128662082Y-154167788D01*
X128803986Y-154045422D01*
X128959110Y-153927246D01*
X129126599Y-153813770D01*
X129305601Y-153705502D01*
X129495261Y-153602949D01*
X129694726Y-153506622D01*
X129903140Y-153417028D01*
X130119651Y-153334676D01*
X130343405Y-153260074D01*
X130406193Y-153240956D01*
X130438676Y-153231016D01*
X130466598Y-153222193D01*
X130491133Y-153214518D01*
X130513455Y-153208023D01*
X130534735Y-153202738D01*
X130556149Y-153198695D01*
X130578870Y-153195925D01*
X130604070Y-153194460D01*
X130632925Y-153194331D01*
X130666606Y-153195569D01*
X130706288Y-153198205D01*
X130753144Y-153202271D01*
X130808347Y-153207799D01*
X130873072Y-153214818D01*
X130948491Y-153223361D01*
X131035778Y-153233459D01*
X131136107Y-153245143D01*
X131250651Y-153258445D01*
X131307347Y-153264990D01*
X131411519Y-153276945D01*
X131511259Y-153288311D01*
X131605405Y-153298959D01*
X131692797Y-153308763D01*
X131772271Y-153317593D01*
X131842667Y-153325324D01*
X131902821Y-153331826D01*
X131951572Y-153336973D01*
X131987759Y-153340636D01*
X132010219Y-153342689D01*
X132017686Y-153343065D01*
X132012626Y-153338447D01*
X131994978Y-153325510D01*
X131965502Y-153304767D01*
X131924956Y-153276731D01*
X131874100Y-153241915D01*
X131813693Y-153200833D01*
X131744493Y-153153997D01*
X131667261Y-153101922D01*
X131582755Y-153045121D01*
X131491734Y-152984107D01*
X131394958Y-152919393D01*
X131293185Y-152851492D01*
X131187175Y-152780919D01*
X131138503Y-152748567D01*
X131030526Y-152676885D01*
X130926168Y-152607713D01*
X130826209Y-152541565D01*
X130731430Y-152478953D01*
X130642612Y-152420387D01*
X130560535Y-152366381D01*
X130485981Y-152317446D01*
X130419728Y-152274095D01*
X130362559Y-152236839D01*
X130315253Y-152206190D01*
X130278591Y-152182661D01*
X130253354Y-152166763D01*
X130240323Y-152159009D01*
X130238669Y-152158305D01*
X130230369Y-152161202D01*
X130207792Y-152169303D01*
X130171698Y-152182332D01*
X130122848Y-152200013D01*
X130062003Y-152222069D01*
X129989922Y-152248224D01*
X129907367Y-152278201D01*
X129815097Y-152311725D01*
X129713873Y-152348520D01*
X129604456Y-152388307D01*
X129487606Y-152430813D01*
X129364083Y-152475759D01*
X129234648Y-152522870D01*
X129100062Y-152571869D01*
X128961084Y-152622481D01*
X128890170Y-152648310D01*
X128723637Y-152708977D01*
X128571475Y-152764423D01*
X128433018Y-152814903D01*
X128307599Y-152860670D01*
X128194549Y-152901977D01*
X128093201Y-152939078D01*
X128002888Y-152972227D01*
X127922941Y-153001678D01*
X127852694Y-153027683D01*
X127791479Y-153050496D01*
X127738628Y-153070372D01*
X127693474Y-153087564D01*
X127655348Y-153102324D01*
X127623585Y-153114908D01*
X127597515Y-153125568D01*
X127576471Y-153134558D01*
X127559787Y-153142131D01*
X127546793Y-153148542D01*
X127536823Y-153154043D01*
X127529210Y-153158889D01*
X127523285Y-153163333D01*
X127518380Y-153167628D01*
X127515308Y-153170574D01*
X127479175Y-153213635D01*
X127451986Y-153264308D01*
X127432609Y-153325188D01*
X127421719Y-153384790D01*
X127419318Y-153403571D01*
X127415220Y-153437161D01*
X127409555Y-153484472D01*
X127402448Y-153544413D01*
X127394027Y-153615893D01*
X127384420Y-153697823D01*
X127373755Y-153789112D01*
X127362158Y-153888670D01*
X127349757Y-153995407D01*
X127336681Y-154108231D01*
X127323055Y-154226054D01*
X127309008Y-154347785D01*
X127300560Y-154421117D01*
X127190930Y-155373417D01*
X126884184Y-155373417D01*
X126961181Y-154701391D01*
X126973131Y-154597175D01*
X126984608Y-154497271D01*
X126995474Y-154402856D01*
X127005593Y-154315108D01*
X127014828Y-154235205D01*
X127023044Y-154164324D01*
X127030103Y-154103642D01*
X127035869Y-154054338D01*
X127040206Y-154017588D01*
X127042977Y-153994571D01*
X127043996Y-153986703D01*
X127045473Y-153973554D01*
X127044680Y-153970763D01*
X127039113Y-153978528D01*
X127025395Y-153998631D01*
X127004152Y-154030127D01*
X126976008Y-154072076D01*
X126941588Y-154123535D01*
X126901516Y-154183562D01*
X126856418Y-154251215D01*
X126806918Y-154325552D01*
X126753641Y-154405631D01*
X126697212Y-154490509D01*
X126638255Y-154579245D01*
X126577395Y-154670895D01*
X126515258Y-154764519D01*
X126452467Y-154859174D01*
X126389648Y-154953918D01*
X126327426Y-155047809D01*
X126266425Y-155139905D01*
X126207269Y-155229263D01*
X126150585Y-155314941D01*
X126096996Y-155395998D01*
X126047127Y-155471491D01*
X126001603Y-155540478D01*
X125961050Y-155602017D01*
X125926091Y-155655165D01*
X125897351Y-155698982D01*
X125875456Y-155732524D01*
X125861030Y-155754849D01*
X125854697Y-155765016D01*
X125854451Y-155765540D01*
X125537219Y-155765540D01*
X125535538Y-155759034D01*
X125533103Y-155747614D01*
X125531806Y-155738831D01*
X125531416Y-155732033D01*
X125531706Y-155726566D01*
X125531725Y-155726395D01*
X125532814Y-155720715D01*
X125535177Y-155713463D01*
X125539193Y-155704053D01*
X125545241Y-155691900D01*
X125553699Y-155676417D01*
X125564947Y-155657017D01*
X125579364Y-155633116D01*
X125597328Y-155604127D01*
X125619219Y-155569463D01*
X125645415Y-155528539D01*
X125676296Y-155480770D01*
X125712240Y-155425567D01*
X125753626Y-155362347D01*
X125800833Y-155290522D01*
X125854241Y-155209506D01*
X125914227Y-155118714D01*
X125981171Y-155017559D01*
X126055452Y-154905456D01*
X126137449Y-154781817D01*
X126227541Y-154646058D01*
X126326107Y-154497592D01*
X126331144Y-154490005D01*
X126429857Y-154341326D01*
X126520091Y-154205372D01*
X126602234Y-154081543D01*
X126676673Y-153969241D01*
X126743794Y-153867866D01*
X126803984Y-153776817D01*
X126857631Y-153695495D01*
X126905121Y-153623300D01*
X126946842Y-153559633D01*
X126983181Y-153503894D01*
X127014524Y-153455483D01*
X127041259Y-153413800D01*
X127063772Y-153378246D01*
X127082451Y-153348220D01*
X127097683Y-153323124D01*
X127109854Y-153302358D01*
X127119352Y-153285321D01*
X127126563Y-153271414D01*
X127131875Y-153260038D01*
X127135675Y-153250592D01*
X127138349Y-153242477D01*
X127139889Y-153236744D01*
X127165248Y-153159658D01*
X127201960Y-153084708D01*
X127247916Y-153014785D01*
X127301010Y-152952778D01*
X127359133Y-152901578D01*
X127406680Y-152870962D01*
X127413503Y-152867763D01*
X127425862Y-152862594D01*
X127444176Y-152855301D01*
X127468862Y-152845731D01*
X127500340Y-152833731D01*
X127539028Y-152819146D01*
X127585346Y-152801823D01*
X127639712Y-152781608D01*
X127702544Y-152758348D01*
X127774261Y-152731888D01*
X127855282Y-152702077D01*
X127946026Y-152668759D01*
X128046911Y-152631781D01*
X128158356Y-152590990D01*
X128280779Y-152546231D01*
X128414601Y-152497352D01*
X128560238Y-152444199D01*
X128718110Y-152386617D01*
X128888635Y-152324454D01*
X129072233Y-152257556D01*
X129269321Y-152185769D01*
X129480319Y-152108939D01*
X129705645Y-152026913D01*
X129875140Y-151965223D01*
X129948640Y-151938659D01*
X130018225Y-151913864D01*
X130082320Y-151891375D01*
X130139349Y-151871730D01*
X130187736Y-151855463D01*
X130225906Y-151843113D01*
X130252281Y-151835215D01*
X130265288Y-151832306D01*
X130265520Y-151832301D01*
X130291068Y-151835559D01*
G37*
G04 #@! TD.AperFunction*
D15*
X270416000Y-155831000D03*
X273216000Y-155831000D03*
X185712080Y-173946280D03*
X188512080Y-173946280D03*
X180373000Y-173956000D03*
X183173000Y-173956000D03*
X161831000Y-176278000D03*
X164631000Y-176278000D03*
D16*
X142722000Y-187523436D03*
X141322000Y-185098564D03*
D15*
X293524920Y-176364360D03*
X296324920Y-176364360D03*
X303146000Y-120723120D03*
X305946000Y-120723120D03*
X279524000Y-120733280D03*
X282324000Y-120733280D03*
X257208000Y-120779000D03*
X260008000Y-120779000D03*
X309069720Y-120712960D03*
X311869720Y-120712960D03*
X286285920Y-120733280D03*
X289085920Y-120733280D03*
X265039080Y-120804400D03*
X267839080Y-120804400D03*
X274480000Y-176364360D03*
X277280000Y-176364360D03*
X255948160Y-176399920D03*
X258748160Y-176399920D03*
X232628000Y-176220000D03*
X235428000Y-176220000D03*
X209257880Y-173925960D03*
X212057880Y-173925960D03*
X203735920Y-173925960D03*
X206535920Y-173925960D03*
X190406000Y-171325000D03*
X193206000Y-171325000D03*
X172041800Y-173941200D03*
X174841800Y-173941200D03*
X152690000Y-176278000D03*
X155490000Y-176278000D03*
X246540000Y-158206000D03*
X249340000Y-158206000D03*
X214940000Y-158206000D03*
X217740000Y-158206000D03*
X208440000Y-153706000D03*
X211240000Y-153706000D03*
X176740000Y-151406000D03*
X179540000Y-151406000D03*
X170340000Y-153606000D03*
X173140000Y-153606000D03*
X138540000Y-155806000D03*
X141340000Y-155806000D03*
X245808480Y-139453080D03*
X248608480Y-139453080D03*
X214740000Y-139406000D03*
X217540000Y-139406000D03*
X208540000Y-134606000D03*
X211340000Y-134606000D03*
X176940000Y-132006000D03*
X179740000Y-132006000D03*
X170340000Y-134606000D03*
X173140000Y-134606000D03*
X138940000Y-136806000D03*
X141740000Y-136806000D03*
X246140000Y-120206000D03*
X248940000Y-120206000D03*
X214840000Y-120144000D03*
X217640000Y-120144000D03*
X208694000Y-115826000D03*
X211494000Y-115826000D03*
X176640000Y-113106000D03*
X179440000Y-113106000D03*
X170140000Y-115506000D03*
X172940000Y-115506000D03*
X140228300Y-117806000D03*
X143028300Y-117806000D03*
D17*
X116052000Y-165882583D03*
X112802000Y-160253417D03*
D18*
X109299802Y-172246062D03*
X114452653Y-169271062D03*
X107299802Y-168781960D03*
X112452653Y-165806960D03*
X105799802Y-166183884D03*
X110952653Y-163208884D03*
X111565347Y-172670100D03*
X113687109Y-171445100D03*
D19*
X116704000Y-121031000D03*
X133742815Y-122426745D03*
X116704000Y-123571000D03*
X133742815Y-124966745D03*
X116704000Y-126111000D03*
X133742815Y-127506745D03*
X116704000Y-128651000D03*
X133742815Y-130046745D03*
X116704000Y-131191000D03*
X133742815Y-132586745D03*
X116704000Y-133731000D03*
X133742815Y-135126745D03*
X116704000Y-136271000D03*
X133742815Y-137666745D03*
X116704000Y-138811000D03*
X133742815Y-140206745D03*
X116704000Y-141351000D03*
X133742815Y-142746745D03*
X116704000Y-143891000D03*
X133742815Y-145286745D03*
X116704000Y-146431000D03*
X133742815Y-147826745D03*
X116704000Y-148971000D03*
X133742815Y-150366745D03*
X118502815Y-150366745D03*
X131944000Y-148971000D03*
X118502815Y-147826745D03*
X131944000Y-146431000D03*
X118502815Y-145286745D03*
X131944000Y-143891000D03*
X118502815Y-142746745D03*
X131944000Y-141351000D03*
X118502815Y-140206745D03*
X131944000Y-138811000D03*
X118502815Y-137666745D03*
X131944000Y-136271000D03*
X118502815Y-135126745D03*
X131944000Y-133731000D03*
X118502815Y-132586745D03*
X131944000Y-131191000D03*
X118502815Y-130046745D03*
X131944000Y-128651000D03*
X118502815Y-127506745D03*
X131944000Y-126111000D03*
X118502815Y-124966745D03*
X131944000Y-123571000D03*
X118502815Y-122426745D03*
X131944000Y-121031000D03*
D20*
X277398000Y-162640000D03*
D21*
X278898000Y-162660000D03*
D22*
X292698000Y-171440000D03*
D23*
X281798000Y-173640000D03*
D24*
X291498000Y-165199999D03*
D20*
X293098000Y-165240000D03*
X258348000Y-162640000D03*
D21*
X259848000Y-162660000D03*
D22*
X273648000Y-171440000D03*
D23*
X262748000Y-173640000D03*
D24*
X272448000Y-165199999D03*
D20*
X274048000Y-165240000D03*
X296448000Y-162640000D03*
D21*
X297948000Y-162660000D03*
D22*
X311748000Y-171440000D03*
D23*
X300848000Y-173640000D03*
D24*
X310548000Y-165199999D03*
D20*
X312148000Y-165240000D03*
X277398000Y-143590000D03*
D21*
X278898000Y-143610000D03*
D22*
X292698000Y-152390000D03*
D23*
X281798000Y-154590000D03*
D24*
X291498000Y-146149999D03*
D20*
X293098000Y-146190000D03*
X258348000Y-105490000D03*
D21*
X259848000Y-105510000D03*
D22*
X273648000Y-114290000D03*
D23*
X262748000Y-116490000D03*
D24*
X272448000Y-108049999D03*
D20*
X274048000Y-108090000D03*
X293098000Y-108090000D03*
D24*
X291498000Y-108049999D03*
D23*
X281798000Y-116490000D03*
D22*
X292698000Y-114290000D03*
D21*
X278898000Y-105510000D03*
D20*
X277398000Y-105490000D03*
X296448000Y-105490000D03*
D21*
X297948000Y-105510000D03*
D22*
X311748000Y-114290000D03*
D23*
X300848000Y-116490000D03*
D24*
X310548000Y-108049999D03*
D20*
X312148000Y-108090000D03*
X258348000Y-124540000D03*
D21*
X259848000Y-124560000D03*
D22*
X273648000Y-133340000D03*
D23*
X262748000Y-135540000D03*
D24*
X272448000Y-127099999D03*
D20*
X274048000Y-127140000D03*
X277398000Y-124540000D03*
D21*
X278898000Y-124560000D03*
D22*
X292698000Y-133340000D03*
D23*
X281798000Y-135540000D03*
D24*
X291498000Y-127099999D03*
D20*
X293098000Y-127140000D03*
X296448000Y-124540000D03*
D21*
X297948000Y-124560000D03*
D22*
X311748000Y-133340000D03*
D23*
X300848000Y-135540000D03*
D24*
X310548000Y-127099999D03*
D20*
X312148000Y-127140000D03*
X139140000Y-103106000D03*
D21*
X140640000Y-103126000D03*
D22*
X154440000Y-111906000D03*
D23*
X143540000Y-114106000D03*
D24*
X153240000Y-105665999D03*
D20*
X154840000Y-105706000D03*
X158190000Y-100725000D03*
D21*
X159690000Y-100745000D03*
D22*
X173490000Y-109525000D03*
D23*
X162590000Y-111725000D03*
D24*
X172290000Y-103284999D03*
D20*
X173890000Y-103325000D03*
X177240000Y-98340000D03*
D21*
X178740000Y-98360000D03*
D22*
X192540000Y-107140000D03*
D23*
X181640000Y-109340000D03*
D24*
X191340000Y-100899999D03*
D20*
X192940000Y-100940000D03*
X196290000Y-100725000D03*
D21*
X197790000Y-100745000D03*
D22*
X211590000Y-109525000D03*
D23*
X200690000Y-111725000D03*
D24*
X210390000Y-103284999D03*
D20*
X211990000Y-103325000D03*
X215340000Y-105490000D03*
D21*
X216840000Y-105510000D03*
D22*
X230640000Y-114290000D03*
D23*
X219740000Y-116490000D03*
D24*
X229440000Y-108049999D03*
D20*
X231040000Y-108090000D03*
X234390000Y-105490000D03*
D21*
X235890000Y-105510000D03*
D22*
X249690000Y-114290000D03*
D23*
X238790000Y-116490000D03*
D24*
X248490000Y-108049999D03*
D20*
X250090000Y-108090000D03*
X139140000Y-122127000D03*
D21*
X140640000Y-122147000D03*
D22*
X154440000Y-130927000D03*
D23*
X143540000Y-133127000D03*
D24*
X153240000Y-124686999D03*
D20*
X154840000Y-124727000D03*
X158190000Y-119790200D03*
D21*
X159690000Y-119810200D03*
D22*
X173490000Y-128590200D03*
D23*
X162590000Y-130790200D03*
D24*
X172290000Y-122350199D03*
D20*
X173890000Y-122390200D03*
X177240000Y-117428000D03*
D21*
X178740000Y-117448000D03*
D22*
X192540000Y-126228000D03*
D23*
X181640000Y-128428000D03*
D24*
X191340000Y-119987999D03*
D20*
X192940000Y-120028000D03*
X196290000Y-119841000D03*
D21*
X197790000Y-119861000D03*
D22*
X211590000Y-128641000D03*
D23*
X200690000Y-130841000D03*
D24*
X210390000Y-122400999D03*
D20*
X211990000Y-122441000D03*
X215340000Y-124540000D03*
D21*
X216840000Y-124560000D03*
D22*
X230640000Y-133340000D03*
D23*
X219740000Y-135540000D03*
D24*
X229440000Y-127099999D03*
D20*
X231040000Y-127140000D03*
X250090000Y-127140000D03*
D24*
X248490000Y-127099999D03*
D23*
X238790000Y-135540000D03*
D22*
X249690000Y-133340000D03*
D21*
X235890000Y-124560000D03*
D20*
X234390000Y-124540000D03*
X139140000Y-141177000D03*
D21*
X140640000Y-141197000D03*
D22*
X154440000Y-149977000D03*
D23*
X143540000Y-152177000D03*
D24*
X153240000Y-143736999D03*
D20*
X154840000Y-143777000D03*
X158190000Y-138825000D03*
D21*
X159690000Y-138845000D03*
D22*
X173490000Y-147625000D03*
D23*
X162590000Y-149825000D03*
D24*
X172290000Y-141384999D03*
D20*
X173890000Y-141425000D03*
X177240000Y-136440000D03*
D21*
X178740000Y-136460000D03*
D22*
X192540000Y-145240000D03*
D23*
X181640000Y-147440000D03*
D24*
X191340000Y-138999999D03*
D20*
X192940000Y-139040000D03*
X196290000Y-138825000D03*
D21*
X197790000Y-138845000D03*
D22*
X211590000Y-147625000D03*
D23*
X200690000Y-149825000D03*
D24*
X210390000Y-141384999D03*
D20*
X211990000Y-141425000D03*
X215340000Y-143590000D03*
D21*
X216840000Y-143610000D03*
D22*
X230640000Y-152390000D03*
D23*
X219740000Y-154590000D03*
D24*
X229440000Y-146149999D03*
D20*
X231040000Y-146190000D03*
X234390000Y-143590000D03*
D21*
X235890000Y-143610000D03*
D22*
X249690000Y-152390000D03*
D23*
X238790000Y-154590000D03*
D24*
X248490000Y-146149999D03*
D20*
X250090000Y-146190000D03*
X139140000Y-160256000D03*
D21*
X140640000Y-160276000D03*
D22*
X154440000Y-169056000D03*
D23*
X143540000Y-171256000D03*
D24*
X153240000Y-162815999D03*
D20*
X154840000Y-162856000D03*
X158190000Y-157875000D03*
D21*
X159690000Y-157895000D03*
D22*
X173490000Y-166675000D03*
D23*
X162590000Y-168875000D03*
D24*
X172290000Y-160434999D03*
D20*
X173890000Y-160475000D03*
X177240000Y-155490000D03*
D21*
X178740000Y-155510000D03*
D22*
X192540000Y-164290000D03*
D23*
X181640000Y-166490000D03*
D24*
X191340000Y-158049999D03*
D20*
X192940000Y-158090000D03*
X196290000Y-157875000D03*
D21*
X197790000Y-157895000D03*
D22*
X211590000Y-166675000D03*
D23*
X200690000Y-168875000D03*
D24*
X210390000Y-160434999D03*
D20*
X211990000Y-160475000D03*
X215340000Y-162640000D03*
D21*
X216840000Y-162660000D03*
D22*
X230640000Y-171440000D03*
D23*
X219740000Y-173640000D03*
D24*
X229440000Y-165199999D03*
D20*
X231040000Y-165240000D03*
X234390000Y-162640000D03*
D21*
X235890000Y-162660000D03*
D22*
X249690000Y-171440000D03*
D23*
X238790000Y-173640000D03*
D24*
X248490000Y-165199999D03*
D20*
X250090000Y-165240000D03*
D25*
X130379730Y-178188617D03*
D26*
X131112409Y-179497655D03*
D27*
X130408706Y-195838806D03*
D28*
X123053450Y-187499129D03*
D29*
X135212705Y-191679575D03*
D25*
X135978064Y-193085216D03*
D20*
X148590000Y-181874000D03*
D21*
X150090000Y-181894000D03*
D22*
X163890000Y-190674000D03*
D23*
X152990000Y-192874000D03*
D24*
X162690000Y-184433999D03*
D20*
X164290000Y-184474000D03*
X167640000Y-179490000D03*
D21*
X169140000Y-179510000D03*
D22*
X182940000Y-188290000D03*
D23*
X172040000Y-190490000D03*
D24*
X181740000Y-182049999D03*
D20*
X183340000Y-182090000D03*
X186690000Y-179490000D03*
D21*
X188190000Y-179510000D03*
D22*
X201990000Y-188290000D03*
D23*
X191090000Y-190490000D03*
D24*
X200790000Y-182049999D03*
D20*
X202390000Y-182090000D03*
D19*
X309168255Y-155849815D03*
X306628255Y-155849815D03*
X304088255Y-155849815D03*
X301548255Y-155849815D03*
X299008255Y-155849815D03*
X296468255Y-155849815D03*
X309168255Y-140609815D03*
X306628255Y-140609815D03*
X304088255Y-140609815D03*
X301548255Y-140609815D03*
X299008255Y-140609815D03*
X296468255Y-140609815D03*
D17*
X271816000Y-145596000D03*
X271816000Y-152096000D03*
D30*
X275104000Y-139161000D03*
X232074000Y-139141000D03*
X232074000Y-158201000D03*
X193934000Y-133251000D03*
X193934000Y-152361000D03*
X155894000Y-154501000D03*
X155894000Y-135431000D03*
X142474000Y-179611000D03*
D31*
X288540000Y-159306000D03*
X253286000Y-140506000D03*
X279182000Y-159260000D03*
X253286000Y-145106000D03*
X284040000Y-159306000D03*
X253286000Y-135906000D03*
D30*
X275040000Y-120106000D03*
X294140000Y-120306000D03*
X155940000Y-116206000D03*
X193940000Y-114406000D03*
X232140000Y-120006000D03*
D32*
X120163255Y-130035745D03*
D33*
X120163255Y-145761745D03*
D32*
X120163255Y-151030745D03*
X120023998Y-126101000D03*
X121023999Y-144915999D03*
X254875115Y-148381710D03*
X251740006Y-148206000D03*
D33*
X130427996Y-128820000D03*
D32*
X142940000Y-176006000D03*
X251340000Y-176206000D03*
X130327998Y-126120000D03*
D33*
X130528000Y-123801000D03*
X284932000Y-152500000D03*
X290614000Y-160891000D03*
X270528000Y-118320000D03*
X284932000Y-114400000D03*
X284424000Y-171296000D03*
X292044000Y-148436000D03*
X292044000Y-167740000D03*
X254797998Y-133606000D03*
X130428000Y-146620000D03*
X292044000Y-110336000D03*
X292044000Y-129640000D03*
X136364989Y-147756989D03*
X284932000Y-133196000D03*
X251740000Y-133606000D03*
X290614000Y-157831000D03*
X136903019Y-139438390D03*
X273248000Y-167740000D03*
X265628000Y-114400000D03*
X265628000Y-171296000D03*
X265628000Y-133450000D03*
X277040000Y-160806002D03*
X130428000Y-144020000D03*
X273248000Y-110336000D03*
X273502000Y-128878000D03*
X251340000Y-138406000D03*
X254889000Y-138430000D03*
X277040000Y-157406000D03*
X303728000Y-133196000D03*
X303728000Y-171296000D03*
X135864979Y-150356979D03*
X310840000Y-167740000D03*
X291904000Y-160881000D03*
X251784000Y-132661000D03*
X303728000Y-114400000D03*
X130428000Y-149120000D03*
X291904000Y-157811000D03*
X311348000Y-129132000D03*
X254464004Y-132641000D03*
X311348000Y-110336000D03*
X251239997Y-142405997D03*
X255240000Y-142506000D03*
X269939994Y-118806000D03*
X256940002Y-118806000D03*
X248940000Y-121806000D03*
X138974000Y-108939000D03*
X256399000Y-122306000D03*
X300040000Y-121106000D03*
X270278000Y-122220000D03*
X251294004Y-143206000D03*
X255306000Y-143257998D03*
X157290000Y-105284000D03*
X250940000Y-146806000D03*
X255064000Y-146806002D03*
X175769010Y-102951200D03*
X275740000Y-157406000D03*
X237740000Y-176806000D03*
X129540002Y-140206000D03*
X275740000Y-160806004D03*
X255054000Y-147606000D03*
X251499914Y-147405997D03*
X195390000Y-105609000D03*
X128940000Y-142735745D03*
X215428000Y-111225000D03*
X234224000Y-111225000D03*
X139482000Y-127989000D03*
X158024000Y-125068000D03*
X178217000Y-124052000D03*
X196314500Y-125766500D03*
X215301000Y-129894000D03*
X234478000Y-130021000D03*
X138974000Y-147801000D03*
X158490000Y-145176000D03*
X177074000Y-141959000D03*
X196124000Y-143864000D03*
X215745500Y-149896500D03*
X233490000Y-148210000D03*
X140340000Y-166956000D03*
X137831000Y-160374000D03*
X157135000Y-157961000D03*
X156890000Y-164320000D03*
X176340000Y-162251000D03*
X176058000Y-155929000D03*
X196251000Y-164311000D03*
X228940000Y-175606000D03*
X213523000Y-162914000D03*
X232954000Y-162533000D03*
X153198000Y-126846000D03*
X146213000Y-130783000D03*
X154849000Y-160501000D03*
X138339000Y-192124000D03*
X146340000Y-111860000D03*
X136839989Y-146420000D03*
X126274000Y-188568000D03*
X146213000Y-168883000D03*
X146340000Y-149960000D03*
X154849000Y-141197000D03*
X153452000Y-107415000D03*
X130528000Y-131419996D03*
X165517000Y-147547000D03*
X173137000Y-105764000D03*
X155738000Y-190727000D03*
X165517000Y-128751000D03*
X163993000Y-181837000D03*
X172883000Y-143531882D03*
X173010000Y-124814000D03*
X173899000Y-158342000D03*
X165390000Y-166597000D03*
X165390000Y-109574000D03*
X183297000Y-180059000D03*
X191933000Y-141197000D03*
X130528000Y-134020000D03*
X184567000Y-145134000D03*
X191640000Y-122616000D03*
X184567000Y-126211000D03*
X184313000Y-107161000D03*
X184313000Y-164057000D03*
X191552000Y-102843000D03*
X175380000Y-188230000D03*
X193076000Y-155929000D03*
X202340000Y-178805998D03*
X210729000Y-124560000D03*
X193965000Y-188314000D03*
X203490000Y-166597000D03*
X211237000Y-105637000D03*
X203490000Y-128624000D03*
X211237000Y-143229000D03*
X203617000Y-147674000D03*
X203744000Y-109193000D03*
X130427999Y-136420000D03*
X211237000Y-162533000D03*
X222667000Y-152373000D03*
X231430000Y-162914000D03*
X229779000Y-148182000D03*
X222540000Y-133323000D03*
X222667000Y-171423000D03*
X222413000Y-114273000D03*
X229906000Y-129132000D03*
X130428000Y-138920000D03*
X229906000Y-110590000D03*
X241463000Y-152500000D03*
X249083000Y-110209000D03*
X248702000Y-129767000D03*
X130428000Y-141520000D03*
X241844000Y-171042000D03*
X250048990Y-163041000D03*
X241590000Y-114400000D03*
X241717000Y-133450000D03*
X249083000Y-148436000D03*
X258008000Y-167740000D03*
X276804000Y-168248000D03*
X276804000Y-168248000D03*
X258516000Y-111352000D03*
X277312000Y-110844000D03*
X296108000Y-110844000D03*
X296108000Y-110844000D03*
X257448000Y-129692000D03*
X277698000Y-130778000D03*
X296616000Y-130148000D03*
X296108000Y-168248000D03*
X129449000Y-177138000D03*
X124389475Y-179728425D03*
X147483000Y-182218000D03*
X166660000Y-179805000D03*
X185790000Y-184708000D03*
X277312000Y-149452000D03*
X130528000Y-121220004D03*
D34*
X304713120Y-122206000D02*
X306196000Y-120723120D01*
X299140000Y-122206000D02*
X304713120Y-122206000D01*
X300422880Y-120723120D02*
X302896000Y-120723120D01*
X300040000Y-121106000D02*
X300422880Y-120723120D01*
X282574000Y-120884000D02*
X282574000Y-120733280D01*
X278898000Y-124560000D02*
X282574000Y-120884000D01*
X275334000Y-123644010D02*
X276403990Y-124714000D01*
X271702010Y-123644010D02*
X275334000Y-123644010D01*
X276403990Y-124714000D02*
X276403990Y-133969990D01*
X276403990Y-123644010D02*
X276403990Y-124714000D01*
X276403990Y-123603290D02*
X279274000Y-120733280D01*
X276403990Y-123644010D02*
X276403990Y-123603290D01*
X273648000Y-114290000D02*
X268089080Y-119848920D01*
X268089080Y-119848920D02*
X268089080Y-120804400D01*
X264752700Y-120768020D02*
X264752700Y-120804400D01*
X256940002Y-118806000D02*
X262790680Y-118806000D01*
X262790680Y-118806000D02*
X264752700Y-120768020D01*
D35*
X138085798Y-171151798D02*
X142940000Y-176006000D01*
X121321215Y-171151798D02*
X138085798Y-171151798D01*
X116052000Y-165882583D02*
X121321215Y-171151798D01*
X115976377Y-165806960D02*
X116052000Y-165882583D01*
X112452653Y-165806960D02*
X115976377Y-165806960D01*
X112834000Y-170591991D02*
X113687109Y-171445100D01*
X112834000Y-166188307D02*
X112834000Y-170591991D01*
X112452653Y-165806960D02*
X112834000Y-166188307D01*
X121023999Y-151301372D02*
X116052000Y-156273371D01*
X121023999Y-144915999D02*
X121023999Y-151301372D01*
X116052000Y-156273371D02*
X116052000Y-165882583D01*
X120163255Y-151030745D02*
X120163255Y-145761745D01*
D34*
X115428000Y-128258500D02*
X115428000Y-157627417D01*
X116179755Y-127506745D02*
X115428000Y-128258500D01*
X118502815Y-127506745D02*
X116179755Y-127506745D01*
X115428000Y-157627417D02*
X112802000Y-160253417D01*
D35*
X120163255Y-130035745D02*
X120163255Y-145761745D01*
X113687109Y-171445100D02*
X112790347Y-171445100D01*
D34*
X277991700Y-141220000D02*
X289188300Y-141220000D01*
D35*
X112452653Y-165806960D02*
X110274802Y-165806960D01*
X133742815Y-127506745D02*
X133954000Y-127717930D01*
D34*
X304132059Y-143106011D02*
X304132059Y-153266011D01*
X274805690Y-144406008D02*
X274805690Y-149106310D01*
D35*
X133954000Y-127717930D02*
X133954000Y-129835560D01*
D36*
X131714743Y-127506745D02*
X133742815Y-127506745D01*
D34*
X304132059Y-143106011D02*
X306628255Y-140609815D01*
D36*
X130327998Y-126120000D02*
X131714743Y-127506745D01*
D35*
X121023999Y-127101001D02*
X120023998Y-126101000D01*
X251762334Y-148183672D02*
X254677077Y-148183672D01*
D34*
X304132059Y-153266011D02*
X301548255Y-155849815D01*
D35*
X251340000Y-176206000D02*
X251740006Y-175805994D01*
D34*
X274805690Y-149106310D02*
X271816000Y-152096000D01*
X304132059Y-153266011D02*
X304132059Y-155806011D01*
D35*
X251740006Y-148206000D02*
X251762334Y-148183672D01*
D34*
X304132059Y-155806011D02*
X304088255Y-155849815D01*
X277991700Y-141220000D02*
X274805690Y-144406008D01*
X131643741Y-130035745D02*
X130427996Y-128820000D01*
D35*
X254677077Y-148183672D02*
X254875115Y-148381710D01*
D34*
X289188300Y-141220000D02*
X291074311Y-143106011D01*
D35*
X110274802Y-165806960D02*
X107299802Y-168781960D01*
X133954000Y-129835560D02*
X133742815Y-130046745D01*
D34*
X133103815Y-130035745D02*
X131643741Y-130035745D01*
X291074311Y-143106011D02*
X304132059Y-143106011D01*
D35*
X251740006Y-175805994D02*
X251740006Y-148206000D01*
X121023999Y-144915999D02*
X121023999Y-127101001D01*
X112790347Y-171445100D02*
X111565347Y-172670100D01*
D34*
X131682745Y-124955745D02*
X130528000Y-123801000D01*
X133103815Y-124955745D02*
X131682745Y-124955745D01*
X284932000Y-133196000D02*
X284142000Y-133196000D01*
X284142000Y-133196000D02*
X281798000Y-135540000D01*
X290614000Y-157831000D02*
X290614000Y-160891000D01*
X292044000Y-129640000D02*
X292044000Y-127645999D01*
X282900000Y-114400000D02*
X281798000Y-115502000D01*
X291498000Y-146149999D02*
X293057999Y-146149999D01*
X291498000Y-167194000D02*
X292044000Y-167740000D01*
X292044000Y-127645999D02*
X291498000Y-127099999D01*
X284932000Y-114400000D02*
X282900000Y-114400000D01*
X291498000Y-165199999D02*
X291498000Y-167194000D01*
X291538001Y-127140000D02*
X291498000Y-127099999D01*
X281798000Y-172398000D02*
X281798000Y-173640000D01*
X131623745Y-147815745D02*
X130428000Y-146620000D01*
X292044000Y-110336000D02*
X292044000Y-108595999D01*
X293098000Y-127140000D02*
X291538001Y-127140000D01*
X251740000Y-133606000D02*
X254797998Y-133606000D01*
X284932000Y-152500000D02*
X282900000Y-152500000D01*
X281714000Y-116406000D02*
X272392000Y-116406000D01*
X291498000Y-108049999D02*
X293057999Y-108049999D01*
X282900000Y-171296000D02*
X281798000Y-172398000D01*
X133742815Y-147826745D02*
X136295233Y-147826745D01*
X293057999Y-146149999D02*
X293098000Y-146190000D01*
X292044000Y-146695999D02*
X291498000Y-146149999D01*
X282900000Y-152500000D02*
X281798000Y-153602000D01*
X284424000Y-171296000D02*
X282900000Y-171296000D01*
X281798000Y-116490000D02*
X281714000Y-116406000D01*
X292044000Y-148436000D02*
X292044000Y-146695999D01*
X291498000Y-165199999D02*
X293057999Y-165199999D01*
X272392000Y-116406000D02*
X270528000Y-118270000D01*
X133103815Y-147815745D02*
X131623745Y-147815745D01*
X293057999Y-165199999D02*
X293098000Y-165240000D01*
X281798000Y-115502000D02*
X281798000Y-116490000D01*
X293057999Y-108049999D02*
X293098000Y-108090000D01*
X281798000Y-153602000D02*
X281798000Y-154590000D01*
X136295233Y-147826745D02*
X136364989Y-147756989D01*
X292044000Y-108595999D02*
X291498000Y-108049999D01*
X270528000Y-118270000D02*
X270528000Y-118320000D01*
X136903019Y-142126541D02*
X133753815Y-145275745D01*
X272448000Y-127099999D02*
X274007999Y-127099999D01*
X255924000Y-119118998D02*
X258552998Y-116490000D01*
X272448000Y-127824000D02*
X273502000Y-128878000D01*
X264838000Y-133450000D02*
X262748000Y-135540000D01*
X264104000Y-114400000D02*
X262748000Y-115756000D01*
X294168000Y-156974000D02*
X294422000Y-157228000D01*
X131683745Y-145275745D02*
X130428000Y-144020000D01*
X258552998Y-116490000D02*
X262748000Y-116490000D01*
X254889000Y-138430000D02*
X255924000Y-137395000D01*
X273248000Y-108849999D02*
X272448000Y-108049999D01*
X274048000Y-108090000D02*
X272488001Y-108090000D01*
X273248000Y-110336000D02*
X273248000Y-108849999D01*
X255924000Y-137395000D02*
X255924000Y-119118998D01*
X272448000Y-165199999D02*
X272448000Y-166940000D01*
X277040000Y-157406000D02*
X277472000Y-156974000D01*
X264104000Y-171296000D02*
X262748000Y-172652000D01*
X265628000Y-171296000D02*
X264104000Y-171296000D01*
X294422000Y-157228000D02*
X297630070Y-157228000D01*
X262748000Y-115756000D02*
X262748000Y-116490000D01*
X274007999Y-127099999D02*
X274048000Y-127140000D01*
X277472000Y-156974000D02*
X294168000Y-156974000D01*
X262748000Y-172652000D02*
X262748000Y-173640000D01*
X254889000Y-138430000D02*
X251364000Y-138430000D01*
X265628000Y-133450000D02*
X264838000Y-133450000D01*
X272448000Y-165199999D02*
X273755999Y-165199999D01*
X133753815Y-145275745D02*
X131683745Y-145275745D01*
X297630070Y-157228000D02*
X299008255Y-155849815D01*
X273755999Y-165199999D02*
X273796000Y-165240000D01*
X272448000Y-127099999D02*
X272448000Y-127824000D01*
X277040000Y-160806002D02*
X277040000Y-157406000D01*
X272488001Y-108090000D02*
X272448000Y-108049999D01*
X251364000Y-138430000D02*
X251340000Y-138406000D01*
X273796000Y-165240000D02*
X274048000Y-165240000D01*
X272448000Y-166940000D02*
X273248000Y-167740000D01*
X265628000Y-114400000D02*
X264104000Y-114400000D01*
X136903019Y-139438390D02*
X136903019Y-142126541D01*
X311348000Y-127899999D02*
X310548000Y-127099999D01*
X312107999Y-165199999D02*
X312148000Y-165240000D01*
X131663745Y-150355745D02*
X130428000Y-149120000D01*
X310840000Y-165491999D02*
X310548000Y-165199999D01*
X312107999Y-108049999D02*
X312148000Y-108090000D01*
X300680000Y-134212000D02*
X300680000Y-135372000D01*
X133103815Y-150355745D02*
X131663745Y-150355745D01*
X291904000Y-157811000D02*
X291904000Y-160881000D01*
X301696000Y-133196000D02*
X300680000Y-134212000D01*
X301696000Y-114400000D02*
X300680000Y-115416000D01*
X254444004Y-132661000D02*
X254464004Y-132641000D01*
X303728000Y-171296000D02*
X302204000Y-171296000D01*
X300848000Y-172652000D02*
X300848000Y-173640000D01*
X135855213Y-150366745D02*
X135864979Y-150356979D01*
X133742815Y-150366745D02*
X135855213Y-150366745D01*
X310840000Y-167740000D02*
X310840000Y-165491999D01*
X310548000Y-127099999D02*
X312107999Y-127099999D01*
X251784000Y-132661000D02*
X254444004Y-132661000D01*
X255524000Y-106538998D02*
X255524000Y-131581004D01*
X297573002Y-116490000D02*
X293823001Y-112739999D01*
X300680000Y-115416000D02*
X300848000Y-115584000D01*
X300848000Y-116490000D02*
X297573002Y-116490000D01*
X293823001Y-106654001D02*
X290803999Y-103634999D01*
X290803999Y-103634999D02*
X258427999Y-103634999D01*
X310548000Y-108049999D02*
X312107999Y-108049999D01*
X312107999Y-127099999D02*
X312148000Y-127140000D01*
X293823001Y-112739999D02*
X293823001Y-106654001D01*
X303728000Y-114400000D02*
X301696000Y-114400000D01*
X310548000Y-165199999D02*
X312107999Y-165199999D01*
X310548000Y-108049999D02*
X310548000Y-109536000D01*
X303728000Y-133196000D02*
X301696000Y-133196000D01*
X255524000Y-131581004D02*
X254464004Y-132641000D01*
X311348000Y-129132000D02*
X311348000Y-127899999D01*
X302204000Y-171296000D02*
X300848000Y-172652000D01*
X300680000Y-135372000D02*
X300848000Y-135540000D01*
X300848000Y-115584000D02*
X300848000Y-116490000D01*
X310548000Y-109536000D02*
X311348000Y-110336000D01*
X258427999Y-103634999D02*
X255524000Y-106538998D01*
X285798700Y-120506000D02*
X287398700Y-122106000D01*
X281228000Y-118920000D02*
X284054000Y-118920000D01*
X171001700Y-116606000D02*
X169901700Y-115506000D01*
X134555000Y-131191000D02*
X131944000Y-131191000D01*
X181320002Y-114556000D02*
X179001099Y-114556000D01*
X270822842Y-118806000D02*
X272822832Y-116806010D01*
X139540000Y-117806000D02*
X135340000Y-122006000D01*
X291340000Y-123806000D02*
X295440000Y-123806000D01*
X142190000Y-120006000D02*
X139990000Y-117806000D01*
X287398700Y-122106000D02*
X289640000Y-122106000D01*
X214601700Y-120106000D02*
X213240000Y-120106000D01*
X230140000Y-116206000D02*
X225140000Y-121206000D01*
X139990000Y-117806000D02*
X139540000Y-117806000D01*
X160640000Y-115506000D02*
X156140000Y-120006000D01*
X169901700Y-115506000D02*
X160640000Y-115506000D01*
X189114999Y-113631001D02*
X182245001Y-113631001D01*
X279114010Y-116806010D02*
X281228000Y-118920000D01*
X176401700Y-113106000D02*
X176401700Y-114974300D01*
X176401700Y-114974300D02*
X174770000Y-116606000D01*
X251340000Y-142506000D02*
X251239997Y-142405997D01*
X213240000Y-120106000D02*
X208960000Y-115826000D01*
X238140000Y-120206000D02*
X234140000Y-116206000D01*
X176820000Y-114556000D02*
X176401700Y-114974300D01*
X248940000Y-121806000D02*
X247640000Y-121806000D01*
X135340000Y-130406000D02*
X134555000Y-131191000D01*
X195540000Y-111006000D02*
X191740000Y-111006000D01*
X247640000Y-121806000D02*
X246040000Y-120206000D01*
X255240000Y-142506000D02*
X251340000Y-142506000D01*
X296440000Y-122806000D02*
X295440000Y-123806000D01*
X284054000Y-118920000D02*
X285640000Y-120506000D01*
X208455700Y-115826000D02*
X200360000Y-115826000D01*
X182245001Y-113631001D02*
X181320002Y-114556000D01*
X300440000Y-119306000D02*
X296940000Y-122806000D01*
X208960000Y-115826000D02*
X208455700Y-115826000D01*
X307424460Y-119306000D02*
X300440000Y-119306000D01*
X178946099Y-114556000D02*
X176820000Y-114556000D01*
X215701700Y-121206000D02*
X214601700Y-120106000D01*
X200360000Y-115826000D02*
X195540000Y-111006000D01*
X269939994Y-118806000D02*
X270822842Y-118806000D01*
X295440000Y-123806000D02*
X295440000Y-139581560D01*
X174770000Y-116606000D02*
X171001700Y-116606000D01*
X246040000Y-120206000D02*
X238140000Y-120206000D01*
X295440000Y-139581560D02*
X296468255Y-140609815D01*
X308831420Y-120712960D02*
X307424460Y-119306000D01*
X234140000Y-116206000D02*
X230140000Y-116206000D01*
X135340000Y-122006000D02*
X135340000Y-130406000D01*
X296940000Y-122806000D02*
X296440000Y-122806000D01*
X272822832Y-116806010D02*
X279114010Y-116806010D01*
X289640000Y-122106000D02*
X291340000Y-123806000D01*
X191740000Y-111006000D02*
X189114999Y-113631001D01*
X225140000Y-121206000D02*
X215701700Y-121206000D01*
X156140000Y-120006000D02*
X142190000Y-120006000D01*
X285640000Y-120506000D02*
X285798700Y-120506000D01*
X144689000Y-110971000D02*
X143546000Y-109828000D01*
X148245000Y-110971000D02*
X144689000Y-110971000D01*
X138974000Y-113513400D02*
X141635501Y-116174901D01*
X140640000Y-103126000D02*
X139160000Y-103126000D01*
X138974000Y-108939000D02*
X138974000Y-104792000D01*
X139160000Y-103126000D02*
X139140000Y-103106000D01*
X138974000Y-104792000D02*
X140640000Y-103126000D01*
X154440000Y-111906000D02*
X154440000Y-111070000D01*
X149388000Y-109828000D02*
X148245000Y-110971000D01*
X138974000Y-108939000D02*
X138974000Y-113513400D01*
X154440000Y-111070000D02*
X153198000Y-109828000D01*
X141635501Y-116174901D02*
X143266600Y-117806000D01*
X153198000Y-109828000D02*
X149388000Y-109828000D01*
X143546000Y-109828000D02*
X139863000Y-109828000D01*
X139863000Y-109828000D02*
X138974000Y-108939000D01*
X228614000Y-142606000D02*
X233640000Y-142606000D01*
X138701700Y-136806000D02*
X138701700Y-136167700D01*
X282839990Y-140405990D02*
X289505689Y-140405990D01*
X270278000Y-122220000D02*
X271702010Y-123644010D01*
X208301700Y-134606000D02*
X210193700Y-136498000D01*
X173912000Y-136006000D02*
X174915000Y-135003000D01*
X191914000Y-136806000D02*
X197142000Y-136806000D01*
X174915000Y-133098000D02*
X176007000Y-132006000D01*
X136265000Y-133731000D02*
X131944000Y-133731000D01*
X234526000Y-141720000D02*
X235626000Y-141720000D01*
X170101700Y-134606000D02*
X171501700Y-136006000D01*
X138701700Y-136167700D02*
X136265000Y-133731000D01*
X233640000Y-142606000D02*
X234526000Y-141720000D01*
X179115700Y-134420000D02*
X189528000Y-134420000D01*
X161850000Y-134606000D02*
X170101700Y-134606000D01*
X245501700Y-139606000D02*
X245501700Y-139521560D01*
X245501700Y-139521560D02*
X245570180Y-139453080D01*
X199342000Y-134606000D02*
X208301700Y-134606000D01*
X189528000Y-134420000D02*
X191914000Y-136806000D01*
X276403990Y-133969990D02*
X282839990Y-140405990D01*
X245570180Y-139453080D02*
X245887080Y-139453080D01*
X256969700Y-120779000D02*
X256969700Y-120499700D01*
X210193700Y-136498000D02*
X212132000Y-136498000D01*
X245570180Y-139453080D02*
X245640000Y-139522900D01*
X197142000Y-136806000D02*
X199342000Y-134606000D01*
X138701700Y-136806000D02*
X138701700Y-137397700D01*
X176007000Y-132006000D02*
X176701700Y-132006000D01*
X291405689Y-142305990D02*
X297312080Y-142305990D01*
X297312080Y-142305990D02*
X299008255Y-140609815D01*
X159536000Y-136920000D02*
X161850000Y-134606000D01*
X156500000Y-138686000D02*
X158266000Y-136920000D01*
X138701700Y-137397700D02*
X139990000Y-138686000D01*
X158266000Y-136920000D02*
X159536000Y-136920000D01*
X214501700Y-139406000D02*
X216515700Y-141420000D01*
X249640000Y-143206000D02*
X251294004Y-143206000D01*
X245887080Y-139453080D02*
X249640000Y-143206000D01*
X212132000Y-136498000D02*
X214501700Y-138867700D01*
X214501700Y-138867700D02*
X214501700Y-139406000D01*
X216515700Y-141420000D02*
X227428000Y-141420000D01*
X237892920Y-139453080D02*
X245570180Y-139453080D01*
X256399000Y-121349700D02*
X256969700Y-120779000D01*
X227428000Y-141420000D02*
X228614000Y-142606000D01*
X256399000Y-122306000D02*
X256399000Y-121349700D01*
X176701700Y-132006000D02*
X179115700Y-134420000D01*
X255306000Y-143257998D02*
X251346002Y-143257998D01*
X171501700Y-136006000D02*
X173912000Y-136006000D01*
X174915000Y-135003000D02*
X174915000Y-133098000D01*
X235626000Y-141720000D02*
X237892920Y-139453080D01*
X251346002Y-143257998D02*
X251294004Y-143206000D01*
X139990000Y-138686000D02*
X156500000Y-138686000D01*
X289505689Y-140405990D02*
X291405689Y-142305990D01*
X173490000Y-109525000D02*
X173490000Y-115194300D01*
X166787000Y-108558000D02*
X163993000Y-108558000D01*
X159421000Y-107415000D02*
X157290000Y-105284000D01*
X159690000Y-100745000D02*
X158210000Y-100745000D01*
X159690000Y-100745000D02*
X159233000Y-100745000D01*
X171994000Y-107542000D02*
X167803000Y-107542000D01*
X173490000Y-115194300D02*
X173178300Y-115506000D01*
X167803000Y-107542000D02*
X166787000Y-108558000D01*
X173490000Y-109038000D02*
X171994000Y-107542000D01*
X157290000Y-102688000D02*
X157290000Y-105284000D01*
X159233000Y-100745000D02*
X157290000Y-102688000D01*
X163993000Y-108558000D02*
X162850000Y-107415000D01*
X158210000Y-100745000D02*
X158190000Y-100725000D01*
X173490000Y-109525000D02*
X173490000Y-109038000D01*
X162850000Y-107415000D02*
X159421000Y-107415000D01*
X240447000Y-159514000D02*
X243876000Y-159514000D01*
X228485000Y-160506000D02*
X229585000Y-161606000D01*
X191014000Y-155006000D02*
X192940000Y-155006000D01*
X214701700Y-157667700D02*
X214701700Y-158567700D01*
X207266000Y-153706000D02*
X205424000Y-155548000D01*
X137315001Y-149832999D02*
X137315001Y-139729412D01*
X250940002Y-146806002D02*
X250940000Y-146806000D01*
X137315001Y-154819301D02*
X138301700Y-155806000D01*
X165340000Y-153606000D02*
X164514080Y-152780080D01*
X178415700Y-153320000D02*
X176918000Y-153320000D01*
X270177700Y-155831000D02*
X269364400Y-156644300D01*
X251040000Y-148009002D02*
X250740001Y-147709003D01*
X249943000Y-159514000D02*
X251040000Y-158417000D01*
X251040000Y-158417000D02*
X251040000Y-148009002D01*
X233340000Y-161606000D02*
X234670000Y-160276000D01*
X137315001Y-139729412D02*
X137378021Y-139666392D01*
X189328000Y-153320000D02*
X191014000Y-155006000D01*
X214701700Y-158567700D02*
X216640000Y-160506000D01*
X170101700Y-153606000D02*
X165340000Y-153606000D01*
X246301700Y-158206000D02*
X245184000Y-158206000D01*
X216640000Y-160506000D02*
X228485000Y-160506000D01*
X153440000Y-151706000D02*
X147699560Y-157446440D01*
X147699560Y-157446440D02*
X139942140Y-157446440D01*
X165240000Y-153506000D02*
X167454000Y-155720000D01*
X205424000Y-155548000D02*
X212582000Y-155548000D01*
X178415700Y-153320000D02*
X189328000Y-153320000D01*
X165340000Y-153606000D02*
X163440000Y-151706000D01*
X192940000Y-155006000D02*
X193482000Y-155548000D01*
X255064000Y-146806002D02*
X250940002Y-146806002D01*
X245184000Y-158206000D02*
X243876000Y-159514000D01*
X174518000Y-155720000D02*
X176566000Y-153672000D01*
X137378021Y-139666392D02*
X137378021Y-138458021D01*
X167454000Y-155720000D02*
X174518000Y-155720000D01*
X208201700Y-153706000D02*
X207266000Y-153706000D01*
X250740001Y-147709003D02*
X250740001Y-147005999D01*
X264902298Y-156644300D02*
X255064000Y-146806002D01*
X236970000Y-160276000D02*
X237732000Y-159514000D01*
X139942140Y-157446440D02*
X138301700Y-155806000D01*
X234670000Y-160276000D02*
X236970000Y-160276000D01*
X243876000Y-159514000D02*
X249943000Y-159514000D01*
X137378021Y-138458021D02*
X135380000Y-136460000D01*
X135380000Y-136460000D02*
X131805000Y-136460000D01*
X212582000Y-155548000D02*
X214701700Y-157667700D01*
X176918000Y-153320000D02*
X176566000Y-153672000D01*
X229585000Y-161606000D02*
X233340000Y-161606000D01*
X237732000Y-159514000D02*
X241130540Y-159514000D01*
X163440000Y-151706000D02*
X158640000Y-151706000D01*
X137315001Y-149630999D02*
X137315001Y-154819301D01*
X269364400Y-156644300D02*
X264902298Y-156644300D01*
X250740001Y-147005999D02*
X250940000Y-146806000D01*
X176566000Y-153672000D02*
X176710540Y-153527460D01*
X178415700Y-153320000D02*
X176501700Y-151406000D01*
X193482000Y-155548000D02*
X205424000Y-155548000D01*
X158640000Y-151706000D02*
X159040000Y-151706000D01*
X158640000Y-151706000D02*
X153440000Y-151706000D01*
X182408000Y-106018000D02*
X181519000Y-105129000D01*
X177946810Y-105129000D02*
X175769010Y-102951200D01*
X177260000Y-98360000D02*
X177240000Y-98340000D01*
X192540000Y-107140000D02*
X192540000Y-105863000D01*
X192540000Y-105863000D02*
X191552000Y-104875000D01*
X178740000Y-98360000D02*
X177260000Y-98360000D01*
X181519000Y-105129000D02*
X177946810Y-105129000D01*
X185964000Y-106018000D02*
X182408000Y-106018000D01*
X178740000Y-98360000D02*
X178325000Y-98360000D01*
X178325000Y-98360000D02*
X175769010Y-100915990D01*
X175769010Y-100915990D02*
X175769010Y-102951200D01*
X187107000Y-104875000D02*
X185964000Y-106018000D01*
X186574000Y-113106000D02*
X192540000Y-107140000D01*
X191552000Y-104875000D02*
X187107000Y-104875000D01*
X179678300Y-113106000D02*
X186574000Y-113106000D01*
X275740000Y-160806004D02*
X275140000Y-161406004D01*
X203510320Y-173925960D02*
X203497620Y-173925960D01*
X190011700Y-171169000D02*
X190167700Y-171325000D01*
X158659000Y-177167000D02*
X162370000Y-173456000D01*
X237252000Y-177294000D02*
X233463700Y-177294000D01*
X173264000Y-175389000D02*
X171867000Y-173992000D01*
X171331000Y-173456000D02*
X171867000Y-173992000D01*
X233463700Y-177294000D02*
X232389700Y-176220000D01*
X162370000Y-173456000D02*
X171331000Y-173456000D01*
X276780999Y-156365001D02*
X275740000Y-157406000D01*
X237740000Y-176806000D02*
X237252000Y-177294000D01*
X276837139Y-177245001D02*
X275953001Y-177245001D01*
X278195501Y-177248961D02*
X276841099Y-177248961D01*
X129540002Y-148935004D02*
X136940000Y-156335002D01*
X180877000Y-171169000D02*
X176657000Y-175389000D01*
X205862360Y-176278000D02*
X203510320Y-173925960D01*
X211630700Y-176278000D02*
X232231998Y-176278000D01*
X293286620Y-176364360D02*
X292405979Y-177245001D01*
X145612000Y-176278000D02*
X152451700Y-176278000D01*
X275140000Y-161406004D02*
X275140000Y-176432000D01*
X255709860Y-176399920D02*
X256594461Y-177284521D01*
X274241700Y-176364360D02*
X275072360Y-176364360D01*
X296468255Y-155849815D02*
X288434185Y-155849815D01*
X287918999Y-156365001D02*
X276780999Y-156365001D01*
X256594461Y-177284521D02*
X273321539Y-177284521D01*
X275953001Y-177245001D02*
X275428000Y-176720000D01*
X129540002Y-140206000D02*
X129540002Y-148935004D01*
X211630700Y-176278000D02*
X205862360Y-176278000D01*
X273321539Y-177284521D02*
X274241700Y-176364360D01*
X186127000Y-171169000D02*
X190011700Y-171169000D01*
X186127000Y-171169000D02*
X186515000Y-171169000D01*
X176657000Y-175389000D02*
X173264000Y-175389000D01*
X153340700Y-177167000D02*
X158659000Y-177167000D01*
X136940000Y-167606000D02*
X145612000Y-176278000D01*
X136940000Y-156335002D02*
X136940000Y-167606000D01*
X288434185Y-155849815D02*
X287918999Y-156365001D01*
X232231998Y-176278000D02*
X232550999Y-176597001D01*
X209090700Y-173738000D02*
X211630700Y-176278000D01*
X275072360Y-176364360D02*
X275428000Y-176720000D01*
X275140000Y-176432000D02*
X275428000Y-176720000D01*
X202420660Y-172849000D02*
X191691700Y-172849000D01*
X152451700Y-176278000D02*
X153340700Y-177167000D01*
X278199461Y-177245001D02*
X278195501Y-177248961D01*
X255054000Y-147606000D02*
X254853997Y-147405997D01*
X276841099Y-177248961D02*
X276837139Y-177245001D01*
X264854000Y-157406000D02*
X255054000Y-147606000D01*
X191691700Y-172849000D02*
X190167700Y-171325000D01*
X274206140Y-176399920D02*
X274241700Y-176364360D01*
X292405979Y-177245001D02*
X278199461Y-177245001D01*
X275740000Y-157406000D02*
X275740000Y-160806004D01*
X275740000Y-157406000D02*
X264854000Y-157406000D01*
X186127000Y-171169000D02*
X180877000Y-171169000D01*
X203497620Y-173925960D02*
X202420660Y-172849000D01*
X254853997Y-147405997D02*
X251499914Y-147405997D01*
X197790000Y-102447000D02*
X195390000Y-104847000D01*
X211732300Y-109667300D02*
X211590000Y-109525000D01*
X209607000Y-107542000D02*
X211590000Y-109525000D01*
X201839000Y-108431000D02*
X205014000Y-108431000D01*
X200823000Y-107415000D02*
X201839000Y-108431000D01*
X211778300Y-115406000D02*
X211732300Y-115360000D01*
X195390000Y-105609000D02*
X195390000Y-106173000D01*
X195390000Y-104847000D02*
X195390000Y-105609000D01*
X205014000Y-108431000D02*
X205903000Y-107542000D01*
X197790000Y-100745000D02*
X197790000Y-102447000D01*
X196632000Y-107415000D02*
X200823000Y-107415000D01*
X197790000Y-100745000D02*
X196310000Y-100745000D01*
X196310000Y-100745000D02*
X196290000Y-100725000D01*
X211732300Y-115360000D02*
X211732300Y-109667300D01*
X205903000Y-107542000D02*
X209607000Y-107542000D01*
X195390000Y-106173000D02*
X196632000Y-107415000D01*
X146414302Y-177646000D02*
X136540000Y-167771698D01*
X142875000Y-184921000D02*
X142875000Y-187695959D01*
X128940000Y-148900700D02*
X128940000Y-142735745D01*
X179396000Y-173956000D02*
X180134700Y-173956000D01*
X150150000Y-177646000D02*
X142875000Y-184921000D01*
X185456000Y-173865000D02*
X184059000Y-172468000D01*
X184059000Y-172468000D02*
X181622700Y-172468000D01*
X171613000Y-176024000D02*
X177328000Y-176024000D01*
X150150000Y-177646000D02*
X160224700Y-177646000D01*
X163497700Y-174373000D02*
X169962000Y-174373000D01*
X136540000Y-156500700D02*
X128940000Y-148900700D01*
X142390000Y-187656000D02*
X142390000Y-187658628D01*
X169962000Y-174373000D02*
X171613000Y-176024000D01*
X185468700Y-173865000D02*
X185456000Y-173865000D01*
X181622700Y-172468000D02*
X180134700Y-173956000D01*
X177328000Y-176024000D02*
X179396000Y-173956000D01*
X160224700Y-177646000D02*
X163497700Y-174373000D01*
X150150000Y-177646000D02*
X146414302Y-177646000D01*
X142875000Y-187695959D02*
X142841150Y-187729809D01*
X136540000Y-167771698D02*
X136540000Y-156500700D01*
X215340000Y-105490000D02*
X216820000Y-105490000D01*
X221016000Y-113257000D02*
X219873000Y-112114000D01*
X215428000Y-111225000D02*
X215301000Y-111098000D01*
X219873000Y-112114000D02*
X216317000Y-112114000D01*
X224786000Y-120144000D02*
X225294000Y-119636000D01*
X217916300Y-120144000D02*
X224786000Y-120144000D01*
X215301000Y-107049000D02*
X216840000Y-105510000D01*
X216317000Y-112114000D02*
X215428000Y-111225000D01*
X230640000Y-112721000D02*
X230160000Y-112241000D01*
X224064000Y-113257000D02*
X221016000Y-113257000D01*
X225294000Y-119636000D02*
X230640000Y-114290000D01*
X216820000Y-105490000D02*
X216840000Y-105510000D01*
X217878300Y-120106000D02*
X217916300Y-120144000D01*
X225080000Y-112241000D02*
X224064000Y-113257000D01*
X215301000Y-111098000D02*
X215301000Y-107049000D01*
X230640000Y-114290000D02*
X230640000Y-112721000D01*
X230160000Y-112241000D02*
X225080000Y-112241000D01*
X234097000Y-111098000D02*
X234097000Y-108304000D01*
X234986000Y-111987000D02*
X234224000Y-111225000D01*
X249237000Y-112141000D02*
X244738000Y-112141000D01*
X234410000Y-105510000D02*
X234390000Y-105490000D01*
X249690000Y-112594000D02*
X249237000Y-112141000D01*
X249690000Y-114290000D02*
X249690000Y-119694300D01*
X235890000Y-106511000D02*
X235890000Y-105510000D01*
X243876000Y-113003000D02*
X240066000Y-113003000D01*
X234224000Y-111225000D02*
X234097000Y-111098000D01*
X240066000Y-113003000D02*
X239050000Y-111987000D01*
X234097000Y-108304000D02*
X235890000Y-106511000D01*
X249690000Y-114290000D02*
X249690000Y-112594000D01*
X239050000Y-111987000D02*
X234986000Y-111987000D01*
X244738000Y-112141000D02*
X243876000Y-113003000D01*
X249690000Y-119694300D02*
X249178300Y-120206000D01*
X235890000Y-105510000D02*
X234410000Y-105510000D01*
X139355000Y-127593000D02*
X139355000Y-123432000D01*
X148753000Y-128878000D02*
X147737000Y-129894000D01*
X140640000Y-122147000D02*
X139160000Y-122147000D01*
X154440000Y-130927000D02*
X154440000Y-130374000D01*
X143292000Y-128751000D02*
X140244000Y-128751000D01*
X139355000Y-134182700D02*
X141978300Y-136806000D01*
X139355000Y-127862000D02*
X139355000Y-127593000D01*
X154440000Y-130374000D02*
X152944000Y-128878000D01*
X147737000Y-129894000D02*
X144435000Y-129894000D01*
X152944000Y-128878000D02*
X148753000Y-128878000D01*
X139355000Y-123432000D02*
X140640000Y-122147000D01*
X140244000Y-128751000D02*
X139355000Y-127862000D01*
X144435000Y-129894000D02*
X143292000Y-128751000D01*
X139355000Y-127593000D02*
X139355000Y-134182700D01*
X139160000Y-122147000D02*
X139140000Y-122127000D01*
X173490000Y-127199000D02*
X172629000Y-126338000D01*
X168565000Y-126338000D02*
X167295000Y-127608000D01*
X173490000Y-128590200D02*
X173490000Y-134494300D01*
X172629000Y-126338000D02*
X168565000Y-126338000D01*
X158024000Y-119956200D02*
X158190000Y-119790200D01*
X173490000Y-134494300D02*
X173378300Y-134606000D01*
X159690000Y-119810200D02*
X158210000Y-119810200D01*
X162723000Y-126338000D02*
X159294000Y-126338000D01*
X158210000Y-119810200D02*
X158190000Y-119790200D01*
X159294000Y-126338000D02*
X158024000Y-125068000D01*
X167295000Y-127608000D02*
X163993000Y-127608000D01*
X158024000Y-125068000D02*
X158024000Y-119956200D01*
X173490000Y-128590200D02*
X173490000Y-127199000D01*
X163993000Y-127608000D02*
X162723000Y-126338000D01*
X191552000Y-124306000D02*
X186599000Y-124306000D01*
X181646000Y-124052000D02*
X178217000Y-124052000D01*
X177260000Y-117448000D02*
X177240000Y-117428000D01*
X192540000Y-126228000D02*
X192540000Y-125294000D01*
X177201000Y-123036000D02*
X177201000Y-118987000D01*
X182789000Y-125195000D02*
X181646000Y-124052000D01*
X179978300Y-130470300D02*
X179978300Y-131588500D01*
X178740000Y-117448000D02*
X177260000Y-117448000D01*
X192540000Y-125294000D02*
X191552000Y-124306000D01*
X177201000Y-127693000D02*
X179978300Y-130470300D01*
X178217000Y-124052000D02*
X177201000Y-123036000D01*
X177201000Y-118987000D02*
X178740000Y-117448000D01*
X185710000Y-125195000D02*
X182789000Y-125195000D01*
X186599000Y-124306000D02*
X185710000Y-125195000D01*
X177201000Y-123036000D02*
X177201000Y-127693000D01*
X196251000Y-125703000D02*
X196251000Y-121400000D01*
X202347000Y-127608000D02*
X201204000Y-126465000D01*
X197790000Y-119861000D02*
X196310000Y-119861000D01*
X201204000Y-126465000D02*
X197013000Y-126465000D01*
X197013000Y-126465000D02*
X196314500Y-125766500D01*
X211590000Y-128641000D02*
X211590000Y-127453000D01*
X210602000Y-126465000D02*
X206157000Y-126465000D01*
X196251000Y-121400000D02*
X197790000Y-119861000D01*
X211590000Y-128641000D02*
X211590000Y-134594300D01*
X206157000Y-126465000D02*
X205014000Y-127608000D01*
X211590000Y-134594300D02*
X211578300Y-134606000D01*
X205014000Y-127608000D02*
X202347000Y-127608000D01*
X196310000Y-119861000D02*
X196290000Y-119841000D01*
X196314500Y-125766500D02*
X196251000Y-125703000D01*
X211590000Y-127453000D02*
X210602000Y-126465000D01*
X216840000Y-124560000D02*
X215360000Y-124560000D01*
X223937000Y-132307000D02*
X225180000Y-131064000D01*
X225180000Y-131064000D02*
X229235000Y-131064000D01*
X215360000Y-124560000D02*
X215340000Y-124540000D01*
X221270000Y-132307000D02*
X223937000Y-132307000D01*
X216840000Y-125307000D02*
X215301000Y-126846000D01*
X216840000Y-124560000D02*
X216840000Y-125307000D01*
X230640000Y-132469000D02*
X230640000Y-133340000D01*
X217778300Y-139406000D02*
X226490000Y-139406000D01*
X226490000Y-139406000D02*
X227615000Y-138281000D01*
X229152000Y-136744000D02*
X228942000Y-136954000D01*
X229235000Y-131064000D02*
X230640000Y-132469000D01*
X227615000Y-138281000D02*
X229152000Y-136744000D01*
X220127000Y-131164000D02*
X221270000Y-132307000D01*
X215301000Y-126846000D02*
X215301000Y-129894000D01*
X230640000Y-133340000D02*
X230640000Y-135256000D01*
X230640000Y-135256000D02*
X229152000Y-136744000D01*
X216571000Y-131164000D02*
X220127000Y-131164000D01*
X215301000Y-129894000D02*
X216571000Y-131164000D01*
X249690000Y-133340000D02*
X249690000Y-132279000D01*
X239144000Y-131131000D02*
X235461000Y-131131000D01*
X244257000Y-131164000D02*
X243114000Y-132307000D01*
X249690000Y-132279000D02*
X248575000Y-131164000D01*
X234410000Y-124560000D02*
X234390000Y-124540000D01*
X235461000Y-131131000D02*
X234478000Y-130148000D01*
X248575000Y-131164000D02*
X244257000Y-131164000D01*
X234478000Y-125972000D02*
X235890000Y-124560000D01*
X234478000Y-130148000D02*
X234478000Y-130021000D01*
X234478000Y-130021000D02*
X234478000Y-125972000D01*
X248778300Y-139521560D02*
X248778300Y-139606000D01*
X249690000Y-138609860D02*
X248778300Y-139521560D01*
X249690000Y-133340000D02*
X249690000Y-138609860D01*
X235890000Y-124560000D02*
X234410000Y-124560000D01*
X243114000Y-132307000D02*
X240320000Y-132307000D01*
X240320000Y-132307000D02*
X239144000Y-131131000D01*
X148245000Y-148944000D02*
X144562000Y-148944000D01*
X144562000Y-148944000D02*
X143419000Y-147801000D01*
X138974000Y-147801000D02*
X138974000Y-153201700D01*
X153325000Y-148055000D02*
X149134000Y-148055000D01*
X149134000Y-148055000D02*
X148245000Y-148944000D01*
X139160000Y-141197000D02*
X139140000Y-141177000D01*
X154440000Y-149170000D02*
X153325000Y-148055000D01*
X138974000Y-144372000D02*
X138974000Y-147801000D01*
X140640000Y-141197000D02*
X140640000Y-142706000D01*
X154440000Y-149977000D02*
X154440000Y-149170000D01*
X140640000Y-142706000D02*
X138974000Y-144372000D01*
X140640000Y-141197000D02*
X139160000Y-141197000D01*
X138974000Y-153201700D02*
X141578300Y-155806000D01*
X143419000Y-147801000D02*
X138974000Y-147801000D01*
X158490000Y-145176000D02*
X158795000Y-145481000D01*
X173378300Y-153606000D02*
X173490000Y-153494300D01*
X158795000Y-145481000D02*
X162816000Y-145481000D01*
X159690000Y-138845000D02*
X158210000Y-138845000D01*
X158190000Y-138825000D02*
X158190000Y-144876000D01*
X171507000Y-145642000D02*
X173490000Y-147625000D01*
X173490000Y-153494300D02*
X173490000Y-147625000D01*
X167168000Y-146531000D02*
X168057000Y-145642000D01*
X158190000Y-144876000D02*
X158490000Y-145176000D01*
X158210000Y-138845000D02*
X158190000Y-138825000D01*
X168057000Y-145642000D02*
X171507000Y-145642000D01*
X163866000Y-146531000D02*
X167168000Y-146531000D01*
X162816000Y-145481000D02*
X163866000Y-146531000D01*
X191933000Y-143102000D02*
X186980000Y-143102000D01*
X178217000Y-143102000D02*
X177074000Y-141959000D01*
X181773000Y-143102000D02*
X178217000Y-143102000D01*
X177074000Y-141959000D02*
X177074000Y-140872000D01*
X177074000Y-140872000D02*
X177074000Y-138126000D01*
X179778300Y-150244300D02*
X177074000Y-147540000D01*
X192540000Y-145240000D02*
X192540000Y-143709000D01*
X192540000Y-143709000D02*
X191933000Y-143102000D01*
X179778300Y-151406000D02*
X179778300Y-150244300D01*
X177260000Y-136460000D02*
X177240000Y-136440000D01*
X177074000Y-138126000D02*
X178740000Y-136460000D01*
X178740000Y-136460000D02*
X177260000Y-136460000D01*
X185837000Y-144245000D02*
X182916000Y-144245000D01*
X182916000Y-144245000D02*
X181773000Y-143102000D01*
X186980000Y-143102000D02*
X185837000Y-144245000D01*
X177074000Y-147540000D02*
X177074000Y-140872000D01*
X196124000Y-140511000D02*
X197790000Y-138845000D01*
X201929000Y-146621000D02*
X200696000Y-145388000D01*
X197790000Y-138845000D02*
X196310000Y-138845000D01*
X210856000Y-145642000D02*
X205776000Y-145642000D01*
X200696000Y-145388000D02*
X197013000Y-145388000D01*
X211590000Y-153594300D02*
X211478300Y-153706000D01*
X204797000Y-146621000D02*
X201929000Y-146621000D01*
X196124000Y-143864000D02*
X196124000Y-140511000D01*
X211590000Y-147625000D02*
X211590000Y-153594300D01*
X211590000Y-146376000D02*
X210856000Y-145642000D01*
X196124000Y-144499000D02*
X196124000Y-143864000D01*
X197013000Y-145388000D02*
X196124000Y-144499000D01*
X196310000Y-138845000D02*
X196290000Y-138825000D01*
X211590000Y-147625000D02*
X211590000Y-146376000D01*
X205776000Y-145642000D02*
X204797000Y-146621000D01*
X215174000Y-149166000D02*
X215174000Y-149325000D01*
X219997000Y-150211000D02*
X221143000Y-151357000D01*
X215174000Y-149325000D02*
X215745500Y-149896500D01*
X215745500Y-149896500D02*
X214840000Y-150802000D01*
X214840000Y-155606000D02*
X217440000Y-158206000D01*
X223937000Y-151357000D02*
X225080000Y-150214000D01*
X225080000Y-150214000D02*
X228464000Y-150214000D01*
X216840000Y-143610000D02*
X215360000Y-143610000D01*
X216840000Y-143610000D02*
X216840000Y-143849000D01*
X216840000Y-143849000D02*
X215174000Y-145515000D01*
X215174000Y-145515000D02*
X215174000Y-149166000D01*
X228464000Y-150214000D02*
X230640000Y-152390000D01*
X215745500Y-149896500D02*
X216060000Y-150211000D01*
X217440000Y-158206000D02*
X217978300Y-158206000D01*
X216060000Y-150211000D02*
X219997000Y-150211000D01*
X215360000Y-143610000D02*
X215340000Y-143590000D01*
X214840000Y-150802000D02*
X214840000Y-155606000D01*
X221143000Y-151357000D02*
X223937000Y-151357000D01*
X233490000Y-148210000D02*
X233490000Y-148845000D01*
X239050000Y-150214000D02*
X239939000Y-151103000D01*
X235890000Y-143610000D02*
X234410000Y-143610000D01*
X247514000Y-150214000D02*
X249690000Y-152390000D01*
X249690000Y-152390000D02*
X249690000Y-153290000D01*
X249690000Y-158094300D02*
X249578300Y-158206000D01*
X235890000Y-143610000D02*
X235890000Y-145810000D01*
X239939000Y-151103000D02*
X243241000Y-151103000D01*
X243241000Y-151103000D02*
X244130000Y-150214000D01*
X233490000Y-148845000D02*
X234859000Y-150214000D01*
X234410000Y-143610000D02*
X234390000Y-143590000D01*
X235890000Y-145810000D02*
X233490000Y-148210000D01*
X249690000Y-152390000D02*
X249690000Y-158094300D01*
X244130000Y-150214000D02*
X247514000Y-150214000D01*
X234859000Y-150214000D02*
X239050000Y-150214000D01*
X139140000Y-160256000D02*
X140620000Y-160256000D01*
X154440000Y-169056000D02*
X155728300Y-170344300D01*
X153049000Y-166956000D02*
X150664998Y-166956000D01*
X140542000Y-160374000D02*
X140640000Y-160276000D01*
X155728300Y-170344300D02*
X155728300Y-176278000D01*
X150439999Y-167180999D02*
X150195999Y-167424999D01*
X154440000Y-168347000D02*
X153049000Y-166956000D01*
X149469998Y-168151000D02*
X144211000Y-168151000D01*
X140620000Y-160256000D02*
X140640000Y-160276000D01*
X154440000Y-169056000D02*
X154440000Y-168347000D01*
X150439999Y-167180999D02*
X149469998Y-168151000D01*
X150664998Y-166956000D02*
X150439999Y-167180999D01*
X144211000Y-168151000D02*
X143016000Y-166956000D01*
X143016000Y-166956000D02*
X140340000Y-166956000D01*
X137831000Y-160374000D02*
X140542000Y-160374000D01*
X166406000Y-165581000D02*
X162723000Y-165581000D01*
X173490000Y-166675000D02*
X173490000Y-165807000D01*
X173490000Y-172351100D02*
X175130900Y-173992000D01*
X167422000Y-164565000D02*
X166406000Y-165581000D01*
X162723000Y-165581000D02*
X161462000Y-164320000D01*
X159690000Y-157895000D02*
X157201000Y-157895000D01*
X157201000Y-157895000D02*
X157135000Y-157961000D01*
X159690000Y-157895000D02*
X158210000Y-157895000D01*
X161462000Y-164320000D02*
X156890000Y-164320000D01*
X175130900Y-173992000D02*
X175143600Y-173992000D01*
X173490000Y-165807000D02*
X172248000Y-164565000D01*
X158210000Y-157895000D02*
X158190000Y-157875000D01*
X173490000Y-166675000D02*
X173490000Y-172351100D01*
X172248000Y-164565000D02*
X167422000Y-164565000D01*
X178740000Y-155510000D02*
X177260000Y-155510000D01*
X193444300Y-170951700D02*
X193190000Y-171206000D01*
X182408000Y-163168000D02*
X181491000Y-162251000D01*
X185837000Y-163168000D02*
X182408000Y-163168000D01*
X186734000Y-162271000D02*
X185837000Y-163168000D01*
X181491000Y-162251000D02*
X176340000Y-162251000D01*
X192540000Y-164290000D02*
X193444300Y-165194300D01*
X191671000Y-162271000D02*
X186734000Y-162271000D01*
X192540000Y-163140000D02*
X191671000Y-162271000D01*
X176058000Y-155929000D02*
X176801000Y-155929000D01*
X193444300Y-165194300D02*
X193444300Y-170951700D01*
X176801000Y-155929000D02*
X177240000Y-155490000D01*
X192540000Y-164290000D02*
X192540000Y-163140000D01*
X177260000Y-155510000D02*
X177240000Y-155490000D01*
X206157000Y-164565000D02*
X205014000Y-165708000D01*
X211590000Y-166675000D02*
X211590000Y-169689300D01*
X205014000Y-165708000D02*
X201458000Y-165708000D01*
X211590000Y-169689300D02*
X207353340Y-173925960D01*
X211590000Y-165680000D02*
X210475000Y-164565000D01*
X196251000Y-159434000D02*
X197790000Y-157895000D01*
X201458000Y-165708000D02*
X200061000Y-164311000D01*
X200061000Y-164311000D02*
X196251000Y-164311000D01*
X210475000Y-164565000D02*
X206157000Y-164565000D01*
X196251000Y-164311000D02*
X196251000Y-159434000D01*
X207353340Y-173925960D02*
X206774220Y-173925960D01*
X197770000Y-157875000D02*
X197790000Y-157895000D01*
X196290000Y-157875000D02*
X197770000Y-157875000D01*
X211590000Y-166675000D02*
X211590000Y-165680000D01*
X216586000Y-162914000D02*
X216840000Y-162660000D01*
X213523000Y-172699140D02*
X213523000Y-162914000D01*
X215360000Y-162660000D02*
X215340000Y-162640000D01*
X230640000Y-171440000D02*
X230640000Y-173906000D01*
X230640000Y-173906000D02*
X228940000Y-175606000D01*
X213523000Y-162914000D02*
X216586000Y-162914000D01*
X216840000Y-162660000D02*
X215360000Y-162660000D01*
X212296180Y-173925960D02*
X213523000Y-172699140D01*
X232954000Y-174046000D02*
X232954000Y-162533000D01*
X246028000Y-176220000D02*
X235128000Y-176220000D01*
X234390000Y-162640000D02*
X233061000Y-162640000D01*
X234410000Y-162660000D02*
X234390000Y-162640000D01*
X249690000Y-172558000D02*
X246028000Y-176220000D01*
X235890000Y-162660000D02*
X234410000Y-162660000D01*
X249690000Y-171440000D02*
X249690000Y-172558000D01*
X235128000Y-176220000D02*
X232954000Y-174046000D01*
X233061000Y-162640000D02*
X232954000Y-162533000D01*
X135212705Y-192319857D02*
X135978064Y-193085216D01*
X145913000Y-168883000D02*
X146213000Y-168883000D01*
X154799999Y-105665999D02*
X154840000Y-105706000D01*
X145070000Y-130783000D02*
X146213000Y-130783000D01*
X144943000Y-111860000D02*
X146340000Y-111860000D01*
X153240000Y-162110000D02*
X154849000Y-160501000D01*
X138339000Y-192124000D02*
X137894575Y-191679575D01*
X126274000Y-188568000D02*
X125205129Y-187499129D01*
X125205129Y-187499129D02*
X123053450Y-187499129D01*
X154799999Y-143736999D02*
X154840000Y-143777000D01*
X153240000Y-143736999D02*
X154799999Y-143736999D01*
X137894575Y-191679575D02*
X135212705Y-191679575D01*
X154799999Y-162815999D02*
X154840000Y-162856000D01*
X143540000Y-133127000D02*
X143540000Y-132313000D01*
X152780119Y-162815999D02*
X153240000Y-162815999D01*
X143540000Y-151617000D02*
X145197000Y-149960000D01*
X143540000Y-114106000D02*
X143540000Y-113263000D01*
X143540000Y-132313000D02*
X145070000Y-130783000D01*
X153240000Y-105665999D02*
X154799999Y-105665999D01*
X154849000Y-142127999D02*
X153240000Y-143736999D01*
X154849000Y-141197000D02*
X154849000Y-142127999D01*
X143540000Y-171256000D02*
X145913000Y-168883000D01*
X153240000Y-162815999D02*
X154799999Y-162815999D01*
X143540000Y-113263000D02*
X144943000Y-111860000D01*
X143540000Y-152177000D02*
X143540000Y-151617000D01*
X131944000Y-146431000D02*
X136828989Y-146431000D01*
X153240000Y-124686999D02*
X153240000Y-126804000D01*
X153240000Y-126804000D02*
X153198000Y-126846000D01*
X136828989Y-146431000D02*
X136839989Y-146420000D01*
X153240000Y-107203000D02*
X153452000Y-107415000D01*
X145197000Y-149960000D02*
X146340000Y-149960000D01*
X153240000Y-124686999D02*
X154799999Y-124686999D01*
X154799999Y-124686999D02*
X154840000Y-124727000D01*
X135212705Y-191679575D02*
X135212705Y-192319857D01*
X153240000Y-162815999D02*
X153240000Y-162110000D01*
X153240000Y-105665999D02*
X153240000Y-107203000D01*
X162730001Y-184474000D02*
X162690000Y-184433999D01*
X163866000Y-128751000D02*
X165517000Y-128751000D01*
X164120000Y-109574000D02*
X165390000Y-109574000D01*
X162590000Y-168127000D02*
X164120000Y-166597000D01*
X155137000Y-190727000D02*
X155738000Y-190727000D01*
X162590000Y-130027000D02*
X163866000Y-128751000D01*
X173890000Y-103325000D02*
X169406000Y-98841000D01*
X173330001Y-160434999D02*
X173370002Y-160475000D01*
X133103815Y-132575745D02*
X131683749Y-132575745D01*
X172290000Y-142938882D02*
X172883000Y-143531882D01*
X172290000Y-103284999D02*
X173849999Y-103284999D01*
X172290000Y-160434999D02*
X173330001Y-160434999D01*
X136740000Y-119506000D02*
X130525400Y-119506000D01*
X164120000Y-166597000D02*
X165390000Y-166597000D01*
X173849999Y-103284999D02*
X173890000Y-103325000D01*
X155758956Y-101306044D02*
X138808956Y-101306044D01*
X162590000Y-111104000D02*
X164120000Y-109574000D01*
X172290000Y-141155000D02*
X172290000Y-141384999D01*
X173370002Y-160475000D02*
X173890000Y-160475000D01*
X172290000Y-141282000D02*
X172290000Y-141384999D01*
X173849999Y-141384999D02*
X173890000Y-141425000D01*
X163993000Y-181837000D02*
X162690000Y-183140000D01*
X130727999Y-131619995D02*
X130528000Y-131419996D01*
X162590000Y-149077000D02*
X164120000Y-147547000D01*
X172290000Y-124094000D02*
X173010000Y-124814000D01*
X172290000Y-141384999D02*
X172290000Y-142938882D01*
X162590000Y-149825000D02*
X162590000Y-149077000D01*
X158224000Y-98841000D02*
X155758956Y-101306044D01*
X172290000Y-104917000D02*
X173137000Y-105764000D01*
X138179000Y-118067000D02*
X136740000Y-119506000D01*
X164120000Y-147547000D02*
X165517000Y-147547000D01*
X130525400Y-119506000D02*
X129540000Y-120491400D01*
X172290000Y-122350199D02*
X172290000Y-124094000D01*
X173899000Y-159104000D02*
X173620999Y-159104000D01*
X169406000Y-98841000D02*
X158224000Y-98841000D01*
X129540000Y-130431996D02*
X130528000Y-131419996D01*
X173849999Y-122350199D02*
X173890000Y-122390200D01*
X164290000Y-184474000D02*
X162730001Y-184474000D01*
X173620999Y-159104000D02*
X172290000Y-160434999D01*
X172290000Y-103284999D02*
X172290000Y-104917000D01*
X138179000Y-101936000D02*
X138179000Y-118067000D01*
X172290000Y-122350199D02*
X173849999Y-122350199D01*
X138808956Y-101306044D02*
X138179000Y-101936000D01*
X162690000Y-183140000D02*
X162690000Y-184433999D01*
X173899000Y-158342000D02*
X173899000Y-159104000D01*
X129540000Y-120491400D02*
X129540000Y-130431996D01*
X172290000Y-141384999D02*
X173849999Y-141384999D01*
X162590000Y-130790200D02*
X162590000Y-130027000D01*
X162590000Y-111725000D02*
X162590000Y-111104000D01*
X162590000Y-168875000D02*
X162590000Y-168127000D01*
X131683749Y-132575745D02*
X130727999Y-131619995D01*
X152990000Y-192874000D02*
X155137000Y-190727000D01*
X183297000Y-126211000D02*
X181640000Y-127868000D01*
X191340000Y-122316000D02*
X191640000Y-122616000D01*
X193076000Y-157954000D02*
X192940000Y-158090000D01*
X174674000Y-102773198D02*
X174674000Y-99750300D01*
X184567000Y-145134000D02*
X182789000Y-145134000D01*
X184567000Y-126211000D02*
X183297000Y-126211000D01*
X174300000Y-188230000D02*
X175380000Y-188230000D01*
X177582000Y-110844000D02*
X177582000Y-108057002D01*
X177582000Y-106222998D02*
X177582000Y-105681198D01*
X191340000Y-158049999D02*
X192899999Y-158049999D01*
X173364689Y-98440989D02*
X158034309Y-98440989D01*
X192899999Y-119987999D02*
X192940000Y-120028000D01*
X181640000Y-165841000D02*
X183424000Y-164057000D01*
X158034309Y-98440989D02*
X155569265Y-100906033D01*
X181640000Y-109340000D02*
X181640000Y-109707000D01*
X182789000Y-145134000D02*
X181640000Y-146283000D01*
X133103815Y-135115745D02*
X131623745Y-135115745D01*
X193076000Y-155929000D02*
X193076000Y-157954000D01*
X137678990Y-101728890D02*
X137678990Y-117888890D01*
X138501847Y-100906033D02*
X137678990Y-101728890D01*
X131623745Y-135115745D02*
X130528000Y-134020000D01*
X172040000Y-190490000D02*
X174300000Y-188230000D01*
X191340000Y-100899999D02*
X192899999Y-100899999D01*
X181640000Y-146283000D02*
X181640000Y-147440000D01*
X181640000Y-127868000D02*
X181640000Y-128428000D01*
X191340000Y-100899999D02*
X191340000Y-102631000D01*
X191340000Y-102631000D02*
X191552000Y-102843000D01*
X183297000Y-180059000D02*
X183297000Y-182047000D01*
X129140000Y-120325700D02*
X129140000Y-132632000D01*
X180503000Y-110844000D02*
X177582000Y-110844000D01*
X183043000Y-107161000D02*
X184313000Y-107161000D01*
X177564999Y-108040001D02*
X177564999Y-106239999D01*
X181640000Y-166490000D02*
X181640000Y-165841000D01*
X177582000Y-105681198D02*
X174674000Y-102773198D01*
X174674000Y-99750300D02*
X173364689Y-98440989D01*
X181640000Y-109340000D02*
X181640000Y-108564000D01*
X137678990Y-101728890D02*
X137964000Y-101443880D01*
X177564999Y-106239999D02*
X177582000Y-106222998D01*
X136546900Y-119020980D02*
X130444720Y-119020980D01*
X181640000Y-108564000D02*
X183043000Y-107161000D01*
X137678990Y-117888890D02*
X136546900Y-119020980D01*
X192899999Y-138999999D02*
X192940000Y-139040000D01*
X191340000Y-138999999D02*
X192899999Y-138999999D01*
X181740000Y-182049999D02*
X183299999Y-182049999D01*
X191933000Y-139592999D02*
X191340000Y-138999999D01*
X183424000Y-164057000D02*
X184313000Y-164057000D01*
X183297000Y-182047000D02*
X183340000Y-182090000D01*
X191340000Y-119987999D02*
X191340000Y-122316000D01*
X155569265Y-100906033D02*
X138501847Y-100906033D01*
X183299999Y-182049999D02*
X183340000Y-182090000D01*
X191933000Y-141197000D02*
X191933000Y-139592999D01*
X130444720Y-119020980D02*
X129140000Y-120325700D01*
X192899999Y-100899999D02*
X192940000Y-100940000D01*
X192899999Y-158049999D02*
X192940000Y-158090000D01*
X177582000Y-108057002D02*
X177564999Y-108040001D01*
X191340000Y-119987999D02*
X192899999Y-119987999D01*
X129140000Y-132632000D02*
X130528000Y-134020000D01*
X181640000Y-109707000D02*
X180503000Y-110844000D01*
X210390000Y-122400999D02*
X210390000Y-124221000D01*
X136339790Y-118520970D02*
X130379030Y-118520970D01*
X211949999Y-103284999D02*
X211990000Y-103325000D01*
X200690000Y-168254000D02*
X202347000Y-166597000D01*
X202347000Y-166597000D02*
X203490000Y-166597000D01*
X193266000Y-188314000D02*
X193965000Y-188314000D01*
X210390000Y-161686000D02*
X211237000Y-162533000D01*
X190203755Y-96484999D02*
X193665001Y-99946245D01*
X193665001Y-99946245D02*
X193665001Y-105337001D01*
X155403576Y-100506022D02*
X157868620Y-98040978D01*
X210390000Y-124221000D02*
X210729000Y-124560000D01*
X200690000Y-148696000D02*
X200690000Y-149825000D01*
X210390000Y-103284999D02*
X210390000Y-104155000D01*
X177090001Y-96484999D02*
X190203755Y-96484999D01*
X131663744Y-137655745D02*
X130627998Y-136619999D01*
X210390000Y-142382000D02*
X211237000Y-143229000D01*
X210390000Y-141384999D02*
X210390000Y-142382000D01*
X130379030Y-118520970D02*
X128740000Y-120160000D01*
X210390000Y-104155000D02*
X211237000Y-105002000D01*
X203744000Y-109193000D02*
X203222000Y-109193000D01*
X210390000Y-103284999D02*
X211949999Y-103284999D01*
X137178980Y-116574660D02*
X137178980Y-101518900D01*
X128740000Y-134732001D02*
X130427999Y-136420000D01*
X196505000Y-110315002D02*
X197914998Y-111725000D01*
X211949999Y-122400999D02*
X211990000Y-122441000D01*
X130627998Y-136619999D02*
X130427999Y-136420000D01*
X138191858Y-100506022D02*
X155403576Y-100506022D01*
X191090000Y-190490000D02*
X193266000Y-188314000D01*
X210390000Y-122400999D02*
X211949999Y-122400999D01*
X211949999Y-160434999D02*
X211990000Y-160475000D01*
X202390000Y-178855998D02*
X202340000Y-178805998D01*
X200830001Y-182090000D02*
X200790000Y-182049999D01*
X197914998Y-111725000D02*
X200690000Y-111725000D01*
X175534022Y-98040978D02*
X177090001Y-96484999D01*
X196505000Y-108177000D02*
X196505000Y-110315002D01*
X137178980Y-101518900D02*
X138191858Y-100506022D01*
X137178980Y-117681780D02*
X136339790Y-118520970D01*
X137178980Y-116075980D02*
X137178980Y-117681780D01*
X193665001Y-105337001D02*
X196505000Y-108177000D01*
X210390000Y-160434999D02*
X211949999Y-160434999D01*
X157868620Y-98040978D02*
X175534022Y-98040978D01*
X210390000Y-141384999D02*
X211949999Y-141384999D01*
X203222000Y-109193000D02*
X200690000Y-111725000D01*
X203617000Y-147674000D02*
X201712000Y-147674000D01*
X128740000Y-120160000D02*
X128740000Y-134732001D01*
X202474000Y-128624000D02*
X203490000Y-128624000D01*
X133103815Y-137655745D02*
X131663744Y-137655745D01*
X202390000Y-182090000D02*
X200830001Y-182090000D01*
X201712000Y-147674000D02*
X200690000Y-148696000D01*
X210390000Y-160434999D02*
X210390000Y-161686000D01*
X211237000Y-105002000D02*
X211237000Y-105637000D01*
X211949999Y-141384999D02*
X211990000Y-141425000D01*
X202390000Y-182090000D02*
X202390000Y-178855998D01*
X200690000Y-130408000D02*
X202474000Y-128624000D01*
X200690000Y-168875000D02*
X200690000Y-168254000D01*
X200690000Y-130841000D02*
X200690000Y-130408000D01*
X221957000Y-171423000D02*
X222667000Y-171423000D01*
X230999999Y-108049999D02*
X231040000Y-108090000D01*
X130627999Y-139119999D02*
X130428000Y-138920000D01*
X230999999Y-127099999D02*
X231040000Y-127140000D01*
X193056879Y-98631001D02*
X190410877Y-95984999D01*
X157705700Y-97606000D02*
X155205689Y-100106011D01*
X136674000Y-117461000D02*
X136015000Y-118120000D01*
X221143000Y-152373000D02*
X219740000Y-153776000D01*
X229440000Y-108049999D02*
X229440000Y-110124000D01*
X136015000Y-118120000D02*
X130128000Y-118120000D01*
X219740000Y-115930000D02*
X221397000Y-114273000D01*
X131703745Y-140195745D02*
X130627999Y-139119999D01*
X209093999Y-98631001D02*
X193056879Y-98631001D01*
X229440000Y-147843000D02*
X229779000Y-148182000D01*
X229440000Y-127099999D02*
X230999999Y-127099999D01*
X176961001Y-95984999D02*
X175340000Y-97606000D01*
X231430000Y-164850000D02*
X231040000Y-165240000D01*
X222667000Y-152373000D02*
X221143000Y-152373000D01*
X133103815Y-140195745D02*
X131703745Y-140195745D01*
X221397000Y-114273000D02*
X222413000Y-114273000D01*
X231430000Y-162914000D02*
X231430000Y-164850000D01*
X219740000Y-153776000D02*
X219740000Y-154590000D01*
X229440000Y-165199999D02*
X230999999Y-165199999D01*
X128340000Y-136832000D02*
X130428000Y-138920000D01*
X229440000Y-110124000D02*
X229906000Y-110590000D01*
X130128000Y-118120000D02*
X128340000Y-119908000D01*
X222540000Y-133323000D02*
X221143000Y-133323000D01*
X219740000Y-116490000D02*
X219740000Y-115930000D01*
X155205689Y-100106011D02*
X137884749Y-100106011D01*
X175340000Y-97606000D02*
X157705700Y-97606000D01*
X230999999Y-165199999D02*
X231040000Y-165240000D01*
X213142000Y-112667002D02*
X213142000Y-102679002D01*
X229440000Y-127099999D02*
X229440000Y-128666000D01*
X219740000Y-134726000D02*
X219740000Y-135540000D01*
X229440000Y-128666000D02*
X229906000Y-129132000D01*
X216964998Y-116490000D02*
X213142000Y-112667002D01*
X229440000Y-108049999D02*
X230999999Y-108049999D01*
X136674000Y-101316760D02*
X136674000Y-117461000D01*
X128340000Y-119908000D02*
X128340000Y-136832000D01*
X230999999Y-146149999D02*
X231040000Y-146190000D01*
X221143000Y-133323000D02*
X219740000Y-134726000D01*
X137884749Y-100106011D02*
X136674000Y-101316760D01*
X219740000Y-173640000D02*
X221957000Y-171423000D01*
X213142000Y-102679002D02*
X209093999Y-98631001D01*
X219740000Y-116490000D02*
X216964998Y-116490000D01*
X229440000Y-146149999D02*
X230999999Y-146149999D01*
X229440000Y-146149999D02*
X229440000Y-147843000D01*
X190410877Y-95984999D02*
X176961001Y-95984999D01*
X238790000Y-134853000D02*
X238790000Y-135540000D01*
X176861021Y-95484979D02*
X175140000Y-97206000D01*
X131643745Y-142735745D02*
X130428000Y-141520000D01*
X241717000Y-133450000D02*
X240193000Y-133450000D01*
X250049999Y-146149999D02*
X250090000Y-146190000D01*
X248490000Y-127099999D02*
X248490000Y-129555000D01*
X248490000Y-165199999D02*
X250049999Y-165199999D01*
X248490000Y-164599990D02*
X250048990Y-163041000D01*
X250049999Y-165199999D02*
X250090000Y-165240000D01*
X190810242Y-95621000D02*
X190754000Y-95621000D01*
X213684000Y-102531000D02*
X213684000Y-102513880D01*
X135707890Y-117719990D02*
X129962311Y-117719990D01*
X136173990Y-117253890D02*
X135707890Y-117719990D01*
X236014998Y-116490000D02*
X232192000Y-112667002D01*
X243749000Y-169137000D02*
X247686000Y-169137000D01*
X137719000Y-99706000D02*
X136173990Y-101251010D01*
X248490000Y-146149999D02*
X248490000Y-147843000D01*
X240880000Y-152500000D02*
X238790000Y-154590000D01*
X250049999Y-127099999D02*
X250090000Y-127140000D01*
X232192000Y-107079000D02*
X228464000Y-103351000D01*
X248490000Y-146149999D02*
X250049999Y-146149999D01*
X241844000Y-171042000D02*
X241278315Y-171042000D01*
X155040000Y-99706000D02*
X137719000Y-99706000D01*
X250049999Y-108049999D02*
X250090000Y-108090000D01*
X209301110Y-98130990D02*
X193320232Y-98130990D01*
X240193000Y-133450000D02*
X238790000Y-134853000D01*
X248490000Y-108049999D02*
X248490000Y-109616000D01*
X129962311Y-117719990D02*
X127940000Y-119742301D01*
X127940000Y-137702996D02*
X130428000Y-140190996D01*
X239939000Y-114400000D02*
X238790000Y-115549000D01*
X238790000Y-173530315D02*
X238790000Y-173640000D01*
X248490000Y-127099999D02*
X250049999Y-127099999D01*
X241590000Y-114400000D02*
X239939000Y-114400000D01*
X247686000Y-169137000D02*
X248490000Y-168333000D01*
X232192000Y-112667002D02*
X232192000Y-107079000D01*
X130428000Y-140190996D02*
X130428000Y-141520000D01*
X193320232Y-98130990D02*
X190810242Y-95621000D01*
X238790000Y-116490000D02*
X236014998Y-116490000D01*
X238790000Y-115549000D02*
X238790000Y-116490000D01*
X190617979Y-95484979D02*
X176861021Y-95484979D01*
X127940000Y-119742301D02*
X127940000Y-137702996D01*
X248490000Y-109616000D02*
X249083000Y-110209000D01*
X241278315Y-171042000D02*
X238790000Y-173530315D01*
X175140000Y-97206000D02*
X157540000Y-97206000D01*
X241463000Y-152500000D02*
X240880000Y-152500000D01*
X157540000Y-97206000D02*
X155040000Y-99706000D01*
X248490000Y-129555000D02*
X248702000Y-129767000D01*
X248490000Y-108049999D02*
X250049999Y-108049999D01*
X213684000Y-102513880D02*
X209301110Y-98130990D01*
X248490000Y-147843000D02*
X249083000Y-148436000D01*
X248490000Y-165199999D02*
X248490000Y-164599990D01*
X241844000Y-171042000D02*
X243749000Y-169137000D01*
X136173990Y-101251010D02*
X136173990Y-117253890D01*
X214504000Y-103351000D02*
X213684000Y-102531000D01*
X248490000Y-168333000D02*
X248490000Y-165199999D01*
X228464000Y-103351000D02*
X214504000Y-103351000D01*
X190754000Y-95621000D02*
X190617979Y-95484979D01*
X133103815Y-142735745D02*
X131643745Y-142735745D01*
X263088000Y-169264000D02*
X259532000Y-169264000D01*
X258368000Y-162660000D02*
X258348000Y-162640000D01*
X259848000Y-162660000D02*
X258368000Y-162660000D01*
X273648000Y-170680000D02*
X272232000Y-169264000D01*
X258008000Y-175421460D02*
X258986460Y-176399920D01*
X258008000Y-164500000D02*
X259848000Y-162660000D01*
X264104000Y-170280000D02*
X263088000Y-169264000D01*
X273648000Y-171440000D02*
X273648000Y-170680000D01*
X259108380Y-176278000D02*
X258986460Y-176399920D01*
X258008000Y-167740000D02*
X258008000Y-167238000D01*
X258008000Y-167238000D02*
X258008000Y-175421460D01*
X258008000Y-167238000D02*
X258008000Y-164500000D01*
X259532000Y-169264000D02*
X258008000Y-167740000D01*
X267660000Y-169264000D02*
X266644000Y-170280000D01*
X266644000Y-170280000D02*
X264104000Y-170280000D01*
X272232000Y-169264000D02*
X267660000Y-169264000D01*
X281884000Y-169264000D02*
X278328000Y-169264000D01*
X278898000Y-162660000D02*
X277418000Y-162660000D01*
X277518300Y-176364360D02*
X277518300Y-173584300D01*
X286964000Y-169264000D02*
X285948000Y-170280000D01*
X282900000Y-170280000D02*
X281884000Y-169264000D01*
X277418000Y-162660000D02*
X277398000Y-162640000D01*
X291536000Y-169264000D02*
X286964000Y-169264000D01*
X292698000Y-171440000D02*
X292698000Y-170426000D01*
X278898000Y-162660000D02*
X278898000Y-163614000D01*
X285948000Y-170280000D02*
X282900000Y-170280000D01*
X277518300Y-173584300D02*
X276804000Y-172870000D01*
X278898000Y-162660000D02*
X278898000Y-164122000D01*
X278898000Y-164122000D02*
X276804000Y-166216000D01*
X276804000Y-166216000D02*
X276804000Y-168248000D01*
X276804000Y-172870000D02*
X276804000Y-168248000D01*
X278328000Y-169264000D02*
X277820000Y-169264000D01*
X277820000Y-169264000D02*
X276804000Y-168248000D01*
X292698000Y-170426000D02*
X291536000Y-169264000D01*
X264104000Y-113384000D02*
X263088000Y-112368000D01*
X258368000Y-105510000D02*
X258348000Y-105490000D01*
X273648000Y-113784000D02*
X272232000Y-112368000D01*
X258516000Y-111352000D02*
X258516000Y-106842000D01*
X272232000Y-112368000D02*
X268676000Y-112368000D01*
X262072000Y-112368000D02*
X259532000Y-112368000D01*
X259848000Y-105510000D02*
X258368000Y-105510000D01*
X273648000Y-114290000D02*
X273648000Y-113784000D01*
X258516000Y-106842000D02*
X259848000Y-105510000D01*
X263088000Y-112368000D02*
X262072000Y-112368000D01*
X259532000Y-112368000D02*
X258516000Y-111352000D01*
X268168000Y-112368000D02*
X267152000Y-113384000D01*
X268676000Y-112368000D02*
X268168000Y-112368000D01*
X267152000Y-113384000D02*
X264104000Y-113384000D01*
X287980000Y-112368000D02*
X286964000Y-113384000D01*
X292698000Y-117359500D02*
X292698000Y-114290000D01*
X286964000Y-113384000D02*
X282900000Y-113384000D01*
X282900000Y-113384000D02*
X281884000Y-112368000D01*
X292044000Y-112368000D02*
X287980000Y-112368000D01*
X292698000Y-114290000D02*
X292698000Y-113022000D01*
X277312000Y-107096000D02*
X278898000Y-105510000D01*
X289329300Y-120728200D02*
X292698000Y-117359500D01*
X292698000Y-113022000D02*
X292044000Y-112368000D01*
X281884000Y-112368000D02*
X278836000Y-112368000D01*
X278836000Y-112368000D02*
X277312000Y-110844000D01*
X289329300Y-120779000D02*
X289329300Y-120728200D01*
X278898000Y-105510000D02*
X277418000Y-105510000D01*
X277312000Y-110844000D02*
X277312000Y-107096000D01*
X277418000Y-105510000D02*
X277398000Y-105490000D01*
X297948000Y-107227000D02*
X296108000Y-109067000D01*
X311440000Y-119648700D02*
X312443300Y-120652000D01*
X311440000Y-114906000D02*
X311440000Y-119648700D01*
X311748000Y-114290000D02*
X311748000Y-113784000D01*
X301696000Y-113384000D02*
X300680000Y-112368000D01*
X310332000Y-112368000D02*
X306268000Y-112368000D01*
X297948000Y-105510000D02*
X297948000Y-107227000D01*
X297948000Y-105510000D02*
X296468000Y-105510000D01*
X296468000Y-105510000D02*
X296448000Y-105490000D01*
X297632000Y-112368000D02*
X296108000Y-110844000D01*
X305252000Y-113384000D02*
X301696000Y-113384000D01*
X300680000Y-112368000D02*
X297632000Y-112368000D01*
X311748000Y-114598000D02*
X311440000Y-114906000D01*
X306268000Y-112368000D02*
X305252000Y-113384000D01*
X311748000Y-113784000D02*
X310332000Y-112368000D01*
X296108000Y-109067000D02*
X296108000Y-110844000D01*
X311748000Y-114290000D02*
X311748000Y-114598000D01*
X258368000Y-124560000D02*
X258348000Y-124540000D01*
X259848000Y-124560000D02*
X259848000Y-120741300D01*
X257448000Y-128507000D02*
X257448000Y-129692000D01*
X267152000Y-132180000D02*
X268168000Y-131164000D01*
X271472000Y-131164000D02*
X273648000Y-133340000D01*
X259848000Y-120741300D02*
X260119300Y-120470000D01*
X263088000Y-131164000D02*
X264104000Y-132180000D01*
X257448000Y-129692000D02*
X258920000Y-131164000D01*
X268168000Y-131164000D02*
X271472000Y-131164000D01*
X259140000Y-123748000D02*
X258348000Y-124540000D01*
X258920000Y-131164000D02*
X263088000Y-131164000D01*
X259848000Y-124560000D02*
X259848000Y-126107000D01*
X264104000Y-132180000D02*
X267152000Y-132180000D01*
X259848000Y-124560000D02*
X258368000Y-124560000D01*
X259848000Y-126107000D02*
X257448000Y-128507000D01*
X282392000Y-131672000D02*
X282900000Y-132180000D01*
X285948000Y-132180000D02*
X286964000Y-131164000D01*
X282392000Y-131164000D02*
X282392000Y-131672000D01*
X290522000Y-131164000D02*
X292698000Y-133340000D01*
X276804000Y-128116000D02*
X276804000Y-129884000D01*
X276804000Y-129884000D02*
X277698000Y-130778000D01*
X277698000Y-130778000D02*
X278084000Y-131164000D01*
X282900000Y-132180000D02*
X285948000Y-132180000D01*
X277418000Y-124560000D02*
X277398000Y-124540000D01*
X278898000Y-126022000D02*
X276804000Y-128116000D01*
X278084000Y-131164000D02*
X282392000Y-131164000D01*
X278898000Y-124560000D02*
X278898000Y-126022000D01*
X286964000Y-131164000D02*
X290522000Y-131164000D01*
X278898000Y-124560000D02*
X277418000Y-124560000D01*
X305252000Y-132180000D02*
X301696000Y-132180000D01*
X311348000Y-131164000D02*
X306268000Y-131164000D01*
X300680000Y-131164000D02*
X297632000Y-131164000D01*
X297948000Y-124560000D02*
X296468000Y-124560000D01*
X296468000Y-124560000D02*
X296448000Y-124540000D01*
X297632000Y-131164000D02*
X296616000Y-130148000D01*
X296616000Y-130148000D02*
X296616000Y-125892000D01*
X297948000Y-123398000D02*
X299140000Y-122206000D01*
X311748000Y-133340000D02*
X311748000Y-131564000D01*
X306268000Y-131164000D02*
X305252000Y-132180000D01*
X296616000Y-125892000D02*
X297948000Y-124560000D01*
X311748000Y-131564000D02*
X311348000Y-131164000D01*
X297948000Y-124560000D02*
X297948000Y-123398000D01*
X301696000Y-132180000D02*
X300680000Y-131164000D01*
X305252000Y-170280000D02*
X301696000Y-170280000D01*
X297948000Y-162660000D02*
X297948000Y-163868000D01*
X311748000Y-170172000D02*
X310840000Y-169264000D01*
X296563220Y-176364360D02*
X296563220Y-173329220D01*
X311748000Y-171440000D02*
X311748000Y-170172000D01*
X297948000Y-162660000D02*
X296468000Y-162660000D01*
X296108000Y-172874000D02*
X296108000Y-168248000D01*
X296108000Y-165708000D02*
X296108000Y-168248000D01*
X301696000Y-170280000D02*
X300680000Y-169264000D01*
X310840000Y-169264000D02*
X306268000Y-169264000D01*
X306268000Y-169264000D02*
X305252000Y-170280000D01*
X296468000Y-162660000D02*
X296448000Y-162640000D01*
X297124000Y-169264000D02*
X296108000Y-168248000D01*
X297948000Y-163868000D02*
X296108000Y-165708000D01*
X296563220Y-173329220D02*
X296108000Y-172874000D01*
X300680000Y-169264000D02*
X297124000Y-169264000D01*
X130904000Y-195343512D02*
X130877999Y-195317511D01*
X141202850Y-183840850D02*
X136859655Y-179497655D01*
X130877999Y-192104999D02*
X126254000Y-187481000D01*
X129449000Y-177834246D02*
X131112409Y-179497655D01*
X130408706Y-195838806D02*
X130683707Y-195563805D01*
X126254000Y-187481000D02*
X126254000Y-183981000D01*
X130408706Y-195838806D02*
X130904000Y-195343512D01*
X136859655Y-179497655D02*
X131112409Y-179497655D01*
X130877999Y-195317511D02*
X130877999Y-192104999D01*
X130379730Y-178764976D02*
X131112409Y-179497655D01*
X129449000Y-177138000D02*
X129449000Y-177834246D01*
X141202850Y-184892191D02*
X141202850Y-183840850D01*
X126254000Y-183981000D02*
X124389475Y-182116475D01*
X124389475Y-182116475D02*
X124389475Y-179728425D01*
X130379730Y-178188617D02*
X130379730Y-178764976D01*
X148246000Y-182218000D02*
X148590000Y-181874000D01*
X155834000Y-179761000D02*
X155834000Y-183502998D01*
X147483000Y-182218000D02*
X148246000Y-182218000D01*
X148610000Y-181894000D02*
X148590000Y-181874000D01*
X161386300Y-179761000D02*
X164869300Y-176278000D01*
X155834000Y-183502998D02*
X158764000Y-186432998D01*
X158764000Y-187861000D02*
X159434000Y-188531000D01*
X164935002Y-175956000D02*
X164910001Y-175930999D01*
X161747000Y-188531000D02*
X163890000Y-190674000D01*
X159434000Y-188531000D02*
X161747000Y-188531000D01*
X152223000Y-179761000D02*
X155834000Y-179761000D01*
X155834000Y-179761000D02*
X161386300Y-179761000D01*
X150090000Y-181894000D02*
X152223000Y-179761000D01*
X150090000Y-181894000D02*
X148610000Y-181894000D01*
X158764000Y-186432998D02*
X158764000Y-187861000D01*
X168649001Y-192265001D02*
X166340000Y-189956000D01*
X166340000Y-180125000D02*
X166660000Y-179805000D01*
X167640000Y-179490000D02*
X166975000Y-179490000D01*
X166340000Y-189956000D02*
X166340000Y-180125000D01*
X167660000Y-179510000D02*
X167640000Y-179490000D01*
X166975000Y-179490000D02*
X166660000Y-179805000D01*
X169140000Y-179510000D02*
X169140000Y-178906000D01*
X180690000Y-176706000D02*
X183440000Y-173956000D01*
X182940000Y-188856000D02*
X179530999Y-192265001D01*
X169140000Y-178906000D02*
X171340000Y-176706000D01*
X182940000Y-188290000D02*
X182940000Y-188856000D01*
X171340000Y-176706000D02*
X180690000Y-176706000D01*
X179530999Y-192265001D02*
X168649001Y-192265001D01*
X169140000Y-179510000D02*
X167660000Y-179510000D01*
X188190000Y-179110000D02*
X188190000Y-179510000D01*
X201990000Y-188290000D02*
X201990000Y-189758000D01*
X185778000Y-190970000D02*
X185778000Y-181922000D01*
X185778000Y-181922000D02*
X188190000Y-179510000D01*
X188999300Y-175782700D02*
X188999300Y-173865000D01*
X188190000Y-179510000D02*
X188190000Y-176592000D01*
X188190000Y-176592000D02*
X188999300Y-175782700D01*
X188190000Y-179510000D02*
X186710000Y-179510000D01*
X201990000Y-189758000D02*
X199278000Y-192470000D01*
X199278000Y-192470000D02*
X187278000Y-192470000D01*
X186710000Y-179510000D02*
X186690000Y-179490000D01*
X187278000Y-192470000D02*
X185778000Y-190970000D01*
X286456000Y-150468000D02*
X285440000Y-151484000D01*
X283408000Y-151484000D02*
X282392000Y-150468000D01*
X277312000Y-149452000D02*
X277312000Y-145196000D01*
X285440000Y-151484000D02*
X283408000Y-151484000D01*
X277418000Y-143610000D02*
X277398000Y-143590000D01*
X273454300Y-153309700D02*
X277312000Y-149452000D01*
X273454300Y-155831000D02*
X273454300Y-153309700D01*
X292698000Y-151630000D02*
X291536000Y-150468000D01*
X278328000Y-150468000D02*
X277312000Y-149452000D01*
X278898000Y-143610000D02*
X277418000Y-143610000D01*
X282392000Y-150468000D02*
X278328000Y-150468000D01*
X292698000Y-152390000D02*
X292698000Y-151630000D01*
X291536000Y-150468000D02*
X286456000Y-150468000D01*
X277312000Y-145196000D02*
X278898000Y-143610000D01*
X291240000Y-142706000D02*
X301992070Y-142706000D01*
X273050000Y-145596000D02*
X277840000Y-140806000D01*
X277840000Y-140806000D02*
X289340000Y-140806000D01*
X301992070Y-142706000D02*
X304088255Y-140609815D01*
X271816000Y-145596000D02*
X273050000Y-145596000D01*
X289340000Y-140806000D02*
X291240000Y-142706000D01*
X131723741Y-122415745D02*
X130528000Y-121220004D01*
X133103815Y-122415745D02*
X131723741Y-122415745D01*
M02*
