G04 #@! TF.GenerationSoftware,KiCad,Pcbnew,7.0.10*
G04 #@! TF.CreationDate,2024-03-31T17:07:34-04:00*
G04 #@! TF.ProjectId,Breeze,42726565-7a65-42e6-9b69-6361645f7063,Rev1.2*
G04 #@! TF.SameCoordinates,Original*
G04 #@! TF.FileFunction,Copper,L2,Bot*
G04 #@! TF.FilePolarity,Positive*
%FSLAX46Y46*%
G04 Gerber Fmt 4.6, Leading zero omitted, Abs format (unit mm)*
G04 Created by KiCad (PCBNEW 7.0.10) date 2024-03-31 17:07:34*
%MOMM*%
%LPD*%
G01*
G04 APERTURE LIST*
G04 Aperture macros list*
%AMRotRect*
0 Rectangle, with rotation*
0 The origin of the aperture is its center*
0 $1 length*
0 $2 width*
0 $3 Rotation angle, in degrees counterclockwise*
0 Add horizontal line*
21,1,$1,$2,0,0,$3*%
G04 Aperture macros list end*
%ADD10C,0.150000*%
G04 #@! TA.AperFunction,NonConductor*
%ADD11C,0.150000*%
G04 #@! TD*
%ADD12C,0.200000*%
G04 #@! TA.AperFunction,NonConductor*
%ADD13C,0.200000*%
G04 #@! TD*
G04 #@! TA.AperFunction,EtchedComponent*
%ADD14C,0.010000*%
G04 #@! TD*
G04 #@! TA.AperFunction,ComponentPad*
%ADD15C,2.000000*%
G04 #@! TD*
G04 #@! TA.AperFunction,ComponentPad*
%ADD16RotRect,1.000000X2.100000X30.000000*%
G04 #@! TD*
G04 #@! TA.AperFunction,ComponentPad*
%ADD17C,1.524000*%
G04 #@! TD*
G04 #@! TA.AperFunction,SMDPad,CuDef*
%ADD18R,0.700000X1.500000*%
G04 #@! TD*
G04 #@! TA.AperFunction,SMDPad,CuDef*
%ADD19R,2.000000X2.000000*%
G04 #@! TD*
G04 #@! TA.AperFunction,SMDPad,CuDef*
%ADD20R,2.500000X2.500000*%
G04 #@! TD*
G04 #@! TA.AperFunction,SMDPad,CuDef*
%ADD21R,1.900000X2.000000*%
G04 #@! TD*
G04 #@! TA.AperFunction,SMDPad,CuDef*
%ADD22R,2.400000X2.400000*%
G04 #@! TD*
G04 #@! TA.AperFunction,SMDPad,CuDef*
%ADD23RotRect,0.700000X1.500000X300.000000*%
G04 #@! TD*
G04 #@! TA.AperFunction,SMDPad,CuDef*
%ADD24RotRect,2.000000X2.000000X120.000000*%
G04 #@! TD*
G04 #@! TA.AperFunction,SMDPad,CuDef*
%ADD25RotRect,2.500000X2.500000X120.000000*%
G04 #@! TD*
G04 #@! TA.AperFunction,SMDPad,CuDef*
%ADD26RotRect,1.900000X2.000000X120.000000*%
G04 #@! TD*
G04 #@! TA.AperFunction,SMDPad,CuDef*
%ADD27RotRect,2.400000X2.400000X120.000000*%
G04 #@! TD*
G04 #@! TA.AperFunction,ComponentPad*
%ADD28C,4.000000*%
G04 #@! TD*
G04 #@! TA.AperFunction,ComponentPad*
%ADD29C,2.600000*%
G04 #@! TD*
G04 #@! TA.AperFunction,ViaPad*
%ADD30C,0.800000*%
G04 #@! TD*
G04 #@! TA.AperFunction,ViaPad*
%ADD31C,0.400000*%
G04 #@! TD*
G04 #@! TA.AperFunction,Conductor*
%ADD32C,0.500000*%
G04 #@! TD*
G04 #@! TA.AperFunction,Conductor*
%ADD33C,0.250000*%
G04 #@! TD*
G04 APERTURE END LIST*
D10*
D11*
X218312744Y-177661819D02*
X218122268Y-177661819D01*
X218122268Y-177661819D02*
X218027030Y-177709438D01*
X218027030Y-177709438D02*
X217931792Y-177804676D01*
X217931792Y-177804676D02*
X217884173Y-177995152D01*
X217884173Y-177995152D02*
X217884173Y-178328485D01*
X217884173Y-178328485D02*
X217931792Y-178518961D01*
X217931792Y-178518961D02*
X218027030Y-178614200D01*
X218027030Y-178614200D02*
X218122268Y-178661819D01*
X218122268Y-178661819D02*
X218312744Y-178661819D01*
X218312744Y-178661819D02*
X218407982Y-178614200D01*
X218407982Y-178614200D02*
X218503220Y-178518961D01*
X218503220Y-178518961D02*
X218550839Y-178328485D01*
X218550839Y-178328485D02*
X218550839Y-177995152D01*
X218550839Y-177995152D02*
X218503220Y-177804676D01*
X218503220Y-177804676D02*
X218407982Y-177709438D01*
X218407982Y-177709438D02*
X218312744Y-177661819D01*
X217027030Y-178614200D02*
X217122268Y-178661819D01*
X217122268Y-178661819D02*
X217312744Y-178661819D01*
X217312744Y-178661819D02*
X217407982Y-178614200D01*
X217407982Y-178614200D02*
X217455601Y-178566580D01*
X217455601Y-178566580D02*
X217503220Y-178471342D01*
X217503220Y-178471342D02*
X217503220Y-178185628D01*
X217503220Y-178185628D02*
X217455601Y-178090390D01*
X217455601Y-178090390D02*
X217407982Y-178042771D01*
X217407982Y-178042771D02*
X217312744Y-177995152D01*
X217312744Y-177995152D02*
X217122268Y-177995152D01*
X217122268Y-177995152D02*
X217027030Y-178042771D01*
X216217506Y-178614200D02*
X216312744Y-178661819D01*
X216312744Y-178661819D02*
X216503220Y-178661819D01*
X216503220Y-178661819D02*
X216598458Y-178614200D01*
X216598458Y-178614200D02*
X216646077Y-178518961D01*
X216646077Y-178518961D02*
X216646077Y-178138009D01*
X216646077Y-178138009D02*
X216598458Y-178042771D01*
X216598458Y-178042771D02*
X216503220Y-177995152D01*
X216503220Y-177995152D02*
X216312744Y-177995152D01*
X216312744Y-177995152D02*
X216217506Y-178042771D01*
X216217506Y-178042771D02*
X216169887Y-178138009D01*
X216169887Y-178138009D02*
X216169887Y-178233247D01*
X216169887Y-178233247D02*
X216646077Y-178328485D01*
X215312744Y-178661819D02*
X215312744Y-178138009D01*
X215312744Y-178138009D02*
X215360363Y-178042771D01*
X215360363Y-178042771D02*
X215455601Y-177995152D01*
X215455601Y-177995152D02*
X215646077Y-177995152D01*
X215646077Y-177995152D02*
X215741315Y-178042771D01*
X215312744Y-178614200D02*
X215407982Y-178661819D01*
X215407982Y-178661819D02*
X215646077Y-178661819D01*
X215646077Y-178661819D02*
X215741315Y-178614200D01*
X215741315Y-178614200D02*
X215788934Y-178518961D01*
X215788934Y-178518961D02*
X215788934Y-178423723D01*
X215788934Y-178423723D02*
X215741315Y-178328485D01*
X215741315Y-178328485D02*
X215646077Y-178280866D01*
X215646077Y-178280866D02*
X215407982Y-178280866D01*
X215407982Y-178280866D02*
X215312744Y-178233247D01*
X214836553Y-177995152D02*
X214836553Y-178661819D01*
X214836553Y-178090390D02*
X214788934Y-178042771D01*
X214788934Y-178042771D02*
X214693696Y-177995152D01*
X214693696Y-177995152D02*
X214550839Y-177995152D01*
X214550839Y-177995152D02*
X214455601Y-178042771D01*
X214455601Y-178042771D02*
X214407982Y-178138009D01*
X214407982Y-178138009D02*
X214407982Y-178661819D01*
X213265124Y-177995152D02*
X213074648Y-178661819D01*
X213074648Y-178661819D02*
X212884172Y-178185628D01*
X212884172Y-178185628D02*
X212693696Y-178661819D01*
X212693696Y-178661819D02*
X212503220Y-177995152D01*
X211693696Y-178661819D02*
X211693696Y-178138009D01*
X211693696Y-178138009D02*
X211741315Y-178042771D01*
X211741315Y-178042771D02*
X211836553Y-177995152D01*
X211836553Y-177995152D02*
X212027029Y-177995152D01*
X212027029Y-177995152D02*
X212122267Y-178042771D01*
X211693696Y-178614200D02*
X211788934Y-178661819D01*
X211788934Y-178661819D02*
X212027029Y-178661819D01*
X212027029Y-178661819D02*
X212122267Y-178614200D01*
X212122267Y-178614200D02*
X212169886Y-178518961D01*
X212169886Y-178518961D02*
X212169886Y-178423723D01*
X212169886Y-178423723D02*
X212122267Y-178328485D01*
X212122267Y-178328485D02*
X212027029Y-178280866D01*
X212027029Y-178280866D02*
X211788934Y-178280866D01*
X211788934Y-178280866D02*
X211693696Y-178233247D01*
X211312743Y-177995152D02*
X211074648Y-178661819D01*
X211074648Y-178661819D02*
X210836553Y-177995152D01*
X210074648Y-178614200D02*
X210169886Y-178661819D01*
X210169886Y-178661819D02*
X210360362Y-178661819D01*
X210360362Y-178661819D02*
X210455600Y-178614200D01*
X210455600Y-178614200D02*
X210503219Y-178518961D01*
X210503219Y-178518961D02*
X210503219Y-178138009D01*
X210503219Y-178138009D02*
X210455600Y-178042771D01*
X210455600Y-178042771D02*
X210360362Y-177995152D01*
X210360362Y-177995152D02*
X210169886Y-177995152D01*
X210169886Y-177995152D02*
X210074648Y-178042771D01*
X210074648Y-178042771D02*
X210027029Y-178138009D01*
X210027029Y-178138009D02*
X210027029Y-178233247D01*
X210027029Y-178233247D02*
X210503219Y-178328485D01*
X209646076Y-178614200D02*
X209550838Y-178661819D01*
X209550838Y-178661819D02*
X209360362Y-178661819D01*
X209360362Y-178661819D02*
X209265124Y-178614200D01*
X209265124Y-178614200D02*
X209217505Y-178518961D01*
X209217505Y-178518961D02*
X209217505Y-178471342D01*
X209217505Y-178471342D02*
X209265124Y-178376104D01*
X209265124Y-178376104D02*
X209360362Y-178328485D01*
X209360362Y-178328485D02*
X209503219Y-178328485D01*
X209503219Y-178328485D02*
X209598457Y-178280866D01*
X209598457Y-178280866D02*
X209646076Y-178185628D01*
X209646076Y-178185628D02*
X209646076Y-178138009D01*
X209646076Y-178138009D02*
X209598457Y-178042771D01*
X209598457Y-178042771D02*
X209503219Y-177995152D01*
X209503219Y-177995152D02*
X209360362Y-177995152D01*
X209360362Y-177995152D02*
X209265124Y-178042771D01*
X208741314Y-178614200D02*
X208741314Y-178661819D01*
X208741314Y-178661819D02*
X208788933Y-178757057D01*
X208788933Y-178757057D02*
X208836552Y-178804676D01*
X218360363Y-180271819D02*
X218455601Y-180224200D01*
X218455601Y-180224200D02*
X218503220Y-180176580D01*
X218503220Y-180176580D02*
X218550839Y-180081342D01*
X218550839Y-180081342D02*
X218550839Y-179795628D01*
X218550839Y-179795628D02*
X218503220Y-179700390D01*
X218503220Y-179700390D02*
X218455601Y-179652771D01*
X218455601Y-179652771D02*
X218360363Y-179605152D01*
X218360363Y-179605152D02*
X218217506Y-179605152D01*
X218217506Y-179605152D02*
X218122268Y-179652771D01*
X218122268Y-179652771D02*
X218074649Y-179700390D01*
X218074649Y-179700390D02*
X218027030Y-179795628D01*
X218027030Y-179795628D02*
X218027030Y-180081342D01*
X218027030Y-180081342D02*
X218074649Y-180176580D01*
X218074649Y-180176580D02*
X218122268Y-180224200D01*
X218122268Y-180224200D02*
X218217506Y-180271819D01*
X218217506Y-180271819D02*
X218360363Y-180271819D01*
X217598458Y-179605152D02*
X217598458Y-180605152D01*
X217598458Y-179652771D02*
X217503220Y-179605152D01*
X217503220Y-179605152D02*
X217312744Y-179605152D01*
X217312744Y-179605152D02*
X217217506Y-179652771D01*
X217217506Y-179652771D02*
X217169887Y-179700390D01*
X217169887Y-179700390D02*
X217122268Y-179795628D01*
X217122268Y-179795628D02*
X217122268Y-180081342D01*
X217122268Y-180081342D02*
X217169887Y-180176580D01*
X217169887Y-180176580D02*
X217217506Y-180224200D01*
X217217506Y-180224200D02*
X217312744Y-180271819D01*
X217312744Y-180271819D02*
X217503220Y-180271819D01*
X217503220Y-180271819D02*
X217598458Y-180224200D01*
X216312744Y-180224200D02*
X216407982Y-180271819D01*
X216407982Y-180271819D02*
X216598458Y-180271819D01*
X216598458Y-180271819D02*
X216693696Y-180224200D01*
X216693696Y-180224200D02*
X216741315Y-180128961D01*
X216741315Y-180128961D02*
X216741315Y-179748009D01*
X216741315Y-179748009D02*
X216693696Y-179652771D01*
X216693696Y-179652771D02*
X216598458Y-179605152D01*
X216598458Y-179605152D02*
X216407982Y-179605152D01*
X216407982Y-179605152D02*
X216312744Y-179652771D01*
X216312744Y-179652771D02*
X216265125Y-179748009D01*
X216265125Y-179748009D02*
X216265125Y-179843247D01*
X216265125Y-179843247D02*
X216741315Y-179938485D01*
X215836553Y-179605152D02*
X215836553Y-180271819D01*
X215836553Y-179700390D02*
X215788934Y-179652771D01*
X215788934Y-179652771D02*
X215693696Y-179605152D01*
X215693696Y-179605152D02*
X215550839Y-179605152D01*
X215550839Y-179605152D02*
X215455601Y-179652771D01*
X215455601Y-179652771D02*
X215407982Y-179748009D01*
X215407982Y-179748009D02*
X215407982Y-180271819D01*
X214265124Y-179605152D02*
X214074648Y-180271819D01*
X214074648Y-180271819D02*
X213884172Y-179795628D01*
X213884172Y-179795628D02*
X213693696Y-180271819D01*
X213693696Y-180271819D02*
X213503220Y-179605152D01*
X213122267Y-180271819D02*
X213122267Y-179605152D01*
X213122267Y-179271819D02*
X213169886Y-179319438D01*
X213169886Y-179319438D02*
X213122267Y-179367057D01*
X213122267Y-179367057D02*
X213074648Y-179319438D01*
X213074648Y-179319438D02*
X213122267Y-179271819D01*
X213122267Y-179271819D02*
X213122267Y-179367057D01*
X212646077Y-179605152D02*
X212646077Y-180271819D01*
X212646077Y-179700390D02*
X212598458Y-179652771D01*
X212598458Y-179652771D02*
X212503220Y-179605152D01*
X212503220Y-179605152D02*
X212360363Y-179605152D01*
X212360363Y-179605152D02*
X212265125Y-179652771D01*
X212265125Y-179652771D02*
X212217506Y-179748009D01*
X212217506Y-179748009D02*
X212217506Y-180271819D01*
X211312744Y-180271819D02*
X211312744Y-179271819D01*
X211312744Y-180224200D02*
X211407982Y-180271819D01*
X211407982Y-180271819D02*
X211598458Y-180271819D01*
X211598458Y-180271819D02*
X211693696Y-180224200D01*
X211693696Y-180224200D02*
X211741315Y-180176580D01*
X211741315Y-180176580D02*
X211788934Y-180081342D01*
X211788934Y-180081342D02*
X211788934Y-179795628D01*
X211788934Y-179795628D02*
X211741315Y-179700390D01*
X211741315Y-179700390D02*
X211693696Y-179652771D01*
X211693696Y-179652771D02*
X211598458Y-179605152D01*
X211598458Y-179605152D02*
X211407982Y-179605152D01*
X211407982Y-179605152D02*
X211312744Y-179652771D01*
X210693696Y-180271819D02*
X210788934Y-180224200D01*
X210788934Y-180224200D02*
X210836553Y-180176580D01*
X210836553Y-180176580D02*
X210884172Y-180081342D01*
X210884172Y-180081342D02*
X210884172Y-179795628D01*
X210884172Y-179795628D02*
X210836553Y-179700390D01*
X210836553Y-179700390D02*
X210788934Y-179652771D01*
X210788934Y-179652771D02*
X210693696Y-179605152D01*
X210693696Y-179605152D02*
X210550839Y-179605152D01*
X210550839Y-179605152D02*
X210455601Y-179652771D01*
X210455601Y-179652771D02*
X210407982Y-179700390D01*
X210407982Y-179700390D02*
X210360363Y-179795628D01*
X210360363Y-179795628D02*
X210360363Y-180081342D01*
X210360363Y-180081342D02*
X210407982Y-180176580D01*
X210407982Y-180176580D02*
X210455601Y-180224200D01*
X210455601Y-180224200D02*
X210550839Y-180271819D01*
X210550839Y-180271819D02*
X210693696Y-180271819D01*
X210027029Y-179605152D02*
X209836553Y-180271819D01*
X209836553Y-180271819D02*
X209646077Y-179795628D01*
X209646077Y-179795628D02*
X209455601Y-180271819D01*
X209455601Y-180271819D02*
X209265125Y-179605152D01*
X208836553Y-180224200D02*
X208836553Y-180271819D01*
X208836553Y-180271819D02*
X208884172Y-180367057D01*
X208884172Y-180367057D02*
X208931791Y-180414676D01*
X218550839Y-181834200D02*
X218455601Y-181881819D01*
X218455601Y-181881819D02*
X218265125Y-181881819D01*
X218265125Y-181881819D02*
X218169887Y-181834200D01*
X218169887Y-181834200D02*
X218122268Y-181738961D01*
X218122268Y-181738961D02*
X218122268Y-181691342D01*
X218122268Y-181691342D02*
X218169887Y-181596104D01*
X218169887Y-181596104D02*
X218265125Y-181548485D01*
X218265125Y-181548485D02*
X218407982Y-181548485D01*
X218407982Y-181548485D02*
X218503220Y-181500866D01*
X218503220Y-181500866D02*
X218550839Y-181405628D01*
X218550839Y-181405628D02*
X218550839Y-181358009D01*
X218550839Y-181358009D02*
X218503220Y-181262771D01*
X218503220Y-181262771D02*
X218407982Y-181215152D01*
X218407982Y-181215152D02*
X218265125Y-181215152D01*
X218265125Y-181215152D02*
X218169887Y-181262771D01*
X217265125Y-181215152D02*
X217265125Y-181881819D01*
X217693696Y-181215152D02*
X217693696Y-181738961D01*
X217693696Y-181738961D02*
X217646077Y-181834200D01*
X217646077Y-181834200D02*
X217550839Y-181881819D01*
X217550839Y-181881819D02*
X217407982Y-181881819D01*
X217407982Y-181881819D02*
X217312744Y-181834200D01*
X217312744Y-181834200D02*
X217265125Y-181786580D01*
X216788934Y-181215152D02*
X216788934Y-181881819D01*
X216788934Y-181310390D02*
X216741315Y-181262771D01*
X216741315Y-181262771D02*
X216646077Y-181215152D01*
X216646077Y-181215152D02*
X216503220Y-181215152D01*
X216503220Y-181215152D02*
X216407982Y-181262771D01*
X216407982Y-181262771D02*
X216360363Y-181358009D01*
X216360363Y-181358009D02*
X216360363Y-181881819D01*
X215741315Y-181881819D02*
X215836553Y-181834200D01*
X215836553Y-181834200D02*
X215884172Y-181738961D01*
X215884172Y-181738961D02*
X215884172Y-180881819D01*
X215360362Y-181881819D02*
X215360362Y-181215152D01*
X215360362Y-180881819D02*
X215407981Y-180929438D01*
X215407981Y-180929438D02*
X215360362Y-180977057D01*
X215360362Y-180977057D02*
X215312743Y-180929438D01*
X215312743Y-180929438D02*
X215360362Y-180881819D01*
X215360362Y-180881819D02*
X215360362Y-180977057D01*
X215027029Y-181215152D02*
X214646077Y-181215152D01*
X214884172Y-180881819D02*
X214884172Y-181738961D01*
X214884172Y-181738961D02*
X214836553Y-181834200D01*
X214836553Y-181834200D02*
X214741315Y-181881819D01*
X214741315Y-181881819D02*
X214646077Y-181881819D01*
X213550838Y-181881819D02*
X213550838Y-180881819D01*
X213550838Y-181262771D02*
X213455600Y-181215152D01*
X213455600Y-181215152D02*
X213265124Y-181215152D01*
X213265124Y-181215152D02*
X213169886Y-181262771D01*
X213169886Y-181262771D02*
X213122267Y-181310390D01*
X213122267Y-181310390D02*
X213074648Y-181405628D01*
X213074648Y-181405628D02*
X213074648Y-181691342D01*
X213074648Y-181691342D02*
X213122267Y-181786580D01*
X213122267Y-181786580D02*
X213169886Y-181834200D01*
X213169886Y-181834200D02*
X213265124Y-181881819D01*
X213265124Y-181881819D02*
X213455600Y-181881819D01*
X213455600Y-181881819D02*
X213550838Y-181834200D01*
X212646076Y-181881819D02*
X212646076Y-181215152D01*
X212646076Y-181405628D02*
X212598457Y-181310390D01*
X212598457Y-181310390D02*
X212550838Y-181262771D01*
X212550838Y-181262771D02*
X212455600Y-181215152D01*
X212455600Y-181215152D02*
X212360362Y-181215152D01*
X211646076Y-181834200D02*
X211741314Y-181881819D01*
X211741314Y-181881819D02*
X211931790Y-181881819D01*
X211931790Y-181881819D02*
X212027028Y-181834200D01*
X212027028Y-181834200D02*
X212074647Y-181738961D01*
X212074647Y-181738961D02*
X212074647Y-181358009D01*
X212074647Y-181358009D02*
X212027028Y-181262771D01*
X212027028Y-181262771D02*
X211931790Y-181215152D01*
X211931790Y-181215152D02*
X211741314Y-181215152D01*
X211741314Y-181215152D02*
X211646076Y-181262771D01*
X211646076Y-181262771D02*
X211598457Y-181358009D01*
X211598457Y-181358009D02*
X211598457Y-181453247D01*
X211598457Y-181453247D02*
X212074647Y-181548485D01*
X210788933Y-181834200D02*
X210884171Y-181881819D01*
X210884171Y-181881819D02*
X211074647Y-181881819D01*
X211074647Y-181881819D02*
X211169885Y-181834200D01*
X211169885Y-181834200D02*
X211217504Y-181738961D01*
X211217504Y-181738961D02*
X211217504Y-181358009D01*
X211217504Y-181358009D02*
X211169885Y-181262771D01*
X211169885Y-181262771D02*
X211074647Y-181215152D01*
X211074647Y-181215152D02*
X210884171Y-181215152D01*
X210884171Y-181215152D02*
X210788933Y-181262771D01*
X210788933Y-181262771D02*
X210741314Y-181358009D01*
X210741314Y-181358009D02*
X210741314Y-181453247D01*
X210741314Y-181453247D02*
X211217504Y-181548485D01*
X210407980Y-181215152D02*
X209884171Y-181215152D01*
X209884171Y-181215152D02*
X210407980Y-181881819D01*
X210407980Y-181881819D02*
X209884171Y-181881819D01*
X209122266Y-181834200D02*
X209217504Y-181881819D01*
X209217504Y-181881819D02*
X209407980Y-181881819D01*
X209407980Y-181881819D02*
X209503218Y-181834200D01*
X209503218Y-181834200D02*
X209550837Y-181738961D01*
X209550837Y-181738961D02*
X209550837Y-181358009D01*
X209550837Y-181358009D02*
X209503218Y-181262771D01*
X209503218Y-181262771D02*
X209407980Y-181215152D01*
X209407980Y-181215152D02*
X209217504Y-181215152D01*
X209217504Y-181215152D02*
X209122266Y-181262771D01*
X209122266Y-181262771D02*
X209074647Y-181358009D01*
X209074647Y-181358009D02*
X209074647Y-181453247D01*
X209074647Y-181453247D02*
X209550837Y-181548485D01*
X208646075Y-181786580D02*
X208598456Y-181834200D01*
X208598456Y-181834200D02*
X208646075Y-181881819D01*
X208646075Y-181881819D02*
X208693694Y-181834200D01*
X208693694Y-181834200D02*
X208646075Y-181786580D01*
X208646075Y-181786580D02*
X208646075Y-181881819D01*
D12*
D13*
X131673855Y-162810885D02*
X131102427Y-162810885D01*
X131788141Y-163153742D02*
X131388141Y-161953742D01*
X131388141Y-161953742D02*
X130988141Y-163153742D01*
X130759570Y-162353742D02*
X130302427Y-162353742D01*
X130588141Y-163153742D02*
X130588141Y-162125171D01*
X130588141Y-162125171D02*
X130530998Y-162010885D01*
X130530998Y-162010885D02*
X130416713Y-161953742D01*
X130416713Y-161953742D02*
X130302427Y-161953742D01*
X130073856Y-162353742D02*
X129616713Y-162353742D01*
X129902427Y-161953742D02*
X129902427Y-162982314D01*
X129902427Y-162982314D02*
X129845284Y-163096600D01*
X129845284Y-163096600D02*
X129730999Y-163153742D01*
X129730999Y-163153742D02*
X129616713Y-163153742D01*
X128759570Y-163096600D02*
X128873856Y-163153742D01*
X128873856Y-163153742D02*
X129102428Y-163153742D01*
X129102428Y-163153742D02*
X129216713Y-163096600D01*
X129216713Y-163096600D02*
X129273856Y-162982314D01*
X129273856Y-162982314D02*
X129273856Y-162525171D01*
X129273856Y-162525171D02*
X129216713Y-162410885D01*
X129216713Y-162410885D02*
X129102428Y-162353742D01*
X129102428Y-162353742D02*
X128873856Y-162353742D01*
X128873856Y-162353742D02*
X128759570Y-162410885D01*
X128759570Y-162410885D02*
X128702428Y-162525171D01*
X128702428Y-162525171D02*
X128702428Y-162639457D01*
X128702428Y-162639457D02*
X129273856Y-162753742D01*
X128188142Y-163153742D02*
X128188142Y-162353742D01*
X128188142Y-162582314D02*
X128130999Y-162468028D01*
X128130999Y-162468028D02*
X128073857Y-162410885D01*
X128073857Y-162410885D02*
X127959571Y-162353742D01*
X127959571Y-162353742D02*
X127845285Y-162353742D01*
X127445285Y-162353742D02*
X127445285Y-163153742D01*
X127445285Y-162468028D02*
X127388142Y-162410885D01*
X127388142Y-162410885D02*
X127273857Y-162353742D01*
X127273857Y-162353742D02*
X127102428Y-162353742D01*
X127102428Y-162353742D02*
X126988142Y-162410885D01*
X126988142Y-162410885D02*
X126931000Y-162525171D01*
X126931000Y-162525171D02*
X126931000Y-163153742D01*
X126188143Y-163153742D02*
X126302428Y-163096600D01*
X126302428Y-163096600D02*
X126359571Y-163039457D01*
X126359571Y-163039457D02*
X126416714Y-162925171D01*
X126416714Y-162925171D02*
X126416714Y-162582314D01*
X126416714Y-162582314D02*
X126359571Y-162468028D01*
X126359571Y-162468028D02*
X126302428Y-162410885D01*
X126302428Y-162410885D02*
X126188143Y-162353742D01*
X126188143Y-162353742D02*
X126016714Y-162353742D01*
X126016714Y-162353742D02*
X125902428Y-162410885D01*
X125902428Y-162410885D02*
X125845286Y-162468028D01*
X125845286Y-162468028D02*
X125788143Y-162582314D01*
X125788143Y-162582314D02*
X125788143Y-162925171D01*
X125788143Y-162925171D02*
X125845286Y-163039457D01*
X125845286Y-163039457D02*
X125902428Y-163096600D01*
X125902428Y-163096600D02*
X126016714Y-163153742D01*
X126016714Y-163153742D02*
X126188143Y-163153742D01*
X125102429Y-163153742D02*
X125216714Y-163096600D01*
X125216714Y-163096600D02*
X125273857Y-163039457D01*
X125273857Y-163039457D02*
X125331000Y-162925171D01*
X125331000Y-162925171D02*
X125331000Y-162582314D01*
X125331000Y-162582314D02*
X125273857Y-162468028D01*
X125273857Y-162468028D02*
X125216714Y-162410885D01*
X125216714Y-162410885D02*
X125102429Y-162353742D01*
X125102429Y-162353742D02*
X124931000Y-162353742D01*
X124931000Y-162353742D02*
X124816714Y-162410885D01*
X124816714Y-162410885D02*
X124759572Y-162468028D01*
X124759572Y-162468028D02*
X124702429Y-162582314D01*
X124702429Y-162582314D02*
X124702429Y-162925171D01*
X124702429Y-162925171D02*
X124759572Y-163039457D01*
X124759572Y-163039457D02*
X124816714Y-163096600D01*
X124816714Y-163096600D02*
X124931000Y-163153742D01*
X124931000Y-163153742D02*
X125102429Y-163153742D01*
X124188143Y-162353742D02*
X124188143Y-163153742D01*
X124188143Y-162468028D02*
X124131000Y-162410885D01*
X124131000Y-162410885D02*
X124016715Y-162353742D01*
X124016715Y-162353742D02*
X123845286Y-162353742D01*
X123845286Y-162353742D02*
X123731000Y-162410885D01*
X123731000Y-162410885D02*
X123673858Y-162525171D01*
X123673858Y-162525171D02*
X123673858Y-163153742D01*
X121616715Y-163153742D02*
X122188143Y-163153742D01*
X122188143Y-163153742D02*
X122188143Y-161953742D01*
X120702429Y-163153742D02*
X120702429Y-162525171D01*
X120702429Y-162525171D02*
X120759571Y-162410885D01*
X120759571Y-162410885D02*
X120873857Y-162353742D01*
X120873857Y-162353742D02*
X121102429Y-162353742D01*
X121102429Y-162353742D02*
X121216714Y-162410885D01*
X120702429Y-163096600D02*
X120816714Y-163153742D01*
X120816714Y-163153742D02*
X121102429Y-163153742D01*
X121102429Y-163153742D02*
X121216714Y-163096600D01*
X121216714Y-163096600D02*
X121273857Y-162982314D01*
X121273857Y-162982314D02*
X121273857Y-162868028D01*
X121273857Y-162868028D02*
X121216714Y-162753742D01*
X121216714Y-162753742D02*
X121102429Y-162696600D01*
X121102429Y-162696600D02*
X120816714Y-162696600D01*
X120816714Y-162696600D02*
X120702429Y-162639457D01*
X120131000Y-163153742D02*
X120131000Y-161953742D01*
X120131000Y-162410885D02*
X120016715Y-162353742D01*
X120016715Y-162353742D02*
X119788143Y-162353742D01*
X119788143Y-162353742D02*
X119673857Y-162410885D01*
X119673857Y-162410885D02*
X119616715Y-162468028D01*
X119616715Y-162468028D02*
X119559572Y-162582314D01*
X119559572Y-162582314D02*
X119559572Y-162925171D01*
X119559572Y-162925171D02*
X119616715Y-163039457D01*
X119616715Y-163039457D02*
X119673857Y-163096600D01*
X119673857Y-163096600D02*
X119788143Y-163153742D01*
X119788143Y-163153742D02*
X120016715Y-163153742D01*
X120016715Y-163153742D02*
X120131000Y-163096600D01*
X119102429Y-163096600D02*
X118988143Y-163153742D01*
X118988143Y-163153742D02*
X118759572Y-163153742D01*
X118759572Y-163153742D02*
X118645286Y-163096600D01*
X118645286Y-163096600D02*
X118588143Y-162982314D01*
X118588143Y-162982314D02*
X118588143Y-162925171D01*
X118588143Y-162925171D02*
X118645286Y-162810885D01*
X118645286Y-162810885D02*
X118759572Y-162753742D01*
X118759572Y-162753742D02*
X118931001Y-162753742D01*
X118931001Y-162753742D02*
X119045286Y-162696600D01*
X119045286Y-162696600D02*
X119102429Y-162582314D01*
X119102429Y-162582314D02*
X119102429Y-162525171D01*
X119102429Y-162525171D02*
X119045286Y-162410885D01*
X119045286Y-162410885D02*
X118931001Y-162353742D01*
X118931001Y-162353742D02*
X118759572Y-162353742D01*
X118759572Y-162353742D02*
X118645286Y-162410885D01*
D12*
D13*
X129330998Y-164728600D02*
X128416713Y-164728600D01*
X127445284Y-164557171D02*
X127273856Y-164614314D01*
X127273856Y-164614314D02*
X127216713Y-164671457D01*
X127216713Y-164671457D02*
X127159570Y-164785742D01*
X127159570Y-164785742D02*
X127159570Y-164957171D01*
X127159570Y-164957171D02*
X127216713Y-165071457D01*
X127216713Y-165071457D02*
X127273856Y-165128600D01*
X127273856Y-165128600D02*
X127388141Y-165185742D01*
X127388141Y-165185742D02*
X127845284Y-165185742D01*
X127845284Y-165185742D02*
X127845284Y-163985742D01*
X127845284Y-163985742D02*
X127445284Y-163985742D01*
X127445284Y-163985742D02*
X127330999Y-164042885D01*
X127330999Y-164042885D02*
X127273856Y-164100028D01*
X127273856Y-164100028D02*
X127216713Y-164214314D01*
X127216713Y-164214314D02*
X127216713Y-164328600D01*
X127216713Y-164328600D02*
X127273856Y-164442885D01*
X127273856Y-164442885D02*
X127330999Y-164500028D01*
X127330999Y-164500028D02*
X127445284Y-164557171D01*
X127445284Y-164557171D02*
X127845284Y-164557171D01*
X126645284Y-165185742D02*
X126645284Y-164385742D01*
X126645284Y-164614314D02*
X126588141Y-164500028D01*
X126588141Y-164500028D02*
X126530999Y-164442885D01*
X126530999Y-164442885D02*
X126416713Y-164385742D01*
X126416713Y-164385742D02*
X126302427Y-164385742D01*
X125445284Y-165128600D02*
X125559570Y-165185742D01*
X125559570Y-165185742D02*
X125788142Y-165185742D01*
X125788142Y-165185742D02*
X125902427Y-165128600D01*
X125902427Y-165128600D02*
X125959570Y-165014314D01*
X125959570Y-165014314D02*
X125959570Y-164557171D01*
X125959570Y-164557171D02*
X125902427Y-164442885D01*
X125902427Y-164442885D02*
X125788142Y-164385742D01*
X125788142Y-164385742D02*
X125559570Y-164385742D01*
X125559570Y-164385742D02*
X125445284Y-164442885D01*
X125445284Y-164442885D02*
X125388142Y-164557171D01*
X125388142Y-164557171D02*
X125388142Y-164671457D01*
X125388142Y-164671457D02*
X125959570Y-164785742D01*
X124416713Y-165128600D02*
X124530999Y-165185742D01*
X124530999Y-165185742D02*
X124759571Y-165185742D01*
X124759571Y-165185742D02*
X124873856Y-165128600D01*
X124873856Y-165128600D02*
X124930999Y-165014314D01*
X124930999Y-165014314D02*
X124930999Y-164557171D01*
X124930999Y-164557171D02*
X124873856Y-164442885D01*
X124873856Y-164442885D02*
X124759571Y-164385742D01*
X124759571Y-164385742D02*
X124530999Y-164385742D01*
X124530999Y-164385742D02*
X124416713Y-164442885D01*
X124416713Y-164442885D02*
X124359571Y-164557171D01*
X124359571Y-164557171D02*
X124359571Y-164671457D01*
X124359571Y-164671457D02*
X124930999Y-164785742D01*
X123959571Y-164385742D02*
X123331000Y-164385742D01*
X123331000Y-164385742D02*
X123959571Y-165185742D01*
X123959571Y-165185742D02*
X123331000Y-165185742D01*
X122416713Y-165128600D02*
X122530999Y-165185742D01*
X122530999Y-165185742D02*
X122759571Y-165185742D01*
X122759571Y-165185742D02*
X122873856Y-165128600D01*
X122873856Y-165128600D02*
X122930999Y-165014314D01*
X122930999Y-165014314D02*
X122930999Y-164557171D01*
X122930999Y-164557171D02*
X122873856Y-164442885D01*
X122873856Y-164442885D02*
X122759571Y-164385742D01*
X122759571Y-164385742D02*
X122530999Y-164385742D01*
X122530999Y-164385742D02*
X122416713Y-164442885D01*
X122416713Y-164442885D02*
X122359571Y-164557171D01*
X122359571Y-164557171D02*
X122359571Y-164671457D01*
X122359571Y-164671457D02*
X122930999Y-164785742D01*
X121845285Y-164728600D02*
X120931000Y-164728600D01*
D14*
X121376603Y-160255861D02*
X121732147Y-160273480D01*
X121951415Y-160301155D01*
X122067451Y-160346618D01*
X122113296Y-160417600D01*
X122115772Y-160428834D01*
X122112482Y-160499373D01*
X122049600Y-160543325D01*
X121896829Y-160566796D01*
X121623872Y-160575896D01*
X121380872Y-160577000D01*
X120997438Y-160566956D01*
X120718246Y-160539000D01*
X120572359Y-160496392D01*
X120560774Y-160484956D01*
X120541375Y-160368440D01*
X120659802Y-160292983D01*
X120925285Y-160255993D01*
X121347060Y-160254877D01*
X121376603Y-160255861D01*
G04 #@! TA.AperFunction,EtchedComponent*
G36*
X121376603Y-160255861D02*
G01*
X121732147Y-160273480D01*
X121951415Y-160301155D01*
X122067451Y-160346618D01*
X122113296Y-160417600D01*
X122115772Y-160428834D01*
X122112482Y-160499373D01*
X122049600Y-160543325D01*
X121896829Y-160566796D01*
X121623872Y-160575896D01*
X121380872Y-160577000D01*
X120997438Y-160566956D01*
X120718246Y-160539000D01*
X120572359Y-160496392D01*
X120560774Y-160484956D01*
X120541375Y-160368440D01*
X120659802Y-160292983D01*
X120925285Y-160255993D01*
X121347060Y-160254877D01*
X121376603Y-160255861D01*
G37*
G04 #@! TD.AperFunction*
X121940940Y-159562036D02*
X122353402Y-159566500D01*
X122639977Y-159576428D01*
X122822387Y-159593854D01*
X122922351Y-159620813D01*
X122961591Y-159659341D01*
X122962281Y-159709167D01*
X122938338Y-159761574D01*
X122874396Y-159800776D01*
X122747808Y-159829184D01*
X122535930Y-159849207D01*
X122216114Y-159863255D01*
X121765716Y-159873737D01*
X121353544Y-159880346D01*
X120737037Y-159884613D01*
X120257448Y-159877798D01*
X119924111Y-159860263D01*
X119746363Y-159832372D01*
X119719807Y-159816846D01*
X119688076Y-159731893D01*
X119723521Y-159667602D01*
X119843760Y-159621260D01*
X120066410Y-159590152D01*
X120409089Y-159571565D01*
X120889414Y-159562786D01*
X121380872Y-159561000D01*
X121940940Y-159562036D01*
G04 #@! TA.AperFunction,EtchedComponent*
G36*
X121940940Y-159562036D02*
G01*
X122353402Y-159566500D01*
X122639977Y-159576428D01*
X122822387Y-159593854D01*
X122922351Y-159620813D01*
X122961591Y-159659341D01*
X122962281Y-159709167D01*
X122938338Y-159761574D01*
X122874396Y-159800776D01*
X122747808Y-159829184D01*
X122535930Y-159849207D01*
X122216114Y-159863255D01*
X121765716Y-159873737D01*
X121353544Y-159880346D01*
X120737037Y-159884613D01*
X120257448Y-159877798D01*
X119924111Y-159860263D01*
X119746363Y-159832372D01*
X119719807Y-159816846D01*
X119688076Y-159731893D01*
X119723521Y-159667602D01*
X119843760Y-159621260D01*
X120066410Y-159590152D01*
X120409089Y-159571565D01*
X120889414Y-159562786D01*
X121380872Y-159561000D01*
X121940940Y-159562036D01*
G37*
G04 #@! TD.AperFunction*
X120763610Y-158813539D02*
X121481889Y-158817642D01*
X121495528Y-158817744D01*
X122308483Y-158824333D01*
X122968180Y-158831200D01*
X123490693Y-158839219D01*
X123892095Y-158849262D01*
X124188460Y-158862204D01*
X124395863Y-158878919D01*
X124530377Y-158900280D01*
X124608076Y-158927160D01*
X124645033Y-158960434D01*
X124655569Y-158989500D01*
X124654263Y-159026742D01*
X124624423Y-159057182D01*
X124550761Y-159081502D01*
X124417989Y-159100384D01*
X124210821Y-159114509D01*
X123913970Y-159124560D01*
X123512146Y-159131218D01*
X122990064Y-159135165D01*
X122332436Y-159137083D01*
X121523974Y-159137654D01*
X121333542Y-159137667D01*
X120482044Y-159136996D01*
X119785033Y-159134614D01*
X119227665Y-159129964D01*
X118795096Y-159122492D01*
X118472483Y-159111642D01*
X118244984Y-159096858D01*
X118097755Y-159077586D01*
X118015952Y-159053268D01*
X117984732Y-159023351D01*
X117983000Y-159012280D01*
X118054764Y-158896941D01*
X118173500Y-158840524D01*
X118299584Y-158830575D01*
X118574812Y-158822622D01*
X118979007Y-158816803D01*
X119491991Y-158813258D01*
X120093584Y-158812123D01*
X120763610Y-158813539D01*
G04 #@! TA.AperFunction,EtchedComponent*
G36*
X120763610Y-158813539D02*
G01*
X121481889Y-158817642D01*
X121495528Y-158817744D01*
X122308483Y-158824333D01*
X122968180Y-158831200D01*
X123490693Y-158839219D01*
X123892095Y-158849262D01*
X124188460Y-158862204D01*
X124395863Y-158878919D01*
X124530377Y-158900280D01*
X124608076Y-158927160D01*
X124645033Y-158960434D01*
X124655569Y-158989500D01*
X124654263Y-159026742D01*
X124624423Y-159057182D01*
X124550761Y-159081502D01*
X124417989Y-159100384D01*
X124210821Y-159114509D01*
X123913970Y-159124560D01*
X123512146Y-159131218D01*
X122990064Y-159135165D01*
X122332436Y-159137083D01*
X121523974Y-159137654D01*
X121333542Y-159137667D01*
X120482044Y-159136996D01*
X119785033Y-159134614D01*
X119227665Y-159129964D01*
X118795096Y-159122492D01*
X118472483Y-159111642D01*
X118244984Y-159096858D01*
X118097755Y-159077586D01*
X118015952Y-159053268D01*
X117984732Y-159023351D01*
X117983000Y-159012280D01*
X118054764Y-158896941D01*
X118173500Y-158840524D01*
X118299584Y-158830575D01*
X118574812Y-158822622D01*
X118979007Y-158816803D01*
X119491991Y-158813258D01*
X120093584Y-158812123D01*
X120763610Y-158813539D01*
G37*
G04 #@! TD.AperFunction*
X121737940Y-153004442D02*
X122032663Y-153026064D01*
X122264807Y-153073710D01*
X122487674Y-153156870D01*
X122655761Y-153235912D01*
X123147383Y-153553137D01*
X123599477Y-153984240D01*
X123966243Y-154479252D01*
X124165846Y-154883450D01*
X124311258Y-155460846D01*
X124342715Y-156078964D01*
X124266269Y-156692920D01*
X124087967Y-157257832D01*
X123813859Y-157728815D01*
X123776090Y-157775376D01*
X123642846Y-157946103D01*
X123573713Y-158058853D01*
X123571000Y-158070389D01*
X123650296Y-158089892D01*
X123866719Y-158105982D01*
X124188072Y-158117087D01*
X124582161Y-158121633D01*
X124620275Y-158121667D01*
X125081174Y-158125824D01*
X125397257Y-158140056D01*
X125592880Y-158167005D01*
X125692396Y-158209310D01*
X125715108Y-158240389D01*
X125727456Y-158376005D01*
X125710055Y-158409723D01*
X125618023Y-158419517D01*
X125372724Y-158428686D01*
X124990228Y-158437047D01*
X124486601Y-158444413D01*
X123877911Y-158450600D01*
X123180225Y-158455423D01*
X122409611Y-158458697D01*
X121582135Y-158460237D01*
X121313222Y-158460334D01*
X120344839Y-158460201D01*
X119532147Y-158459449D01*
X118861505Y-158457546D01*
X118319271Y-158453961D01*
X117891805Y-158448161D01*
X117565463Y-158439616D01*
X117326604Y-158427795D01*
X117161587Y-158412165D01*
X117056771Y-158392194D01*
X116998512Y-158367353D01*
X116973170Y-158337109D01*
X116967104Y-158300930D01*
X116967000Y-158291000D01*
X116976340Y-158221856D01*
X117022352Y-158174621D01*
X117132031Y-158145139D01*
X117332367Y-158129257D01*
X117650352Y-158122820D01*
X118067108Y-158121667D01*
X119167215Y-158121667D01*
X118872216Y-157735197D01*
X118672343Y-157416916D01*
X118498993Y-157046524D01*
X118439372Y-156874558D01*
X118349374Y-156366603D01*
X118340023Y-155795651D01*
X118407311Y-155232398D01*
X118547228Y-154747542D01*
X118561959Y-154713076D01*
X118832847Y-154256142D01*
X119217699Y-153813301D01*
X119665517Y-153436873D01*
X120004299Y-153233381D01*
X120248401Y-153122638D01*
X120468217Y-153053300D01*
X120716877Y-153015969D01*
X121047513Y-153001248D01*
X121327334Y-152999351D01*
X121737940Y-153004442D01*
G04 #@! TA.AperFunction,EtchedComponent*
G36*
X121737940Y-153004442D02*
G01*
X122032663Y-153026064D01*
X122264807Y-153073710D01*
X122487674Y-153156870D01*
X122655761Y-153235912D01*
X123147383Y-153553137D01*
X123599477Y-153984240D01*
X123966243Y-154479252D01*
X124165846Y-154883450D01*
X124311258Y-155460846D01*
X124342715Y-156078964D01*
X124266269Y-156692920D01*
X124087967Y-157257832D01*
X123813859Y-157728815D01*
X123776090Y-157775376D01*
X123642846Y-157946103D01*
X123573713Y-158058853D01*
X123571000Y-158070389D01*
X123650296Y-158089892D01*
X123866719Y-158105982D01*
X124188072Y-158117087D01*
X124582161Y-158121633D01*
X124620275Y-158121667D01*
X125081174Y-158125824D01*
X125397257Y-158140056D01*
X125592880Y-158167005D01*
X125692396Y-158209310D01*
X125715108Y-158240389D01*
X125727456Y-158376005D01*
X125710055Y-158409723D01*
X125618023Y-158419517D01*
X125372724Y-158428686D01*
X124990228Y-158437047D01*
X124486601Y-158444413D01*
X123877911Y-158450600D01*
X123180225Y-158455423D01*
X122409611Y-158458697D01*
X121582135Y-158460237D01*
X121313222Y-158460334D01*
X120344839Y-158460201D01*
X119532147Y-158459449D01*
X118861505Y-158457546D01*
X118319271Y-158453961D01*
X117891805Y-158448161D01*
X117565463Y-158439616D01*
X117326604Y-158427795D01*
X117161587Y-158412165D01*
X117056771Y-158392194D01*
X116998512Y-158367353D01*
X116973170Y-158337109D01*
X116967104Y-158300930D01*
X116967000Y-158291000D01*
X116976340Y-158221856D01*
X117022352Y-158174621D01*
X117132031Y-158145139D01*
X117332367Y-158129257D01*
X117650352Y-158122820D01*
X118067108Y-158121667D01*
X119167215Y-158121667D01*
X118872216Y-157735197D01*
X118672343Y-157416916D01*
X118498993Y-157046524D01*
X118439372Y-156874558D01*
X118349374Y-156366603D01*
X118340023Y-155795651D01*
X118407311Y-155232398D01*
X118547228Y-154747542D01*
X118561959Y-154713076D01*
X118832847Y-154256142D01*
X119217699Y-153813301D01*
X119665517Y-153436873D01*
X120004299Y-153233381D01*
X120248401Y-153122638D01*
X120468217Y-153053300D01*
X120716877Y-153015969D01*
X121047513Y-153001248D01*
X121327334Y-152999351D01*
X121737940Y-153004442D01*
G37*
G04 #@! TD.AperFunction*
G04 #@! TA.AperFunction,EtchedComponent*
G36*
X134048661Y-155773743D02*
G01*
X134043263Y-155792394D01*
X134036041Y-155815638D01*
X134026764Y-155844130D01*
X134015204Y-155878520D01*
X134001130Y-155919461D01*
X133984315Y-155967606D01*
X133964528Y-156023608D01*
X133941541Y-156088117D01*
X133915124Y-156161788D01*
X133885048Y-156245273D01*
X133851083Y-156339223D01*
X133813001Y-156444292D01*
X133770572Y-156561131D01*
X133723567Y-156690394D01*
X133671756Y-156832732D01*
X133614911Y-156988798D01*
X133552802Y-157159244D01*
X133512157Y-157270728D01*
X133460563Y-157412119D01*
X133410496Y-157549188D01*
X133362237Y-157681168D01*
X133316067Y-157807294D01*
X133272270Y-157926800D01*
X133231126Y-158038921D01*
X133192917Y-158142892D01*
X133157924Y-158237946D01*
X133126430Y-158323318D01*
X133098715Y-158398242D01*
X133075063Y-158461953D01*
X133055753Y-158513685D01*
X133041068Y-158552672D01*
X133031290Y-158578149D01*
X133026700Y-158589351D01*
X132998150Y-158637211D01*
X132947933Y-158697884D01*
X132886082Y-158753225D01*
X132815014Y-158801415D01*
X132737145Y-158840638D01*
X132654890Y-158869075D01*
X132582878Y-158888393D01*
X132466698Y-158965766D01*
X131402507Y-159674490D01*
X131346462Y-159711811D01*
X131223349Y-159793759D01*
X131104010Y-159873154D01*
X130989125Y-159949542D01*
X130879378Y-160022472D01*
X130775448Y-160091493D01*
X130678019Y-160156153D01*
X130587771Y-160215999D01*
X130505387Y-160270581D01*
X130431548Y-160319447D01*
X130366935Y-160362144D01*
X130312231Y-160398222D01*
X130268116Y-160427228D01*
X130235274Y-160448710D01*
X130214384Y-160462218D01*
X130206130Y-160467298D01*
X130199235Y-160470114D01*
X130191779Y-160472643D01*
X130183606Y-160474388D01*
X130173963Y-160475101D01*
X130162095Y-160474535D01*
X130147249Y-160472444D01*
X130128670Y-160468581D01*
X130105606Y-160462699D01*
X130077303Y-160454551D01*
X130043006Y-160443891D01*
X130001961Y-160430470D01*
X129953415Y-160414044D01*
X129896615Y-160394363D01*
X129830805Y-160371183D01*
X129755233Y-160344256D01*
X129669145Y-160313334D01*
X129571786Y-160278172D01*
X129462403Y-160238522D01*
X129340242Y-160194138D01*
X129204549Y-160144772D01*
X129054571Y-160090177D01*
X128962793Y-160056769D01*
X128776145Y-159988846D01*
X128603679Y-159926100D01*
X128444817Y-159868305D01*
X128298982Y-159815238D01*
X128165594Y-159766673D01*
X128044077Y-159722387D01*
X127933851Y-159682155D01*
X127834340Y-159645752D01*
X127744966Y-159612955D01*
X127665150Y-159583539D01*
X127594314Y-159557278D01*
X127531881Y-159533950D01*
X127477273Y-159513329D01*
X127429911Y-159495191D01*
X127389218Y-159479312D01*
X127354617Y-159465467D01*
X127325528Y-159453431D01*
X127301374Y-159442981D01*
X127281577Y-159433892D01*
X127265559Y-159425940D01*
X127252743Y-159418899D01*
X127242550Y-159412546D01*
X127234402Y-159406656D01*
X127227722Y-159401005D01*
X127221931Y-159395369D01*
X127216452Y-159389522D01*
X127210706Y-159383240D01*
X127204117Y-159376300D01*
X127196105Y-159368476D01*
X127154582Y-159325543D01*
X127096413Y-159247155D01*
X127050808Y-159159599D01*
X127018551Y-159064221D01*
X127016652Y-159057334D01*
X127013884Y-159048960D01*
X127010095Y-159039431D01*
X127004890Y-159028140D01*
X126997879Y-159014477D01*
X126988667Y-158997836D01*
X126976862Y-158977607D01*
X126962072Y-158953182D01*
X126943903Y-158923954D01*
X126921963Y-158889314D01*
X126895859Y-158848654D01*
X126865199Y-158801366D01*
X126829589Y-158746842D01*
X126788637Y-158684474D01*
X126741950Y-158613653D01*
X126689135Y-158533771D01*
X126629799Y-158444221D01*
X126563551Y-158344393D01*
X126489997Y-158233681D01*
X126408744Y-158111475D01*
X126319399Y-157977168D01*
X126221570Y-157830151D01*
X126188346Y-157780221D01*
X126106436Y-157657089D01*
X126027011Y-157537638D01*
X125950527Y-157422556D01*
X125877440Y-157312531D01*
X125808207Y-157208253D01*
X125743283Y-157110410D01*
X125683126Y-157019690D01*
X125628190Y-156936782D01*
X125578934Y-156862374D01*
X125535813Y-156797155D01*
X125499283Y-156741814D01*
X125469800Y-156697039D01*
X125447822Y-156663519D01*
X125433804Y-156641942D01*
X125428203Y-156632997D01*
X125426312Y-156629403D01*
X125423019Y-156623069D01*
X125420223Y-156616684D01*
X125418140Y-156609595D01*
X125416986Y-156601151D01*
X125416977Y-156590701D01*
X125418328Y-156577592D01*
X125421256Y-156561172D01*
X125425977Y-156540790D01*
X125426515Y-156538790D01*
X125738928Y-156538790D01*
X125740476Y-156542783D01*
X125750023Y-156559539D01*
X125767950Y-156588699D01*
X125793915Y-156629739D01*
X125827575Y-156682133D01*
X125868587Y-156745357D01*
X125916608Y-156818887D01*
X125971294Y-156902196D01*
X126032303Y-156994761D01*
X126099291Y-157096056D01*
X126171915Y-157205557D01*
X126249833Y-157322739D01*
X126332701Y-157447076D01*
X126391831Y-157535686D01*
X126471449Y-157654927D01*
X126542923Y-157761865D01*
X126606678Y-157857113D01*
X126663135Y-157941283D01*
X126712717Y-158014990D01*
X126755847Y-158078845D01*
X126792948Y-158133462D01*
X126824442Y-158179453D01*
X126850752Y-158217431D01*
X126872300Y-158248010D01*
X126889510Y-158271801D01*
X126902804Y-158289418D01*
X126912605Y-158301474D01*
X126919335Y-158308581D01*
X126923417Y-158311353D01*
X126925274Y-158310402D01*
X126925328Y-158306341D01*
X126924693Y-158301419D01*
X126920942Y-158271167D01*
X126915807Y-158228379D01*
X126909448Y-158174475D01*
X126902027Y-158110879D01*
X126893703Y-158039011D01*
X126884638Y-157960294D01*
X126874992Y-157876149D01*
X126864927Y-157787998D01*
X126854603Y-157697263D01*
X126844180Y-157605366D01*
X126833821Y-157513729D01*
X126823684Y-157423773D01*
X126813933Y-157336921D01*
X126804726Y-157254594D01*
X126796225Y-157178214D01*
X126788591Y-157109203D01*
X126781984Y-157048983D01*
X126776565Y-156998975D01*
X126772496Y-156960601D01*
X126769936Y-156935284D01*
X126769587Y-156931033D01*
X127073520Y-156931033D01*
X127189176Y-157936787D01*
X127203658Y-158062312D01*
X127217871Y-158184698D01*
X127231620Y-158302295D01*
X127244783Y-158414094D01*
X127257238Y-158519083D01*
X127268862Y-158616252D01*
X127279533Y-158704592D01*
X127289130Y-158783091D01*
X127297531Y-158850739D01*
X127304612Y-158906526D01*
X127310253Y-158949441D01*
X127314331Y-158978475D01*
X127316725Y-158992616D01*
X127319139Y-159002098D01*
X127339643Y-159057187D01*
X127368751Y-159106790D01*
X127404054Y-159147419D01*
X127443143Y-159175588D01*
X127445437Y-159176578D01*
X127461279Y-159182711D01*
X127491067Y-159193910D01*
X127534026Y-159209890D01*
X127589381Y-159230367D01*
X127656358Y-159255057D01*
X127734180Y-159283677D01*
X127822074Y-159315941D01*
X127919263Y-159351566D01*
X128024974Y-159390267D01*
X128138430Y-159431761D01*
X128258857Y-159475763D01*
X128385481Y-159521988D01*
X128517525Y-159570154D01*
X128654214Y-159619975D01*
X128794775Y-159671167D01*
X128856836Y-159693759D01*
X128995388Y-159744175D01*
X129129560Y-159792970D01*
X129258590Y-159839869D01*
X129381717Y-159884596D01*
X129498181Y-159926875D01*
X129607219Y-159966430D01*
X129708070Y-160002986D01*
X129799974Y-160036267D01*
X129882169Y-160065997D01*
X129953894Y-160091901D01*
X130014388Y-160113702D01*
X130062889Y-160131126D01*
X130098637Y-160143896D01*
X130120869Y-160151736D01*
X130128825Y-160154372D01*
X130129725Y-160153928D01*
X130140984Y-160146910D01*
X130164264Y-160131844D01*
X130198628Y-160109356D01*
X130243135Y-160080074D01*
X130296846Y-160044621D01*
X130358823Y-160003625D01*
X130428126Y-159957710D01*
X130503816Y-159907503D01*
X130584954Y-159853630D01*
X130670600Y-159796717D01*
X130759816Y-159737388D01*
X130851662Y-159676271D01*
X130945199Y-159613990D01*
X131039488Y-159551172D01*
X131133589Y-159488443D01*
X131226565Y-159426428D01*
X131317474Y-159365753D01*
X131405379Y-159307044D01*
X131489340Y-159250927D01*
X131568418Y-159198027D01*
X131641674Y-159148971D01*
X131708169Y-159104385D01*
X131766962Y-159064893D01*
X131817116Y-159031123D01*
X131857692Y-159003699D01*
X131887749Y-158983248D01*
X131906349Y-158970395D01*
X131912552Y-158965766D01*
X131905109Y-158966204D01*
X131882848Y-158968346D01*
X131846904Y-158972086D01*
X131798410Y-158977300D01*
X131738502Y-158983860D01*
X131668313Y-158991643D01*
X131588977Y-159000520D01*
X131501629Y-159010368D01*
X131407403Y-159021060D01*
X131307432Y-159032470D01*
X131202851Y-159044473D01*
X130495811Y-159125841D01*
X130406988Y-159103547D01*
X130365258Y-159092304D01*
X130307161Y-159075196D01*
X130239960Y-159054289D01*
X130166734Y-159030614D01*
X130090562Y-159005200D01*
X130014525Y-158979074D01*
X129941700Y-158953267D01*
X129875168Y-158928807D01*
X129818008Y-158906724D01*
X129606867Y-158817398D01*
X129394885Y-158716643D01*
X129195397Y-158609895D01*
X129008785Y-158497431D01*
X128835432Y-158379528D01*
X128675720Y-158256464D01*
X128530033Y-158128517D01*
X128398752Y-157995965D01*
X128282260Y-157859085D01*
X128180940Y-157718155D01*
X128161464Y-157687925D01*
X128089264Y-157564409D01*
X128030665Y-157442649D01*
X127984505Y-157319649D01*
X127949621Y-157192413D01*
X127924853Y-157057947D01*
X127918825Y-157003070D01*
X127914635Y-156926143D01*
X127913680Y-156841232D01*
X127914883Y-156791993D01*
X128217222Y-156791993D01*
X128218212Y-156847106D01*
X128220642Y-156905874D01*
X128224324Y-156964520D01*
X128229072Y-157019267D01*
X128234698Y-157066340D01*
X128241015Y-157101961D01*
X128247555Y-157129109D01*
X128286884Y-157258201D01*
X128339090Y-157382740D01*
X128404943Y-157504179D01*
X128485212Y-157623971D01*
X128580667Y-157743570D01*
X128586199Y-157749962D01*
X128682668Y-157852788D01*
X128792979Y-157955805D01*
X128915191Y-158057481D01*
X129047368Y-158156282D01*
X129187568Y-158250675D01*
X129333855Y-158339128D01*
X129346587Y-158346363D01*
X129478331Y-158417147D01*
X129621974Y-158487664D01*
X129773854Y-158556377D01*
X129930305Y-158621748D01*
X130087665Y-158682241D01*
X130242267Y-158736317D01*
X130390449Y-158782440D01*
X130418204Y-158790387D01*
X130457951Y-158801422D01*
X130490812Y-158810126D01*
X130513967Y-158815759D01*
X130524596Y-158817583D01*
X130524820Y-158817561D01*
X130536921Y-158816222D01*
X130563649Y-158813175D01*
X130603802Y-158808558D01*
X130656178Y-158802513D01*
X130719575Y-158795179D01*
X130792792Y-158786697D01*
X130874625Y-158777205D01*
X130963874Y-158766844D01*
X131059336Y-158755754D01*
X131159809Y-158744075D01*
X131264092Y-158731946D01*
X131370983Y-158719509D01*
X131479279Y-158706902D01*
X131587778Y-158694265D01*
X131695280Y-158681740D01*
X131800581Y-158669465D01*
X131902480Y-158657580D01*
X131999775Y-158646226D01*
X132091265Y-158635542D01*
X132175746Y-158625669D01*
X132252017Y-158616745D01*
X132318877Y-158608912D01*
X132375123Y-158602310D01*
X132419554Y-158597077D01*
X132450966Y-158593354D01*
X132468160Y-158591282D01*
X132508938Y-158585423D01*
X132551581Y-158577749D01*
X132588352Y-158569599D01*
X132614222Y-158561983D01*
X132646901Y-158547455D01*
X132694639Y-158516844D01*
X132733162Y-158479918D01*
X132759081Y-158439543D01*
X132759687Y-158438120D01*
X132765531Y-158423086D01*
X132776336Y-158394374D01*
X132791766Y-158352907D01*
X132811481Y-158299614D01*
X132835146Y-158235419D01*
X132862421Y-158161249D01*
X132892971Y-158078031D01*
X132926457Y-157986689D01*
X132962542Y-157888151D01*
X133000889Y-157783342D01*
X133041159Y-157673189D01*
X133083015Y-157558617D01*
X133126121Y-157440554D01*
X133170138Y-157319924D01*
X133214729Y-157197653D01*
X133259556Y-157074670D01*
X133304282Y-156951898D01*
X133348570Y-156830264D01*
X133392082Y-156710695D01*
X133434480Y-156594117D01*
X133475427Y-156481455D01*
X133514585Y-156373636D01*
X133551617Y-156271586D01*
X133586186Y-156176230D01*
X133617954Y-156088496D01*
X133646583Y-156009309D01*
X133671736Y-155939595D01*
X133693076Y-155880281D01*
X133710264Y-155832292D01*
X133722964Y-155796555D01*
X133730838Y-155773996D01*
X133733549Y-155765540D01*
X133733303Y-155765016D01*
X133726970Y-155754849D01*
X133712544Y-155732524D01*
X133690649Y-155698982D01*
X133661909Y-155655165D01*
X133626950Y-155602017D01*
X133586397Y-155540478D01*
X133540873Y-155471491D01*
X133491004Y-155395998D01*
X133437415Y-155314941D01*
X133380731Y-155229263D01*
X133321575Y-155139905D01*
X133260574Y-155047809D01*
X133198352Y-154953918D01*
X133135533Y-154859174D01*
X133072742Y-154764519D01*
X133010605Y-154670895D01*
X132949745Y-154579245D01*
X132890788Y-154490509D01*
X132834359Y-154405631D01*
X132781082Y-154325552D01*
X132731582Y-154251215D01*
X132686484Y-154183562D01*
X132646412Y-154123535D01*
X132611992Y-154072076D01*
X132583848Y-154030127D01*
X132562605Y-153998631D01*
X132548887Y-153978528D01*
X132543320Y-153970763D01*
X132542527Y-153973554D01*
X132544004Y-153986703D01*
X132545023Y-153994571D01*
X132547794Y-154017588D01*
X132552131Y-154054338D01*
X132557897Y-154103642D01*
X132564956Y-154164324D01*
X132573172Y-154235205D01*
X132582407Y-154315108D01*
X132592526Y-154402856D01*
X132603392Y-154497271D01*
X132614869Y-154597175D01*
X132626819Y-154701391D01*
X132703816Y-155373417D01*
X132706609Y-155397797D01*
X132682724Y-155488833D01*
X132634945Y-155656339D01*
X132574377Y-155840134D01*
X132505348Y-156025513D01*
X132429004Y-156209966D01*
X132346496Y-156390979D01*
X132258971Y-156566041D01*
X132167579Y-156732639D01*
X132073469Y-156888262D01*
X131977788Y-157030398D01*
X131925062Y-157102735D01*
X131858912Y-157188415D01*
X131793030Y-157267327D01*
X131723713Y-157343862D01*
X131647260Y-157422411D01*
X131617962Y-157451367D01*
X131554255Y-157512023D01*
X131494897Y-157564639D01*
X131436015Y-157612422D01*
X131373738Y-157658574D01*
X131304191Y-157706301D01*
X131189041Y-157777121D01*
X131046345Y-157849162D01*
X130901269Y-157905394D01*
X130753837Y-157945806D01*
X130604074Y-157970389D01*
X130587624Y-157971989D01*
X130530156Y-157975351D01*
X130462646Y-157976776D01*
X130389427Y-157976370D01*
X130314831Y-157974241D01*
X130243190Y-157970496D01*
X130178837Y-157965242D01*
X130126105Y-157958585D01*
X130063557Y-157947692D01*
X129920002Y-157917104D01*
X129772358Y-157878557D01*
X129623967Y-157833187D01*
X129478171Y-157782132D01*
X129338313Y-157726526D01*
X129207734Y-157667508D01*
X129089778Y-157606212D01*
X129006386Y-157556982D01*
X128863879Y-157460724D01*
X128731453Y-157355203D01*
X128610036Y-157241397D01*
X128500553Y-157120285D01*
X128403932Y-156992844D01*
X128321098Y-156860052D01*
X128252979Y-156722888D01*
X128226917Y-156662954D01*
X128221169Y-156701285D01*
X128220307Y-156707837D01*
X128217858Y-156744311D01*
X128217222Y-156791993D01*
X127914883Y-156791993D01*
X127915847Y-156752513D01*
X127921020Y-156664160D01*
X127929087Y-156580350D01*
X127939934Y-156505257D01*
X127960641Y-156399187D01*
X127999397Y-156238416D01*
X128046556Y-156077642D01*
X128079688Y-155981608D01*
X128399941Y-155981608D01*
X128404467Y-156077639D01*
X128406574Y-156112910D01*
X128425168Y-156260528D01*
X128459116Y-156404868D01*
X128508012Y-156545038D01*
X128571447Y-156680140D01*
X128649015Y-156809282D01*
X128740310Y-156931567D01*
X128844923Y-157046100D01*
X128947324Y-157139915D01*
X129065951Y-157231565D01*
X129195389Y-157315131D01*
X129337062Y-157391530D01*
X129492399Y-157461677D01*
X129506559Y-157467463D01*
X129538738Y-157479358D01*
X129565306Y-157486075D01*
X129592734Y-157488935D01*
X129627495Y-157489259D01*
X129724087Y-157483302D01*
X129830735Y-157467658D01*
X129941099Y-157442989D01*
X129985825Y-157430565D01*
X130130561Y-157379792D01*
X130268033Y-157314899D01*
X130397973Y-157236128D01*
X130520113Y-157143721D01*
X130634182Y-157037921D01*
X130739912Y-156918969D01*
X130837034Y-156787108D01*
X130925280Y-156642579D01*
X131004380Y-156485626D01*
X131013146Y-156466356D01*
X131034808Y-156417410D01*
X131050491Y-156378260D01*
X131060962Y-156345469D01*
X131066988Y-156315599D01*
X131069336Y-156285212D01*
X131068773Y-156250870D01*
X131066066Y-156209136D01*
X131060671Y-156151963D01*
X131035773Y-156001043D01*
X130996063Y-155855570D01*
X130941881Y-155716028D01*
X130873564Y-155582902D01*
X130791450Y-155456678D01*
X130695878Y-155337840D01*
X130587184Y-155226874D01*
X130465709Y-155124264D01*
X130331788Y-155030496D01*
X130185761Y-154946054D01*
X130155305Y-154930458D01*
X130105484Y-154906176D01*
X130054486Y-154882572D01*
X130005388Y-154860986D01*
X129961266Y-154842758D01*
X129925196Y-154829226D01*
X129900254Y-154821731D01*
X129889469Y-154820033D01*
X129854136Y-154818894D01*
X129807488Y-154821483D01*
X129752400Y-154827357D01*
X129691749Y-154836076D01*
X129628411Y-154847200D01*
X129565262Y-154860286D01*
X129505178Y-154874895D01*
X129451037Y-154890586D01*
X129421715Y-154900310D01*
X129279839Y-154957322D01*
X129145573Y-155028319D01*
X129019089Y-155113129D01*
X128900559Y-155211583D01*
X128790154Y-155323509D01*
X128688046Y-155448738D01*
X128594406Y-155587097D01*
X128509406Y-155738417D01*
X128433219Y-155902527D01*
X128399941Y-155981608D01*
X128079688Y-155981608D01*
X128101115Y-155919503D01*
X128162070Y-155766637D01*
X128228417Y-155621684D01*
X128299153Y-155487281D01*
X128373275Y-155366066D01*
X128468703Y-155232894D01*
X128580941Y-155100030D01*
X128701698Y-154980391D01*
X128831507Y-154873498D01*
X128970902Y-154778872D01*
X129120417Y-154696035D01*
X129227166Y-154642849D01*
X129132887Y-154636958D01*
X129039922Y-154634387D01*
X128901736Y-154643091D01*
X128766556Y-154667105D01*
X128633962Y-154706563D01*
X128503533Y-154761599D01*
X128374849Y-154832347D01*
X128247491Y-154918940D01*
X128235427Y-154928163D01*
X128190436Y-154965437D01*
X128138708Y-155011799D01*
X128082799Y-155064688D01*
X128025264Y-155121543D01*
X127968658Y-155179804D01*
X127915537Y-155236908D01*
X127868455Y-155290296D01*
X127829968Y-155337405D01*
X127809155Y-155364628D01*
X127686524Y-155538015D01*
X127570312Y-155725009D01*
X127461071Y-155924476D01*
X127359354Y-156135286D01*
X127265713Y-156356304D01*
X127180700Y-156586399D01*
X127104868Y-156824437D01*
X127073520Y-156931033D01*
X126769587Y-156931033D01*
X126769047Y-156924445D01*
X126770040Y-156909154D01*
X126775329Y-156877325D01*
X126785380Y-156833983D01*
X126800415Y-156778262D01*
X126820660Y-156709298D01*
X126846337Y-156626227D01*
X126899381Y-156466770D01*
X126971622Y-156272216D01*
X127050788Y-156080815D01*
X127135694Y-155895131D01*
X127225158Y-155717728D01*
X127317997Y-155551170D01*
X127413028Y-155398021D01*
X127505470Y-155263707D01*
X127628557Y-155103141D01*
X127755549Y-154957390D01*
X127886292Y-154826558D01*
X128020630Y-154710744D01*
X128158408Y-154610052D01*
X128299470Y-154524581D01*
X128443661Y-154454435D01*
X128590827Y-154399713D01*
X128740810Y-154360519D01*
X128893458Y-154336952D01*
X129048613Y-154329115D01*
X129098083Y-154329946D01*
X129234066Y-154339605D01*
X129379571Y-154359866D01*
X129533079Y-154390446D01*
X129693068Y-154431056D01*
X129858020Y-154481412D01*
X130015520Y-154537488D01*
X130198249Y-154614185D01*
X130367443Y-154699039D01*
X130523344Y-154792242D01*
X130666190Y-154893982D01*
X130796222Y-155004449D01*
X130913678Y-155123833D01*
X131018799Y-155252323D01*
X131111824Y-155390109D01*
X131192994Y-155537381D01*
X131246457Y-155645327D01*
X131252820Y-155577394D01*
X131255168Y-155546867D01*
X131256227Y-155435796D01*
X131246782Y-155319822D01*
X131227398Y-155203986D01*
X131198639Y-155093329D01*
X131164144Y-154997683D01*
X131104570Y-154871755D01*
X131029758Y-154747678D01*
X130940120Y-154625799D01*
X130836065Y-154506466D01*
X130718005Y-154390025D01*
X130586350Y-154276825D01*
X130441510Y-154167212D01*
X130283897Y-154061534D01*
X130113920Y-153960138D01*
X129931991Y-153863372D01*
X129738520Y-153771583D01*
X129533918Y-153685119D01*
X129507253Y-153674670D01*
X129447575Y-153652195D01*
X129381043Y-153628104D01*
X129310770Y-153603449D01*
X129239869Y-153579285D01*
X129171452Y-153556664D01*
X129108632Y-153536639D01*
X129054520Y-153520264D01*
X129012231Y-153508592D01*
X128954690Y-153493988D01*
X127999912Y-153603745D01*
X127898333Y-153615423D01*
X127753485Y-153632080D01*
X127623194Y-153647085D01*
X127506645Y-153660543D01*
X127403023Y-153672563D01*
X127311512Y-153683253D01*
X127231296Y-153692719D01*
X127161559Y-153701070D01*
X127101486Y-153708412D01*
X127050261Y-153714855D01*
X127007069Y-153720504D01*
X126971093Y-153725469D01*
X126941518Y-153729856D01*
X126917528Y-153733772D01*
X126898308Y-153737327D01*
X126883041Y-153740626D01*
X126870913Y-153743778D01*
X126861107Y-153746891D01*
X126852807Y-153750072D01*
X126845199Y-153753428D01*
X126837466Y-153757067D01*
X126797678Y-153779712D01*
X126759444Y-153809251D01*
X126729104Y-153841093D01*
X126710396Y-153871860D01*
X126710075Y-153872680D01*
X126705018Y-153886192D01*
X126694941Y-153913511D01*
X126680182Y-153953707D01*
X126661079Y-154005851D01*
X126637972Y-154069011D01*
X126611200Y-154142257D01*
X126581102Y-154224659D01*
X126548016Y-154315286D01*
X126512282Y-154413208D01*
X126474238Y-154517494D01*
X126434223Y-154627215D01*
X126392577Y-154741439D01*
X126349638Y-154859236D01*
X126305745Y-154979675D01*
X126261237Y-155101827D01*
X126216453Y-155224761D01*
X126171732Y-155347546D01*
X126127412Y-155469252D01*
X126083834Y-155588949D01*
X126041335Y-155705705D01*
X126000254Y-155818591D01*
X125960931Y-155926677D01*
X125923705Y-156029031D01*
X125888914Y-156124723D01*
X125856897Y-156212824D01*
X125827993Y-156292401D01*
X125802542Y-156362526D01*
X125780881Y-156422268D01*
X125763351Y-156470695D01*
X125750289Y-156506878D01*
X125742035Y-156529887D01*
X125738928Y-156538790D01*
X125426515Y-156538790D01*
X125432707Y-156515794D01*
X125441661Y-156485531D01*
X125453055Y-156449351D01*
X125467106Y-156406601D01*
X125484029Y-156356630D01*
X125504041Y-156298785D01*
X125527357Y-156232415D01*
X125554193Y-156156868D01*
X125584766Y-156071491D01*
X125619290Y-155975635D01*
X125657983Y-155868645D01*
X125701059Y-155749872D01*
X125748736Y-155618662D01*
X125801228Y-155474364D01*
X125858752Y-155316326D01*
X125921524Y-155143896D01*
X125959258Y-155040299D01*
X126010881Y-154898767D01*
X126061058Y-154761420D01*
X126109503Y-154629034D01*
X126155930Y-154502385D01*
X126200052Y-154382248D01*
X126241582Y-154269399D01*
X126280233Y-154164613D01*
X126315720Y-154068668D01*
X126347755Y-153982337D01*
X126376052Y-153906398D01*
X126400324Y-153841625D01*
X126420285Y-153788796D01*
X126435647Y-153748684D01*
X126446125Y-153722067D01*
X126451431Y-153709719D01*
X126468044Y-153682745D01*
X126501121Y-153640291D01*
X126541583Y-153597061D01*
X126585516Y-153557137D01*
X126629003Y-153524599D01*
X126667843Y-153501920D01*
X126713386Y-153479602D01*
X126760583Y-153459776D01*
X126804428Y-153444544D01*
X126839912Y-153436009D01*
X126843483Y-153435097D01*
X126852049Y-153431561D01*
X126864646Y-153425154D01*
X126881821Y-153415520D01*
X126904118Y-153402305D01*
X126932082Y-153385154D01*
X126966260Y-153363712D01*
X126998659Y-153343065D01*
X127570314Y-153343065D01*
X127577781Y-153342689D01*
X127600241Y-153340636D01*
X127636428Y-153336973D01*
X127685179Y-153331826D01*
X127745333Y-153325324D01*
X127815729Y-153317593D01*
X127895203Y-153308763D01*
X127982595Y-153298959D01*
X128076741Y-153288311D01*
X128176481Y-153276945D01*
X128280653Y-153264990D01*
X128337349Y-153258445D01*
X128451893Y-153245143D01*
X128552222Y-153233459D01*
X128639509Y-153223361D01*
X128714928Y-153214818D01*
X128779653Y-153207799D01*
X128834856Y-153202271D01*
X128881712Y-153198205D01*
X128921394Y-153195569D01*
X128955075Y-153194331D01*
X128983930Y-153194460D01*
X129009130Y-153195925D01*
X129031851Y-153198695D01*
X129053265Y-153202738D01*
X129074545Y-153208023D01*
X129096867Y-153214518D01*
X129121402Y-153222193D01*
X129149324Y-153231016D01*
X129181807Y-153240956D01*
X129244595Y-153260074D01*
X129468349Y-153334676D01*
X129684860Y-153417028D01*
X129893274Y-153506622D01*
X130092739Y-153602949D01*
X130282399Y-153705502D01*
X130461401Y-153813770D01*
X130628890Y-153927246D01*
X130784014Y-154045422D01*
X130925918Y-154167788D01*
X131053747Y-154293836D01*
X131166650Y-154423058D01*
X131235070Y-154512322D01*
X131326038Y-154648260D01*
X131401917Y-154785776D01*
X131462849Y-154925595D01*
X131508977Y-155068440D01*
X131540443Y-155215036D01*
X131557389Y-155366107D01*
X131558535Y-155435796D01*
X131559959Y-155522377D01*
X131548295Y-155684571D01*
X131522539Y-155853411D01*
X131482834Y-156029623D01*
X131427139Y-156225313D01*
X131406560Y-156285212D01*
X131359544Y-156422057D01*
X131283710Y-156605290D01*
X131199503Y-156775200D01*
X131106793Y-156931972D01*
X131005445Y-157075794D01*
X130895328Y-157206853D01*
X130776310Y-157325334D01*
X130648258Y-157431426D01*
X130511039Y-157525315D01*
X130364521Y-157607187D01*
X130345775Y-157616619D01*
X130308860Y-157635466D01*
X130284119Y-157648822D01*
X130269982Y-157657780D01*
X130264879Y-157663435D01*
X130267240Y-157666879D01*
X130275493Y-157669208D01*
X130282501Y-157670294D01*
X130310182Y-157672353D01*
X130348902Y-157673405D01*
X130395111Y-157673521D01*
X130445261Y-157672769D01*
X130495800Y-157671222D01*
X130543179Y-157668948D01*
X130583849Y-157666018D01*
X130614258Y-157662503D01*
X130746174Y-157634610D01*
X130875281Y-157591829D01*
X131000577Y-157533904D01*
X131024449Y-157520981D01*
X131154582Y-157440458D01*
X131281770Y-157344664D01*
X131405679Y-157234051D01*
X131525973Y-157109067D01*
X131642318Y-156970163D01*
X131754381Y-156817787D01*
X131861826Y-156652389D01*
X131964319Y-156474420D01*
X132061526Y-156284327D01*
X132153112Y-156082562D01*
X132238743Y-155869573D01*
X132251149Y-155836133D01*
X132272423Y-155776584D01*
X132294713Y-155711933D01*
X132316920Y-155645531D01*
X132337947Y-155580730D01*
X132356696Y-155520879D01*
X132372069Y-155469330D01*
X132382968Y-155429434D01*
X132397070Y-155373417D01*
X132287440Y-154421117D01*
X132278992Y-154347785D01*
X132264945Y-154226054D01*
X132251319Y-154108231D01*
X132238243Y-153995407D01*
X132225842Y-153888670D01*
X132214245Y-153789112D01*
X132203580Y-153697823D01*
X132193973Y-153615893D01*
X132185552Y-153544413D01*
X132178445Y-153484472D01*
X132172780Y-153437161D01*
X132168682Y-153403571D01*
X132166281Y-153384790D01*
X132155391Y-153325188D01*
X132136014Y-153264308D01*
X132108825Y-153213635D01*
X132072692Y-153170574D01*
X132069620Y-153167628D01*
X132064715Y-153163333D01*
X132058790Y-153158889D01*
X132051177Y-153154043D01*
X132041207Y-153148542D01*
X132028213Y-153142131D01*
X132011529Y-153134558D01*
X131990485Y-153125568D01*
X131964415Y-153114908D01*
X131932652Y-153102324D01*
X131894526Y-153087564D01*
X131849372Y-153070372D01*
X131796521Y-153050496D01*
X131735306Y-153027683D01*
X131665059Y-153001678D01*
X131585112Y-152972227D01*
X131494799Y-152939078D01*
X131393451Y-152901977D01*
X131280401Y-152860670D01*
X131154982Y-152814903D01*
X131016525Y-152764423D01*
X130864363Y-152708977D01*
X130697830Y-152648310D01*
X130626916Y-152622481D01*
X130487938Y-152571869D01*
X130353352Y-152522870D01*
X130223917Y-152475759D01*
X130100394Y-152430813D01*
X129983544Y-152388307D01*
X129874127Y-152348520D01*
X129772903Y-152311725D01*
X129680633Y-152278201D01*
X129598078Y-152248224D01*
X129525997Y-152222069D01*
X129465152Y-152200013D01*
X129416302Y-152182332D01*
X129380208Y-152169303D01*
X129357631Y-152161202D01*
X129349331Y-152158305D01*
X129347677Y-152159009D01*
X129334646Y-152166763D01*
X129309409Y-152182661D01*
X129272747Y-152206190D01*
X129225441Y-152236839D01*
X129168272Y-152274095D01*
X129102019Y-152317446D01*
X129027465Y-152366381D01*
X128945388Y-152420387D01*
X128856570Y-152478953D01*
X128761791Y-152541565D01*
X128661832Y-152607713D01*
X128557474Y-152676885D01*
X128449497Y-152748567D01*
X128400825Y-152780919D01*
X128294815Y-152851492D01*
X128193042Y-152919393D01*
X128096266Y-152984107D01*
X128005245Y-153045121D01*
X127920739Y-153101922D01*
X127843507Y-153153997D01*
X127774307Y-153200833D01*
X127713900Y-153241915D01*
X127663044Y-153276731D01*
X127622498Y-153304767D01*
X127593022Y-153325510D01*
X127575374Y-153338447D01*
X127570314Y-153343065D01*
X126998659Y-153343065D01*
X127007196Y-153337625D01*
X127055435Y-153306538D01*
X127111522Y-153270096D01*
X127176004Y-153227945D01*
X127249425Y-153179729D01*
X127332330Y-153125094D01*
X127425264Y-153063686D01*
X127528774Y-152995150D01*
X127643403Y-152919130D01*
X127769698Y-152835273D01*
X127908203Y-152743223D01*
X128059465Y-152642626D01*
X128117199Y-152604226D01*
X128240738Y-152522112D01*
X128360598Y-152442515D01*
X128476092Y-152365887D01*
X128586529Y-152292684D01*
X128691223Y-152223360D01*
X128789483Y-152158370D01*
X128880623Y-152098166D01*
X128963952Y-152043205D01*
X129038783Y-151993940D01*
X129104428Y-151950825D01*
X129160196Y-151914315D01*
X129205401Y-151884864D01*
X129239354Y-151862926D01*
X129261365Y-151848957D01*
X129270747Y-151843409D01*
X129270784Y-151843393D01*
X129296932Y-151835559D01*
X129322480Y-151832301D01*
X129322712Y-151832306D01*
X129335719Y-151835215D01*
X129362094Y-151843113D01*
X129400264Y-151855463D01*
X129448651Y-151871730D01*
X129505680Y-151891375D01*
X129569775Y-151913864D01*
X129639360Y-151938659D01*
X129712860Y-151965223D01*
X129882355Y-152026913D01*
X130107681Y-152108939D01*
X130318679Y-152185769D01*
X130515767Y-152257556D01*
X130699365Y-152324454D01*
X130869890Y-152386617D01*
X131027762Y-152444199D01*
X131173399Y-152497352D01*
X131307221Y-152546231D01*
X131429644Y-152590990D01*
X131541089Y-152631781D01*
X131641974Y-152668759D01*
X131732718Y-152702077D01*
X131813739Y-152731888D01*
X131885456Y-152758348D01*
X131948288Y-152781608D01*
X132002654Y-152801823D01*
X132048972Y-152819146D01*
X132087660Y-152833731D01*
X132119138Y-152845731D01*
X132143824Y-152855301D01*
X132162138Y-152862594D01*
X132174497Y-152867763D01*
X132181320Y-152870962D01*
X132228867Y-152901578D01*
X132286990Y-152952778D01*
X132340084Y-153014785D01*
X132386040Y-153084708D01*
X132422752Y-153159658D01*
X132448111Y-153236744D01*
X132449651Y-153242477D01*
X132452325Y-153250592D01*
X132456125Y-153260038D01*
X132461437Y-153271414D01*
X132468648Y-153285321D01*
X132478146Y-153302358D01*
X132490317Y-153323124D01*
X132505549Y-153348220D01*
X132524228Y-153378246D01*
X132546741Y-153413800D01*
X132573476Y-153455483D01*
X132604819Y-153503894D01*
X132641158Y-153559633D01*
X132682879Y-153623300D01*
X132730369Y-153695495D01*
X132784016Y-153776817D01*
X132844206Y-153867866D01*
X132911327Y-153969241D01*
X132985766Y-154081543D01*
X133067909Y-154205372D01*
X133158143Y-154341326D01*
X133256856Y-154490005D01*
X133261893Y-154497592D01*
X133360459Y-154646058D01*
X133450551Y-154781817D01*
X133532548Y-154905456D01*
X133606829Y-155017559D01*
X133673773Y-155118714D01*
X133733759Y-155209506D01*
X133787167Y-155290522D01*
X133834374Y-155362347D01*
X133875760Y-155425567D01*
X133911704Y-155480770D01*
X133942585Y-155528539D01*
X133968781Y-155569463D01*
X133990672Y-155604127D01*
X134008636Y-155633116D01*
X134023053Y-155657017D01*
X134034301Y-155676417D01*
X134042759Y-155691900D01*
X134048807Y-155704053D01*
X134052823Y-155713463D01*
X134055186Y-155720715D01*
X134056275Y-155726395D01*
X134056294Y-155726566D01*
X134056584Y-155732033D01*
X134056194Y-155738831D01*
X134054897Y-155747614D01*
X134052462Y-155759034D01*
X134050781Y-155765540D01*
X134048661Y-155773743D01*
G37*
G04 #@! TD.AperFunction*
D15*
X116052000Y-165882583D03*
X112802000Y-160253417D03*
D16*
X109299802Y-172246062D03*
X114452653Y-169271062D03*
X107299802Y-168781960D03*
X112452653Y-165806960D03*
X105799802Y-166183884D03*
X110952653Y-163208884D03*
X111565347Y-172670100D03*
X113687109Y-171445100D03*
D17*
X116704000Y-121031000D03*
X133742815Y-122426745D03*
X116704000Y-123571000D03*
X133742815Y-124966745D03*
X116704000Y-126111000D03*
X133742815Y-127506745D03*
X116704000Y-128651000D03*
X133742815Y-130046745D03*
X116704000Y-131191000D03*
X133742815Y-132586745D03*
X116704000Y-133731000D03*
X133742815Y-135126745D03*
X116704000Y-136271000D03*
X133742815Y-137666745D03*
X116704000Y-138811000D03*
X133742815Y-140206745D03*
X116704000Y-141351000D03*
X133742815Y-142746745D03*
X116704000Y-143891000D03*
X133742815Y-145286745D03*
X116704000Y-146431000D03*
X133742815Y-147826745D03*
X116704000Y-148971000D03*
X133742815Y-150366745D03*
X118502815Y-150366745D03*
X131944000Y-148971000D03*
X118502815Y-147826745D03*
X131944000Y-146431000D03*
X118502815Y-145286745D03*
X131944000Y-143891000D03*
X118502815Y-142746745D03*
X131944000Y-141351000D03*
X118502815Y-140206745D03*
X131944000Y-138811000D03*
X118502815Y-137666745D03*
X131944000Y-136271000D03*
X118502815Y-135126745D03*
X131944000Y-133731000D03*
X118502815Y-132586745D03*
X131944000Y-131191000D03*
X118502815Y-130046745D03*
X131944000Y-128651000D03*
X118502815Y-127506745D03*
X131944000Y-126111000D03*
X118502815Y-124966745D03*
X131944000Y-123571000D03*
X118502815Y-122426745D03*
X131944000Y-121031000D03*
D18*
X276098000Y-165240000D03*
D19*
X276498000Y-171440000D03*
D20*
X277698000Y-165200000D03*
D21*
X287398000Y-173640000D03*
D22*
X290298000Y-162660000D03*
D18*
X291798000Y-162640000D03*
X257048000Y-165240000D03*
D19*
X257448000Y-171440000D03*
D20*
X258648000Y-165200000D03*
D21*
X268348000Y-173640000D03*
D22*
X271248000Y-162660000D03*
D18*
X272748000Y-162640000D03*
X295148000Y-165240000D03*
D19*
X295548000Y-171440000D03*
D20*
X296748000Y-165200000D03*
D21*
X306448000Y-173640000D03*
D22*
X309348000Y-162660000D03*
D18*
X310848000Y-162640000D03*
X276098000Y-146190000D03*
D19*
X276498000Y-152390000D03*
D20*
X277698000Y-146150000D03*
D21*
X287398000Y-154590000D03*
D22*
X290298000Y-143610000D03*
D18*
X291798000Y-143590000D03*
X257048000Y-108090000D03*
D19*
X257448000Y-114290000D03*
D20*
X258648000Y-108050000D03*
D21*
X268348000Y-116490000D03*
D22*
X271248000Y-105510000D03*
D18*
X272748000Y-105490000D03*
X291798000Y-105490000D03*
D22*
X290298000Y-105510000D03*
D21*
X287398000Y-116490000D03*
D20*
X277698000Y-108050000D03*
D19*
X276498000Y-114290000D03*
D18*
X276098000Y-108090000D03*
X295148000Y-108090000D03*
D19*
X295548000Y-114290000D03*
D20*
X296748000Y-108050000D03*
D21*
X306448000Y-116490000D03*
D22*
X309348000Y-105510000D03*
D18*
X310848000Y-105490000D03*
X257048000Y-127140000D03*
D19*
X257448000Y-133340000D03*
D20*
X258648000Y-127100000D03*
D21*
X268348000Y-135540000D03*
D22*
X271248000Y-124560000D03*
D18*
X272748000Y-124540000D03*
X276098000Y-127140000D03*
D19*
X276498000Y-133340000D03*
D20*
X277698000Y-127100000D03*
D21*
X287398000Y-135540000D03*
D22*
X290298000Y-124560000D03*
D18*
X291798000Y-124540000D03*
X295148000Y-127140000D03*
D19*
X295548000Y-133340000D03*
D20*
X296748000Y-127100000D03*
D21*
X306448000Y-135540000D03*
D22*
X309348000Y-124560000D03*
D18*
X310848000Y-124540000D03*
X137840000Y-105706000D03*
D19*
X138240000Y-111906000D03*
D20*
X139440000Y-105666000D03*
D21*
X149140000Y-114106000D03*
D22*
X152040000Y-103126000D03*
D18*
X153540000Y-103106000D03*
X156890000Y-103325000D03*
D19*
X157290000Y-109525000D03*
D20*
X158490000Y-103285000D03*
D21*
X168190000Y-111725000D03*
D22*
X171090000Y-100745000D03*
D18*
X172590000Y-100725000D03*
X175940000Y-100940000D03*
D19*
X176340000Y-107140000D03*
D20*
X177540000Y-100900000D03*
D21*
X187240000Y-109340000D03*
D22*
X190140000Y-98360000D03*
D18*
X191640000Y-98340000D03*
X194990000Y-103325000D03*
D19*
X195390000Y-109525000D03*
D20*
X196590000Y-103285000D03*
D21*
X206290000Y-111725000D03*
D22*
X209190000Y-100745000D03*
D18*
X210690000Y-100725000D03*
X214040000Y-108090000D03*
D19*
X214440000Y-114290000D03*
D20*
X215640000Y-108050000D03*
D21*
X225340000Y-116490000D03*
D22*
X228240000Y-105510000D03*
D18*
X229740000Y-105490000D03*
X233090000Y-108090000D03*
D19*
X233490000Y-114290000D03*
D20*
X234690000Y-108050000D03*
D21*
X244390000Y-116490000D03*
D22*
X247290000Y-105510000D03*
D18*
X248790000Y-105490000D03*
X137840000Y-124727000D03*
D19*
X138240000Y-130927000D03*
D20*
X139440000Y-124687000D03*
D21*
X149140000Y-133127000D03*
D22*
X152040000Y-122147000D03*
D18*
X153540000Y-122127000D03*
X156890000Y-122390200D03*
D19*
X157290000Y-128590200D03*
D20*
X158490000Y-122350200D03*
D21*
X168190000Y-130790200D03*
D22*
X171090000Y-119810200D03*
D18*
X172590000Y-119790200D03*
X175940000Y-120028000D03*
D19*
X176340000Y-126228000D03*
D20*
X177540000Y-119988000D03*
D21*
X187240000Y-128428000D03*
D22*
X190140000Y-117448000D03*
D18*
X191640000Y-117428000D03*
X194990000Y-122441000D03*
D19*
X195390000Y-128641000D03*
D20*
X196590000Y-122401000D03*
D21*
X206290000Y-130841000D03*
D22*
X209190000Y-119861000D03*
D18*
X210690000Y-119841000D03*
X214040000Y-127140000D03*
D19*
X214440000Y-133340000D03*
D20*
X215640000Y-127100000D03*
D21*
X225340000Y-135540000D03*
D22*
X228240000Y-124560000D03*
D18*
X229740000Y-124540000D03*
X248790000Y-124540000D03*
D22*
X247290000Y-124560000D03*
D21*
X244390000Y-135540000D03*
D20*
X234690000Y-127100000D03*
D19*
X233490000Y-133340000D03*
D18*
X233090000Y-127140000D03*
X137840000Y-143777000D03*
D19*
X138240000Y-149977000D03*
D20*
X139440000Y-143737000D03*
D21*
X149140000Y-152177000D03*
D22*
X152040000Y-141197000D03*
D18*
X153540000Y-141177000D03*
X156890000Y-141425000D03*
D19*
X157290000Y-147625000D03*
D20*
X158490000Y-141385000D03*
D21*
X168190000Y-149825000D03*
D22*
X171090000Y-138845000D03*
D18*
X172590000Y-138825000D03*
X175940000Y-139040000D03*
D19*
X176340000Y-145240000D03*
D20*
X177540000Y-139000000D03*
D21*
X187240000Y-147440000D03*
D22*
X190140000Y-136460000D03*
D18*
X191640000Y-136440000D03*
X194990000Y-141425000D03*
D19*
X195390000Y-147625000D03*
D20*
X196590000Y-141385000D03*
D21*
X206290000Y-149825000D03*
D22*
X209190000Y-138845000D03*
D18*
X210690000Y-138825000D03*
X214040000Y-146190000D03*
D19*
X214440000Y-152390000D03*
D20*
X215640000Y-146150000D03*
D21*
X225340000Y-154590000D03*
D22*
X228240000Y-143610000D03*
D18*
X229740000Y-143590000D03*
X233090000Y-146190000D03*
D19*
X233490000Y-152390000D03*
D20*
X234690000Y-146150000D03*
D21*
X244390000Y-154590000D03*
D22*
X247290000Y-143610000D03*
D18*
X248790000Y-143590000D03*
X137840000Y-162856000D03*
D19*
X138240000Y-169056000D03*
D20*
X139440000Y-162816000D03*
D21*
X149140000Y-171256000D03*
D22*
X152040000Y-160276000D03*
D18*
X153540000Y-160256000D03*
X156890000Y-160475000D03*
D19*
X157290000Y-166675000D03*
D20*
X158490000Y-160435000D03*
D21*
X168190000Y-168875000D03*
D22*
X171090000Y-157895000D03*
D18*
X172590000Y-157875000D03*
X175940000Y-158090000D03*
D19*
X176340000Y-164290000D03*
D20*
X177540000Y-158050000D03*
D21*
X187240000Y-166490000D03*
D22*
X190140000Y-155510000D03*
D18*
X191640000Y-155490000D03*
X194990000Y-160475000D03*
D19*
X195390000Y-166675000D03*
D20*
X196590000Y-160435000D03*
D21*
X206290000Y-168875000D03*
D22*
X209190000Y-157895000D03*
D18*
X210690000Y-157875000D03*
X214040000Y-165240000D03*
D19*
X214440000Y-171440000D03*
D20*
X215640000Y-165200000D03*
D21*
X225340000Y-173640000D03*
D22*
X228240000Y-162660000D03*
D18*
X229740000Y-162640000D03*
X233090000Y-165240000D03*
D19*
X233490000Y-171440000D03*
D20*
X234690000Y-165200000D03*
D21*
X244390000Y-173640000D03*
D22*
X247290000Y-162660000D03*
D18*
X248790000Y-162640000D03*
D23*
X127478064Y-178362784D03*
D24*
X122308706Y-181809194D03*
D25*
X128312705Y-179728425D03*
D26*
X125853450Y-192348871D03*
D27*
X136812409Y-189370345D03*
D23*
X137579730Y-190659383D03*
D18*
X147290000Y-184474000D03*
D19*
X147690000Y-190674000D03*
D20*
X148890000Y-184434000D03*
D21*
X158590000Y-192874000D03*
D22*
X161490000Y-181894000D03*
D18*
X162990000Y-181874000D03*
X166340000Y-182090000D03*
D19*
X166740000Y-188290000D03*
D20*
X167940000Y-182050000D03*
D21*
X177640000Y-190490000D03*
D22*
X180540000Y-179510000D03*
D18*
X182040000Y-179490000D03*
X185390000Y-182090000D03*
D19*
X185790000Y-188290000D03*
D20*
X186990000Y-182050000D03*
D21*
X196690000Y-190490000D03*
D22*
X199590000Y-179510000D03*
D18*
X201090000Y-179490000D03*
D17*
X309168255Y-155849815D03*
X306628255Y-155849815D03*
X304088255Y-155849815D03*
X301548255Y-155849815D03*
X299008255Y-155849815D03*
X296468255Y-155849815D03*
X309168255Y-140609815D03*
X306628255Y-140609815D03*
X304088255Y-140609815D03*
X301548255Y-140609815D03*
X299008255Y-140609815D03*
X296468255Y-140609815D03*
D15*
X271816000Y-145596000D03*
X271816000Y-152096000D03*
D28*
X275104000Y-139161000D03*
X232074000Y-139141000D03*
X232074000Y-158201000D03*
X193934000Y-133251000D03*
X193934000Y-152361000D03*
X155894000Y-154501000D03*
X155894000Y-135431000D03*
X142474000Y-179611000D03*
D29*
X288540000Y-159306000D03*
X253286000Y-140506000D03*
X279182000Y-159260000D03*
X253286000Y-145106000D03*
X284040000Y-159306000D03*
X253286000Y-135906000D03*
D28*
X275040000Y-120106000D03*
X294140000Y-120306000D03*
X155940000Y-116206000D03*
X193940000Y-114406000D03*
X232140000Y-120006000D03*
D30*
X120163255Y-130035745D03*
D31*
X120163255Y-145761745D03*
D30*
X120163255Y-151030745D03*
X120023998Y-126101000D03*
X121023999Y-144915999D03*
X254875115Y-148381710D03*
X251740006Y-148206000D03*
D31*
X130427996Y-128820000D03*
D30*
X142940000Y-176006000D03*
X251340000Y-176206000D03*
X130327998Y-126120000D03*
D31*
X130528000Y-123801000D03*
X284932000Y-152500000D03*
X290614000Y-160891000D03*
X270528000Y-118320000D03*
X284932000Y-114400000D03*
X284424000Y-171296000D03*
X292044000Y-148436000D03*
X292044000Y-167740000D03*
X254797998Y-133606000D03*
X130428000Y-146620000D03*
X292044000Y-110336000D03*
X292044000Y-129640000D03*
X136364989Y-147756989D03*
X284932000Y-133196000D03*
X251740000Y-133606000D03*
X290614000Y-157831000D03*
X136903019Y-139438390D03*
X273248000Y-167740000D03*
X265628000Y-114400000D03*
X265628000Y-171296000D03*
X265628000Y-133450000D03*
X277040000Y-160806002D03*
X130428000Y-144020000D03*
X273248000Y-110336000D03*
X273502000Y-128878000D03*
X251340000Y-138406000D03*
X254889000Y-138430000D03*
X277040000Y-157406000D03*
X303728000Y-133196000D03*
X303728000Y-171296000D03*
X135864979Y-150356979D03*
X310840000Y-167740000D03*
X291904000Y-160881000D03*
X251784000Y-132661000D03*
X303728000Y-114400000D03*
X130428000Y-149120000D03*
X291904000Y-157811000D03*
X311348000Y-129132000D03*
X254464004Y-132641000D03*
X311348000Y-110336000D03*
X251239997Y-142405997D03*
X255240000Y-142506000D03*
X269939994Y-118806000D03*
X256940002Y-118806000D03*
X248940000Y-121806000D03*
X138974000Y-108939000D03*
X256399000Y-122306000D03*
X300040000Y-121106000D03*
X270278000Y-122220000D03*
X251294004Y-143206000D03*
X255306000Y-143257998D03*
X157290000Y-105284000D03*
X250940000Y-146806000D03*
X255064000Y-146806002D03*
X175769010Y-102951200D03*
X275740000Y-157406000D03*
X237740000Y-176806000D03*
X129540002Y-140206000D03*
X275740000Y-160806004D03*
X255054000Y-147606000D03*
X251499914Y-147405997D03*
X195390000Y-105609000D03*
X128940000Y-142735745D03*
X215428000Y-111225000D03*
X234224000Y-111225000D03*
X139482000Y-127989000D03*
X158024000Y-125068000D03*
X178217000Y-124052000D03*
X196314500Y-125766500D03*
X215301000Y-129894000D03*
X234478000Y-130021000D03*
X138974000Y-147801000D03*
X158490000Y-145176000D03*
X177074000Y-141959000D03*
X196124000Y-143864000D03*
X215745500Y-149896500D03*
X233490000Y-148210000D03*
X140340000Y-166956000D03*
X137831000Y-160374000D03*
X157135000Y-157961000D03*
X156890000Y-164320000D03*
X176340000Y-162251000D03*
X176058000Y-155929000D03*
X196251000Y-164311000D03*
X228940000Y-175606000D03*
X213523000Y-162914000D03*
X232954000Y-162533000D03*
X153198000Y-126846000D03*
X146213000Y-130783000D03*
X154849000Y-160501000D03*
X138339000Y-192124000D03*
X146340000Y-111860000D03*
X136839989Y-146420000D03*
X126274000Y-188568000D03*
X146213000Y-168883000D03*
X146340000Y-149960000D03*
X154849000Y-141197000D03*
X153452000Y-107415000D03*
X130528000Y-131419996D03*
X165517000Y-147547000D03*
X173137000Y-105764000D03*
X155738000Y-190727000D03*
X165517000Y-128751000D03*
X163993000Y-181837000D03*
X172883000Y-143531882D03*
X173010000Y-124814000D03*
X173899000Y-158342000D03*
X165390000Y-166597000D03*
X165390000Y-109574000D03*
X183297000Y-180059000D03*
X191933000Y-141197000D03*
X130528000Y-134020000D03*
X184567000Y-145134000D03*
X191640000Y-122616000D03*
X184567000Y-126211000D03*
X184313000Y-107161000D03*
X184313000Y-164057000D03*
X191552000Y-102843000D03*
X175380000Y-188230000D03*
X193076000Y-155929000D03*
X202340000Y-178805998D03*
X210729000Y-124560000D03*
X193965000Y-188314000D03*
X203490000Y-166597000D03*
X211237000Y-105637000D03*
X203490000Y-128624000D03*
X211237000Y-143229000D03*
X203617000Y-147674000D03*
X203744000Y-109193000D03*
X130427999Y-136420000D03*
X211237000Y-162533000D03*
X222667000Y-152373000D03*
X231430000Y-162914000D03*
X229779000Y-148182000D03*
X222540000Y-133323000D03*
X222667000Y-171423000D03*
X222413000Y-114273000D03*
X229906000Y-129132000D03*
X130428000Y-138920000D03*
X229906000Y-110590000D03*
X241463000Y-152500000D03*
X249083000Y-110209000D03*
X248702000Y-129767000D03*
X130428000Y-141520000D03*
X241844000Y-171042000D03*
X250048990Y-163041000D03*
X241590000Y-114400000D03*
X241717000Y-133450000D03*
X249083000Y-148436000D03*
X258008000Y-167740000D03*
X276804000Y-168248000D03*
X276804000Y-168248000D03*
X258516000Y-111352000D03*
X277312000Y-110844000D03*
X296108000Y-110844000D03*
X296108000Y-110844000D03*
X257448000Y-129692000D03*
X277698000Y-130778000D03*
X296616000Y-130148000D03*
X296108000Y-168248000D03*
X129449000Y-177138000D03*
X124389475Y-179728425D03*
X147483000Y-182218000D03*
X166660000Y-179805000D03*
X185790000Y-184708000D03*
X277312000Y-149452000D03*
X130528000Y-121220004D03*
D32*
X114452653Y-156565347D02*
X114452653Y-169271062D01*
X119987255Y-151030745D02*
X114452653Y-156565347D01*
X120163255Y-151030745D02*
X119987255Y-151030745D01*
D33*
X116524000Y-123801000D02*
X130528000Y-123801000D01*
X115324000Y-154932000D02*
X115324000Y-125001000D01*
X110952653Y-159303347D02*
X115324000Y-154932000D01*
X110952653Y-163208884D02*
X110952653Y-159303347D01*
X115324000Y-125001000D02*
X116524000Y-123801000D01*
D32*
X120163255Y-130035745D02*
X120290255Y-130035745D01*
D33*
X130123255Y-145761745D02*
X120163255Y-145761745D01*
D32*
X112834001Y-169271062D02*
X111094300Y-171010763D01*
X117863815Y-130035745D02*
X120163255Y-130035745D01*
X131805000Y-128880000D02*
X131805000Y-128840000D01*
X130649255Y-130035745D02*
X131805000Y-128880000D01*
X110535101Y-171010763D02*
X109299802Y-172246062D01*
X120290255Y-130035745D02*
X130649255Y-130035745D01*
X111094300Y-171010763D02*
X110535101Y-171010763D01*
X120290255Y-130035745D02*
X120305000Y-130021000D01*
D33*
X131805000Y-144080000D02*
X130123255Y-145761745D01*
D32*
X114427000Y-169245409D02*
X114452653Y-169271062D01*
X114452653Y-169271062D02*
X112834001Y-169271062D01*
X254875115Y-148381710D02*
X258699405Y-152206000D01*
D33*
X117863815Y-124955745D02*
X130609255Y-124955745D01*
D32*
X226540000Y-177570001D02*
X225175999Y-176206000D01*
D33*
X130407996Y-128840000D02*
X130427996Y-128820000D01*
X118502815Y-145286745D02*
X119061255Y-145286745D01*
D32*
X150232000Y-196206000D02*
X145540000Y-191514000D01*
X117848255Y-124966745D02*
X116704000Y-126111000D01*
X271706000Y-152206000D02*
X271816000Y-152096000D01*
X206140000Y-176206000D02*
X202940000Y-179406000D01*
X145540000Y-191514000D02*
X145540000Y-178606000D01*
X145540000Y-178606000D02*
X142940000Y-176006000D01*
X202940000Y-179406000D02*
X202940000Y-189606000D01*
X163118000Y-196206000D02*
X150232000Y-196206000D01*
X258699405Y-152206000D02*
X271706000Y-152206000D01*
X251340000Y-176206000D02*
X249975999Y-177570001D01*
X249975999Y-177570001D02*
X226540000Y-177570001D01*
D33*
X130609255Y-124955745D02*
X131805000Y-123760000D01*
X119061255Y-145286745D02*
X119432001Y-144915999D01*
D32*
X130308998Y-126101000D02*
X130327998Y-126120000D01*
X116704000Y-126111000D02*
X116794000Y-126201000D01*
D33*
X119432001Y-144915999D02*
X121023999Y-144915999D01*
D32*
X165718000Y-193606000D02*
X163118000Y-196206000D01*
X119923998Y-126201000D02*
X120023998Y-126101000D01*
X116794000Y-126201000D02*
X119923998Y-126201000D01*
D33*
X117863815Y-145275745D02*
X118249255Y-145275745D01*
D32*
X118502815Y-124966745D02*
X117848255Y-124966745D01*
X202940000Y-189606000D02*
X198940000Y-193606000D01*
X198940000Y-193606000D02*
X165718000Y-193606000D01*
D33*
X117863815Y-145275745D02*
X118209255Y-145275745D01*
D32*
X225175999Y-176206000D02*
X206140000Y-176206000D01*
D33*
X116565000Y-128840000D02*
X130407996Y-128840000D01*
D32*
X120023998Y-126101000D02*
X130308998Y-126101000D01*
D33*
X117878560Y-127481000D02*
X117863815Y-127495745D01*
X131805000Y-126300000D02*
X130624000Y-127481000D01*
X130624000Y-127481000D02*
X117878560Y-127481000D01*
X107977653Y-166183884D02*
X105799802Y-166183884D01*
X110952653Y-163208884D02*
X107977653Y-166183884D01*
X305882815Y-155849815D02*
X306628255Y-155849815D01*
X292044000Y-167740000D02*
X292044000Y-168756000D01*
X287398000Y-137440000D02*
X287980000Y-138022000D01*
X291536000Y-169264000D02*
X287980000Y-169264000D01*
X292044000Y-110336000D02*
X292044000Y-110844000D01*
X155549010Y-100233112D02*
X157757131Y-98024991D01*
X290614000Y-162344000D02*
X290298000Y-162660000D01*
X291798000Y-162640000D02*
X290318000Y-162640000D01*
X254997997Y-133406001D02*
X254797998Y-133606000D01*
X287398000Y-154590000D02*
X287398000Y-154615000D01*
X291028000Y-131164000D02*
X288488000Y-131164000D01*
X287980000Y-169264000D02*
X285948000Y-171296000D01*
X290298000Y-124560000D02*
X291778000Y-124560000D01*
X290298000Y-105510000D02*
X290298000Y-107066000D01*
X287398000Y-153950000D02*
X285948000Y-152500000D01*
X250624000Y-104581000D02*
X250624000Y-132490000D01*
X287980000Y-138022000D02*
X287980000Y-141292000D01*
X290298000Y-126878000D02*
X292044000Y-128624000D01*
X211744000Y-99311000D02*
X211744000Y-100925300D01*
X292044000Y-128624000D02*
X292044000Y-129640000D01*
X287398000Y-154615000D02*
X290614000Y-157831000D01*
X285948000Y-152500000D02*
X284932000Y-152500000D01*
X211744000Y-100925300D02*
X213839711Y-103021011D01*
X178687131Y-98024991D02*
X180751111Y-95961011D01*
X288165000Y-116490000D02*
X289504000Y-117829000D01*
X287398000Y-116490000D02*
X288165000Y-116490000D01*
X287980000Y-150468000D02*
X285948000Y-152500000D01*
X254997997Y-120044999D02*
X254997997Y-133406001D01*
X292044000Y-110844000D02*
X290520000Y-112368000D01*
X287398000Y-115342000D02*
X286456000Y-114400000D01*
X291536000Y-150468000D02*
X291631000Y-150468000D01*
X292044000Y-108812000D02*
X292044000Y-110336000D01*
X256722996Y-118320000D02*
X254997997Y-120044999D01*
X292044000Y-130148000D02*
X291028000Y-131164000D01*
X305059440Y-154281000D02*
X306628255Y-155849815D01*
X157757131Y-98024991D02*
X178687131Y-98024991D01*
X291536000Y-150468000D02*
X287980000Y-150468000D01*
X293524000Y-154281000D02*
X305059440Y-154281000D01*
X285948000Y-171296000D02*
X284424000Y-171296000D01*
X287398000Y-116490000D02*
X287398000Y-115342000D01*
X292044000Y-168756000D02*
X291536000Y-169264000D01*
X290298000Y-105510000D02*
X291778000Y-105510000D01*
X191734011Y-95961011D02*
X193543990Y-97770990D01*
X249064011Y-103021011D02*
X250624000Y-104581000D01*
X289504000Y-123766000D02*
X290298000Y-124560000D01*
X290298000Y-143610000D02*
X290298000Y-144658000D01*
X193543990Y-97770990D02*
X210203991Y-97770991D01*
X292044000Y-148436000D02*
X292044000Y-149960000D01*
X136364989Y-147756989D02*
X136364989Y-104627136D01*
X270528000Y-118320000D02*
X256722996Y-118320000D01*
X210203991Y-97770991D02*
X211744000Y-99311000D01*
X286456000Y-133196000D02*
X287398000Y-134138000D01*
X287398000Y-154590000D02*
X287398000Y-153950000D01*
X290520000Y-112368000D02*
X287980000Y-112368000D01*
X287472000Y-132180000D02*
X286456000Y-133196000D01*
X291536000Y-163898000D02*
X290298000Y-162660000D01*
X290298000Y-124560000D02*
X290298000Y-126878000D01*
X287980000Y-112368000D02*
X285948000Y-114400000D01*
X140759012Y-100233113D02*
X155549010Y-100233112D01*
X291536000Y-167232000D02*
X291536000Y-163898000D01*
X285948000Y-114400000D02*
X284932000Y-114400000D01*
X290298000Y-144658000D02*
X292044000Y-146404000D01*
X287398000Y-134138000D02*
X287398000Y-135540000D01*
X286456000Y-133196000D02*
X284932000Y-133196000D01*
X136364989Y-104627136D02*
X140759012Y-100233113D01*
X292744000Y-151581000D02*
X292744000Y-153501000D01*
X250624000Y-132490000D02*
X251740000Y-133606000D01*
X288488000Y-131164000D02*
X287472000Y-132180000D01*
X292044000Y-129640000D02*
X292044000Y-130148000D01*
X292744000Y-153501000D02*
X293524000Y-154281000D01*
X290318000Y-162640000D02*
X290298000Y-162660000D01*
X291778000Y-105510000D02*
X291798000Y-105490000D01*
X289504000Y-117829000D02*
X289504000Y-123766000D01*
X287398000Y-173640000D02*
X287398000Y-172746000D01*
X292044000Y-149960000D02*
X291536000Y-150468000D01*
X291778000Y-143610000D02*
X291798000Y-143590000D01*
X290614000Y-160891000D02*
X290614000Y-162344000D01*
X292044000Y-146404000D02*
X292044000Y-148436000D01*
X292044000Y-167740000D02*
X291536000Y-167232000D01*
X291778000Y-124560000D02*
X291798000Y-124540000D01*
X213839711Y-103021011D02*
X249064011Y-103021011D01*
X286456000Y-114400000D02*
X285948000Y-114400000D01*
X291631000Y-150468000D02*
X292744000Y-151581000D01*
X116565000Y-146620000D02*
X130428000Y-146620000D01*
X290298000Y-107066000D02*
X292044000Y-108812000D01*
X287398000Y-135540000D02*
X287398000Y-137440000D01*
X287398000Y-172746000D02*
X285948000Y-171296000D01*
X180751111Y-95961011D02*
X191734011Y-95961011D01*
X287980000Y-141292000D02*
X290298000Y-143610000D01*
X290298000Y-143610000D02*
X291778000Y-143610000D01*
X273248000Y-110844000D02*
X271724000Y-112368000D01*
X157758244Y-98731000D02*
X178688244Y-98731000D01*
X191526900Y-96461022D02*
X193336878Y-98271000D01*
X211324000Y-101071000D02*
X213794000Y-103541000D01*
X178688244Y-98731000D02*
X180958222Y-96461022D01*
X273248000Y-110336000D02*
X273248000Y-110844000D01*
X271540000Y-136106000D02*
X271540000Y-142006000D01*
X271248000Y-105510000D02*
X271248000Y-105796000D01*
X267088500Y-133450000D02*
X267152000Y-133386500D01*
X155756120Y-100733122D02*
X157758244Y-98731000D01*
X271248000Y-162660000D02*
X275186002Y-162660000D01*
X271248000Y-105510000D02*
X272728000Y-105510000D01*
X271724000Y-112368000D02*
X269184000Y-112368000D01*
X268168000Y-169264000D02*
X266644000Y-170788000D01*
X180958222Y-96461022D02*
X191526900Y-96461022D01*
X269184000Y-131164000D02*
X271523500Y-131164000D01*
X272728000Y-124560000D02*
X272748000Y-124540000D01*
X271978000Y-127354000D02*
X271978000Y-125290000D01*
X266136000Y-171296000D02*
X265628000Y-171296000D01*
X250224000Y-137290000D02*
X251340000Y-138406000D01*
X269548000Y-116490000D02*
X271248000Y-118190000D01*
X267088500Y-133259500D02*
X269184000Y-131164000D01*
X211324000Y-99641000D02*
X211324000Y-101071000D01*
X274484000Y-144950000D02*
X274484000Y-154850000D01*
X273248000Y-107796000D02*
X273248000Y-110336000D01*
X271248000Y-124560000D02*
X272728000Y-124560000D01*
X271248000Y-162660000D02*
X272728000Y-162660000D01*
X271978000Y-125290000D02*
X271248000Y-124560000D01*
X273248000Y-167740000D02*
X273248000Y-168248000D01*
X266644000Y-171296000D02*
X266136000Y-171296000D01*
X265628000Y-133450000D02*
X267088500Y-133450000D01*
X271248000Y-165740000D02*
X271248000Y-162660000D01*
X130368000Y-144080000D02*
X130428000Y-144020000D01*
X268348000Y-173000000D02*
X266644000Y-171296000D01*
X268348000Y-173640000D02*
X268348000Y-173000000D01*
X273502000Y-128878000D02*
X271978000Y-127354000D01*
X268348000Y-116490000D02*
X268348000Y-115596000D01*
X273502000Y-128878000D02*
X273502000Y-134144000D01*
X273248000Y-168248000D02*
X272232000Y-169264000D01*
X140966128Y-100733122D02*
X155756120Y-100733122D01*
X275186002Y-162660000D02*
X277040000Y-160806002D01*
X136903019Y-139438390D02*
X136903019Y-104796231D01*
X267088500Y-133450000D02*
X267088500Y-133259500D01*
X271523500Y-131164000D02*
X273502000Y-129185500D01*
X271248000Y-105796000D02*
X273248000Y-107796000D01*
X213794000Y-103541000D02*
X248854000Y-103541000D01*
X271248000Y-123110000D02*
X271248000Y-124560000D01*
X266644000Y-170788000D02*
X266136000Y-171296000D01*
X250224000Y-104911000D02*
X250224000Y-137290000D01*
X267152000Y-114400000D02*
X265628000Y-114400000D01*
X271248000Y-118190000D02*
X271248000Y-123110000D01*
X274484000Y-154850000D02*
X277040000Y-157406000D01*
X272728000Y-105510000D02*
X272748000Y-105490000D01*
X268348000Y-135540000D02*
X268348000Y-134582500D01*
X268348000Y-116490000D02*
X269548000Y-116490000D01*
X272728000Y-162660000D02*
X272748000Y-162640000D01*
X268348000Y-115596000D02*
X267152000Y-114400000D01*
X268348000Y-134582500D02*
X267152000Y-133386500D01*
X273248000Y-167740000D02*
X271248000Y-165740000D01*
X271540000Y-142006000D02*
X274484000Y-144950000D01*
X209954001Y-98271001D02*
X211324000Y-99641000D01*
X269184000Y-112368000D02*
X267152000Y-114400000D01*
X193336878Y-98271000D02*
X209954001Y-98271001D01*
X136903019Y-104796231D02*
X140966128Y-100733122D01*
X273502000Y-129185500D02*
X273502000Y-128878000D01*
X272232000Y-169264000D02*
X268168000Y-169264000D01*
X248854000Y-103541000D02*
X250224000Y-104911000D01*
X116565000Y-144080000D02*
X130368000Y-144080000D01*
X271248000Y-162660000D02*
X271248000Y-162120000D01*
X273502000Y-134144000D02*
X271540000Y-136106000D01*
X309348000Y-165232000D02*
X310840000Y-166724000D01*
X305252000Y-171296000D02*
X303728000Y-171296000D01*
X213905400Y-102521000D02*
X215154000Y-102521000D01*
X293524000Y-162501000D02*
X298639998Y-162501000D01*
X311841255Y-155723745D02*
X310464000Y-157101000D01*
X307917070Y-157101000D02*
X307224000Y-157101000D01*
X309348000Y-118614000D02*
X309348000Y-124560000D01*
X309168255Y-155849815D02*
X307917070Y-157101000D01*
X191944000Y-95461000D02*
X193753980Y-97270980D01*
X249274000Y-102521000D02*
X251024000Y-104271000D01*
X310332000Y-109320000D02*
X310332000Y-106494000D01*
X310828000Y-124560000D02*
X310848000Y-124540000D01*
X306448000Y-173640000D02*
X306448000Y-172492000D01*
X307056002Y-160901000D02*
X307589000Y-160901000D01*
X307284000Y-169264000D02*
X305252000Y-171296000D01*
X298639998Y-162501000D02*
X300255999Y-160884999D01*
X308763000Y-135540000D02*
X311841255Y-138618255D01*
X305760000Y-114400000D02*
X303728000Y-114400000D01*
X307040001Y-160884999D02*
X307056002Y-160901000D01*
X305252000Y-133196000D02*
X303728000Y-133196000D01*
X310840000Y-167740000D02*
X310840000Y-168756000D01*
X292614000Y-157101000D02*
X291904000Y-157811000D01*
X157515777Y-97559223D02*
X157550021Y-97524981D01*
X311841255Y-143403745D02*
X311841255Y-155723745D01*
X180544000Y-95461000D02*
X191944000Y-95461000D01*
X157515777Y-97559223D02*
X157515777Y-97524983D01*
X307224000Y-116490000D02*
X309348000Y-118614000D01*
X310828000Y-162660000D02*
X310848000Y-162640000D01*
X306448000Y-116490000D02*
X306448000Y-115088000D01*
X305319998Y-160901000D02*
X305335999Y-160884999D01*
X311348000Y-130148000D02*
X310332000Y-131164000D01*
X251024000Y-131901000D02*
X251784000Y-132661000D01*
X251024000Y-104271000D02*
X251024000Y-131901000D01*
X116565000Y-149160000D02*
X130388000Y-149160000D01*
X305760000Y-113892000D02*
X305760000Y-114400000D01*
X309348000Y-162660000D02*
X310828000Y-162660000D01*
X210443980Y-97270980D02*
X212194000Y-99021000D01*
X309348000Y-125100000D02*
X311348000Y-127100000D01*
X301960001Y-160884999D02*
X301976002Y-160901000D01*
X311348000Y-110336000D02*
X311348000Y-111352000D01*
X310332000Y-112368000D02*
X307284000Y-112368000D01*
X215054000Y-102521000D02*
X249274000Y-102521000D01*
X306448000Y-135540000D02*
X306448000Y-134392000D01*
X140269002Y-100016002D02*
X135864979Y-104420025D01*
X157550021Y-97524981D02*
X178480021Y-97524981D01*
X135864979Y-104420025D02*
X135864979Y-150356979D01*
X309348000Y-124560000D02*
X310828000Y-124560000D01*
X300255999Y-160884999D02*
X301960001Y-160884999D01*
X310828000Y-105510000D02*
X310848000Y-105490000D01*
X305335999Y-160884999D02*
X307040001Y-160884999D01*
X301976002Y-160901000D02*
X305319998Y-160901000D01*
X310464000Y-157101000D02*
X292614000Y-157101000D01*
X310332000Y-169264000D02*
X307284000Y-169264000D01*
X309348000Y-162660000D02*
X309348000Y-165232000D01*
X309348000Y-124560000D02*
X309348000Y-125100000D01*
X291904000Y-160881000D02*
X293524000Y-162501000D01*
X310332000Y-106494000D02*
X309348000Y-105510000D01*
X140551903Y-99733104D02*
X140269002Y-100016002D01*
X311348000Y-111352000D02*
X310332000Y-112368000D01*
X307284000Y-112368000D02*
X305760000Y-113892000D01*
X155341898Y-99733104D02*
X140551903Y-99733104D01*
X212194000Y-100809600D02*
X213905400Y-102521000D01*
X311348000Y-110336000D02*
X310332000Y-109320000D01*
X193753980Y-97270980D02*
X210443980Y-97270980D01*
X178480020Y-97524980D02*
X180544000Y-95461000D01*
X310840000Y-168756000D02*
X310332000Y-169264000D01*
X309348000Y-105510000D02*
X310828000Y-105510000D01*
X311841255Y-138618255D02*
X311841255Y-143403745D01*
X178480021Y-97524981D02*
X178654001Y-97351001D01*
X311841255Y-143282815D02*
X311841255Y-143403745D01*
X306448000Y-134392000D02*
X305252000Y-133196000D01*
X310840000Y-166724000D02*
X310840000Y-167740000D01*
X157550019Y-97524983D02*
X155341898Y-99733104D01*
X311348000Y-127100000D02*
X311348000Y-129132000D01*
X310332000Y-131164000D02*
X307284000Y-131164000D01*
X130388000Y-149160000D02*
X130428000Y-149120000D01*
X307589000Y-160901000D02*
X309348000Y-162660000D01*
X307284000Y-131164000D02*
X305252000Y-133196000D01*
X306448000Y-116490000D02*
X307224000Y-116490000D01*
X212194000Y-99021000D02*
X212194000Y-100809600D01*
X306448000Y-135540000D02*
X308763000Y-135540000D01*
X306448000Y-172492000D02*
X305252000Y-171296000D01*
X311348000Y-129132000D02*
X311348000Y-130148000D01*
X306448000Y-115088000D02*
X305760000Y-114400000D01*
X255240000Y-142506000D02*
X255580340Y-142165660D01*
X249814000Y-122680000D02*
X249814000Y-140980000D01*
X130609255Y-132575745D02*
X117863815Y-132575745D01*
X255580340Y-120165662D02*
X256940002Y-118806000D01*
X249814000Y-140980000D02*
X251239997Y-142405997D01*
X256940002Y-118806000D02*
X269939994Y-118806000D01*
X255580340Y-142165660D02*
X255580340Y-120165662D01*
X248940000Y-121806000D02*
X249814000Y-122680000D01*
X131805000Y-131380000D02*
X130609255Y-132575745D01*
X139440000Y-105666000D02*
X137880000Y-105666000D01*
X138974000Y-108939000D02*
X138974000Y-111172000D01*
X137880000Y-105666000D02*
X137840000Y-105706000D01*
X138974000Y-111172000D02*
X138240000Y-111906000D01*
X139440000Y-105666000D02*
X139440000Y-108473000D01*
X139440000Y-108473000D02*
X138974000Y-108939000D01*
X131805000Y-133920000D02*
X130609255Y-135115745D01*
X297204440Y-138806000D02*
X299008255Y-140609815D01*
X295940000Y-123706000D02*
X293540000Y-126106000D01*
X300040000Y-121106000D02*
X297440000Y-123706000D01*
X296199202Y-138806000D02*
X297204440Y-138806000D01*
X130609255Y-135115745D02*
X117863815Y-135115745D01*
X256399000Y-122306000D02*
X256072999Y-122632001D01*
X256072999Y-122632001D02*
X256072999Y-142490999D01*
X270192000Y-122306000D02*
X270278000Y-122220000D01*
X256399000Y-122306000D02*
X270192000Y-122306000D01*
X256072999Y-142490999D02*
X255306000Y-143257998D01*
X293540000Y-126106000D02*
X293540000Y-136146798D01*
X297440000Y-123706000D02*
X295940000Y-123706000D01*
X293540000Y-136146798D02*
X296199202Y-138806000D01*
X158490000Y-103182000D02*
X158490000Y-103285000D01*
X157290000Y-103725000D02*
X156890000Y-103325000D01*
X157290000Y-109525000D02*
X157290000Y-105284000D01*
X157290000Y-105284000D02*
X157290000Y-103725000D01*
X131805000Y-136460000D02*
X130609255Y-137655745D01*
X131805000Y-136460000D02*
X131824000Y-136460000D01*
X130609255Y-137655745D02*
X117863815Y-137655745D01*
X175980000Y-100900000D02*
X175940000Y-100940000D01*
X177540000Y-100900000D02*
X175980000Y-100900000D01*
X176340000Y-107140000D02*
X176340000Y-103522190D01*
X177540000Y-100900000D02*
X175769010Y-102670990D01*
X175769010Y-102670990D02*
X175769010Y-102951200D01*
X176340000Y-103522190D02*
X175769010Y-102951200D01*
X130609255Y-140195745D02*
X117863815Y-140195745D01*
X131805000Y-139000000D02*
X130609255Y-140195745D01*
X246442000Y-176806000D02*
X237740000Y-176806000D01*
X251064993Y-172183007D02*
X246442000Y-176806000D01*
X251499914Y-147405997D02*
X251064993Y-147840918D01*
X251064993Y-147840918D02*
X251064993Y-172183007D01*
X275679000Y-157406000D02*
X275740000Y-157406000D01*
X195390000Y-109525000D02*
X195390000Y-105609000D01*
X195390000Y-105609000D02*
X195390000Y-104485000D01*
X195390000Y-104485000D02*
X196590000Y-103285000D01*
X196590000Y-103285000D02*
X195030000Y-103285000D01*
X195030000Y-103285000D02*
X194990000Y-103325000D01*
X131805000Y-141540000D02*
X130609255Y-142735745D01*
X130609255Y-142735745D02*
X117863815Y-142735745D01*
X215640000Y-108050000D02*
X214080000Y-108050000D01*
X214080000Y-108050000D02*
X214040000Y-108090000D01*
X214440000Y-114290000D02*
X214440000Y-112213000D01*
X215428000Y-108262000D02*
X215640000Y-108050000D01*
X214440000Y-112213000D02*
X215428000Y-111225000D01*
X215428000Y-111225000D02*
X215428000Y-108262000D01*
X234690000Y-110759000D02*
X234224000Y-111225000D01*
X234690000Y-108050000D02*
X233130000Y-108050000D01*
X234690000Y-108050000D02*
X234690000Y-110759000D01*
X234224000Y-111225000D02*
X234224000Y-113556000D01*
X233130000Y-108050000D02*
X233090000Y-108090000D01*
X234224000Y-113556000D02*
X233490000Y-114290000D01*
X137880000Y-124687000D02*
X137840000Y-124727000D01*
X139440000Y-129727000D02*
X138240000Y-130927000D01*
X139440000Y-124687000D02*
X139440000Y-128031000D01*
X139440000Y-124687000D02*
X137880000Y-124687000D01*
X139440000Y-128031000D02*
X139440000Y-129727000D01*
X139440000Y-128031000D02*
X139482000Y-127989000D01*
X158490000Y-122350200D02*
X156930000Y-122350200D01*
X156930000Y-122350200D02*
X156890000Y-122390200D01*
X158024000Y-125068000D02*
X158024000Y-127856200D01*
X158024000Y-127856200D02*
X157290000Y-128590200D01*
X158490000Y-124602000D02*
X158024000Y-125068000D01*
X158490000Y-122350200D02*
X158490000Y-124602000D01*
X176340000Y-125929000D02*
X178217000Y-124052000D01*
X177540000Y-119988000D02*
X175980000Y-119988000D01*
X177540000Y-119988000D02*
X177540000Y-123375000D01*
X176340000Y-126228000D02*
X176340000Y-125929000D01*
X175980000Y-119988000D02*
X175940000Y-120028000D01*
X177540000Y-123375000D02*
X178217000Y-124052000D01*
X195030000Y-122401000D02*
X194990000Y-122441000D01*
X196314500Y-127716500D02*
X195390000Y-128641000D01*
X196590000Y-122401000D02*
X196590000Y-125491000D01*
X196314500Y-125766500D02*
X196314500Y-127716500D01*
X196590000Y-122401000D02*
X195030000Y-122401000D01*
X196590000Y-125491000D02*
X196314500Y-125766500D01*
X214040000Y-127140000D02*
X215600000Y-127140000D01*
X214440000Y-130755000D02*
X214440000Y-133340000D01*
X215301000Y-129894000D02*
X214440000Y-130755000D01*
X215301000Y-129894000D02*
X215301000Y-127439000D01*
X215600000Y-127140000D02*
X215640000Y-127100000D01*
X215301000Y-127439000D02*
X215640000Y-127100000D01*
X234690000Y-129809000D02*
X234478000Y-130021000D01*
X234478000Y-130021000D02*
X234478000Y-132352000D01*
X234690000Y-127100000D02*
X233130000Y-127100000D01*
X234690000Y-127100000D02*
X234690000Y-129809000D01*
X234478000Y-132352000D02*
X233490000Y-133340000D01*
X233130000Y-127100000D02*
X233090000Y-127140000D01*
X137880000Y-143737000D02*
X137840000Y-143777000D01*
X139440000Y-143737000D02*
X137880000Y-143737000D01*
X138974000Y-149243000D02*
X138240000Y-149977000D01*
X138974000Y-147801000D02*
X138974000Y-144203000D01*
X138974000Y-144203000D02*
X139440000Y-143737000D01*
X138974000Y-147801000D02*
X138974000Y-149243000D01*
X158490000Y-145176000D02*
X158490000Y-146425000D01*
X156930000Y-141385000D02*
X156890000Y-141425000D01*
X158490000Y-141385000D02*
X158490000Y-145176000D01*
X158490000Y-146425000D02*
X157290000Y-147625000D01*
X158490000Y-141385000D02*
X156930000Y-141385000D01*
X176439000Y-145141000D02*
X176340000Y-145240000D01*
X176439000Y-142594000D02*
X176439000Y-145141000D01*
X177074000Y-141959000D02*
X176439000Y-142594000D01*
X177540000Y-139000000D02*
X177540000Y-141493000D01*
X175980000Y-139000000D02*
X175940000Y-139040000D01*
X177540000Y-139000000D02*
X175980000Y-139000000D01*
X177540000Y-141493000D02*
X177074000Y-141959000D01*
X195030000Y-141385000D02*
X194990000Y-141425000D01*
X196590000Y-143398000D02*
X196124000Y-143864000D01*
X196590000Y-141385000D02*
X196590000Y-143398000D01*
X196590000Y-146425000D02*
X195390000Y-147625000D01*
X196590000Y-144922000D02*
X196590000Y-146425000D01*
X196590000Y-141385000D02*
X195030000Y-141385000D01*
X196124000Y-143864000D02*
X196124000Y-144456000D01*
X196124000Y-144456000D02*
X196590000Y-144922000D01*
X214440000Y-151202000D02*
X215745500Y-149896500D01*
X214920000Y-149071000D02*
X214920000Y-146870000D01*
X215745500Y-149896500D02*
X214920000Y-149071000D01*
X214920000Y-146870000D02*
X215640000Y-146150000D01*
X214080000Y-146150000D02*
X214040000Y-146190000D01*
X215640000Y-146150000D02*
X214080000Y-146150000D01*
X214440000Y-152390000D02*
X214440000Y-151202000D01*
X234690000Y-146150000D02*
X233130000Y-146150000D01*
X233490000Y-148210000D02*
X233490000Y-152390000D01*
X233490000Y-147350000D02*
X233490000Y-148210000D01*
X233130000Y-146150000D02*
X233090000Y-146190000D01*
X234690000Y-146150000D02*
X233490000Y-147350000D01*
X138240000Y-169056000D02*
X138240000Y-163256000D01*
X138240000Y-163256000D02*
X137840000Y-162856000D01*
X139440000Y-162816000D02*
X139440000Y-161983000D01*
X139440000Y-161983000D02*
X137831000Y-160374000D01*
X138240000Y-169056000D02*
X140340000Y-166956000D01*
X139440000Y-162816000D02*
X137880000Y-162816000D01*
X137880000Y-162816000D02*
X137840000Y-162856000D01*
X156890000Y-166275000D02*
X157290000Y-166675000D01*
X156890000Y-160475000D02*
X158450000Y-160475000D01*
X157135000Y-157961000D02*
X156890000Y-158206000D01*
X156890000Y-160475000D02*
X156890000Y-164320000D01*
X158450000Y-160475000D02*
X158490000Y-160435000D01*
X156890000Y-158206000D02*
X156890000Y-160475000D01*
X156890000Y-164320000D02*
X156890000Y-166275000D01*
X176340000Y-158490000D02*
X175940000Y-158090000D01*
X177500000Y-158090000D02*
X177540000Y-158050000D01*
X177540000Y-157411000D02*
X176058000Y-155929000D01*
X175940000Y-158090000D02*
X177500000Y-158090000D01*
X176340000Y-162251000D02*
X176340000Y-158490000D01*
X176340000Y-164290000D02*
X176340000Y-162251000D01*
X177540000Y-158050000D02*
X177540000Y-157411000D01*
X195616000Y-166449000D02*
X195390000Y-166675000D01*
X196251000Y-164311000D02*
X195616000Y-164946000D01*
X196251000Y-160774000D02*
X196590000Y-160435000D01*
X196251000Y-164311000D02*
X196251000Y-160774000D01*
X196590000Y-160435000D02*
X195030000Y-160435000D01*
X195030000Y-160435000D02*
X194990000Y-160475000D01*
X195616000Y-164946000D02*
X195616000Y-166449000D01*
X214040000Y-165240000D02*
X214040000Y-171040000D01*
X215640000Y-165200000D02*
X214080000Y-165200000D01*
X214040000Y-171040000D02*
X214440000Y-171440000D01*
X214440000Y-172690000D02*
X217356000Y-175606000D01*
X215640000Y-165200000D02*
X215640000Y-165031000D01*
X215640000Y-165031000D02*
X213523000Y-162914000D01*
X214440000Y-171440000D02*
X214440000Y-172690000D01*
X217356000Y-175606000D02*
X228940000Y-175606000D01*
X214080000Y-165200000D02*
X214040000Y-165240000D01*
X233490000Y-165640000D02*
X233090000Y-165240000D01*
X232954000Y-165104000D02*
X233090000Y-165240000D01*
X233090000Y-165240000D02*
X234650000Y-165240000D01*
X234650000Y-165240000D02*
X234690000Y-165200000D01*
X233490000Y-171440000D02*
X233490000Y-165640000D01*
X232954000Y-162533000D02*
X232954000Y-165104000D01*
X149140000Y-133127000D02*
X149140000Y-135532000D01*
X153452000Y-108812000D02*
X153452000Y-107415000D01*
X152060000Y-160256000D02*
X152040000Y-160276000D01*
X149140000Y-114106000D02*
X149140000Y-116438000D01*
X147340000Y-174206000D02*
X149140000Y-172406000D01*
X149388000Y-151929000D02*
X149140000Y-152177000D01*
X153785000Y-160501000D02*
X153540000Y-160256000D01*
X148372000Y-149960000D02*
X149388000Y-150976000D01*
X149896000Y-117194000D02*
X149896000Y-120003000D01*
X125853450Y-192348871D02*
X126585500Y-191616821D01*
X136812409Y-189835409D02*
X136812409Y-189370345D01*
X149896000Y-120003000D02*
X152040000Y-122147000D01*
X153520000Y-122147000D02*
X153540000Y-122127000D01*
X153198000Y-123305000D02*
X152040000Y-122147000D01*
X153198000Y-127862000D02*
X153198000Y-126846000D01*
X149896000Y-109701000D02*
X152563000Y-109701000D01*
X150023000Y-147674000D02*
X152817000Y-147674000D01*
X154087000Y-146404000D02*
X154087000Y-143244000D01*
X146213000Y-130783000D02*
X147610000Y-130783000D01*
X126585500Y-191616821D02*
X126585500Y-190161500D01*
X149140000Y-132313000D02*
X149140000Y-133127000D01*
X143869998Y-152020000D02*
X145929998Y-149960000D01*
X152040000Y-103126000D02*
X153520000Y-103126000D01*
X140840000Y-174206000D02*
X147340000Y-174206000D01*
X148118000Y-111860000D02*
X149140000Y-112882000D01*
X149140000Y-135532000D02*
X152040000Y-138432000D01*
X153579000Y-165835000D02*
X153579000Y-161815000D01*
X146213000Y-168883000D02*
X146767000Y-168883000D01*
X154087000Y-143244000D02*
X152040000Y-141197000D01*
X147610000Y-130783000D02*
X149140000Y-132313000D01*
X146213000Y-168883000D02*
X146496882Y-168883000D01*
X152040000Y-141197000D02*
X153520000Y-141197000D01*
X154849000Y-160501000D02*
X153785000Y-160501000D01*
X148118000Y-111860000D02*
X148118000Y-111479000D01*
X145929998Y-149960000D02*
X146340000Y-149960000D01*
X152040000Y-141197000D02*
X154849000Y-141197000D01*
X153452000Y-107415000D02*
X153452000Y-104538000D01*
X146767000Y-168883000D02*
X149140000Y-171256000D01*
X146340000Y-111860000D02*
X148118000Y-111860000D01*
X152563000Y-109701000D02*
X153452000Y-108812000D01*
X146340000Y-149960000D02*
X147737000Y-149960000D01*
X126585500Y-190161500D02*
X126585500Y-188879500D01*
X137579730Y-190659383D02*
X137579730Y-191364730D01*
X147737000Y-149960000D02*
X150023000Y-147674000D01*
X146496882Y-168883000D02*
X148655882Y-166724000D01*
X152436000Y-128624000D02*
X153198000Y-127862000D01*
X128850358Y-190161500D02*
X131899858Y-193211000D01*
X149388000Y-150976000D02*
X149388000Y-151929000D01*
X148655882Y-166724000D02*
X152690000Y-166724000D01*
X136839989Y-146420000D02*
X136839989Y-151231989D01*
X138090000Y-188092754D02*
X138090000Y-176956000D01*
X137579730Y-191364730D02*
X138339000Y-192124000D01*
X148118000Y-111479000D02*
X149896000Y-109701000D01*
X136812409Y-189370345D02*
X138090000Y-188092754D01*
X138090000Y-176956000D02*
X140840000Y-174206000D01*
X149140000Y-152177000D02*
X149140000Y-157376000D01*
X146340000Y-149960000D02*
X148372000Y-149960000D01*
X130559255Y-147815745D02*
X117863815Y-147815745D01*
X137579730Y-190137666D02*
X136812409Y-189370345D01*
X149140000Y-157376000D02*
X152040000Y-160276000D01*
X152040000Y-122147000D02*
X153520000Y-122147000D01*
X137628000Y-152020000D02*
X143869998Y-152020000D01*
X152817000Y-147674000D02*
X154087000Y-146404000D01*
X149140000Y-172406000D02*
X149140000Y-171256000D01*
X147610000Y-130783000D02*
X149769000Y-128624000D01*
X153579000Y-161815000D02*
X152040000Y-160276000D01*
X153540000Y-160256000D02*
X152060000Y-160256000D01*
X126585500Y-188879500D02*
X126274000Y-188568000D01*
X132971754Y-193211000D02*
X136812409Y-189370345D01*
X153198000Y-126846000D02*
X153198000Y-123305000D01*
X136839989Y-151231989D02*
X137628000Y-152020000D01*
X152040000Y-138432000D02*
X152040000Y-141197000D01*
X137579730Y-190659383D02*
X137579730Y-190137666D01*
X126585500Y-190161500D02*
X128850358Y-190161500D01*
X149140000Y-116438000D02*
X149896000Y-117194000D01*
X153520000Y-141197000D02*
X153540000Y-141177000D01*
X153520000Y-103126000D02*
X153540000Y-103106000D01*
X131944000Y-146431000D02*
X130559255Y-147815745D01*
X131899858Y-193211000D02*
X132971754Y-193211000D01*
X149140000Y-112882000D02*
X149140000Y-114106000D01*
X152690000Y-166724000D02*
X153579000Y-165835000D01*
X149769000Y-128624000D02*
X152436000Y-128624000D01*
X153452000Y-104538000D02*
X152040000Y-103126000D01*
X165517000Y-128751000D02*
X167295000Y-128751000D01*
X162615001Y-187610001D02*
X162615001Y-183019001D01*
X169962000Y-156818000D02*
X170013000Y-156818000D01*
X168692000Y-136447000D02*
X171090000Y-138845000D01*
X130488004Y-131380000D02*
X130528000Y-131419996D01*
X173010000Y-159815000D02*
X171090000Y-157895000D01*
X116565000Y-131380000D02*
X130488004Y-131380000D01*
X168631999Y-107856001D02*
X166914000Y-109574000D01*
X173137000Y-106272000D02*
X171994000Y-107415000D01*
X171090000Y-157895000D02*
X172570000Y-157895000D01*
X168190000Y-148188000D02*
X168190000Y-149825000D01*
X169454000Y-126465000D02*
X171359000Y-126465000D01*
X158165999Y-188299001D02*
X161926001Y-188299001D01*
X166914000Y-166597000D02*
X166914000Y-165835000D01*
X161926001Y-188299001D02*
X162615001Y-187610001D01*
X168190000Y-133698000D02*
X168692000Y-134200000D01*
X171727000Y-145388000D02*
X172883000Y-144232000D01*
X173137000Y-124687000D02*
X173137000Y-121857200D01*
X168190000Y-155046000D02*
X169962000Y-156818000D01*
X168190000Y-111725000D02*
X168190000Y-113390000D01*
X167168000Y-128751000D02*
X169454000Y-126465000D01*
X173137000Y-105764000D02*
X172590000Y-105217000D01*
X172570000Y-100745000D02*
X172590000Y-100725000D01*
X171359000Y-164438000D02*
X173010000Y-162787000D01*
X168758999Y-107856001D02*
X168631999Y-107856001D01*
X165517000Y-128751000D02*
X167168000Y-128751000D01*
X166914000Y-166597000D02*
X168190000Y-167873000D01*
X167549000Y-147547000D02*
X168190000Y-148188000D01*
X168190000Y-129646000D02*
X168190000Y-130790200D01*
X172883000Y-143531882D02*
X172883000Y-140638000D01*
X169073000Y-145388000D02*
X171727000Y-145388000D01*
X172570000Y-119810200D02*
X172590000Y-119790200D01*
X171090000Y-119810200D02*
X172570000Y-119810200D01*
X165390000Y-109574000D02*
X166914000Y-109574000D01*
X168190000Y-130790200D02*
X168190000Y-133698000D01*
X168311000Y-164438000D02*
X171359000Y-164438000D01*
X167041000Y-109574000D02*
X168190000Y-110723000D01*
X166914000Y-165835000D02*
X168311000Y-164438000D01*
X165390000Y-166597000D02*
X166914000Y-166597000D01*
X172570000Y-157895000D02*
X172590000Y-157875000D01*
X167295000Y-128751000D02*
X168190000Y-129646000D01*
X171090000Y-138845000D02*
X172570000Y-138845000D01*
X155738000Y-190727000D02*
X156344002Y-190727000D01*
X168692000Y-113892000D02*
X168692000Y-117412200D01*
X168190000Y-113390000D02*
X168692000Y-113892000D01*
X168190000Y-167873000D02*
X168190000Y-168875000D01*
X173137000Y-121857200D02*
X171090000Y-119810200D01*
X165517000Y-147547000D02*
X167549000Y-147547000D01*
X161490000Y-177806000D02*
X168190000Y-171106000D01*
X172570000Y-138845000D02*
X172590000Y-138825000D01*
X168692000Y-117412200D02*
X171090000Y-119810200D01*
X167549000Y-147547000D02*
X167549000Y-146912000D01*
X172883000Y-144232000D02*
X172883000Y-143531882D01*
X171994000Y-107415000D02*
X169200000Y-107415000D01*
X172883000Y-140638000D02*
X171090000Y-138845000D01*
X170013000Y-156818000D02*
X171090000Y-157895000D01*
X156344002Y-190727000D02*
X158491002Y-192874000D01*
X173010000Y-162787000D02*
X173010000Y-159815000D01*
X173010000Y-124814000D02*
X173137000Y-124687000D01*
X166914000Y-109574000D02*
X167041000Y-109574000D01*
X163936000Y-181894000D02*
X163993000Y-181837000D01*
X171090000Y-157895000D02*
X173452000Y-157895000D01*
X172590000Y-105217000D02*
X172590000Y-100725000D01*
X168190000Y-149825000D02*
X168190000Y-155046000D01*
X167549000Y-146912000D02*
X169073000Y-145388000D01*
X171359000Y-126465000D02*
X173010000Y-124814000D01*
X158491002Y-192874000D02*
X158590000Y-192874000D01*
X162615001Y-183019001D02*
X161490000Y-181894000D01*
X173137000Y-105764000D02*
X173137000Y-106272000D01*
X161490000Y-181894000D02*
X163936000Y-181894000D01*
X168190000Y-110723000D02*
X168190000Y-111725000D01*
X155738000Y-190727000D02*
X158165999Y-188299001D01*
X168692000Y-134200000D02*
X168692000Y-136447000D01*
X173452000Y-157895000D02*
X173899000Y-158342000D01*
X161490000Y-181894000D02*
X161490000Y-177806000D01*
X168190000Y-171106000D02*
X168190000Y-168875000D01*
X171090000Y-100745000D02*
X172570000Y-100745000D01*
X169200000Y-107415000D02*
X168758999Y-107856001D01*
X190160000Y-117428000D02*
X190140000Y-117448000D01*
X192637000Y-155490000D02*
X193076000Y-155929000D01*
X186218000Y-107034000D02*
X188250000Y-105002000D01*
X180560000Y-179490000D02*
X180540000Y-179510000D01*
X187240000Y-147440000D02*
X187240000Y-146410000D01*
X187240000Y-128428000D02*
X187240000Y-127614000D01*
X184313000Y-164057000D02*
X185964000Y-164057000D01*
X188250000Y-105002000D02*
X190409000Y-105002000D01*
X182040000Y-179490000D02*
X182728000Y-179490000D01*
X191933000Y-141197000D02*
X191933000Y-142086000D01*
X182040000Y-173256000D02*
X182040000Y-179490000D01*
X191640000Y-117428000D02*
X190160000Y-117428000D01*
X177640000Y-190490000D02*
X175380000Y-188230000D01*
X191640000Y-124091000D02*
X191640000Y-122616000D01*
X191640000Y-155490000D02*
X192637000Y-155490000D01*
X187240000Y-152610000D02*
X190140000Y-155510000D01*
X187240000Y-128428000D02*
X187240000Y-133560000D01*
X187240000Y-109340000D02*
X187240000Y-109706000D01*
X187615000Y-124179000D02*
X191552000Y-124179000D01*
X191640000Y-122616000D02*
X191640000Y-117428000D01*
X191620000Y-98360000D02*
X191640000Y-98340000D01*
X184567000Y-126211000D02*
X185583000Y-126211000D01*
X185964000Y-164057000D02*
X187996000Y-162025000D01*
X177948999Y-185915001D02*
X180976001Y-185915001D01*
X187996000Y-162025000D02*
X190663000Y-162025000D01*
X184313000Y-107161000D02*
X186218000Y-107161000D01*
X190140000Y-112606000D02*
X190140000Y-117448000D01*
X186218000Y-107161000D02*
X187240000Y-108183000D01*
X190140000Y-136460000D02*
X190371000Y-136460000D01*
X191679000Y-161009000D02*
X191679000Y-157049000D01*
X187240000Y-108183000D02*
X187240000Y-109340000D01*
X175380000Y-188230000D02*
X175337000Y-188187000D01*
X191552000Y-102843000D02*
X191552000Y-99772000D01*
X187240000Y-147440000D02*
X187240000Y-152610000D01*
X116565000Y-133920000D02*
X130428000Y-133920000D01*
X190663000Y-162025000D02*
X191679000Y-161009000D01*
X191620000Y-136460000D02*
X191640000Y-136440000D01*
X190140000Y-155510000D02*
X191620000Y-155510000D01*
X191552000Y-103859000D02*
X191552000Y-102843000D01*
X180976001Y-185915001D02*
X181665001Y-185226001D01*
X191933000Y-138022000D02*
X191933000Y-141197000D01*
X175337000Y-188187000D02*
X175677000Y-188187000D01*
X187615000Y-143229000D02*
X185710000Y-145134000D01*
X190790000Y-143229000D02*
X187615000Y-143229000D01*
X186218000Y-107161000D02*
X186218000Y-107034000D01*
X190409000Y-105002000D02*
X191552000Y-103859000D01*
X191933000Y-142086000D02*
X190790000Y-143229000D01*
X191620000Y-155510000D02*
X191640000Y-155490000D01*
X181665001Y-185226001D02*
X181665001Y-180635001D01*
X190140000Y-136460000D02*
X191620000Y-136460000D01*
X190371000Y-136460000D02*
X191933000Y-138022000D01*
X187240000Y-166490000D02*
X187240000Y-168056000D01*
X190140000Y-98360000D02*
X191620000Y-98360000D01*
X187240000Y-168056000D02*
X182040000Y-173256000D01*
X185964000Y-145134000D02*
X185710000Y-145134000D01*
X185964000Y-164057000D02*
X187240000Y-165333000D01*
X182728000Y-179490000D02*
X183297000Y-180059000D01*
X191552000Y-124179000D02*
X191640000Y-124091000D01*
X130428000Y-133920000D02*
X130528000Y-134020000D01*
X175677000Y-188187000D02*
X177948999Y-185915001D01*
X187240000Y-127614000D02*
X185837000Y-126211000D01*
X185710000Y-145134000D02*
X184567000Y-145134000D01*
X187240000Y-133560000D02*
X190140000Y-136460000D01*
X182040000Y-179490000D02*
X180560000Y-179490000D01*
X181665001Y-180635001D02*
X180540000Y-179510000D01*
X187240000Y-165333000D02*
X187240000Y-166490000D01*
X187240000Y-109706000D02*
X190140000Y-112606000D01*
X185837000Y-126211000D02*
X184567000Y-126211000D01*
X191552000Y-99772000D02*
X190140000Y-98360000D01*
X191679000Y-157049000D02*
X190140000Y-155510000D01*
X185583000Y-126211000D02*
X187615000Y-124179000D01*
X187240000Y-146410000D02*
X185964000Y-145134000D01*
X116565000Y-136460000D02*
X130387999Y-136460000D01*
X206290000Y-130281000D02*
X206290000Y-130841000D01*
X206792000Y-134212000D02*
X206792000Y-136447000D01*
X206290000Y-149825000D02*
X206290000Y-154995000D01*
X211237000Y-106145000D02*
X209840000Y-107542000D01*
X211237000Y-144372000D02*
X210094000Y-145515000D01*
X206290000Y-168127000D02*
X206290000Y-168875000D01*
X199546002Y-186321000D02*
X200914000Y-184953002D01*
X201070000Y-179510000D02*
X201090000Y-179490000D01*
X211237000Y-163295000D02*
X211237000Y-162533000D01*
X206290000Y-130841000D02*
X206290000Y-133710000D01*
X205141000Y-147674000D02*
X204506000Y-147674000D01*
X206792000Y-136447000D02*
X209190000Y-138845000D01*
X206290000Y-133710000D02*
X206792000Y-134212000D01*
X196720000Y-186321000D02*
X199546002Y-186321000D01*
X206290000Y-114914000D02*
X206792000Y-115416000D01*
X204633000Y-128624000D02*
X206290000Y-130281000D01*
X205829000Y-173271000D02*
X199590000Y-179510000D01*
X194620500Y-188420500D02*
X196690000Y-190490000D01*
X211237000Y-102792000D02*
X209190000Y-100745000D01*
X211237000Y-105637000D02*
X211237000Y-106145000D01*
X206290000Y-111725000D02*
X206290000Y-114914000D01*
X210729000Y-121400000D02*
X209190000Y-119861000D01*
X209190000Y-157895000D02*
X210670000Y-157895000D01*
X210729000Y-124560000D02*
X210729000Y-121400000D01*
X206290000Y-110469000D02*
X206290000Y-111725000D01*
X194620500Y-188420500D02*
X196720000Y-186321000D01*
X210094000Y-145515000D02*
X207300000Y-145515000D01*
X203490000Y-166597000D02*
X204760000Y-166597000D01*
X209840000Y-107542000D02*
X207046000Y-107542000D01*
X211237000Y-105637000D02*
X211237000Y-102792000D01*
X206290000Y-172810000D02*
X205829000Y-173271000D01*
X206792000Y-164438000D02*
X210094000Y-164438000D01*
X210670000Y-100745000D02*
X210690000Y-100725000D01*
X194514000Y-188314000D02*
X194620500Y-188420500D01*
X206290000Y-149825000D02*
X206290000Y-148950000D01*
X207300000Y-145515000D02*
X205141000Y-147674000D01*
X201655998Y-179490000D02*
X202340000Y-178805998D01*
X204506000Y-128624000D02*
X206538000Y-126592000D01*
X206290000Y-168875000D02*
X206290000Y-172810000D01*
X204633000Y-166597000D02*
X206792000Y-164438000D01*
X206792000Y-115416000D02*
X206792000Y-117463000D01*
X205395000Y-109193000D02*
X203744000Y-109193000D01*
X211237000Y-159942000D02*
X209190000Y-157895000D01*
X205014000Y-147674000D02*
X204506000Y-147674000D01*
X200914000Y-184953002D02*
X200914000Y-180834000D01*
X204506000Y-147674000D02*
X203617000Y-147674000D01*
X200914000Y-180834000D02*
X199590000Y-179510000D01*
X209190000Y-100745000D02*
X210670000Y-100745000D01*
X130387999Y-136460000D02*
X130427999Y-136420000D01*
X209190000Y-138845000D02*
X210670000Y-138845000D01*
X210729000Y-125703000D02*
X210729000Y-124560000D01*
X205829000Y-173271000D02*
X205778000Y-173220000D01*
X203490000Y-166597000D02*
X204633000Y-166597000D01*
X206290000Y-148950000D02*
X205014000Y-147674000D01*
X203490000Y-128624000D02*
X204633000Y-128624000D01*
X205014000Y-109193000D02*
X206290000Y-110469000D01*
X207046000Y-107542000D02*
X205395000Y-109193000D01*
X203744000Y-109193000D02*
X205014000Y-109193000D01*
X206538000Y-126592000D02*
X209840000Y-126592000D01*
X206290000Y-154995000D02*
X209190000Y-157895000D01*
X209190000Y-119861000D02*
X210670000Y-119861000D01*
X206792000Y-117463000D02*
X209190000Y-119861000D01*
X211237000Y-143229000D02*
X209190000Y-141182000D01*
X210670000Y-119861000D02*
X210690000Y-119841000D01*
X211237000Y-162533000D02*
X211237000Y-159942000D01*
X203490000Y-128624000D02*
X204506000Y-128624000D01*
X210094000Y-164438000D02*
X211237000Y-163295000D01*
X204760000Y-166597000D02*
X206290000Y-168127000D01*
X210670000Y-157895000D02*
X210690000Y-157875000D01*
X201090000Y-179490000D02*
X201655998Y-179490000D01*
X209840000Y-126592000D02*
X210729000Y-125703000D01*
X199590000Y-179510000D02*
X201070000Y-179510000D01*
X193965000Y-188314000D02*
X194514000Y-188314000D01*
X210670000Y-138845000D02*
X210690000Y-138825000D01*
X211237000Y-143229000D02*
X211237000Y-144372000D01*
X209190000Y-141182000D02*
X209190000Y-138845000D01*
X230033000Y-168248000D02*
X230033000Y-166724000D01*
X228240000Y-164931000D02*
X228240000Y-162660000D01*
X224619000Y-169471000D02*
X228810000Y-169471000D01*
X230033000Y-166724000D02*
X228240000Y-164931000D01*
X224064000Y-152373000D02*
X222667000Y-152373000D01*
X225842000Y-140562000D02*
X228240000Y-142960000D01*
X223810000Y-133323000D02*
X222540000Y-133323000D01*
X225340000Y-135540000D02*
X225340000Y-134853000D01*
X225842000Y-138022000D02*
X225842000Y-140562000D01*
X225340000Y-137520000D02*
X225842000Y-138022000D01*
X225842000Y-155092000D02*
X225340000Y-154590000D01*
X228240000Y-162660000D02*
X229720000Y-162660000D01*
X228240000Y-142960000D02*
X228240000Y-143610000D01*
X229144000Y-150468000D02*
X225969000Y-150468000D01*
X225340000Y-134853000D02*
X223810000Y-133323000D01*
X225340000Y-153649000D02*
X224064000Y-152373000D01*
X225340000Y-115422000D02*
X225340000Y-116490000D01*
X225340000Y-119474000D02*
X225842000Y-119976000D01*
X225842000Y-119976000D02*
X225842000Y-121766000D01*
X229906000Y-110590000D02*
X229906000Y-111479000D01*
X225969000Y-150468000D02*
X224064000Y-152373000D01*
X229779000Y-149833000D02*
X229144000Y-150468000D01*
X228240000Y-107019000D02*
X229906000Y-108685000D01*
X225340000Y-135540000D02*
X225340000Y-137520000D01*
X228240000Y-146643000D02*
X228240000Y-143610000D01*
X231176000Y-162660000D02*
X231430000Y-162914000D01*
X229906000Y-126226000D02*
X228240000Y-124560000D01*
X225340000Y-116490000D02*
X225340000Y-119474000D01*
X222667000Y-171423000D02*
X224619000Y-169471000D01*
X228240000Y-162660000D02*
X231176000Y-162660000D01*
X222667000Y-171423000D02*
X223123000Y-171423000D01*
X225842000Y-121766000D02*
X228240000Y-124164000D01*
X229779000Y-148182000D02*
X228240000Y-146643000D01*
X228240000Y-143610000D02*
X229720000Y-143610000D01*
X225842000Y-160262000D02*
X225842000Y-155092000D01*
X222413000Y-114273000D02*
X224191000Y-114273000D01*
X225340000Y-154590000D02*
X225340000Y-153649000D01*
X225715000Y-131418000D02*
X229262000Y-131418000D01*
X229906000Y-129132000D02*
X229906000Y-126226000D01*
X229144000Y-112241000D02*
X226223000Y-112241000D01*
X228240000Y-124560000D02*
X229720000Y-124560000D01*
X226223000Y-112241000D02*
X224191000Y-114273000D01*
X228240000Y-162660000D02*
X225842000Y-160262000D01*
X229779000Y-148182000D02*
X229779000Y-149833000D01*
X228810000Y-169471000D02*
X230033000Y-168248000D01*
X223123000Y-171423000D02*
X225340000Y-173640000D01*
X223810000Y-133323000D02*
X225715000Y-131418000D01*
X229720000Y-105510000D02*
X229740000Y-105490000D01*
X229720000Y-124560000D02*
X229740000Y-124540000D01*
X229906000Y-111479000D02*
X229144000Y-112241000D01*
X229720000Y-143610000D02*
X229740000Y-143590000D01*
X228240000Y-105510000D02*
X229720000Y-105510000D01*
X229906000Y-108685000D02*
X229906000Y-110590000D01*
X130348000Y-139000000D02*
X130428000Y-138920000D01*
X229906000Y-130774000D02*
X229906000Y-129132000D01*
X228240000Y-124164000D02*
X228240000Y-124560000D01*
X229262000Y-131418000D02*
X229906000Y-130774000D01*
X116565000Y-139000000D02*
X130348000Y-139000000D01*
X228240000Y-105510000D02*
X228240000Y-107019000D01*
X224191000Y-114273000D02*
X225340000Y-115422000D01*
X229720000Y-162660000D02*
X229740000Y-162640000D01*
X243114000Y-114400000D02*
X245273000Y-112241000D01*
X249083000Y-148436000D02*
X247290000Y-146643000D01*
X244390000Y-154590000D02*
X244390000Y-154030000D01*
X247310000Y-162640000D02*
X247290000Y-162660000D01*
X248790000Y-162640000D02*
X247310000Y-162640000D01*
X247940000Y-150214000D02*
X244765000Y-150214000D01*
X244390000Y-154590000D02*
X244390000Y-159760000D01*
X245273000Y-131291000D02*
X247940000Y-131291000D01*
X243114000Y-133450000D02*
X245273000Y-131291000D01*
X244765000Y-150214000D02*
X242479000Y-152500000D01*
X242479000Y-152500000D02*
X241463000Y-152500000D01*
X249083000Y-148436000D02*
X249083000Y-149071000D01*
X244892000Y-138772000D02*
X244892000Y-141212000D01*
X244390000Y-134345000D02*
X243495000Y-133450000D01*
X242860000Y-152500000D02*
X242479000Y-152500000D01*
X249083000Y-110971000D02*
X249083000Y-110209000D01*
X244390000Y-119474000D02*
X244892000Y-119976000D01*
X247813000Y-112241000D02*
X249083000Y-110971000D01*
X247290000Y-105510000D02*
X248770000Y-105510000D01*
X248770000Y-143610000D02*
X248790000Y-143590000D01*
X245273000Y-112241000D02*
X247813000Y-112241000D01*
X249647990Y-162640000D02*
X250048990Y-163041000D01*
X248702000Y-130529000D02*
X248702000Y-129767000D01*
X241717000Y-133450000D02*
X243114000Y-133450000D01*
X244390000Y-173588000D02*
X241844000Y-171042000D01*
X247940000Y-131291000D02*
X248702000Y-130529000D01*
X249083000Y-149071000D02*
X247940000Y-150214000D01*
X243495000Y-133450000D02*
X241717000Y-133450000D01*
X247290000Y-143610000D02*
X248770000Y-143610000D01*
X248702000Y-129767000D02*
X248702000Y-125972000D01*
X247290000Y-146643000D02*
X247290000Y-143610000D01*
X243368000Y-114400000D02*
X241590000Y-114400000D01*
X249083000Y-110209000D02*
X249083000Y-107303000D01*
X244390000Y-115422000D02*
X243368000Y-114400000D01*
X244390000Y-159760000D02*
X247290000Y-162660000D01*
X116565000Y-141540000D02*
X130408000Y-141540000D01*
X248770000Y-105510000D02*
X248790000Y-105490000D01*
X244390000Y-116490000D02*
X244390000Y-115422000D01*
X244892000Y-122162000D02*
X247290000Y-124560000D01*
X247290000Y-124560000D02*
X248770000Y-124560000D01*
X244390000Y-173640000D02*
X244390000Y-173588000D01*
X241590000Y-114400000D02*
X243114000Y-114400000D01*
X244390000Y-116490000D02*
X244390000Y-119474000D01*
X130408000Y-141540000D02*
X130428000Y-141520000D01*
X244390000Y-138270000D02*
X244892000Y-138772000D01*
X244892000Y-141212000D02*
X247290000Y-143610000D01*
X244390000Y-154030000D02*
X242860000Y-152500000D01*
X248770000Y-124560000D02*
X248790000Y-124540000D01*
X244892000Y-119976000D02*
X244892000Y-122162000D01*
X249083000Y-107303000D02*
X247290000Y-105510000D01*
X248790000Y-162640000D02*
X249647990Y-162640000D01*
X244390000Y-135540000D02*
X244390000Y-138270000D01*
X244390000Y-135540000D02*
X244390000Y-134345000D01*
X248702000Y-125972000D02*
X247290000Y-124560000D01*
X257448000Y-168300000D02*
X257448000Y-171440000D01*
X257088000Y-165200000D02*
X257048000Y-165240000D01*
X258008000Y-167740000D02*
X257448000Y-168300000D01*
X258648000Y-165200000D02*
X257088000Y-165200000D01*
X258648000Y-167100000D02*
X258648000Y-165200000D01*
X258008000Y-167740000D02*
X258648000Y-167100000D01*
X276804000Y-171134000D02*
X276498000Y-171440000D01*
X277698000Y-167354000D02*
X277698000Y-165200000D01*
X276804000Y-168248000D02*
X276804000Y-171134000D01*
X277698000Y-165200000D02*
X276138000Y-165200000D01*
X276804000Y-168248000D02*
X277698000Y-167354000D01*
X276138000Y-165200000D02*
X276098000Y-165240000D01*
X258516000Y-111352000D02*
X258516000Y-113222000D01*
X258648000Y-108050000D02*
X257088000Y-108050000D01*
X258516000Y-113222000D02*
X257448000Y-114290000D01*
X258516000Y-111352000D02*
X258516000Y-108182000D01*
X257088000Y-108050000D02*
X257048000Y-108090000D01*
X258516000Y-108182000D02*
X258648000Y-108050000D01*
X277312000Y-110844000D02*
X277312000Y-113476000D01*
X277698000Y-108050000D02*
X276138000Y-108050000D01*
X277698000Y-110458000D02*
X277312000Y-110844000D01*
X276138000Y-108050000D02*
X276098000Y-108090000D01*
X277698000Y-108050000D02*
X277698000Y-110458000D01*
X277312000Y-113476000D02*
X276498000Y-114290000D01*
X295548000Y-114290000D02*
X295548000Y-111404000D01*
X296108000Y-110844000D02*
X296748000Y-110204000D01*
X296748000Y-110204000D02*
X296748000Y-108050000D01*
X296748000Y-108050000D02*
X295188000Y-108050000D01*
X295548000Y-111404000D02*
X296108000Y-110844000D01*
X295188000Y-108050000D02*
X295148000Y-108090000D01*
X257088000Y-127100000D02*
X257048000Y-127140000D01*
X257448000Y-129692000D02*
X257448000Y-128300000D01*
X257448000Y-133340000D02*
X257448000Y-129692000D01*
X258648000Y-127100000D02*
X257088000Y-127100000D01*
X257448000Y-128300000D02*
X258648000Y-127100000D01*
X277698000Y-127100000D02*
X277698000Y-130778000D01*
X277698000Y-127100000D02*
X276138000Y-127100000D01*
X276138000Y-127100000D02*
X276098000Y-127140000D01*
X277698000Y-130778000D02*
X277698000Y-132140000D01*
X277698000Y-132140000D02*
X276498000Y-133340000D01*
X296616000Y-132272000D02*
X295548000Y-133340000D01*
X295148000Y-128680000D02*
X296616000Y-130148000D01*
X296748000Y-127100000D02*
X295188000Y-127100000D01*
X296616000Y-130148000D02*
X296616000Y-132272000D01*
X295188000Y-127100000D02*
X295148000Y-127140000D01*
X295148000Y-127140000D02*
X295148000Y-128680000D01*
X296108000Y-168248000D02*
X296748000Y-167608000D01*
X296748000Y-167608000D02*
X296748000Y-165200000D01*
X295548000Y-171440000D02*
X295548000Y-168808000D01*
X295188000Y-165200000D02*
X295148000Y-165240000D01*
X296748000Y-165200000D02*
X295188000Y-165200000D01*
X295548000Y-168808000D02*
X296108000Y-168248000D01*
X127478064Y-178362784D02*
X127478064Y-178893784D01*
X128312705Y-178274295D02*
X129449000Y-177138000D01*
X127478064Y-178893784D02*
X128312705Y-179728425D01*
X128312705Y-179728425D02*
X128312705Y-178274295D01*
X122308706Y-181809194D02*
X124389475Y-179728425D01*
X124389475Y-179728425D02*
X128312705Y-179728425D01*
X148890000Y-184434000D02*
X148890000Y-183625000D01*
X148890000Y-183625000D02*
X147483000Y-182218000D01*
X147690000Y-190674000D02*
X147690000Y-184874000D01*
X147330000Y-184434000D02*
X147290000Y-184474000D01*
X148890000Y-184434000D02*
X147330000Y-184434000D01*
X147690000Y-184874000D02*
X147290000Y-184474000D01*
X166660000Y-179805000D02*
X167940000Y-181085000D01*
X166740000Y-182490000D02*
X166340000Y-182090000D01*
X166740000Y-188290000D02*
X166740000Y-182490000D01*
X166340000Y-182090000D02*
X167900000Y-182090000D01*
X167940000Y-181085000D02*
X167940000Y-182050000D01*
X167900000Y-182090000D02*
X167940000Y-182050000D01*
X186990000Y-183508000D02*
X185790000Y-184708000D01*
X185790000Y-188290000D02*
X185790000Y-184708000D01*
X185430000Y-182050000D02*
X185390000Y-182090000D01*
X185790000Y-184708000D02*
X185790000Y-182490000D01*
X186990000Y-182050000D02*
X185430000Y-182050000D01*
X185790000Y-182490000D02*
X185390000Y-182090000D01*
X186990000Y-182050000D02*
X186990000Y-183508000D01*
X276138000Y-146150000D02*
X276098000Y-146190000D01*
X277698000Y-149066000D02*
X277312000Y-149452000D01*
X277312000Y-149452000D02*
X277312000Y-151576000D01*
X277312000Y-151576000D02*
X276498000Y-152390000D01*
X277698000Y-146150000D02*
X276138000Y-146150000D01*
X277698000Y-146150000D02*
X277698000Y-149066000D01*
X116565000Y-121220000D02*
X130527996Y-121220000D01*
X130527996Y-121220000D02*
X130528000Y-121220004D01*
X130559255Y-150355745D02*
X117863815Y-150355745D01*
X131944000Y-148971000D02*
X130559255Y-150355745D01*
X117863815Y-122415745D02*
X130609255Y-122415745D01*
X130609255Y-122415745D02*
X131805000Y-121220000D01*
M02*
