M48
; DRILL file {KiCad 7.0.10} date Sun Mar 31 17:07:37 2024
; FORMAT={-:-/ absolute / metric / decimal}
; #@! TF.CreationDate,2024-03-31T17:07:37-04:00
; #@! TF.GenerationSoftware,Kicad,Pcbnew,7.0.10
; #@! TF.FileFunction,Plated,1,2,PTH
FMAT,2
METRIC
; #@! TA.AperFunction,Plated,PTH,ViaDrill
T1C0.200
; #@! TA.AperFunction,Plated,PTH,ComponentDrill
T2C0.300
; #@! TA.AperFunction,Plated,PTH,ViaDrill
T3C0.400
; #@! TA.AperFunction,Plated,PTH,ComponentDrill
T4C0.813
; #@! TA.AperFunction,Plated,PTH,ComponentDrill
T5C1.300
; #@! TA.AperFunction,Plated,PTH,ComponentDrill
T6C2.200
; #@! TA.AperFunction,Plated,PTH,ComponentDrill
T7C3.200
%
G90
G05
T1
X120.163Y-145.762
X124.389Y-179.728
X126.274Y-188.568
X128.94Y-142.736
X129.449Y-177.138
X129.54Y-140.206
X130.428Y-128.82
X130.428Y-136.42
X130.428Y-138.92
X130.428Y-141.52
X130.428Y-144.02
X130.428Y-146.62
X130.428Y-149.12
X130.528Y-121.22
X130.528Y-123.801
X130.528Y-131.42
X130.528Y-134.02
X135.865Y-150.357
X136.365Y-147.757
X136.84Y-146.42
X136.903Y-139.438
X137.831Y-160.374
X138.339Y-192.124
X138.974Y-108.939
X138.974Y-147.801
X139.482Y-127.989
X140.34Y-166.956
X146.213Y-130.783
X146.213Y-168.883
X146.34Y-111.86
X146.34Y-149.96
X147.483Y-182.218
X153.198Y-126.846
X153.452Y-107.415
X154.849Y-141.197
X154.849Y-160.501
X155.738Y-190.727
X156.89Y-164.32
X157.135Y-157.961
X157.29Y-105.284
X158.024Y-125.068
X158.49Y-145.176
X163.993Y-181.837
X165.39Y-109.574
X165.39Y-166.597
X165.517Y-128.751
X165.517Y-147.547
X166.66Y-179.805
X172.883Y-143.532
X173.01Y-124.814
X173.137Y-105.764
X173.899Y-158.342
X175.38Y-188.23
X175.769Y-102.951
X176.058Y-155.929
X176.34Y-162.251
X177.074Y-141.959
X178.217Y-124.052
X183.297Y-180.059
X184.313Y-107.161
X184.313Y-164.057
X184.567Y-126.211
X184.567Y-145.134
X185.79Y-184.708
X191.552Y-102.843
X191.64Y-122.616
X191.933Y-141.197
X193.076Y-155.929
X193.965Y-188.314
X195.39Y-105.609
X196.124Y-143.864
X196.251Y-164.311
X196.314Y-125.766
X202.34Y-178.806
X203.49Y-128.624
X203.49Y-166.597
X203.617Y-147.674
X203.744Y-109.193
X210.729Y-124.56
X211.237Y-105.637
X211.237Y-143.229
X211.237Y-162.533
X213.523Y-162.914
X215.301Y-129.894
X215.428Y-111.225
X215.745Y-149.897
X222.413Y-114.273
X222.54Y-133.323
X222.667Y-152.373
X222.667Y-171.423
X228.94Y-175.606
X229.779Y-148.182
X229.906Y-110.59
X229.906Y-129.132
X231.43Y-162.914
X232.954Y-162.533
X233.49Y-148.21
X234.224Y-111.225
X234.478Y-130.021
X237.74Y-176.806
X241.463Y-152.5
X241.59Y-114.4
X241.717Y-133.45
X241.844Y-171.042
X248.702Y-129.767
X248.94Y-121.806
X249.083Y-110.209
X249.083Y-148.436
X250.049Y-163.041
X250.94Y-146.806
X251.24Y-142.406
X251.294Y-143.206
X251.34Y-138.406
X251.5Y-147.406
X251.74Y-133.606
X251.784Y-132.661
X254.464Y-132.641
X254.798Y-133.606
X254.889Y-138.43
X255.054Y-147.606
X255.064Y-146.806
X255.24Y-142.506
X255.306Y-143.258
X256.399Y-122.306
X256.94Y-118.806
X257.448Y-129.692
X258.008Y-167.74
X258.516Y-111.352
X265.628Y-114.4
X265.628Y-133.45
X265.628Y-171.296
X269.94Y-118.806
X270.278Y-122.22
X270.528Y-118.32
X273.248Y-110.336
X273.248Y-167.74
X273.502Y-128.878
X275.74Y-157.406
X275.74Y-160.806
X276.804Y-168.248
X276.804Y-168.248
X277.04Y-157.406
X277.04Y-160.806
X277.312Y-110.844
X277.312Y-149.452
X277.698Y-130.778
X284.424Y-171.296
X284.932Y-114.4
X284.932Y-133.196
X284.932Y-152.5
X290.614Y-157.831
X290.614Y-160.891
X291.904Y-157.811
X291.904Y-160.881
X292.044Y-110.336
X292.044Y-129.64
X292.044Y-148.436
X292.044Y-167.74
X296.108Y-110.844
X296.108Y-110.844
X296.108Y-168.248
X296.616Y-130.148
X300.04Y-121.106
X303.728Y-114.4
X303.728Y-133.196
X303.728Y-171.296
X310.84Y-167.74
X311.348Y-110.336
X311.348Y-129.132
T3
X120.024Y-126.101
X120.163Y-130.036
X120.163Y-151.031
X121.024Y-144.916
X130.328Y-126.12
X142.94Y-176.006
X251.34Y-176.206
X251.74Y-148.206
X254.875Y-148.382
T4
X116.704Y-121.031
X116.704Y-123.571
X116.704Y-126.111
X116.704Y-128.651
X116.704Y-131.191
X116.704Y-133.731
X116.704Y-136.271
X116.704Y-138.811
X116.704Y-141.351
X116.704Y-143.891
X116.704Y-146.431
X116.704Y-148.971
X118.503Y-122.427
X118.503Y-124.967
X118.503Y-127.507
X118.503Y-130.047
X118.503Y-132.587
X118.503Y-135.127
X118.503Y-137.667
X118.503Y-140.207
X118.503Y-142.747
X118.503Y-145.287
X118.503Y-147.827
X118.503Y-150.367
X131.944Y-121.031
X131.944Y-123.571
X131.944Y-126.111
X131.944Y-128.651
X131.944Y-131.191
X131.944Y-133.731
X131.944Y-136.271
X131.944Y-138.811
X131.944Y-141.351
X131.944Y-143.891
X131.944Y-146.431
X131.944Y-148.971
X133.743Y-122.427
X133.743Y-124.967
X133.743Y-127.507
X133.743Y-130.047
X133.743Y-132.587
X133.743Y-135.127
X133.743Y-137.667
X133.743Y-140.207
X133.743Y-142.747
X133.743Y-145.287
X133.743Y-147.827
X133.743Y-150.367
X296.468Y-140.61
X296.468Y-155.85
X299.008Y-140.61
X299.008Y-155.85
X301.548Y-140.61
X301.548Y-155.85
X304.088Y-140.61
X304.088Y-155.85
X306.628Y-140.61
X306.628Y-155.85
X309.168Y-140.61
X309.168Y-155.85
T5
X112.802Y-160.253
X116.052Y-165.883
X271.816Y-145.596
X271.816Y-152.096
T6
X253.286Y-135.906
X253.286Y-140.506
X253.286Y-145.106
X279.182Y-159.26
X284.04Y-159.306
X288.54Y-159.306
T7
X142.474Y-179.611
X155.894Y-135.431
X155.894Y-154.501
X155.94Y-116.206
X193.934Y-133.251
X193.934Y-152.361
X193.94Y-114.406
X232.074Y-139.141
X232.074Y-158.201
X232.14Y-120.006
X275.04Y-120.106
X275.104Y-139.161
X294.14Y-120.306
T2
X105.475Y-165.621G85X106.125Y-166.747
G05
X106.975Y-168.219G85X107.625Y-169.345
G05
X108.975Y-171.683G85X109.625Y-172.809
G05
X110.628Y-162.646G85X111.278Y-163.772
G05
X111.24Y-172.107G85X111.89Y-173.233
G05
X112.128Y-165.244G85X112.778Y-166.37
G05
X113.362Y-170.882G85X114.012Y-172.008
G05
X114.128Y-168.708G85X114.778Y-169.834
G05
M30
