G04 #@! TF.GenerationSoftware,KiCad,Pcbnew,9.0.2*
G04 #@! TF.CreationDate,2025-05-28T18:10:17-04:00*
G04 #@! TF.ProjectId,Breeze,42726565-7a65-42e6-9b69-6361645f7063,Rev1.2*
G04 #@! TF.SameCoordinates,Original*
G04 #@! TF.FileFunction,Profile,NP*
%FSLAX46Y46*%
G04 Gerber Fmt 4.6, Leading zero omitted, Abs format (unit mm)*
G04 Created by KiCad (PCBNEW 9.0.2) date 2025-05-28 18:10:17*
%MOMM*%
%LPD*%
G01*
G04 APERTURE LIST*
G04 #@! TA.AperFunction,Profile*
%ADD10C,0.050000*%
G04 #@! TD*
G04 APERTURE END LIST*
D10*
X166372000Y-194317000D02*
X202672000Y-194317000D01*
X251270000Y-101126000D02*
G75*
G02*
X252270000Y-102126000I0J-1000000D01*
G01*
X253270000Y-130614000D02*
G75*
G02*
X252270000Y-129614000I0J1000000D01*
G01*
X251270000Y-101126000D02*
X214150000Y-101126000D01*
X220312305Y-183253636D02*
G75*
G02*
X219962000Y-183317000I-350305J936636D01*
G01*
X130262000Y-208674000D02*
G75*
G02*
X128896000Y-208308000I-500000J866000D01*
G01*
X292795000Y-159321000D02*
X292795000Y-159276000D01*
X255305000Y-158276000D02*
G75*
G02*
X254305000Y-157276000I0J1000000D01*
G01*
X102846000Y-163188000D02*
G75*
G02*
X103212000Y-161822000I866000J500000D01*
G01*
X134440000Y-117186000D02*
X115970000Y-117186000D01*
X313265000Y-102126000D02*
X313265000Y-157276000D01*
X254305000Y-129614000D02*
X254305000Y-102126000D01*
X212150000Y-96296000D02*
X195100000Y-96296000D01*
X204672000Y-183317000D02*
X219962000Y-183317000D01*
X254305000Y-161321000D02*
X254305000Y-177101000D01*
X252270000Y-177101000D02*
G75*
G02*
X251270000Y-178101000I-1000000J0D01*
G01*
X273795000Y-158276000D02*
X255305000Y-158276000D01*
X135440000Y-116186000D02*
G75*
G02*
X134440000Y-117186000I-1000000J0D01*
G01*
X313265000Y-161321000D02*
X313265000Y-177101000D01*
X102846000Y-163188000D02*
X128896000Y-208308000D01*
X312265000Y-160321000D02*
X293795000Y-160321000D01*
X293795000Y-160321000D02*
G75*
G02*
X292795000Y-159321000I0J1000000D01*
G01*
X130262000Y-208674000D02*
X150774000Y-196831000D01*
X255305000Y-101126000D02*
X312265000Y-101126000D01*
X203672000Y-193317000D02*
X203672000Y-184317000D01*
X194100000Y-95296000D02*
X194100000Y-94956000D01*
X175050000Y-94956000D02*
X175050000Y-95376000D01*
X274795000Y-159276000D02*
X274795000Y-159321000D01*
X165372000Y-195697000D02*
G75*
G02*
X164372000Y-196697000I-1000000J0D01*
G01*
X255305000Y-178101000D02*
X312265000Y-178101000D01*
X274795000Y-159321000D02*
G75*
G02*
X273795000Y-160321000I-1000000J0D01*
G01*
X253305000Y-148614000D02*
G75*
G02*
X254305000Y-149614000I0J-1000000D01*
G01*
X273795000Y-160321000D02*
X255305000Y-160321000D01*
X156000000Y-97706000D02*
G75*
G02*
X155000000Y-98706000I-1000000J0D01*
G01*
X251270000Y-178101000D02*
X234270000Y-178101000D01*
X273795000Y-158276000D02*
G75*
G02*
X274795000Y-159276000I0J-1000000D01*
G01*
X175050000Y-95376000D02*
G75*
G02*
X174050000Y-96376000I-1000000J0D01*
G01*
X253305000Y-148614000D02*
X253270000Y-148614000D01*
X174050000Y-96376000D02*
X157000000Y-96376000D01*
X175050000Y-94956000D02*
G75*
G02*
X176050000Y-93956000I1000000J0D01*
G01*
X156000000Y-97376000D02*
G75*
G02*
X157000000Y-96376000I1000000J0D01*
G01*
X254305000Y-102126000D02*
G75*
G02*
X255305000Y-101126000I1000000J0D01*
G01*
X312265000Y-101126000D02*
G75*
G02*
X313265000Y-102126000I0J-1000000D01*
G01*
X214150000Y-101126000D02*
G75*
G02*
X213150000Y-100126000I0J1000000D01*
G01*
X151274000Y-196697000D02*
X164372000Y-196697000D01*
X254305000Y-129614000D02*
G75*
G02*
X253305000Y-130614000I-1000000J0D01*
G01*
X252270000Y-149614000D02*
G75*
G02*
X253270000Y-148614000I1000000J0D01*
G01*
X193100000Y-93956000D02*
X176050000Y-93956000D01*
X213150000Y-100126000D02*
X213150000Y-97296000D01*
X252270000Y-102126000D02*
X252270000Y-129614000D01*
X292795000Y-159276000D02*
G75*
G02*
X293795000Y-158276000I1000000J0D01*
G01*
X254305000Y-161321000D02*
G75*
G02*
X255305000Y-160321000I1000000J0D01*
G01*
X195100000Y-96296000D02*
G75*
G02*
X194100000Y-95296000I0J1000000D01*
G01*
X233919695Y-178164364D02*
G75*
G02*
X234270000Y-178101000I350305J-936636D01*
G01*
X165372000Y-195317000D02*
G75*
G02*
X166372000Y-194317000I1000000J0D01*
G01*
X312265000Y-160321000D02*
G75*
G02*
X313265000Y-161321000I0J-1000000D01*
G01*
X203672000Y-193317000D02*
G75*
G02*
X202672000Y-194317000I-1000000J0D01*
G01*
X135440000Y-99706000D02*
X135440000Y-116186000D01*
X156000000Y-97376000D02*
X156000000Y-97706000D01*
X253270000Y-130614000D02*
X253305000Y-130614000D01*
X313265000Y-177101000D02*
G75*
G02*
X312265000Y-178101000I-1000000J0D01*
G01*
X114970000Y-118186000D02*
G75*
G02*
X115970000Y-117186000I1000000J0D01*
G01*
X254305000Y-149614000D02*
X254305000Y-157276000D01*
X252270000Y-149614000D02*
X252270000Y-177101000D01*
X150774000Y-196830975D02*
G75*
G02*
X151274000Y-196697000I500000J-866025D01*
G01*
X203672000Y-184317000D02*
G75*
G02*
X204672000Y-183317000I1000000J0D01*
G01*
X193100000Y-93956000D02*
G75*
G02*
X194100000Y-94956000I0J-1000000D01*
G01*
X165372000Y-195317000D02*
X165372000Y-195697000D01*
X114470000Y-155322000D02*
X103212000Y-161822000D01*
X313265000Y-157276000D02*
G75*
G02*
X312265000Y-158276000I-1000000J0D01*
G01*
X293795000Y-158276000D02*
X312265000Y-158276000D01*
X114970000Y-154456000D02*
X114970000Y-118186000D01*
X255305000Y-178101000D02*
G75*
G02*
X254305000Y-177101000I0J1000000D01*
G01*
X233920000Y-178164000D02*
X220313000Y-183254000D01*
X114969978Y-154455987D02*
G75*
G02*
X114470000Y-155322000I-999978J-13D01*
G01*
X135440000Y-99706000D02*
G75*
G02*
X136440000Y-98706000I1000000J0D01*
G01*
X136440000Y-98706000D02*
X155000000Y-98706000D01*
X212150000Y-96296000D02*
G75*
G02*
X213150000Y-97296000I0J-1000000D01*
G01*
M02*
