M48
; DRILL file {KiCad 7.0.10} date Sun Mar 31 17:07:37 2024
; FORMAT={-:-/ absolute / metric / decimal}
; #@! TF.CreationDate,2024-03-31T17:07:37-04:00
; #@! TF.GenerationSoftware,Kicad,Pcbnew,7.0.10
; #@! TF.FileFunction,NonPlated,1,2,NPTH
FMAT,2
METRIC
; #@! TA.AperFunction,NonPlated,NPTH,ComponentDrill
T1C0.100
; #@! TA.AperFunction,NonPlated,NPTH,ComponentDrill
T2C1.200
; #@! TA.AperFunction,NonPlated,NPTH,ComponentDrill
T3C1.700
; #@! TA.AperFunction,NonPlated,NPTH,ComponentDrill
T4C1.900
; #@! TA.AperFunction,NonPlated,NPTH,ComponentDrill
T5C3.000
; #@! TA.AperFunction,NonPlated,NPTH,ComponentDrill
T6C3.048
; #@! TA.AperFunction,NonPlated,NPTH,ComponentDrill
T7C3.988
; #@! TA.AperFunction,NonPlated,NPTH,ComponentDrill
T8C4.000
%
G90
G05
T1
X129.885Y-182.371
X133.71Y-188.997
X142.515Y-105.626
X142.515Y-124.647
X142.515Y-143.697
X142.515Y-162.776
X150.165Y-105.626
X150.165Y-124.647
X150.165Y-143.697
X150.165Y-162.776
X151.965Y-184.394
X159.615Y-184.394
X161.565Y-103.245
X161.565Y-122.31
X161.565Y-141.345
X161.565Y-160.395
X169.215Y-103.245
X169.215Y-122.31
X169.215Y-141.345
X169.215Y-160.395
X171.015Y-182.01
X178.665Y-182.01
X180.615Y-100.86
X180.615Y-119.948
X180.615Y-138.96
X180.615Y-158.01
X188.265Y-100.86
X188.265Y-119.948
X188.265Y-138.96
X188.265Y-158.01
X190.065Y-182.01
X197.715Y-182.01
X199.665Y-103.245
X199.665Y-122.361
X199.665Y-141.345
X199.665Y-160.395
X207.315Y-103.245
X207.315Y-122.361
X207.315Y-141.345
X207.315Y-160.395
X218.715Y-108.01
X218.715Y-127.06
X218.715Y-146.11
X218.715Y-165.16
X226.365Y-108.01
X226.365Y-127.06
X226.365Y-146.11
X226.365Y-165.16
X237.765Y-108.01
X237.765Y-127.06
X237.765Y-146.11
X237.765Y-165.16
X245.415Y-108.01
X245.415Y-127.06
X245.415Y-146.11
X245.415Y-165.16
X261.723Y-108.01
X261.723Y-127.06
X261.723Y-165.16
X269.373Y-108.01
X269.373Y-127.06
X269.373Y-165.16
X280.773Y-108.01
X280.773Y-127.06
X280.773Y-146.11
X280.773Y-165.16
X288.423Y-108.01
X288.423Y-127.06
X288.423Y-146.11
X288.423Y-165.16
X299.823Y-108.01
X299.823Y-127.06
X299.823Y-165.16
X307.473Y-108.01
X307.473Y-127.06
X307.473Y-165.16
T2
X106.718Y-163.575
X108.234Y-162.7
X110.218Y-169.637
X111.734Y-168.762
T3
X127.023Y-182.575
X132.103Y-191.373
X141.26Y-108.206
X141.26Y-127.227
X141.26Y-146.277
X141.26Y-165.356
X150.71Y-186.974
X151.42Y-108.206
X151.42Y-127.227
X151.42Y-146.277
X151.42Y-165.356
X160.31Y-105.825
X160.31Y-124.89
X160.31Y-143.925
X160.31Y-162.975
X160.87Y-186.974
X169.76Y-184.59
X170.47Y-105.825
X170.47Y-124.89
X170.47Y-143.925
X170.47Y-162.975
X179.36Y-103.44
X179.36Y-122.528
X179.36Y-141.54
X179.36Y-160.59
X179.92Y-184.59
X188.81Y-184.59
X189.52Y-103.44
X189.52Y-122.528
X189.52Y-141.54
X189.52Y-160.59
X198.41Y-105.825
X198.41Y-124.941
X198.41Y-143.925
X198.41Y-162.975
X198.97Y-184.59
X208.57Y-105.825
X208.57Y-124.941
X208.57Y-143.925
X208.57Y-162.975
X217.46Y-110.59
X217.46Y-129.64
X217.46Y-148.69
X217.46Y-167.74
X227.62Y-110.59
X227.62Y-129.64
X227.62Y-148.69
X227.62Y-167.74
X236.51Y-110.59
X236.51Y-129.64
X236.51Y-148.69
X236.51Y-167.74
X246.67Y-110.59
X246.67Y-129.64
X246.67Y-148.69
X246.67Y-167.74
X260.468Y-110.59
X260.468Y-129.64
X260.468Y-167.74
X270.628Y-110.59
X270.628Y-129.64
X270.628Y-167.74
X279.518Y-110.59
X279.518Y-129.64
X279.518Y-148.69
X279.518Y-167.74
X289.678Y-110.59
X289.678Y-129.64
X289.678Y-148.69
X289.678Y-167.74
X298.568Y-110.59
X298.568Y-129.64
X298.568Y-167.74
X308.728Y-110.59
X308.728Y-129.64
X308.728Y-167.74
T4
X126.813Y-182.211
X132.313Y-191.737
X140.84Y-108.206
X140.84Y-127.227
X140.84Y-146.277
X140.84Y-165.356
X150.29Y-186.974
X151.84Y-108.206
X151.84Y-127.227
X151.84Y-146.277
X151.84Y-165.356
X159.89Y-105.825
X159.89Y-124.89
X159.89Y-143.925
X159.89Y-162.975
X161.29Y-186.974
X169.34Y-184.59
X170.89Y-105.825
X170.89Y-124.89
X170.89Y-143.925
X170.89Y-162.975
X178.94Y-103.44
X178.94Y-122.528
X178.94Y-141.54
X178.94Y-160.59
X180.34Y-184.59
X188.39Y-184.59
X189.94Y-103.44
X189.94Y-122.528
X189.94Y-141.54
X189.94Y-160.59
X197.99Y-105.825
X197.99Y-124.941
X197.99Y-143.925
X197.99Y-162.975
X199.39Y-184.59
X208.99Y-105.825
X208.99Y-124.941
X208.99Y-143.925
X208.99Y-162.975
X217.04Y-110.59
X217.04Y-129.64
X217.04Y-148.69
X217.04Y-167.74
X228.04Y-110.59
X228.04Y-129.64
X228.04Y-148.69
X228.04Y-167.74
X236.09Y-110.59
X236.09Y-129.64
X236.09Y-148.69
X236.09Y-167.74
X247.09Y-110.59
X247.09Y-129.64
X247.09Y-148.69
X247.09Y-167.74
X260.048Y-110.59
X260.048Y-129.64
X260.048Y-167.74
X271.048Y-110.59
X271.048Y-129.64
X271.048Y-167.74
X279.098Y-110.59
X279.098Y-129.64
X279.098Y-148.69
X279.098Y-167.74
X290.098Y-110.59
X290.098Y-129.64
X290.098Y-148.69
X290.098Y-167.74
X298.148Y-110.59
X298.148Y-129.64
X298.148Y-167.74
X309.148Y-110.59
X309.148Y-129.64
X309.148Y-167.74
T5
X123.859Y-184.494
X124.453Y-189.924
X128.859Y-193.154
X129.858Y-182.404
X132.692Y-182.234
X133.668Y-189.004
X133.668Y-189.004
X135.232Y-186.634
X141.34Y-111.906
X141.34Y-130.927
X141.34Y-149.977
X141.34Y-169.056
X142.53Y-105.666
X142.53Y-124.687
X142.53Y-143.737
X142.53Y-162.816
X143.8Y-103.126
X143.8Y-122.147
X143.8Y-141.197
X143.8Y-160.276
X146.34Y-114.106
X146.34Y-133.127
X146.34Y-152.177
X146.34Y-171.256
X148.88Y-103.126
X148.88Y-122.147
X148.88Y-141.197
X148.88Y-160.276
X150.15Y-105.666
X150.15Y-105.666
X150.15Y-124.687
X150.15Y-124.687
X150.15Y-143.737
X150.15Y-143.737
X150.15Y-162.816
X150.15Y-162.816
X150.79Y-190.674
X151.34Y-111.906
X151.34Y-130.927
X151.34Y-149.977
X151.34Y-169.056
X151.98Y-184.434
X153.25Y-181.894
X155.79Y-192.874
X158.33Y-181.894
X159.6Y-184.434
X159.6Y-184.434
X160.39Y-109.525
X160.39Y-128.59
X160.39Y-147.625
X160.39Y-166.675
X160.79Y-190.674
X161.58Y-103.285
X161.58Y-122.35
X161.58Y-141.385
X161.58Y-160.435
X162.85Y-100.745
X162.85Y-119.81
X162.85Y-138.845
X162.85Y-157.895
X165.39Y-111.725
X165.39Y-130.79
X165.39Y-149.825
X165.39Y-168.875
X167.93Y-100.745
X167.93Y-119.81
X167.93Y-138.845
X167.93Y-157.895
X169.2Y-103.285
X169.2Y-103.285
X169.2Y-122.35
X169.2Y-122.35
X169.2Y-141.385
X169.2Y-141.385
X169.2Y-160.435
X169.2Y-160.435
X169.84Y-188.29
X170.39Y-109.525
X170.39Y-128.59
X170.39Y-147.625
X170.39Y-166.675
X171.03Y-182.05
X172.3Y-179.51
X174.84Y-190.49
X177.38Y-179.51
X178.65Y-182.05
X178.65Y-182.05
X179.44Y-107.14
X179.44Y-126.228
X179.44Y-145.24
X179.44Y-164.29
X179.84Y-188.29
X180.63Y-100.9
X180.63Y-119.988
X180.63Y-139.0
X180.63Y-158.05
X181.9Y-98.36
X181.9Y-117.448
X181.9Y-136.46
X181.9Y-155.51
X184.44Y-109.34
X184.44Y-128.428
X184.44Y-147.44
X184.44Y-166.49
X186.98Y-98.36
X186.98Y-117.448
X186.98Y-136.46
X186.98Y-155.51
X188.25Y-100.9
X188.25Y-100.9
X188.25Y-119.988
X188.25Y-119.988
X188.25Y-139.0
X188.25Y-139.0
X188.25Y-158.05
X188.25Y-158.05
X188.89Y-188.29
X189.44Y-107.14
X189.44Y-126.228
X189.44Y-145.24
X189.44Y-164.29
X190.08Y-182.05
X191.35Y-179.51
X193.89Y-190.49
X196.43Y-179.51
X197.7Y-182.05
X197.7Y-182.05
X198.49Y-109.525
X198.49Y-128.641
X198.49Y-147.625
X198.49Y-166.675
X198.89Y-188.29
X199.68Y-103.285
X199.68Y-122.401
X199.68Y-141.385
X199.68Y-160.435
X200.95Y-100.745
X200.95Y-119.861
X200.95Y-138.845
X200.95Y-157.895
X203.49Y-111.725
X203.49Y-130.841
X203.49Y-149.825
X203.49Y-168.875
X206.03Y-100.745
X206.03Y-119.861
X206.03Y-138.845
X206.03Y-157.895
X207.3Y-103.285
X207.3Y-103.285
X207.3Y-122.401
X207.3Y-122.401
X207.3Y-141.385
X207.3Y-141.385
X207.3Y-160.435
X207.3Y-160.435
X208.49Y-109.525
X208.49Y-128.641
X208.49Y-147.625
X208.49Y-166.675
X217.54Y-114.29
X217.54Y-133.34
X217.54Y-152.39
X217.54Y-171.44
X218.73Y-108.05
X218.73Y-127.1
X218.73Y-146.15
X218.73Y-165.2
X220.0Y-105.51
X220.0Y-124.56
X220.0Y-143.61
X220.0Y-162.66
X222.54Y-116.49
X222.54Y-135.54
X222.54Y-154.59
X222.54Y-173.64
X225.08Y-105.51
X225.08Y-124.56
X225.08Y-143.61
X225.08Y-162.66
X226.35Y-108.05
X226.35Y-108.05
X226.35Y-127.1
X226.35Y-127.1
X226.35Y-146.15
X226.35Y-146.15
X226.35Y-165.2
X226.35Y-165.2
X227.54Y-114.29
X227.54Y-133.34
X227.54Y-152.39
X227.54Y-171.44
X236.59Y-114.29
X236.59Y-133.34
X236.59Y-152.39
X236.59Y-171.44
X237.78Y-108.05
X237.78Y-127.1
X237.78Y-146.15
X237.78Y-165.2
X239.05Y-105.51
X239.05Y-124.56
X239.05Y-143.61
X239.05Y-162.66
X241.59Y-116.49
X241.59Y-135.54
X241.59Y-154.59
X241.59Y-173.64
X244.13Y-105.51
X244.13Y-124.56
X244.13Y-143.61
X244.13Y-162.66
X245.4Y-108.05
X245.4Y-108.05
X245.4Y-127.1
X245.4Y-127.1
X245.4Y-146.15
X245.4Y-146.15
X245.4Y-165.2
X245.4Y-165.2
X246.59Y-114.29
X246.59Y-133.34
X246.59Y-152.39
X246.59Y-171.44
X260.548Y-114.29
X260.548Y-133.34
X260.548Y-171.44
X261.738Y-108.05
X261.738Y-127.1
X261.738Y-165.2
X263.008Y-105.51
X263.008Y-124.56
X263.008Y-162.66
X265.548Y-116.49
X265.548Y-135.54
X265.548Y-173.64
X268.088Y-105.51
X268.088Y-124.56
X268.088Y-162.66
X269.358Y-108.05
X269.358Y-108.05
X269.358Y-127.1
X269.358Y-127.1
X269.358Y-165.2
X269.358Y-165.2
X270.548Y-114.29
X270.548Y-133.34
X270.548Y-171.44
X279.598Y-114.29
X279.598Y-133.34
X279.598Y-152.39
X279.598Y-171.44
X280.788Y-108.05
X280.788Y-127.1
X280.788Y-146.15
X280.788Y-165.2
X282.058Y-105.51
X282.058Y-124.56
X282.058Y-143.61
X282.058Y-162.66
X284.598Y-116.49
X284.598Y-135.54
X284.598Y-154.59
X284.598Y-173.64
X287.138Y-105.51
X287.138Y-124.56
X287.138Y-143.61
X287.138Y-162.66
X288.408Y-108.05
X288.408Y-108.05
X288.408Y-127.1
X288.408Y-127.1
X288.408Y-146.15
X288.408Y-146.15
X288.408Y-165.2
X288.408Y-165.2
X289.598Y-114.29
X289.598Y-133.34
X289.598Y-152.39
X289.598Y-171.44
X298.648Y-114.29
X298.648Y-133.34
X298.648Y-171.44
X299.838Y-108.05
X299.838Y-127.1
X299.838Y-165.2
X301.108Y-105.51
X301.108Y-124.56
X301.108Y-162.66
X303.648Y-116.49
X303.648Y-135.54
X303.648Y-173.64
X306.188Y-105.51
X306.188Y-124.56
X306.188Y-162.66
X307.458Y-108.05
X307.458Y-108.05
X307.458Y-127.1
X307.458Y-127.1
X307.458Y-165.2
X307.458Y-165.2
X308.648Y-114.29
X308.648Y-133.34
X308.648Y-171.44
T6
X129.662Y-173.176
X141.562Y-193.787
T7
X116.464Y-180.796
X128.364Y-201.407
T8
X129.563Y-186.974
X146.34Y-108.206
X146.34Y-127.227
X146.34Y-146.277
X146.34Y-165.356
X155.79Y-186.974
X165.39Y-105.825
X165.39Y-124.89
X165.39Y-143.925
X165.39Y-162.975
X174.84Y-184.59
X184.44Y-103.44
X184.44Y-122.528
X184.44Y-141.54
X184.44Y-160.59
X193.89Y-184.59
X203.49Y-105.825
X203.49Y-124.941
X203.49Y-143.925
X203.49Y-162.975
X222.54Y-110.59
X222.54Y-129.64
X222.54Y-148.69
X222.54Y-167.74
X241.59Y-110.59
X241.59Y-129.64
X241.59Y-148.69
X241.59Y-167.74
X265.548Y-110.59
X265.548Y-129.64
X265.548Y-167.74
X284.598Y-110.59
X284.598Y-129.64
X284.598Y-148.69
X284.598Y-167.74
X303.648Y-110.59
X303.648Y-129.64
X303.648Y-167.74
M30
