M48
; DRILL file {KiCad 9.0.2} date 2025-05-28T18:10:26-0400
; FORMAT={-:-/ absolute / inch / decimal}
; #@! TF.CreationDate,2025-05-28T18:10:26-04:00
; #@! TF.GenerationSoftware,Kicad,Pcbnew,9.0.2
; #@! TF.FileFunction,MixedPlating,1,2
FMAT,2
INCH
; #@! TA.AperFunction,Plated,PTH,ViaDrill
T1C0.0079
; #@! TA.AperFunction,Plated,PTH,ComponentDrill
T2C0.0118
; #@! TA.AperFunction,Plated,PTH,ViaDrill
T3C0.0157
; #@! TA.AperFunction,Plated,PTH,ComponentDrill
T4C0.0320
; #@! TA.AperFunction,Plated,PTH,ComponentDrill
T5C0.0512
; #@! TA.AperFunction,Plated,PTH,ComponentDrill
T6C0.0866
; #@! TA.AperFunction,Plated,PTH,ComponentDrill
T7C0.1260
; #@! TA.AperFunction,NonPlated,NPTH,ComponentDrill
T8C0.0039
; #@! TA.AperFunction,NonPlated,NPTH,ComponentDrill
T9C0.0472
; #@! TA.AperFunction,NonPlated,NPTH,ComponentDrill
T10C0.0669
; #@! TA.AperFunction,NonPlated,NPTH,ComponentDrill
T11C0.0748
; #@! TA.AperFunction,NonPlated,NPTH,ComponentDrill
T12C0.1181
; #@! TA.AperFunction,NonPlated,NPTH,ComponentDrill
T13C0.1200
; #@! TA.AperFunction,NonPlated,NPTH,ComponentDrill
T14C0.1570
; #@! TA.AperFunction,NonPlated,NPTH,ComponentDrill
T15C0.1575
%
G90
G05
T1
X4.7308Y-5.7387
X4.8972Y-7.0759
X4.9714Y-7.4239
X5.0764Y-5.6195
X5.0964Y-6.9739
X5.1Y-5.5199
X5.135Y-5.0717
X5.135Y-5.3709
X5.135Y-5.4693
X5.135Y-5.5717
X5.135Y-5.6701
X5.135Y-5.7724
X5.135Y-5.8709
X5.1389Y-4.7724
X5.1389Y-4.8741
X5.1389Y-5.174
X5.1389Y-5.2764
X5.349Y-5.9196
X5.3687Y-5.8172
X5.3874Y-5.7646
X5.3899Y-5.4897
X5.4264Y-6.3139
X5.4464Y-7.5639
X5.4714Y-4.2889
X5.4714Y-5.8189
X5.4914Y-5.0389
X5.5252Y-6.5731
X5.7564Y-5.1489
X5.7564Y-6.6489
X5.7614Y-4.4039
X5.7614Y-5.9039
X5.8064Y-7.1739
X6.0314Y-4.9939
X6.0414Y-4.2289
X6.0964Y-5.5589
X6.0964Y-6.3189
X6.1314Y-7.5089
X6.1768Y-6.4693
X6.1864Y-6.2189
X6.1925Y-4.145
X6.2214Y-4.9239
X6.2398Y-5.7156
X6.4564Y-7.1589
X6.5114Y-4.3139
X6.5114Y-6.5589
X6.5164Y-5.0689
X6.5164Y-5.8089
X6.5614Y-7.0789
X6.8064Y-5.6509
X6.8114Y-4.9139
X6.8164Y-4.1639
X6.8464Y-6.2339
X6.9047Y-7.4106
X6.92Y-4.0532
X6.9314Y-6.1389
X6.9425Y-6.3878
X6.9714Y-5.5889
X7.0164Y-4.8839
X7.2164Y-7.0889
X7.2564Y-4.2189
X7.2564Y-6.4589
X7.2664Y-4.9689
X7.2664Y-5.7139
X7.3146Y-7.272
X7.5414Y-4.0489
X7.5449Y-4.8274
X7.5564Y-5.5589
X7.6014Y-6.1389
X7.6364Y-7.4139
X7.6925Y-4.1578
X7.7214Y-5.6639
X7.7264Y-6.4689
X7.7289Y-4.9514
X7.9661Y-7.0396
X8.0114Y-5.0639
X8.0114Y-6.5589
X8.0164Y-5.8139
X8.0214Y-4.2989
X8.2964Y-4.9039
X8.3164Y-4.1589
X8.3164Y-5.6389
X8.3164Y-6.3989
X8.4064Y-6.4139
X8.4764Y-5.1139
X8.4814Y-4.3789
X8.4939Y-5.9014
X8.7564Y-4.4989
X8.7614Y-5.2489
X8.7664Y-5.9989
X8.7664Y-6.7489
X9.0134Y-6.9136
X9.0464Y-5.8339
X9.0514Y-4.3539
X9.0514Y-5.0839
X9.1114Y-6.4139
X9.1714Y-6.3989
X9.1925Y-5.835
X9.2214Y-4.3789
X9.2314Y-5.1189
X9.3598Y-6.9609
X9.5064Y-6.0039
X9.5114Y-4.5039
X9.5164Y-5.2539
X9.5214Y-6.7339
X9.7914Y-5.1089
X9.8008Y-4.7955
X9.8064Y-4.3389
X9.8064Y-5.8439
X9.8444Y-6.4189
X9.8795Y-5.7798
X9.8913Y-5.6065
X9.8935Y-5.638
X9.8953Y-5.4491
X9.9016Y-5.8034
X9.911Y-5.2601
X9.9128Y-5.2229
X10.0183Y-5.2221
X10.0314Y-5.2601
X10.035Y-5.45
X10.0415Y-5.8113
X10.0419Y-5.7798
X10.0488Y-5.6105
X10.0514Y-5.6401
X10.0944Y-4.8152
X10.1157Y-4.6774
X10.1357Y-5.106
X10.1578Y-6.6039
X10.1778Y-4.3839
X10.4578Y-4.5039
X10.4578Y-5.2539
X10.4578Y-6.7439
X10.6276Y-4.6774
X10.6409Y-4.8118
X10.6507Y-4.6583
X10.7578Y-4.3439
X10.7578Y-6.6039
X10.7678Y-5.0739
X10.8559Y-6.1971
X10.8559Y-6.3309
X10.8978Y-6.6239
X10.8978Y-6.6239
X10.9071Y-6.1971
X10.9071Y-6.3309
X10.9178Y-4.3639
X10.9178Y-5.8839
X10.933Y-5.1487
X11.1978Y-6.7439
X11.2178Y-4.5039
X11.2178Y-5.2439
X11.2178Y-6.0039
X11.4415Y-6.2138
X11.4415Y-6.3343
X11.4923Y-6.213
X11.4923Y-6.3339
X11.4978Y-4.3439
X11.4978Y-5.1039
X11.4978Y-5.8439
X11.4978Y-6.6039
X11.6578Y-4.3639
X11.6578Y-4.3639
X11.6578Y-6.6239
X11.6778Y-5.1239
X11.8126Y-4.768
X11.9578Y-4.5039
X11.9578Y-5.2439
X11.9578Y-6.7439
X12.2378Y-6.6039
X12.2578Y-4.3439
X12.2578Y-5.0839
T3
X4.7254Y-4.9646
X4.7308Y-5.1195
X4.7308Y-5.9461
X4.7647Y-5.7054
X5.131Y-4.9654
X5.6276Y-6.9294
X9.8953Y-6.9372
X9.911Y-5.8349
X10.0345Y-5.8418
T4
X4.5946Y-4.765
X4.5946Y-4.865
X4.5946Y-4.965
X4.5946Y-5.065
X4.5946Y-5.165
X4.5946Y-5.265
X4.5946Y-5.365
X4.5946Y-5.465
X4.5946Y-5.565
X4.5946Y-5.665
X4.5946Y-5.765
X4.5946Y-5.865
X4.6655Y-4.82
X4.6655Y-4.92
X4.6655Y-5.02
X4.6655Y-5.12
X4.6655Y-5.22
X4.6655Y-5.32
X4.6655Y-5.42
X4.6655Y-5.52
X4.6655Y-5.62
X4.6655Y-5.72
X4.6655Y-5.82
X4.6655Y-5.92
X5.1946Y-4.765
X5.1946Y-4.865
X5.1946Y-4.965
X5.1946Y-5.065
X5.1946Y-5.165
X5.1946Y-5.265
X5.1946Y-5.365
X5.1946Y-5.465
X5.1946Y-5.565
X5.1946Y-5.665
X5.1946Y-5.765
X5.1946Y-5.865
X5.2655Y-4.82
X5.2655Y-4.92
X5.2655Y-5.02
X5.2655Y-5.12
X5.2655Y-5.22
X5.2655Y-5.32
X5.2655Y-5.42
X5.2655Y-5.52
X5.2655Y-5.62
X5.2655Y-5.72
X5.2655Y-5.82
X5.2655Y-5.92
X11.672Y-5.5358
X11.672Y-6.1358
X11.772Y-5.5358
X11.772Y-6.1358
X11.872Y-5.5358
X11.872Y-6.1358
X11.972Y-5.5358
X11.972Y-6.1358
X12.072Y-5.5358
X12.072Y-6.1358
X12.172Y-5.5358
X12.172Y-6.1358
T5
X4.441Y-6.3092
X4.569Y-6.5308
X10.7014Y-5.7321
X10.7014Y-5.988
T6
X9.9719Y-5.3506
X9.9719Y-5.5317
X9.9719Y-5.7128
X10.9914Y-6.2701
X11.1827Y-6.2719
X11.3598Y-6.2719
T7
X5.6092Y-7.0713
X6.1376Y-5.3319
X6.1376Y-6.0827
X6.1394Y-4.575
X7.6352Y-5.2461
X7.6352Y-5.9985
X7.6354Y-4.5042
X9.1368Y-5.478
X9.1368Y-6.2284
X9.1394Y-4.7246
X10.8283Y-4.7286
X10.8309Y-5.4788
X11.5803Y-4.7365
T8
X5.1136Y-7.18
X5.2642Y-7.4408
X5.6108Y-4.1585
X5.6108Y-4.9074
X5.6108Y-5.6574
X5.6108Y-6.4085
X5.912Y-4.1585
X5.912Y-4.9074
X5.912Y-5.6574
X5.912Y-6.4085
X5.9829Y-7.2596
X6.2841Y-7.2596
X6.3608Y-4.0648
X6.3608Y-4.8154
X6.3608Y-5.5648
X6.3608Y-6.3148
X6.662Y-4.0648
X6.662Y-4.8154
X6.662Y-5.5648
X6.662Y-6.3148
X6.7329Y-7.1657
X7.0341Y-7.1657
X7.1108Y-3.9709
X7.1108Y-4.7224
X7.1108Y-5.4709
X7.1108Y-6.2209
X7.412Y-3.9709
X7.412Y-4.7224
X7.412Y-5.4709
X7.412Y-6.2209
X7.4829Y-7.1657
X7.7841Y-7.1657
X7.8608Y-4.0648
X7.8608Y-4.8174
X7.8608Y-5.5648
X7.8608Y-6.3148
X8.162Y-4.0648
X8.162Y-4.8174
X8.162Y-5.5648
X8.162Y-6.3148
X8.6108Y-4.2524
X8.6108Y-5.0024
X8.6108Y-5.7524
X8.6108Y-6.5024
X8.912Y-4.2524
X8.912Y-5.0024
X8.912Y-5.7524
X8.912Y-6.5024
X9.3608Y-4.2524
X9.3608Y-5.0024
X9.3608Y-5.7524
X9.3608Y-6.5024
X9.662Y-4.2524
X9.662Y-5.0024
X9.662Y-5.7524
X9.662Y-6.5024
X10.3041Y-4.2524
X10.3041Y-5.0024
X10.3041Y-6.5024
X10.6052Y-4.2524
X10.6052Y-5.0024
X10.6052Y-6.5024
X11.0541Y-4.2524
X11.0541Y-5.0024
X11.0541Y-5.7524
X11.0541Y-6.5024
X11.3552Y-4.2524
X11.3552Y-5.0024
X11.3552Y-5.7524
X11.3552Y-6.5024
X11.8041Y-4.2524
X11.8041Y-5.0024
X11.8041Y-6.5024
X12.1052Y-4.2524
X12.1052Y-5.0024
X12.1052Y-6.5024
T9
X4.2015Y-6.44
X4.2612Y-6.4055
X4.3393Y-6.6786
X4.399Y-6.6442
T10
X5.0009Y-7.188
X5.2009Y-7.5344
X5.5614Y-4.2601
X5.5614Y-5.0089
X5.5614Y-5.7589
X5.5614Y-6.5101
X5.9335Y-7.3612
X5.9614Y-4.2601
X5.9614Y-5.0089
X5.9614Y-5.7589
X5.9614Y-6.5101
X6.3114Y-4.1663
X6.3114Y-4.9169
X6.3114Y-5.6663
X6.3114Y-6.4163
X6.3335Y-7.3612
X6.6835Y-7.2673
X6.7114Y-4.1663
X6.7114Y-4.9169
X6.7114Y-5.6663
X6.7114Y-6.4163
X7.0614Y-4.0724
X7.0614Y-4.8239
X7.0614Y-5.5724
X7.0614Y-6.3224
X7.0835Y-7.2673
X7.4335Y-7.2673
X7.4614Y-4.0724
X7.4614Y-4.8239
X7.4614Y-5.5724
X7.4614Y-6.3224
X7.8114Y-4.1663
X7.8114Y-4.9189
X7.8114Y-5.6663
X7.8114Y-6.4163
X7.8335Y-7.2673
X8.2114Y-4.1663
X8.2114Y-4.9189
X8.2114Y-5.6663
X8.2114Y-6.4163
X8.5614Y-4.3539
X8.5614Y-5.1039
X8.5614Y-5.8539
X8.5614Y-6.6039
X8.9614Y-4.3539
X8.9614Y-5.1039
X8.9614Y-5.8539
X8.9614Y-6.6039
X9.3114Y-4.3539
X9.3114Y-5.1039
X9.3114Y-5.8539
X9.3114Y-6.6039
X9.7114Y-4.3539
X9.7114Y-5.1039
X9.7114Y-5.8539
X9.7114Y-6.6039
X10.2546Y-4.3539
X10.2546Y-5.1039
X10.2546Y-6.6039
X10.6546Y-4.3539
X10.6546Y-5.1039
X10.6546Y-6.6039
X11.0046Y-4.3539
X11.0046Y-5.1039
X11.0046Y-5.8539
X11.0046Y-6.6039
X11.4046Y-4.3539
X11.4046Y-5.1039
X11.4046Y-5.8539
X11.4046Y-6.6039
X11.7546Y-4.3539
X11.7546Y-5.1039
X11.7546Y-6.6039
X12.1546Y-4.3539
X12.1546Y-5.1039
X12.1546Y-6.6039
T11
X4.9926Y-7.1737
X5.2092Y-7.5487
X5.5449Y-4.2601
X5.5449Y-5.0089
X5.5449Y-5.7589
X5.5449Y-6.5101
X5.9169Y-7.3612
X5.978Y-4.2601
X5.978Y-5.0089
X5.978Y-5.7589
X5.978Y-6.5101
X6.2949Y-4.1663
X6.2949Y-4.9169
X6.2949Y-5.6663
X6.2949Y-6.4163
X6.35Y-7.3612
X6.6669Y-7.2673
X6.728Y-4.1663
X6.728Y-4.9169
X6.728Y-5.6663
X6.728Y-6.4163
X7.0449Y-4.0724
X7.0449Y-4.8239
X7.0449Y-5.5724
X7.0449Y-6.3224
X7.1Y-7.2673
X7.4169Y-7.2673
X7.478Y-4.0724
X7.478Y-4.8239
X7.478Y-5.5724
X7.478Y-6.3224
X7.7949Y-4.1663
X7.7949Y-4.9189
X7.7949Y-5.6663
X7.7949Y-6.4163
X7.85Y-7.2673
X8.228Y-4.1663
X8.228Y-4.9189
X8.228Y-5.6663
X8.228Y-6.4163
X8.5449Y-4.3539
X8.5449Y-5.1039
X8.5449Y-5.8539
X8.5449Y-6.6039
X8.978Y-4.3539
X8.978Y-5.1039
X8.978Y-5.8539
X8.978Y-6.6039
X9.2949Y-4.3539
X9.2949Y-5.1039
X9.2949Y-5.8539
X9.2949Y-6.6039
X9.728Y-4.3539
X9.728Y-5.1039
X9.728Y-5.8539
X9.728Y-6.6039
X10.2381Y-4.3539
X10.2381Y-5.1039
X10.2381Y-6.6039
X10.6712Y-4.3539
X10.6712Y-5.1039
X10.6712Y-6.6039
X10.9881Y-4.3539
X10.9881Y-5.1039
X10.9881Y-5.8539
X10.9881Y-6.6039
X11.4212Y-4.3539
X11.4212Y-5.1039
X11.4212Y-5.8539
X11.4212Y-6.6039
X11.7381Y-4.3539
X11.7381Y-5.1039
X11.7381Y-6.6039
X12.1712Y-4.3539
X12.1712Y-5.1039
X12.1712Y-6.6039
T12
X4.8763Y-7.2635
X4.8997Y-7.4773
X5.0732Y-7.6045
X5.1125Y-7.1813
X5.2241Y-7.1746
X5.2625Y-7.4411
X5.2625Y-7.4411
X5.3241Y-7.3478
X5.5646Y-4.4057
X5.5646Y-5.1546
X5.5646Y-5.9046
X5.5646Y-6.6557
X5.6114Y-4.1601
X5.6114Y-4.9089
X5.6114Y-5.6589
X5.6114Y-6.4101
X5.6614Y-4.0601
X5.6614Y-4.8089
X5.6614Y-5.5589
X5.6614Y-6.3101
X5.7614Y-4.4924
X5.7614Y-5.2412
X5.7614Y-5.9912
X5.7614Y-6.7424
X5.8614Y-4.0601
X5.8614Y-4.8089
X5.8614Y-5.5589
X5.8614Y-6.3101
X5.9114Y-4.1601
X5.9114Y-4.1601
X5.9114Y-4.9089
X5.9114Y-4.9089
X5.9114Y-5.6589
X5.9114Y-5.6589
X5.9114Y-6.4101
X5.9114Y-6.4101
X5.9366Y-7.5069
X5.9583Y-4.4057
X5.9583Y-5.1546
X5.9583Y-5.9046
X5.9583Y-6.6557
X5.9835Y-7.2612
X6.0335Y-7.1612
X6.1335Y-7.5935
X6.2335Y-7.1612
X6.2835Y-7.2612
X6.2835Y-7.2612
X6.3146Y-4.312
X6.3146Y-5.0626
X6.3146Y-5.812
X6.3146Y-6.562
X6.3303Y-7.5069
X6.3614Y-4.0663
X6.3614Y-4.8169
X6.3614Y-5.5663
X6.3614Y-6.3163
X6.4114Y-3.9663
X6.4114Y-4.7169
X6.4114Y-5.4663
X6.4114Y-6.2163
X6.5114Y-4.3986
X6.5114Y-5.1492
X6.5114Y-5.8986
X6.5114Y-6.6486
X6.6114Y-3.9663
X6.6114Y-4.7169
X6.6114Y-5.4663
X6.6114Y-6.2163
X6.6614Y-4.0663
X6.6614Y-4.0663
X6.6614Y-4.8169
X6.6614Y-4.8169
X6.6614Y-5.5663
X6.6614Y-5.5663
X6.6614Y-6.3163
X6.6614Y-6.3163
X6.6866Y-7.413
X6.7083Y-4.312
X6.7083Y-5.0626
X6.7083Y-5.812
X6.7083Y-6.562
X6.7335Y-7.1673
X6.7835Y-7.0673
X6.8835Y-7.4996
X6.9835Y-7.0673
X7.0335Y-7.1673
X7.0335Y-7.1673
X7.0646Y-4.2181
X7.0646Y-4.9696
X7.0646Y-5.7181
X7.0646Y-6.4681
X7.0803Y-7.413
X7.1114Y-3.9724
X7.1114Y-4.7239
X7.1114Y-5.4724
X7.1114Y-6.2224
X7.1614Y-3.8724
X7.1614Y-4.6239
X7.1614Y-5.3724
X7.1614Y-6.1224
X7.2614Y-4.3047
X7.2614Y-5.0562
X7.2614Y-5.8047
X7.2614Y-6.5547
X7.3614Y-3.8724
X7.3614Y-4.6239
X7.3614Y-5.3724
X7.3614Y-6.1224
X7.4114Y-3.9724
X7.4114Y-3.9724
X7.4114Y-4.7239
X7.4114Y-4.7239
X7.4114Y-5.4724
X7.4114Y-5.4724
X7.4114Y-6.2224
X7.4114Y-6.2224
X7.4366Y-7.413
X7.4583Y-4.2181
X7.4583Y-4.9696
X7.4583Y-5.7181
X7.4583Y-6.4681
X7.4835Y-7.1673
X7.5335Y-7.0673
X7.6335Y-7.4996
X7.7335Y-7.0673
X7.7835Y-7.1673
X7.7835Y-7.1673
X7.8146Y-4.312
X7.8146Y-5.0646
X7.8146Y-5.812
X7.8146Y-6.562
X7.8303Y-7.413
X7.8614Y-4.0663
X7.8614Y-4.8189
X7.8614Y-5.5663
X7.8614Y-6.3163
X7.9114Y-3.9663
X7.9114Y-4.7189
X7.9114Y-5.4663
X7.9114Y-6.2163
X8.0114Y-4.3986
X8.0114Y-5.1512
X8.0114Y-5.8986
X8.0114Y-6.6486
X8.1114Y-3.9663
X8.1114Y-4.7189
X8.1114Y-5.4663
X8.1114Y-6.2163
X8.1614Y-4.0663
X8.1614Y-4.0663
X8.1614Y-4.8189
X8.1614Y-4.8189
X8.1614Y-5.5663
X8.1614Y-5.5663
X8.1614Y-6.3163
X8.1614Y-6.3163
X8.2083Y-4.312
X8.2083Y-5.0646
X8.2083Y-5.812
X8.2083Y-6.562
X8.5646Y-4.4996
X8.5646Y-5.2496
X8.5646Y-5.9996
X8.5646Y-6.7496
X8.6114Y-4.2539
X8.6114Y-5.0039
X8.6114Y-5.7539
X8.6114Y-6.5039
X8.6614Y-4.1539
X8.6614Y-4.9039
X8.6614Y-5.6539
X8.6614Y-6.4039
X8.7614Y-4.5862
X8.7614Y-5.3362
X8.7614Y-6.0862
X8.7614Y-6.8362
X8.8614Y-4.1539
X8.8614Y-4.9039
X8.8614Y-5.6539
X8.8614Y-6.4039
X8.9114Y-4.2539
X8.9114Y-4.2539
X8.9114Y-5.0039
X8.9114Y-5.0039
X8.9114Y-5.7539
X8.9114Y-5.7539
X8.9114Y-6.5039
X8.9114Y-6.5039
X8.9583Y-4.4996
X8.9583Y-5.2496
X8.9583Y-5.9996
X8.9583Y-6.7496
X9.3146Y-4.4996
X9.3146Y-5.2496
X9.3146Y-5.9996
X9.3146Y-6.7496
X9.3614Y-4.2539
X9.3614Y-5.0039
X9.3614Y-5.7539
X9.3614Y-6.5039
X9.4114Y-4.1539
X9.4114Y-4.9039
X9.4114Y-5.6539
X9.4114Y-6.4039
X9.5114Y-4.5862
X9.5114Y-5.3362
X9.5114Y-6.0862
X9.5114Y-6.8362
X9.6114Y-4.1539
X9.6114Y-4.9039
X9.6114Y-5.6539
X9.6114Y-6.4039
X9.6614Y-4.2539
X9.6614Y-4.2539
X9.6614Y-5.0039
X9.6614Y-5.0039
X9.6614Y-5.7539
X9.6614Y-5.7539
X9.6614Y-6.5039
X9.6614Y-6.5039
X9.7083Y-4.4996
X9.7083Y-5.2496
X9.7083Y-5.9996
X9.7083Y-6.7496
X10.2578Y-4.4996
X10.2578Y-5.2496
X10.2578Y-6.7496
X10.3046Y-4.2539
X10.3046Y-5.0039
X10.3046Y-6.5039
X10.3546Y-4.1539
X10.3546Y-4.9039
X10.3546Y-6.4039
X10.4546Y-4.5862
X10.4546Y-5.3362
X10.4546Y-6.8362
X10.5546Y-4.1539
X10.5546Y-4.9039
X10.5546Y-6.4039
X10.6046Y-4.2539
X10.6046Y-4.2539
X10.6046Y-5.0039
X10.6046Y-5.0039
X10.6046Y-6.5039
X10.6046Y-6.5039
X10.6515Y-4.4996
X10.6515Y-5.2496
X10.6515Y-6.7496
X11.0078Y-4.4996
X11.0078Y-5.2496
X11.0078Y-5.9996
X11.0078Y-6.7496
X11.0546Y-4.2539
X11.0546Y-5.0039
X11.0546Y-5.7539
X11.0546Y-6.5039
X11.1046Y-4.1539
X11.1046Y-4.9039
X11.1046Y-5.6539
X11.1046Y-6.4039
X11.2046Y-4.5862
X11.2046Y-5.3362
X11.2046Y-6.0862
X11.2046Y-6.8362
X11.3046Y-4.1539
X11.3046Y-4.9039
X11.3046Y-5.6539
X11.3046Y-6.4039
X11.3546Y-4.2539
X11.3546Y-4.2539
X11.3546Y-5.0039
X11.3546Y-5.0039
X11.3546Y-5.7539
X11.3546Y-5.7539
X11.3546Y-6.5039
X11.3546Y-6.5039
X11.4015Y-4.4996
X11.4015Y-5.2496
X11.4015Y-5.9996
X11.4015Y-6.7496
X11.7578Y-4.4996
X11.7578Y-5.2496
X11.7578Y-6.7496
X11.8046Y-4.2539
X11.8046Y-5.0039
X11.8046Y-6.5039
X11.8546Y-4.1539
X11.8546Y-4.9039
X11.8546Y-6.4039
X11.9546Y-4.5862
X11.9546Y-5.3362
X11.9546Y-6.8362
X12.0546Y-4.1539
X12.0546Y-4.9039
X12.0546Y-6.4039
X12.1046Y-4.2539
X12.1046Y-4.2539
X12.1046Y-5.0039
X12.1046Y-5.0039
X12.1046Y-6.5039
X12.1046Y-6.5039
X12.1515Y-4.4996
X12.1515Y-5.2496
X12.1515Y-6.7496
T13
X5.1048Y-6.8179
X5.5733Y-7.6294
T14
X4.5852Y-7.1179
X5.0537Y-7.9294
T15
X5.1009Y-7.3612
X5.7614Y-4.2601
X5.7614Y-5.0089
X5.7614Y-5.7589
X5.7614Y-6.5101
X6.1335Y-7.3612
X6.5114Y-4.1663
X6.5114Y-4.9169
X6.5114Y-5.6663
X6.5114Y-6.4163
X6.8835Y-7.2673
X7.2614Y-4.0724
X7.2614Y-4.8239
X7.2614Y-5.5724
X7.2614Y-6.3224
X7.6335Y-7.2673
X8.0114Y-4.1663
X8.0114Y-4.9189
X8.0114Y-5.6663
X8.0114Y-6.4163
X8.7614Y-4.3539
X8.7614Y-5.1039
X8.7614Y-5.8539
X8.7614Y-6.6039
X9.5114Y-4.3539
X9.5114Y-5.1039
X9.5114Y-5.8539
X9.5114Y-6.6039
X10.4546Y-4.3539
X10.4546Y-5.1039
X10.4546Y-6.6039
X11.2046Y-4.3539
X11.2046Y-5.1039
X11.2046Y-5.8539
X11.2046Y-6.6039
X11.9546Y-4.3539
X11.9546Y-5.1039
X11.9546Y-6.6039
T2
G00X4.1526Y-6.5205
M15
G01X4.1781Y-6.5648
M16
G05
G00X4.2116Y-6.6228
M15
G01X4.2372Y-6.6671
M16
G05
G00X4.2903Y-6.7592
M15
G01X4.3159Y-6.8035
M16
G05
G00X4.3554Y-6.4034
M15
G01X4.381Y-6.4477
M16
G05
G00X4.3795Y-6.7759
M15
G01X4.4051Y-6.8202
M16
G05
G00X4.4145Y-6.5057
M15
G01X4.4401Y-6.55
M16
G05
G00X4.4631Y-6.7276
M15
G01X4.4887Y-6.772
M16
G05
G00X4.4932Y-6.6421
M15
G01X4.5188Y-6.6864
M16
G05
M30
