%TF.GenerationSoftware,KiCad,Pcbnew,7.0.10*%
%TF.CreationDate,2024-03-24T21:28:30-04:00*%
%TF.ProjectId,Breeze,42726565-7a65-42e6-9b69-6361645f7063,Rev1.2*%
%TF.SameCoordinates,Original*%
%TF.FileFunction,Profile,NP*%
%FSLAX46Y46*%
G04 Gerber Fmt 4.6, Leading zero omitted, Abs format (unit mm)*
G04 Created by KiCad (PCBNEW 7.0.10) date 2024-03-24 21:28:30*
%MOMM*%
%LPD*%
G01*
G04 APERTURE LIST*
%TA.AperFunction,Profile*%
%ADD10C,0.050000*%
%TD*%
G04 APERTURE END LIST*
D10*
X166372000Y-194317000D02*
X202672000Y-194317000D01*
X252270000Y-102126000D02*
G75*
G03*
X251270000Y-101126000I-1000000J0D01*
G01*
X252270000Y-129614000D02*
G75*
G03*
X253270000Y-130614000I1000000J0D01*
G01*
X251270000Y-101126000D02*
X214150000Y-101126000D01*
X219962000Y-183317000D02*
G75*
G03*
X220312305Y-183253636I0J1000000D01*
G01*
X128896001Y-208308000D02*
G75*
G03*
X130262000Y-208673999I865999J500000D01*
G01*
X292795000Y-159321000D02*
X292795000Y-159276000D01*
X254305000Y-157276000D02*
G75*
G03*
X255305000Y-158276000I1000000J0D01*
G01*
X103212000Y-161822001D02*
G75*
G03*
X102846001Y-163188000I500000J-865999D01*
G01*
X134440000Y-117186000D02*
X115970000Y-117186000D01*
X313265000Y-102126000D02*
X313265000Y-157276000D01*
X254305000Y-129614000D02*
X254305000Y-102126000D01*
X212150000Y-96296000D02*
X195100000Y-96296000D01*
X204672000Y-183317000D02*
X219962000Y-183317000D01*
X254305000Y-161321000D02*
X254305000Y-177101000D01*
X251270000Y-178101000D02*
G75*
G03*
X252270000Y-177101000I0J1000000D01*
G01*
X273795000Y-158276000D02*
X255305000Y-158276000D01*
X134440000Y-117186000D02*
G75*
G03*
X135440000Y-116186000I0J1000000D01*
G01*
X313265000Y-161321000D02*
X313265000Y-177101000D01*
X102846000Y-163188000D02*
X128896000Y-208308000D01*
X312265000Y-160321000D02*
X293795000Y-160321000D01*
X292795000Y-159321000D02*
G75*
G03*
X293795000Y-160321000I1000000J0D01*
G01*
X130262000Y-208674000D02*
X150774000Y-196831000D01*
X255305000Y-101126000D02*
X312265000Y-101126000D01*
X203672000Y-193317000D02*
X203672000Y-184317000D01*
X194100000Y-95296000D02*
X194100000Y-94956000D01*
X175050000Y-94956000D02*
X175050000Y-95376000D01*
X274795000Y-159276000D02*
X274795000Y-159321000D01*
X164372000Y-196697000D02*
G75*
G03*
X165372000Y-195697000I0J1000000D01*
G01*
X255305000Y-178101000D02*
X312265000Y-178101000D01*
X273795000Y-160321000D02*
G75*
G03*
X274795000Y-159321000I0J1000000D01*
G01*
X254305000Y-149614000D02*
G75*
G03*
X253305000Y-148614000I-1000000J0D01*
G01*
X273795000Y-160321000D02*
X255305000Y-160321000D01*
X155000000Y-98706000D02*
G75*
G03*
X156000000Y-97706000I0J1000000D01*
G01*
X251270000Y-178101000D02*
X234270000Y-178101000D01*
X274795000Y-159276000D02*
G75*
G03*
X273795000Y-158276000I-1000000J0D01*
G01*
X174050000Y-96376000D02*
G75*
G03*
X175050000Y-95376000I0J1000000D01*
G01*
X253305000Y-148614000D02*
X253270000Y-148614000D01*
X174050000Y-96376000D02*
X157000000Y-96376000D01*
X176050000Y-93956000D02*
G75*
G03*
X175050000Y-94956000I0J-1000000D01*
G01*
X157000000Y-96376000D02*
G75*
G03*
X156000000Y-97376000I0J-1000000D01*
G01*
X255305000Y-101126000D02*
G75*
G03*
X254305000Y-102126000I0J-1000000D01*
G01*
X313265000Y-102126000D02*
G75*
G03*
X312265000Y-101126000I-1000000J0D01*
G01*
X213150000Y-100126000D02*
G75*
G03*
X214150000Y-101126000I1000000J0D01*
G01*
X151274000Y-196697000D02*
X164372000Y-196697000D01*
X253305000Y-130614000D02*
G75*
G03*
X254305000Y-129614000I0J1000000D01*
G01*
X253270000Y-148614000D02*
G75*
G03*
X252270000Y-149614000I0J-1000000D01*
G01*
X193100000Y-93956000D02*
X176050000Y-93956000D01*
X213150000Y-100126000D02*
X213150000Y-97296000D01*
X252270000Y-102126000D02*
X252270000Y-129614000D01*
X293795000Y-158276000D02*
G75*
G03*
X292795000Y-159276000I0J-1000000D01*
G01*
X255305000Y-160321000D02*
G75*
G03*
X254305000Y-161321000I0J-1000000D01*
G01*
X194100000Y-95296000D02*
G75*
G03*
X195100000Y-96296000I1000000J0D01*
G01*
X234270000Y-178101000D02*
G75*
G03*
X233919695Y-178164364I0J-1000000D01*
G01*
X166372000Y-194317000D02*
G75*
G03*
X165372000Y-195317000I0J-1000000D01*
G01*
X313265000Y-161321000D02*
G75*
G03*
X312265000Y-160321000I-1000000J0D01*
G01*
X202672000Y-194317000D02*
G75*
G03*
X203672000Y-193317000I0J1000000D01*
G01*
X135440000Y-99706000D02*
X135440000Y-116186000D01*
X156000000Y-97376000D02*
X156000000Y-97706000D01*
X253270000Y-130614000D02*
X253305000Y-130614000D01*
X312265000Y-178101000D02*
G75*
G03*
X313265000Y-177101000I0J1000000D01*
G01*
X115970000Y-117186000D02*
G75*
G03*
X114970000Y-118186000I0J-1000000D01*
G01*
X254305000Y-149614000D02*
X254305000Y-157276000D01*
X252270000Y-149614000D02*
X252270000Y-177101000D01*
X151274000Y-196697001D02*
G75*
G03*
X150774000Y-196830976I0J-999999D01*
G01*
X204672000Y-183317000D02*
G75*
G03*
X203672000Y-184317000I0J-1000000D01*
G01*
X194100000Y-94956000D02*
G75*
G03*
X193100000Y-93956000I-1000000J0D01*
G01*
X165372000Y-195317000D02*
X165372000Y-195697000D01*
X114470000Y-155322000D02*
X103212000Y-161822000D01*
X312265000Y-158276000D02*
G75*
G03*
X313265000Y-157276000I0J1000000D01*
G01*
X293795000Y-158276000D02*
X312265000Y-158276000D01*
X114970000Y-154456000D02*
X114970000Y-118186000D01*
X254305000Y-177101000D02*
G75*
G03*
X255305000Y-178101000I1000000J0D01*
G01*
X233920000Y-178164000D02*
X220313000Y-183254000D01*
X114470000Y-155322000D02*
G75*
G03*
X114969978Y-154455987I-500000J866000D01*
G01*
X136440000Y-98706000D02*
G75*
G03*
X135440000Y-99706000I0J-1000000D01*
G01*
X136440000Y-98706000D02*
X155000000Y-98706000D01*
X213150000Y-97296000D02*
G75*
G03*
X212150000Y-96296000I-1000000J0D01*
G01*
M02*
