%TF.GenerationSoftware,KiCad,Pcbnew,7.0.10*%
%TF.CreationDate,2024-03-24T21:28:29-04:00*%
%TF.ProjectId,Breeze,42726565-7a65-42e6-9b69-6361645f7063,Rev1.2*%
%TF.SameCoordinates,Original*%
%TF.FileFunction,Legend,Bot*%
%TF.FilePolarity,Positive*%
%FSLAX46Y46*%
G04 Gerber Fmt 4.6, Leading zero omitted, Abs format (unit mm)*
G04 Created by KiCad (PCBNEW 7.0.10) date 2024-03-24 21:28:29*
%MOMM*%
%LPD*%
G01*
G04 APERTURE LIST*
%ADD10C,0.150000*%
%ADD11C,0.100000*%
%ADD12C,1.524000*%
G04 APERTURE END LIST*
D10*
X122923104Y-121160160D02*
X122923104Y-121636350D01*
X123208819Y-121064922D02*
X122208819Y-121398255D01*
X122208819Y-121398255D02*
X123208819Y-121731588D01*
X122542152Y-121922065D02*
X122542152Y-122303017D01*
X123208819Y-122064922D02*
X122351676Y-122064922D01*
X122351676Y-122064922D02*
X122256438Y-122112541D01*
X122256438Y-122112541D02*
X122208819Y-122207779D01*
X122208819Y-122207779D02*
X122208819Y-122303017D01*
X122542152Y-122493494D02*
X122542152Y-122874446D01*
X122208819Y-122636351D02*
X123065961Y-122636351D01*
X123065961Y-122636351D02*
X123161200Y-122683970D01*
X123161200Y-122683970D02*
X123208819Y-122779208D01*
X123208819Y-122779208D02*
X123208819Y-122874446D01*
X123161200Y-123588732D02*
X123208819Y-123493494D01*
X123208819Y-123493494D02*
X123208819Y-123303018D01*
X123208819Y-123303018D02*
X123161200Y-123207780D01*
X123161200Y-123207780D02*
X123065961Y-123160161D01*
X123065961Y-123160161D02*
X122685009Y-123160161D01*
X122685009Y-123160161D02*
X122589771Y-123207780D01*
X122589771Y-123207780D02*
X122542152Y-123303018D01*
X122542152Y-123303018D02*
X122542152Y-123493494D01*
X122542152Y-123493494D02*
X122589771Y-123588732D01*
X122589771Y-123588732D02*
X122685009Y-123636351D01*
X122685009Y-123636351D02*
X122780247Y-123636351D01*
X122780247Y-123636351D02*
X122875485Y-123160161D01*
X123208819Y-124064923D02*
X122542152Y-124064923D01*
X122732628Y-124064923D02*
X122637390Y-124112542D01*
X122637390Y-124112542D02*
X122589771Y-124160161D01*
X122589771Y-124160161D02*
X122542152Y-124255399D01*
X122542152Y-124255399D02*
X122542152Y-124350637D01*
X122542152Y-124683971D02*
X123208819Y-124683971D01*
X122637390Y-124683971D02*
X122589771Y-124731590D01*
X122589771Y-124731590D02*
X122542152Y-124826828D01*
X122542152Y-124826828D02*
X122542152Y-124969685D01*
X122542152Y-124969685D02*
X122589771Y-125064923D01*
X122589771Y-125064923D02*
X122685009Y-125112542D01*
X122685009Y-125112542D02*
X123208819Y-125112542D01*
X123208819Y-125731590D02*
X123161200Y-125636352D01*
X123161200Y-125636352D02*
X123113580Y-125588733D01*
X123113580Y-125588733D02*
X123018342Y-125541114D01*
X123018342Y-125541114D02*
X122732628Y-125541114D01*
X122732628Y-125541114D02*
X122637390Y-125588733D01*
X122637390Y-125588733D02*
X122589771Y-125636352D01*
X122589771Y-125636352D02*
X122542152Y-125731590D01*
X122542152Y-125731590D02*
X122542152Y-125874447D01*
X122542152Y-125874447D02*
X122589771Y-125969685D01*
X122589771Y-125969685D02*
X122637390Y-126017304D01*
X122637390Y-126017304D02*
X122732628Y-126064923D01*
X122732628Y-126064923D02*
X123018342Y-126064923D01*
X123018342Y-126064923D02*
X123113580Y-126017304D01*
X123113580Y-126017304D02*
X123161200Y-125969685D01*
X123161200Y-125969685D02*
X123208819Y-125874447D01*
X123208819Y-125874447D02*
X123208819Y-125731590D01*
X123208819Y-126636352D02*
X123161200Y-126541114D01*
X123161200Y-126541114D02*
X123113580Y-126493495D01*
X123113580Y-126493495D02*
X123018342Y-126445876D01*
X123018342Y-126445876D02*
X122732628Y-126445876D01*
X122732628Y-126445876D02*
X122637390Y-126493495D01*
X122637390Y-126493495D02*
X122589771Y-126541114D01*
X122589771Y-126541114D02*
X122542152Y-126636352D01*
X122542152Y-126636352D02*
X122542152Y-126779209D01*
X122542152Y-126779209D02*
X122589771Y-126874447D01*
X122589771Y-126874447D02*
X122637390Y-126922066D01*
X122637390Y-126922066D02*
X122732628Y-126969685D01*
X122732628Y-126969685D02*
X123018342Y-126969685D01*
X123018342Y-126969685D02*
X123113580Y-126922066D01*
X123113580Y-126922066D02*
X123161200Y-126874447D01*
X123161200Y-126874447D02*
X123208819Y-126779209D01*
X123208819Y-126779209D02*
X123208819Y-126636352D01*
X122542152Y-127398257D02*
X123208819Y-127398257D01*
X122637390Y-127398257D02*
X122589771Y-127445876D01*
X122589771Y-127445876D02*
X122542152Y-127541114D01*
X122542152Y-127541114D02*
X122542152Y-127683971D01*
X122542152Y-127683971D02*
X122589771Y-127779209D01*
X122589771Y-127779209D02*
X122685009Y-127826828D01*
X122685009Y-127826828D02*
X123208819Y-127826828D01*
X123208819Y-128779209D02*
X123208819Y-128303019D01*
X123208819Y-128303019D02*
X122208819Y-128303019D01*
X123208819Y-129541114D02*
X122685009Y-129541114D01*
X122685009Y-129541114D02*
X122589771Y-129493495D01*
X122589771Y-129493495D02*
X122542152Y-129398257D01*
X122542152Y-129398257D02*
X122542152Y-129207781D01*
X122542152Y-129207781D02*
X122589771Y-129112543D01*
X123161200Y-129541114D02*
X123208819Y-129445876D01*
X123208819Y-129445876D02*
X123208819Y-129207781D01*
X123208819Y-129207781D02*
X123161200Y-129112543D01*
X123161200Y-129112543D02*
X123065961Y-129064924D01*
X123065961Y-129064924D02*
X122970723Y-129064924D01*
X122970723Y-129064924D02*
X122875485Y-129112543D01*
X122875485Y-129112543D02*
X122827866Y-129207781D01*
X122827866Y-129207781D02*
X122827866Y-129445876D01*
X122827866Y-129445876D02*
X122780247Y-129541114D01*
X123208819Y-130017305D02*
X122208819Y-130017305D01*
X122589771Y-130017305D02*
X122542152Y-130112543D01*
X122542152Y-130112543D02*
X122542152Y-130303019D01*
X122542152Y-130303019D02*
X122589771Y-130398257D01*
X122589771Y-130398257D02*
X122637390Y-130445876D01*
X122637390Y-130445876D02*
X122732628Y-130493495D01*
X122732628Y-130493495D02*
X123018342Y-130493495D01*
X123018342Y-130493495D02*
X123113580Y-130445876D01*
X123113580Y-130445876D02*
X123161200Y-130398257D01*
X123161200Y-130398257D02*
X123208819Y-130303019D01*
X123208819Y-130303019D02*
X123208819Y-130112543D01*
X123208819Y-130112543D02*
X123161200Y-130017305D01*
X123161200Y-130874448D02*
X123208819Y-130969686D01*
X123208819Y-130969686D02*
X123208819Y-131160162D01*
X123208819Y-131160162D02*
X123161200Y-131255400D01*
X123161200Y-131255400D02*
X123065961Y-131303019D01*
X123065961Y-131303019D02*
X123018342Y-131303019D01*
X123018342Y-131303019D02*
X122923104Y-131255400D01*
X122923104Y-131255400D02*
X122875485Y-131160162D01*
X122875485Y-131160162D02*
X122875485Y-131017305D01*
X122875485Y-131017305D02*
X122827866Y-130922067D01*
X122827866Y-130922067D02*
X122732628Y-130874448D01*
X122732628Y-130874448D02*
X122685009Y-130874448D01*
X122685009Y-130874448D02*
X122589771Y-130922067D01*
X122589771Y-130922067D02*
X122542152Y-131017305D01*
X122542152Y-131017305D02*
X122542152Y-131160162D01*
X122542152Y-131160162D02*
X122589771Y-131255400D01*
X123113580Y-131731591D02*
X123161200Y-131779210D01*
X123161200Y-131779210D02*
X123208819Y-131731591D01*
X123208819Y-131731591D02*
X123161200Y-131683972D01*
X123161200Y-131683972D02*
X123113580Y-131731591D01*
X123113580Y-131731591D02*
X123208819Y-131731591D01*
X123161200Y-132636352D02*
X123208819Y-132541114D01*
X123208819Y-132541114D02*
X123208819Y-132350638D01*
X123208819Y-132350638D02*
X123161200Y-132255400D01*
X123161200Y-132255400D02*
X123113580Y-132207781D01*
X123113580Y-132207781D02*
X123018342Y-132160162D01*
X123018342Y-132160162D02*
X122732628Y-132160162D01*
X122732628Y-132160162D02*
X122637390Y-132207781D01*
X122637390Y-132207781D02*
X122589771Y-132255400D01*
X122589771Y-132255400D02*
X122542152Y-132350638D01*
X122542152Y-132350638D02*
X122542152Y-132541114D01*
X122542152Y-132541114D02*
X122589771Y-132636352D01*
X123208819Y-133207781D02*
X123161200Y-133112543D01*
X123161200Y-133112543D02*
X123113580Y-133064924D01*
X123113580Y-133064924D02*
X123018342Y-133017305D01*
X123018342Y-133017305D02*
X122732628Y-133017305D01*
X122732628Y-133017305D02*
X122637390Y-133064924D01*
X122637390Y-133064924D02*
X122589771Y-133112543D01*
X122589771Y-133112543D02*
X122542152Y-133207781D01*
X122542152Y-133207781D02*
X122542152Y-133350638D01*
X122542152Y-133350638D02*
X122589771Y-133445876D01*
X122589771Y-133445876D02*
X122637390Y-133493495D01*
X122637390Y-133493495D02*
X122732628Y-133541114D01*
X122732628Y-133541114D02*
X123018342Y-133541114D01*
X123018342Y-133541114D02*
X123113580Y-133493495D01*
X123113580Y-133493495D02*
X123161200Y-133445876D01*
X123161200Y-133445876D02*
X123208819Y-133350638D01*
X123208819Y-133350638D02*
X123208819Y-133207781D01*
X123208819Y-133969686D02*
X122542152Y-133969686D01*
X122637390Y-133969686D02*
X122589771Y-134017305D01*
X122589771Y-134017305D02*
X122542152Y-134112543D01*
X122542152Y-134112543D02*
X122542152Y-134255400D01*
X122542152Y-134255400D02*
X122589771Y-134350638D01*
X122589771Y-134350638D02*
X122685009Y-134398257D01*
X122685009Y-134398257D02*
X123208819Y-134398257D01*
X122685009Y-134398257D02*
X122589771Y-134445876D01*
X122589771Y-134445876D02*
X122542152Y-134541114D01*
X122542152Y-134541114D02*
X122542152Y-134683971D01*
X122542152Y-134683971D02*
X122589771Y-134779210D01*
X122589771Y-134779210D02*
X122685009Y-134826829D01*
X122685009Y-134826829D02*
X123208819Y-134826829D01*
X124295009Y-121541112D02*
X124342628Y-121683969D01*
X124342628Y-121683969D02*
X124390247Y-121731588D01*
X124390247Y-121731588D02*
X124485485Y-121779207D01*
X124485485Y-121779207D02*
X124628342Y-121779207D01*
X124628342Y-121779207D02*
X124723580Y-121731588D01*
X124723580Y-121731588D02*
X124771200Y-121683969D01*
X124771200Y-121683969D02*
X124818819Y-121588731D01*
X124818819Y-121588731D02*
X124818819Y-121207779D01*
X124818819Y-121207779D02*
X123818819Y-121207779D01*
X123818819Y-121207779D02*
X123818819Y-121541112D01*
X123818819Y-121541112D02*
X123866438Y-121636350D01*
X123866438Y-121636350D02*
X123914057Y-121683969D01*
X123914057Y-121683969D02*
X124009295Y-121731588D01*
X124009295Y-121731588D02*
X124104533Y-121731588D01*
X124104533Y-121731588D02*
X124199771Y-121683969D01*
X124199771Y-121683969D02*
X124247390Y-121636350D01*
X124247390Y-121636350D02*
X124295009Y-121541112D01*
X124295009Y-121541112D02*
X124295009Y-121207779D01*
X124818819Y-122207779D02*
X124152152Y-122207779D01*
X124342628Y-122207779D02*
X124247390Y-122255398D01*
X124247390Y-122255398D02*
X124199771Y-122303017D01*
X124199771Y-122303017D02*
X124152152Y-122398255D01*
X124152152Y-122398255D02*
X124152152Y-122493493D01*
X124771200Y-123207779D02*
X124818819Y-123112541D01*
X124818819Y-123112541D02*
X124818819Y-122922065D01*
X124818819Y-122922065D02*
X124771200Y-122826827D01*
X124771200Y-122826827D02*
X124675961Y-122779208D01*
X124675961Y-122779208D02*
X124295009Y-122779208D01*
X124295009Y-122779208D02*
X124199771Y-122826827D01*
X124199771Y-122826827D02*
X124152152Y-122922065D01*
X124152152Y-122922065D02*
X124152152Y-123112541D01*
X124152152Y-123112541D02*
X124199771Y-123207779D01*
X124199771Y-123207779D02*
X124295009Y-123255398D01*
X124295009Y-123255398D02*
X124390247Y-123255398D01*
X124390247Y-123255398D02*
X124485485Y-122779208D01*
X124771200Y-124064922D02*
X124818819Y-123969684D01*
X124818819Y-123969684D02*
X124818819Y-123779208D01*
X124818819Y-123779208D02*
X124771200Y-123683970D01*
X124771200Y-123683970D02*
X124675961Y-123636351D01*
X124675961Y-123636351D02*
X124295009Y-123636351D01*
X124295009Y-123636351D02*
X124199771Y-123683970D01*
X124199771Y-123683970D02*
X124152152Y-123779208D01*
X124152152Y-123779208D02*
X124152152Y-123969684D01*
X124152152Y-123969684D02*
X124199771Y-124064922D01*
X124199771Y-124064922D02*
X124295009Y-124112541D01*
X124295009Y-124112541D02*
X124390247Y-124112541D01*
X124390247Y-124112541D02*
X124485485Y-123636351D01*
X124152152Y-124445875D02*
X124152152Y-124969684D01*
X124152152Y-124969684D02*
X124818819Y-124445875D01*
X124818819Y-124445875D02*
X124818819Y-124969684D01*
X124771200Y-125731589D02*
X124818819Y-125636351D01*
X124818819Y-125636351D02*
X124818819Y-125445875D01*
X124818819Y-125445875D02*
X124771200Y-125350637D01*
X124771200Y-125350637D02*
X124675961Y-125303018D01*
X124675961Y-125303018D02*
X124295009Y-125303018D01*
X124295009Y-125303018D02*
X124199771Y-125350637D01*
X124199771Y-125350637D02*
X124152152Y-125445875D01*
X124152152Y-125445875D02*
X124152152Y-125636351D01*
X124152152Y-125636351D02*
X124199771Y-125731589D01*
X124199771Y-125731589D02*
X124295009Y-125779208D01*
X124295009Y-125779208D02*
X124390247Y-125779208D01*
X124390247Y-125779208D02*
X124485485Y-125303018D01*
X124295009Y-127303018D02*
X124342628Y-127445875D01*
X124342628Y-127445875D02*
X124390247Y-127493494D01*
X124390247Y-127493494D02*
X124485485Y-127541113D01*
X124485485Y-127541113D02*
X124628342Y-127541113D01*
X124628342Y-127541113D02*
X124723580Y-127493494D01*
X124723580Y-127493494D02*
X124771200Y-127445875D01*
X124771200Y-127445875D02*
X124818819Y-127350637D01*
X124818819Y-127350637D02*
X124818819Y-126969685D01*
X124818819Y-126969685D02*
X123818819Y-126969685D01*
X123818819Y-126969685D02*
X123818819Y-127303018D01*
X123818819Y-127303018D02*
X123866438Y-127398256D01*
X123866438Y-127398256D02*
X123914057Y-127445875D01*
X123914057Y-127445875D02*
X124009295Y-127493494D01*
X124009295Y-127493494D02*
X124104533Y-127493494D01*
X124104533Y-127493494D02*
X124199771Y-127445875D01*
X124199771Y-127445875D02*
X124247390Y-127398256D01*
X124247390Y-127398256D02*
X124295009Y-127303018D01*
X124295009Y-127303018D02*
X124295009Y-126969685D01*
X124818819Y-128112542D02*
X124771200Y-128017304D01*
X124771200Y-128017304D02*
X124723580Y-127969685D01*
X124723580Y-127969685D02*
X124628342Y-127922066D01*
X124628342Y-127922066D02*
X124342628Y-127922066D01*
X124342628Y-127922066D02*
X124247390Y-127969685D01*
X124247390Y-127969685D02*
X124199771Y-128017304D01*
X124199771Y-128017304D02*
X124152152Y-128112542D01*
X124152152Y-128112542D02*
X124152152Y-128255399D01*
X124152152Y-128255399D02*
X124199771Y-128350637D01*
X124199771Y-128350637D02*
X124247390Y-128398256D01*
X124247390Y-128398256D02*
X124342628Y-128445875D01*
X124342628Y-128445875D02*
X124628342Y-128445875D01*
X124628342Y-128445875D02*
X124723580Y-128398256D01*
X124723580Y-128398256D02*
X124771200Y-128350637D01*
X124771200Y-128350637D02*
X124818819Y-128255399D01*
X124818819Y-128255399D02*
X124818819Y-128112542D01*
X124818819Y-129303018D02*
X124295009Y-129303018D01*
X124295009Y-129303018D02*
X124199771Y-129255399D01*
X124199771Y-129255399D02*
X124152152Y-129160161D01*
X124152152Y-129160161D02*
X124152152Y-128969685D01*
X124152152Y-128969685D02*
X124199771Y-128874447D01*
X124771200Y-129303018D02*
X124818819Y-129207780D01*
X124818819Y-129207780D02*
X124818819Y-128969685D01*
X124818819Y-128969685D02*
X124771200Y-128874447D01*
X124771200Y-128874447D02*
X124675961Y-128826828D01*
X124675961Y-128826828D02*
X124580723Y-128826828D01*
X124580723Y-128826828D02*
X124485485Y-128874447D01*
X124485485Y-128874447D02*
X124437866Y-128969685D01*
X124437866Y-128969685D02*
X124437866Y-129207780D01*
X124437866Y-129207780D02*
X124390247Y-129303018D01*
X124818819Y-129779209D02*
X124152152Y-129779209D01*
X124342628Y-129779209D02*
X124247390Y-129826828D01*
X124247390Y-129826828D02*
X124199771Y-129874447D01*
X124199771Y-129874447D02*
X124152152Y-129969685D01*
X124152152Y-129969685D02*
X124152152Y-130064923D01*
X124818819Y-130826828D02*
X123818819Y-130826828D01*
X124771200Y-130826828D02*
X124818819Y-130731590D01*
X124818819Y-130731590D02*
X124818819Y-130541114D01*
X124818819Y-130541114D02*
X124771200Y-130445876D01*
X124771200Y-130445876D02*
X124723580Y-130398257D01*
X124723580Y-130398257D02*
X124628342Y-130350638D01*
X124628342Y-130350638D02*
X124342628Y-130350638D01*
X124342628Y-130350638D02*
X124247390Y-130398257D01*
X124247390Y-130398257D02*
X124199771Y-130445876D01*
X124199771Y-130445876D02*
X124152152Y-130541114D01*
X124152152Y-130541114D02*
X124152152Y-130731590D01*
X124152152Y-130731590D02*
X124199771Y-130826828D01*
X124818819Y-132636352D02*
X124342628Y-132303019D01*
X124818819Y-132064924D02*
X123818819Y-132064924D01*
X123818819Y-132064924D02*
X123818819Y-132445876D01*
X123818819Y-132445876D02*
X123866438Y-132541114D01*
X123866438Y-132541114D02*
X123914057Y-132588733D01*
X123914057Y-132588733D02*
X124009295Y-132636352D01*
X124009295Y-132636352D02*
X124152152Y-132636352D01*
X124152152Y-132636352D02*
X124247390Y-132588733D01*
X124247390Y-132588733D02*
X124295009Y-132541114D01*
X124295009Y-132541114D02*
X124342628Y-132445876D01*
X124342628Y-132445876D02*
X124342628Y-132064924D01*
X124771200Y-133445876D02*
X124818819Y-133350638D01*
X124818819Y-133350638D02*
X124818819Y-133160162D01*
X124818819Y-133160162D02*
X124771200Y-133064924D01*
X124771200Y-133064924D02*
X124675961Y-133017305D01*
X124675961Y-133017305D02*
X124295009Y-133017305D01*
X124295009Y-133017305D02*
X124199771Y-133064924D01*
X124199771Y-133064924D02*
X124152152Y-133160162D01*
X124152152Y-133160162D02*
X124152152Y-133350638D01*
X124152152Y-133350638D02*
X124199771Y-133445876D01*
X124199771Y-133445876D02*
X124295009Y-133493495D01*
X124295009Y-133493495D02*
X124390247Y-133493495D01*
X124390247Y-133493495D02*
X124485485Y-133017305D01*
X124152152Y-133826829D02*
X124818819Y-134064924D01*
X124818819Y-134064924D02*
X124152152Y-134303019D01*
X124818819Y-135207781D02*
X124818819Y-134636353D01*
X124818819Y-134922067D02*
X123818819Y-134922067D01*
X123818819Y-134922067D02*
X123961676Y-134826829D01*
X123961676Y-134826829D02*
X124056914Y-134731591D01*
X124056914Y-134731591D02*
X124104533Y-134636353D01*
X124723580Y-135636353D02*
X124771200Y-135683972D01*
X124771200Y-135683972D02*
X124818819Y-135636353D01*
X124818819Y-135636353D02*
X124771200Y-135588734D01*
X124771200Y-135588734D02*
X124723580Y-135636353D01*
X124723580Y-135636353D02*
X124818819Y-135636353D01*
X123914057Y-136064924D02*
X123866438Y-136112543D01*
X123866438Y-136112543D02*
X123818819Y-136207781D01*
X123818819Y-136207781D02*
X123818819Y-136445876D01*
X123818819Y-136445876D02*
X123866438Y-136541114D01*
X123866438Y-136541114D02*
X123914057Y-136588733D01*
X123914057Y-136588733D02*
X124009295Y-136636352D01*
X124009295Y-136636352D02*
X124104533Y-136636352D01*
X124104533Y-136636352D02*
X124247390Y-136588733D01*
X124247390Y-136588733D02*
X124818819Y-136017305D01*
X124818819Y-136017305D02*
X124818819Y-136636352D01*
X126428819Y-121683969D02*
X126428819Y-121207779D01*
X126428819Y-121207779D02*
X125428819Y-121207779D01*
X126381200Y-122398255D02*
X126428819Y-122303017D01*
X126428819Y-122303017D02*
X126428819Y-122112541D01*
X126428819Y-122112541D02*
X126381200Y-122017303D01*
X126381200Y-122017303D02*
X126285961Y-121969684D01*
X126285961Y-121969684D02*
X125905009Y-121969684D01*
X125905009Y-121969684D02*
X125809771Y-122017303D01*
X125809771Y-122017303D02*
X125762152Y-122112541D01*
X125762152Y-122112541D02*
X125762152Y-122303017D01*
X125762152Y-122303017D02*
X125809771Y-122398255D01*
X125809771Y-122398255D02*
X125905009Y-122445874D01*
X125905009Y-122445874D02*
X126000247Y-122445874D01*
X126000247Y-122445874D02*
X126095485Y-121969684D01*
X125762152Y-122731589D02*
X125762152Y-123112541D01*
X126428819Y-122874446D02*
X125571676Y-122874446D01*
X125571676Y-122874446D02*
X125476438Y-122922065D01*
X125476438Y-122922065D02*
X125428819Y-123017303D01*
X125428819Y-123017303D02*
X125428819Y-123112541D01*
X125762152Y-123303018D02*
X125762152Y-123683970D01*
X125428819Y-123445875D02*
X126285961Y-123445875D01*
X126285961Y-123445875D02*
X126381200Y-123493494D01*
X126381200Y-123493494D02*
X126428819Y-123588732D01*
X126428819Y-123588732D02*
X126428819Y-123683970D01*
X126428819Y-124779209D02*
X125428819Y-124779209D01*
X125905009Y-124779209D02*
X125905009Y-125350637D01*
X126428819Y-125350637D02*
X125428819Y-125350637D01*
X126428819Y-126255399D02*
X125905009Y-126255399D01*
X125905009Y-126255399D02*
X125809771Y-126207780D01*
X125809771Y-126207780D02*
X125762152Y-126112542D01*
X125762152Y-126112542D02*
X125762152Y-125922066D01*
X125762152Y-125922066D02*
X125809771Y-125826828D01*
X126381200Y-126255399D02*
X126428819Y-126160161D01*
X126428819Y-126160161D02*
X126428819Y-125922066D01*
X126428819Y-125922066D02*
X126381200Y-125826828D01*
X126381200Y-125826828D02*
X126285961Y-125779209D01*
X126285961Y-125779209D02*
X126190723Y-125779209D01*
X126190723Y-125779209D02*
X126095485Y-125826828D01*
X126095485Y-125826828D02*
X126047866Y-125922066D01*
X126047866Y-125922066D02*
X126047866Y-126160161D01*
X126047866Y-126160161D02*
X126000247Y-126255399D01*
X125762152Y-126731590D02*
X126428819Y-126731590D01*
X125857390Y-126731590D02*
X125809771Y-126779209D01*
X125809771Y-126779209D02*
X125762152Y-126874447D01*
X125762152Y-126874447D02*
X125762152Y-127017304D01*
X125762152Y-127017304D02*
X125809771Y-127112542D01*
X125809771Y-127112542D02*
X125905009Y-127160161D01*
X125905009Y-127160161D02*
X126428819Y-127160161D01*
X126428819Y-128064923D02*
X125428819Y-128064923D01*
X126381200Y-128064923D02*
X126428819Y-127969685D01*
X126428819Y-127969685D02*
X126428819Y-127779209D01*
X126428819Y-127779209D02*
X126381200Y-127683971D01*
X126381200Y-127683971D02*
X126333580Y-127636352D01*
X126333580Y-127636352D02*
X126238342Y-127588733D01*
X126238342Y-127588733D02*
X125952628Y-127588733D01*
X125952628Y-127588733D02*
X125857390Y-127636352D01*
X125857390Y-127636352D02*
X125809771Y-127683971D01*
X125809771Y-127683971D02*
X125762152Y-127779209D01*
X125762152Y-127779209D02*
X125762152Y-127969685D01*
X125762152Y-127969685D02*
X125809771Y-128064923D01*
X125428819Y-129160162D02*
X125428819Y-129731590D01*
X126428819Y-129445876D02*
X125428819Y-129445876D01*
X126428819Y-130207781D02*
X126381200Y-130112543D01*
X126381200Y-130112543D02*
X126333580Y-130064924D01*
X126333580Y-130064924D02*
X126238342Y-130017305D01*
X126238342Y-130017305D02*
X125952628Y-130017305D01*
X125952628Y-130017305D02*
X125857390Y-130064924D01*
X125857390Y-130064924D02*
X125809771Y-130112543D01*
X125809771Y-130112543D02*
X125762152Y-130207781D01*
X125762152Y-130207781D02*
X125762152Y-130350638D01*
X125762152Y-130350638D02*
X125809771Y-130445876D01*
X125809771Y-130445876D02*
X125857390Y-130493495D01*
X125857390Y-130493495D02*
X125952628Y-130541114D01*
X125952628Y-130541114D02*
X126238342Y-130541114D01*
X126238342Y-130541114D02*
X126333580Y-130493495D01*
X126333580Y-130493495D02*
X126381200Y-130445876D01*
X126381200Y-130445876D02*
X126428819Y-130350638D01*
X126428819Y-130350638D02*
X126428819Y-130207781D01*
X125762152Y-130969686D02*
X126762152Y-130969686D01*
X125809771Y-130969686D02*
X125762152Y-131064924D01*
X125762152Y-131064924D02*
X125762152Y-131255400D01*
X125762152Y-131255400D02*
X125809771Y-131350638D01*
X125809771Y-131350638D02*
X125857390Y-131398257D01*
X125857390Y-131398257D02*
X125952628Y-131445876D01*
X125952628Y-131445876D02*
X126238342Y-131445876D01*
X126238342Y-131445876D02*
X126333580Y-131398257D01*
X126333580Y-131398257D02*
X126381200Y-131350638D01*
X126381200Y-131350638D02*
X126428819Y-131255400D01*
X126428819Y-131255400D02*
X126428819Y-131064924D01*
X126428819Y-131064924D02*
X126381200Y-130969686D01*
D11*
X123884895Y-140112353D02*
X123084895Y-140112353D01*
X123084895Y-140112353D02*
X123084895Y-140417115D01*
X123084895Y-140417115D02*
X123122990Y-140493305D01*
X123122990Y-140493305D02*
X123161085Y-140531400D01*
X123161085Y-140531400D02*
X123237276Y-140569496D01*
X123237276Y-140569496D02*
X123351561Y-140569496D01*
X123351561Y-140569496D02*
X123427752Y-140531400D01*
X123427752Y-140531400D02*
X123465847Y-140493305D01*
X123465847Y-140493305D02*
X123503942Y-140417115D01*
X123503942Y-140417115D02*
X123503942Y-140112353D01*
X123884895Y-141026638D02*
X123846800Y-140950448D01*
X123846800Y-140950448D02*
X123770609Y-140912353D01*
X123770609Y-140912353D02*
X123084895Y-140912353D01*
X123884895Y-141674258D02*
X123465847Y-141674258D01*
X123465847Y-141674258D02*
X123389657Y-141636163D01*
X123389657Y-141636163D02*
X123351561Y-141559972D01*
X123351561Y-141559972D02*
X123351561Y-141407591D01*
X123351561Y-141407591D02*
X123389657Y-141331401D01*
X123846800Y-141674258D02*
X123884895Y-141598067D01*
X123884895Y-141598067D02*
X123884895Y-141407591D01*
X123884895Y-141407591D02*
X123846800Y-141331401D01*
X123846800Y-141331401D02*
X123770609Y-141293305D01*
X123770609Y-141293305D02*
X123694419Y-141293305D01*
X123694419Y-141293305D02*
X123618228Y-141331401D01*
X123618228Y-141331401D02*
X123580133Y-141407591D01*
X123580133Y-141407591D02*
X123580133Y-141598067D01*
X123580133Y-141598067D02*
X123542038Y-141674258D01*
X123846800Y-142398068D02*
X123884895Y-142321877D01*
X123884895Y-142321877D02*
X123884895Y-142169496D01*
X123884895Y-142169496D02*
X123846800Y-142093306D01*
X123846800Y-142093306D02*
X123808704Y-142055211D01*
X123808704Y-142055211D02*
X123732514Y-142017115D01*
X123732514Y-142017115D02*
X123503942Y-142017115D01*
X123503942Y-142017115D02*
X123427752Y-142055211D01*
X123427752Y-142055211D02*
X123389657Y-142093306D01*
X123389657Y-142093306D02*
X123351561Y-142169496D01*
X123351561Y-142169496D02*
X123351561Y-142321877D01*
X123351561Y-142321877D02*
X123389657Y-142398068D01*
X123846800Y-143045687D02*
X123884895Y-142969496D01*
X123884895Y-142969496D02*
X123884895Y-142817115D01*
X123884895Y-142817115D02*
X123846800Y-142740925D01*
X123846800Y-142740925D02*
X123770609Y-142702829D01*
X123770609Y-142702829D02*
X123465847Y-142702829D01*
X123465847Y-142702829D02*
X123389657Y-142740925D01*
X123389657Y-142740925D02*
X123351561Y-142817115D01*
X123351561Y-142817115D02*
X123351561Y-142969496D01*
X123351561Y-142969496D02*
X123389657Y-143045687D01*
X123389657Y-143045687D02*
X123465847Y-143083782D01*
X123465847Y-143083782D02*
X123542038Y-143083782D01*
X123542038Y-143083782D02*
X123618228Y-142702829D01*
X123884895Y-144036163D02*
X123084895Y-144036163D01*
X123084895Y-144036163D02*
X123084895Y-144340925D01*
X123084895Y-144340925D02*
X123122990Y-144417115D01*
X123122990Y-144417115D02*
X123161085Y-144455210D01*
X123161085Y-144455210D02*
X123237276Y-144493306D01*
X123237276Y-144493306D02*
X123351561Y-144493306D01*
X123351561Y-144493306D02*
X123427752Y-144455210D01*
X123427752Y-144455210D02*
X123465847Y-144417115D01*
X123465847Y-144417115D02*
X123503942Y-144340925D01*
X123503942Y-144340925D02*
X123503942Y-144036163D01*
X123884895Y-144836163D02*
X123351561Y-144836163D01*
X123503942Y-144836163D02*
X123427752Y-144874258D01*
X123427752Y-144874258D02*
X123389657Y-144912353D01*
X123389657Y-144912353D02*
X123351561Y-144988544D01*
X123351561Y-144988544D02*
X123351561Y-145064734D01*
X123884895Y-145445686D02*
X123846800Y-145369496D01*
X123846800Y-145369496D02*
X123808704Y-145331401D01*
X123808704Y-145331401D02*
X123732514Y-145293305D01*
X123732514Y-145293305D02*
X123503942Y-145293305D01*
X123503942Y-145293305D02*
X123427752Y-145331401D01*
X123427752Y-145331401D02*
X123389657Y-145369496D01*
X123389657Y-145369496D02*
X123351561Y-145445686D01*
X123351561Y-145445686D02*
X123351561Y-145559972D01*
X123351561Y-145559972D02*
X123389657Y-145636163D01*
X123389657Y-145636163D02*
X123427752Y-145674258D01*
X123427752Y-145674258D02*
X123503942Y-145712353D01*
X123503942Y-145712353D02*
X123732514Y-145712353D01*
X123732514Y-145712353D02*
X123808704Y-145674258D01*
X123808704Y-145674258D02*
X123846800Y-145636163D01*
X123846800Y-145636163D02*
X123884895Y-145559972D01*
X123884895Y-145559972D02*
X123884895Y-145445686D01*
X123580133Y-146055211D02*
X123580133Y-146664735D01*
X123884895Y-147045687D02*
X123084895Y-147045687D01*
X123084895Y-147045687D02*
X123656323Y-147312353D01*
X123656323Y-147312353D02*
X123084895Y-147579020D01*
X123084895Y-147579020D02*
X123884895Y-147579020D01*
X123884895Y-147959973D02*
X123351561Y-147959973D01*
X123084895Y-147959973D02*
X123122990Y-147921877D01*
X123122990Y-147921877D02*
X123161085Y-147959973D01*
X123161085Y-147959973D02*
X123122990Y-147998068D01*
X123122990Y-147998068D02*
X123084895Y-147959973D01*
X123084895Y-147959973D02*
X123161085Y-147959973D01*
X123846800Y-148683782D02*
X123884895Y-148607591D01*
X123884895Y-148607591D02*
X123884895Y-148455210D01*
X123884895Y-148455210D02*
X123846800Y-148379020D01*
X123846800Y-148379020D02*
X123808704Y-148340925D01*
X123808704Y-148340925D02*
X123732514Y-148302829D01*
X123732514Y-148302829D02*
X123503942Y-148302829D01*
X123503942Y-148302829D02*
X123427752Y-148340925D01*
X123427752Y-148340925D02*
X123389657Y-148379020D01*
X123389657Y-148379020D02*
X123351561Y-148455210D01*
X123351561Y-148455210D02*
X123351561Y-148607591D01*
X123351561Y-148607591D02*
X123389657Y-148683782D01*
X123884895Y-149026639D02*
X123351561Y-149026639D01*
X123503942Y-149026639D02*
X123427752Y-149064734D01*
X123427752Y-149064734D02*
X123389657Y-149102829D01*
X123389657Y-149102829D02*
X123351561Y-149179020D01*
X123351561Y-149179020D02*
X123351561Y-149255210D01*
X123884895Y-149636162D02*
X123846800Y-149559972D01*
X123846800Y-149559972D02*
X123808704Y-149521877D01*
X123808704Y-149521877D02*
X123732514Y-149483781D01*
X123732514Y-149483781D02*
X123503942Y-149483781D01*
X123503942Y-149483781D02*
X123427752Y-149521877D01*
X123427752Y-149521877D02*
X123389657Y-149559972D01*
X123389657Y-149559972D02*
X123351561Y-149636162D01*
X123351561Y-149636162D02*
X123351561Y-149750448D01*
X123351561Y-149750448D02*
X123389657Y-149826639D01*
X123389657Y-149826639D02*
X123427752Y-149864734D01*
X123427752Y-149864734D02*
X123503942Y-149902829D01*
X123503942Y-149902829D02*
X123732514Y-149902829D01*
X123732514Y-149902829D02*
X123808704Y-149864734D01*
X123808704Y-149864734D02*
X123846800Y-149826639D01*
X123846800Y-149826639D02*
X123884895Y-149750448D01*
X123884895Y-149750448D02*
X123884895Y-149636162D01*
X124753847Y-144036162D02*
X124753847Y-143769496D01*
X125172895Y-143769496D02*
X124372895Y-143769496D01*
X124372895Y-143769496D02*
X124372895Y-144150448D01*
X125172895Y-144798067D02*
X124753847Y-144798067D01*
X124753847Y-144798067D02*
X124677657Y-144759972D01*
X124677657Y-144759972D02*
X124639561Y-144683781D01*
X124639561Y-144683781D02*
X124639561Y-144531400D01*
X124639561Y-144531400D02*
X124677657Y-144455210D01*
X125134800Y-144798067D02*
X125172895Y-144721876D01*
X125172895Y-144721876D02*
X125172895Y-144531400D01*
X125172895Y-144531400D02*
X125134800Y-144455210D01*
X125134800Y-144455210D02*
X125058609Y-144417114D01*
X125058609Y-144417114D02*
X124982419Y-144417114D01*
X124982419Y-144417114D02*
X124906228Y-144455210D01*
X124906228Y-144455210D02*
X124868133Y-144531400D01*
X124868133Y-144531400D02*
X124868133Y-144721876D01*
X124868133Y-144721876D02*
X124830038Y-144798067D01*
X125134800Y-145521877D02*
X125172895Y-145445686D01*
X125172895Y-145445686D02*
X125172895Y-145293305D01*
X125172895Y-145293305D02*
X125134800Y-145217115D01*
X125134800Y-145217115D02*
X125096704Y-145179020D01*
X125096704Y-145179020D02*
X125020514Y-145140924D01*
X125020514Y-145140924D02*
X124791942Y-145140924D01*
X124791942Y-145140924D02*
X124715752Y-145179020D01*
X124715752Y-145179020D02*
X124677657Y-145217115D01*
X124677657Y-145217115D02*
X124639561Y-145293305D01*
X124639561Y-145293305D02*
X124639561Y-145445686D01*
X124639561Y-145445686D02*
X124677657Y-145521877D01*
X125134800Y-146169496D02*
X125172895Y-146093305D01*
X125172895Y-146093305D02*
X125172895Y-145940924D01*
X125172895Y-145940924D02*
X125134800Y-145864734D01*
X125134800Y-145864734D02*
X125058609Y-145826638D01*
X125058609Y-145826638D02*
X124753847Y-145826638D01*
X124753847Y-145826638D02*
X124677657Y-145864734D01*
X124677657Y-145864734D02*
X124639561Y-145940924D01*
X124639561Y-145940924D02*
X124639561Y-146093305D01*
X124639561Y-146093305D02*
X124677657Y-146169496D01*
X124677657Y-146169496D02*
X124753847Y-146207591D01*
X124753847Y-146207591D02*
X124830038Y-146207591D01*
X124830038Y-146207591D02*
X124906228Y-145826638D01*
X125172895Y-147159972D02*
X124372895Y-147159972D01*
X124372895Y-147159972D02*
X124372895Y-147350448D01*
X124372895Y-147350448D02*
X124410990Y-147464734D01*
X124410990Y-147464734D02*
X124487180Y-147540924D01*
X124487180Y-147540924D02*
X124563371Y-147579019D01*
X124563371Y-147579019D02*
X124715752Y-147617115D01*
X124715752Y-147617115D02*
X124830038Y-147617115D01*
X124830038Y-147617115D02*
X124982419Y-147579019D01*
X124982419Y-147579019D02*
X125058609Y-147540924D01*
X125058609Y-147540924D02*
X125134800Y-147464734D01*
X125134800Y-147464734D02*
X125172895Y-147350448D01*
X125172895Y-147350448D02*
X125172895Y-147159972D01*
X125172895Y-148074257D02*
X125134800Y-147998067D01*
X125134800Y-147998067D02*
X125096704Y-147959972D01*
X125096704Y-147959972D02*
X125020514Y-147921876D01*
X125020514Y-147921876D02*
X124791942Y-147921876D01*
X124791942Y-147921876D02*
X124715752Y-147959972D01*
X124715752Y-147959972D02*
X124677657Y-147998067D01*
X124677657Y-147998067D02*
X124639561Y-148074257D01*
X124639561Y-148074257D02*
X124639561Y-148188543D01*
X124639561Y-148188543D02*
X124677657Y-148264734D01*
X124677657Y-148264734D02*
X124715752Y-148302829D01*
X124715752Y-148302829D02*
X124791942Y-148340924D01*
X124791942Y-148340924D02*
X125020514Y-148340924D01*
X125020514Y-148340924D02*
X125096704Y-148302829D01*
X125096704Y-148302829D02*
X125134800Y-148264734D01*
X125134800Y-148264734D02*
X125172895Y-148188543D01*
X125172895Y-148188543D02*
X125172895Y-148074257D01*
X124639561Y-148607591D02*
X125172895Y-148759972D01*
X125172895Y-148759972D02*
X124791942Y-148912353D01*
X124791942Y-148912353D02*
X125172895Y-149064734D01*
X125172895Y-149064734D02*
X124639561Y-149217115D01*
X124639561Y-149521877D02*
X125172895Y-149521877D01*
X124715752Y-149521877D02*
X124677657Y-149559972D01*
X124677657Y-149559972D02*
X124639561Y-149636162D01*
X124639561Y-149636162D02*
X124639561Y-149750448D01*
X124639561Y-149750448D02*
X124677657Y-149826639D01*
X124677657Y-149826639D02*
X124753847Y-149864734D01*
X124753847Y-149864734D02*
X125172895Y-149864734D01*
D10*
X280961220Y-175994819D02*
X280961220Y-174994819D01*
X280961220Y-174994819D02*
X280723125Y-174994819D01*
X280723125Y-174994819D02*
X280580268Y-175042438D01*
X280580268Y-175042438D02*
X280485030Y-175137676D01*
X280485030Y-175137676D02*
X280437411Y-175232914D01*
X280437411Y-175232914D02*
X280389792Y-175423390D01*
X280389792Y-175423390D02*
X280389792Y-175566247D01*
X280389792Y-175566247D02*
X280437411Y-175756723D01*
X280437411Y-175756723D02*
X280485030Y-175851961D01*
X280485030Y-175851961D02*
X280580268Y-175947200D01*
X280580268Y-175947200D02*
X280723125Y-175994819D01*
X280723125Y-175994819D02*
X280961220Y-175994819D01*
X279770744Y-174994819D02*
X279580268Y-174994819D01*
X279580268Y-174994819D02*
X279485030Y-175042438D01*
X279485030Y-175042438D02*
X279389792Y-175137676D01*
X279389792Y-175137676D02*
X279342173Y-175328152D01*
X279342173Y-175328152D02*
X279342173Y-175661485D01*
X279342173Y-175661485D02*
X279389792Y-175851961D01*
X279389792Y-175851961D02*
X279485030Y-175947200D01*
X279485030Y-175947200D02*
X279580268Y-175994819D01*
X279580268Y-175994819D02*
X279770744Y-175994819D01*
X279770744Y-175994819D02*
X279865982Y-175947200D01*
X279865982Y-175947200D02*
X279961220Y-175851961D01*
X279961220Y-175851961D02*
X280008839Y-175661485D01*
X280008839Y-175661485D02*
X280008839Y-175328152D01*
X280008839Y-175328152D02*
X279961220Y-175137676D01*
X279961220Y-175137676D02*
X279865982Y-175042438D01*
X279865982Y-175042438D02*
X279770744Y-174994819D01*
X279008839Y-174994819D02*
X278770744Y-175994819D01*
X278770744Y-175994819D02*
X278580268Y-175280533D01*
X278580268Y-175280533D02*
X278389792Y-175994819D01*
X278389792Y-175994819D02*
X278151697Y-174994819D01*
X277770744Y-175994819D02*
X277770744Y-174994819D01*
X277770744Y-174994819D02*
X277199316Y-175994819D01*
X277199316Y-175994819D02*
X277199316Y-174994819D01*
X261435030Y-175994819D02*
X261911220Y-175994819D01*
X261911220Y-175994819D02*
X261911220Y-174994819D01*
X261101696Y-175471009D02*
X260768363Y-175471009D01*
X260625506Y-175994819D02*
X261101696Y-175994819D01*
X261101696Y-175994819D02*
X261101696Y-174994819D01*
X261101696Y-174994819D02*
X260625506Y-174994819D01*
X259863601Y-175471009D02*
X260196934Y-175471009D01*
X260196934Y-175994819D02*
X260196934Y-174994819D01*
X260196934Y-174994819D02*
X259720744Y-174994819D01*
X259482648Y-174994819D02*
X258911220Y-174994819D01*
X259196934Y-175994819D02*
X259196934Y-174994819D01*
X299439792Y-175994819D02*
X299773125Y-175518628D01*
X300011220Y-175994819D02*
X300011220Y-174994819D01*
X300011220Y-174994819D02*
X299630268Y-174994819D01*
X299630268Y-174994819D02*
X299535030Y-175042438D01*
X299535030Y-175042438D02*
X299487411Y-175090057D01*
X299487411Y-175090057D02*
X299439792Y-175185295D01*
X299439792Y-175185295D02*
X299439792Y-175328152D01*
X299439792Y-175328152D02*
X299487411Y-175423390D01*
X299487411Y-175423390D02*
X299535030Y-175471009D01*
X299535030Y-175471009D02*
X299630268Y-175518628D01*
X299630268Y-175518628D02*
X300011220Y-175518628D01*
X299011220Y-175994819D02*
X299011220Y-174994819D01*
X298011221Y-175042438D02*
X298106459Y-174994819D01*
X298106459Y-174994819D02*
X298249316Y-174994819D01*
X298249316Y-174994819D02*
X298392173Y-175042438D01*
X298392173Y-175042438D02*
X298487411Y-175137676D01*
X298487411Y-175137676D02*
X298535030Y-175232914D01*
X298535030Y-175232914D02*
X298582649Y-175423390D01*
X298582649Y-175423390D02*
X298582649Y-175566247D01*
X298582649Y-175566247D02*
X298535030Y-175756723D01*
X298535030Y-175756723D02*
X298487411Y-175851961D01*
X298487411Y-175851961D02*
X298392173Y-175947200D01*
X298392173Y-175947200D02*
X298249316Y-175994819D01*
X298249316Y-175994819D02*
X298154078Y-175994819D01*
X298154078Y-175994819D02*
X298011221Y-175947200D01*
X298011221Y-175947200D02*
X297963602Y-175899580D01*
X297963602Y-175899580D02*
X297963602Y-175566247D01*
X297963602Y-175566247D02*
X298154078Y-175566247D01*
X297535030Y-175994819D02*
X297535030Y-174994819D01*
X297535030Y-175471009D02*
X296963602Y-175471009D01*
X296963602Y-175994819D02*
X296963602Y-174994819D01*
X296630268Y-174994819D02*
X296058840Y-174994819D01*
X296344554Y-175994819D02*
X296344554Y-174994819D01*
X280961220Y-155944819D02*
X280961220Y-156754342D01*
X280961220Y-156754342D02*
X280913601Y-156849580D01*
X280913601Y-156849580D02*
X280865982Y-156897200D01*
X280865982Y-156897200D02*
X280770744Y-156944819D01*
X280770744Y-156944819D02*
X280580268Y-156944819D01*
X280580268Y-156944819D02*
X280485030Y-156897200D01*
X280485030Y-156897200D02*
X280437411Y-156849580D01*
X280437411Y-156849580D02*
X280389792Y-156754342D01*
X280389792Y-156754342D02*
X280389792Y-155944819D01*
X279913601Y-156944819D02*
X279913601Y-155944819D01*
X279913601Y-155944819D02*
X279532649Y-155944819D01*
X279532649Y-155944819D02*
X279437411Y-155992438D01*
X279437411Y-155992438D02*
X279389792Y-156040057D01*
X279389792Y-156040057D02*
X279342173Y-156135295D01*
X279342173Y-156135295D02*
X279342173Y-156278152D01*
X279342173Y-156278152D02*
X279389792Y-156373390D01*
X279389792Y-156373390D02*
X279437411Y-156421009D01*
X279437411Y-156421009D02*
X279532649Y-156468628D01*
X279532649Y-156468628D02*
X279913601Y-156468628D01*
X261911220Y-118844819D02*
X261911220Y-117844819D01*
X261911220Y-117844819D02*
X261577887Y-118559104D01*
X261577887Y-118559104D02*
X261244554Y-117844819D01*
X261244554Y-117844819D02*
X261244554Y-118844819D01*
X260196935Y-118749580D02*
X260244554Y-118797200D01*
X260244554Y-118797200D02*
X260387411Y-118844819D01*
X260387411Y-118844819D02*
X260482649Y-118844819D01*
X260482649Y-118844819D02*
X260625506Y-118797200D01*
X260625506Y-118797200D02*
X260720744Y-118701961D01*
X260720744Y-118701961D02*
X260768363Y-118606723D01*
X260768363Y-118606723D02*
X260815982Y-118416247D01*
X260815982Y-118416247D02*
X260815982Y-118273390D01*
X260815982Y-118273390D02*
X260768363Y-118082914D01*
X260768363Y-118082914D02*
X260720744Y-117987676D01*
X260720744Y-117987676D02*
X260625506Y-117892438D01*
X260625506Y-117892438D02*
X260482649Y-117844819D01*
X260482649Y-117844819D02*
X260387411Y-117844819D01*
X260387411Y-117844819D02*
X260244554Y-117892438D01*
X260244554Y-117892438D02*
X260196935Y-117940057D01*
X259244554Y-118844819D02*
X259815982Y-118844819D01*
X259530268Y-118844819D02*
X259530268Y-117844819D01*
X259530268Y-117844819D02*
X259625506Y-117987676D01*
X259625506Y-117987676D02*
X259720744Y-118082914D01*
X259720744Y-118082914D02*
X259815982Y-118130533D01*
X280961220Y-118844819D02*
X280961220Y-117844819D01*
X280961220Y-117844819D02*
X280627887Y-118559104D01*
X280627887Y-118559104D02*
X280294554Y-117844819D01*
X280294554Y-117844819D02*
X280294554Y-118844819D01*
X279246935Y-118749580D02*
X279294554Y-118797200D01*
X279294554Y-118797200D02*
X279437411Y-118844819D01*
X279437411Y-118844819D02*
X279532649Y-118844819D01*
X279532649Y-118844819D02*
X279675506Y-118797200D01*
X279675506Y-118797200D02*
X279770744Y-118701961D01*
X279770744Y-118701961D02*
X279818363Y-118606723D01*
X279818363Y-118606723D02*
X279865982Y-118416247D01*
X279865982Y-118416247D02*
X279865982Y-118273390D01*
X279865982Y-118273390D02*
X279818363Y-118082914D01*
X279818363Y-118082914D02*
X279770744Y-117987676D01*
X279770744Y-117987676D02*
X279675506Y-117892438D01*
X279675506Y-117892438D02*
X279532649Y-117844819D01*
X279532649Y-117844819D02*
X279437411Y-117844819D01*
X279437411Y-117844819D02*
X279294554Y-117892438D01*
X279294554Y-117892438D02*
X279246935Y-117940057D01*
X278865982Y-117940057D02*
X278818363Y-117892438D01*
X278818363Y-117892438D02*
X278723125Y-117844819D01*
X278723125Y-117844819D02*
X278485030Y-117844819D01*
X278485030Y-117844819D02*
X278389792Y-117892438D01*
X278389792Y-117892438D02*
X278342173Y-117940057D01*
X278342173Y-117940057D02*
X278294554Y-118035295D01*
X278294554Y-118035295D02*
X278294554Y-118130533D01*
X278294554Y-118130533D02*
X278342173Y-118273390D01*
X278342173Y-118273390D02*
X278913601Y-118844819D01*
X278913601Y-118844819D02*
X278294554Y-118844819D01*
X300011220Y-118844819D02*
X300011220Y-117844819D01*
X300011220Y-117844819D02*
X299677887Y-118559104D01*
X299677887Y-118559104D02*
X299344554Y-117844819D01*
X299344554Y-117844819D02*
X299344554Y-118844819D01*
X298296935Y-118749580D02*
X298344554Y-118797200D01*
X298344554Y-118797200D02*
X298487411Y-118844819D01*
X298487411Y-118844819D02*
X298582649Y-118844819D01*
X298582649Y-118844819D02*
X298725506Y-118797200D01*
X298725506Y-118797200D02*
X298820744Y-118701961D01*
X298820744Y-118701961D02*
X298868363Y-118606723D01*
X298868363Y-118606723D02*
X298915982Y-118416247D01*
X298915982Y-118416247D02*
X298915982Y-118273390D01*
X298915982Y-118273390D02*
X298868363Y-118082914D01*
X298868363Y-118082914D02*
X298820744Y-117987676D01*
X298820744Y-117987676D02*
X298725506Y-117892438D01*
X298725506Y-117892438D02*
X298582649Y-117844819D01*
X298582649Y-117844819D02*
X298487411Y-117844819D01*
X298487411Y-117844819D02*
X298344554Y-117892438D01*
X298344554Y-117892438D02*
X298296935Y-117940057D01*
X297963601Y-117844819D02*
X297344554Y-117844819D01*
X297344554Y-117844819D02*
X297677887Y-118225771D01*
X297677887Y-118225771D02*
X297535030Y-118225771D01*
X297535030Y-118225771D02*
X297439792Y-118273390D01*
X297439792Y-118273390D02*
X297392173Y-118321009D01*
X297392173Y-118321009D02*
X297344554Y-118416247D01*
X297344554Y-118416247D02*
X297344554Y-118654342D01*
X297344554Y-118654342D02*
X297392173Y-118749580D01*
X297392173Y-118749580D02*
X297439792Y-118797200D01*
X297439792Y-118797200D02*
X297535030Y-118844819D01*
X297535030Y-118844819D02*
X297820744Y-118844819D01*
X297820744Y-118844819D02*
X297915982Y-118797200D01*
X297915982Y-118797200D02*
X297963601Y-118749580D01*
X261911220Y-137894819D02*
X261911220Y-136894819D01*
X261911220Y-136894819D02*
X261577887Y-137609104D01*
X261577887Y-137609104D02*
X261244554Y-136894819D01*
X261244554Y-136894819D02*
X261244554Y-137894819D01*
X260196935Y-137799580D02*
X260244554Y-137847200D01*
X260244554Y-137847200D02*
X260387411Y-137894819D01*
X260387411Y-137894819D02*
X260482649Y-137894819D01*
X260482649Y-137894819D02*
X260625506Y-137847200D01*
X260625506Y-137847200D02*
X260720744Y-137751961D01*
X260720744Y-137751961D02*
X260768363Y-137656723D01*
X260768363Y-137656723D02*
X260815982Y-137466247D01*
X260815982Y-137466247D02*
X260815982Y-137323390D01*
X260815982Y-137323390D02*
X260768363Y-137132914D01*
X260768363Y-137132914D02*
X260720744Y-137037676D01*
X260720744Y-137037676D02*
X260625506Y-136942438D01*
X260625506Y-136942438D02*
X260482649Y-136894819D01*
X260482649Y-136894819D02*
X260387411Y-136894819D01*
X260387411Y-136894819D02*
X260244554Y-136942438D01*
X260244554Y-136942438D02*
X260196935Y-136990057D01*
X259339792Y-137228152D02*
X259339792Y-137894819D01*
X259577887Y-136847200D02*
X259815982Y-137561485D01*
X259815982Y-137561485D02*
X259196935Y-137561485D01*
X280961220Y-137894819D02*
X280961220Y-136894819D01*
X280961220Y-136894819D02*
X280627887Y-137609104D01*
X280627887Y-137609104D02*
X280294554Y-136894819D01*
X280294554Y-136894819D02*
X280294554Y-137894819D01*
X279246935Y-137799580D02*
X279294554Y-137847200D01*
X279294554Y-137847200D02*
X279437411Y-137894819D01*
X279437411Y-137894819D02*
X279532649Y-137894819D01*
X279532649Y-137894819D02*
X279675506Y-137847200D01*
X279675506Y-137847200D02*
X279770744Y-137751961D01*
X279770744Y-137751961D02*
X279818363Y-137656723D01*
X279818363Y-137656723D02*
X279865982Y-137466247D01*
X279865982Y-137466247D02*
X279865982Y-137323390D01*
X279865982Y-137323390D02*
X279818363Y-137132914D01*
X279818363Y-137132914D02*
X279770744Y-137037676D01*
X279770744Y-137037676D02*
X279675506Y-136942438D01*
X279675506Y-136942438D02*
X279532649Y-136894819D01*
X279532649Y-136894819D02*
X279437411Y-136894819D01*
X279437411Y-136894819D02*
X279294554Y-136942438D01*
X279294554Y-136942438D02*
X279246935Y-136990057D01*
X278342173Y-136894819D02*
X278818363Y-136894819D01*
X278818363Y-136894819D02*
X278865982Y-137371009D01*
X278865982Y-137371009D02*
X278818363Y-137323390D01*
X278818363Y-137323390D02*
X278723125Y-137275771D01*
X278723125Y-137275771D02*
X278485030Y-137275771D01*
X278485030Y-137275771D02*
X278389792Y-137323390D01*
X278389792Y-137323390D02*
X278342173Y-137371009D01*
X278342173Y-137371009D02*
X278294554Y-137466247D01*
X278294554Y-137466247D02*
X278294554Y-137704342D01*
X278294554Y-137704342D02*
X278342173Y-137799580D01*
X278342173Y-137799580D02*
X278389792Y-137847200D01*
X278389792Y-137847200D02*
X278485030Y-137894819D01*
X278485030Y-137894819D02*
X278723125Y-137894819D01*
X278723125Y-137894819D02*
X278818363Y-137847200D01*
X278818363Y-137847200D02*
X278865982Y-137799580D01*
X300011220Y-137894819D02*
X300011220Y-136894819D01*
X300011220Y-136894819D02*
X299677887Y-137609104D01*
X299677887Y-137609104D02*
X299344554Y-136894819D01*
X299344554Y-136894819D02*
X299344554Y-137894819D01*
X298296935Y-137799580D02*
X298344554Y-137847200D01*
X298344554Y-137847200D02*
X298487411Y-137894819D01*
X298487411Y-137894819D02*
X298582649Y-137894819D01*
X298582649Y-137894819D02*
X298725506Y-137847200D01*
X298725506Y-137847200D02*
X298820744Y-137751961D01*
X298820744Y-137751961D02*
X298868363Y-137656723D01*
X298868363Y-137656723D02*
X298915982Y-137466247D01*
X298915982Y-137466247D02*
X298915982Y-137323390D01*
X298915982Y-137323390D02*
X298868363Y-137132914D01*
X298868363Y-137132914D02*
X298820744Y-137037676D01*
X298820744Y-137037676D02*
X298725506Y-136942438D01*
X298725506Y-136942438D02*
X298582649Y-136894819D01*
X298582649Y-136894819D02*
X298487411Y-136894819D01*
X298487411Y-136894819D02*
X298344554Y-136942438D01*
X298344554Y-136942438D02*
X298296935Y-136990057D01*
X297439792Y-136894819D02*
X297630268Y-136894819D01*
X297630268Y-136894819D02*
X297725506Y-136942438D01*
X297725506Y-136942438D02*
X297773125Y-136990057D01*
X297773125Y-136990057D02*
X297868363Y-137132914D01*
X297868363Y-137132914D02*
X297915982Y-137323390D01*
X297915982Y-137323390D02*
X297915982Y-137704342D01*
X297915982Y-137704342D02*
X297868363Y-137799580D01*
X297868363Y-137799580D02*
X297820744Y-137847200D01*
X297820744Y-137847200D02*
X297725506Y-137894819D01*
X297725506Y-137894819D02*
X297535030Y-137894819D01*
X297535030Y-137894819D02*
X297439792Y-137847200D01*
X297439792Y-137847200D02*
X297392173Y-137799580D01*
X297392173Y-137799580D02*
X297344554Y-137704342D01*
X297344554Y-137704342D02*
X297344554Y-137466247D01*
X297344554Y-137466247D02*
X297392173Y-137371009D01*
X297392173Y-137371009D02*
X297439792Y-137323390D01*
X297439792Y-137323390D02*
X297535030Y-137275771D01*
X297535030Y-137275771D02*
X297725506Y-137275771D01*
X297725506Y-137275771D02*
X297820744Y-137323390D01*
X297820744Y-137323390D02*
X297868363Y-137371009D01*
X297868363Y-137371009D02*
X297915982Y-137466247D01*
X142750839Y-116413200D02*
X142607982Y-116460819D01*
X142607982Y-116460819D02*
X142369887Y-116460819D01*
X142369887Y-116460819D02*
X142274649Y-116413200D01*
X142274649Y-116413200D02*
X142227030Y-116365580D01*
X142227030Y-116365580D02*
X142179411Y-116270342D01*
X142179411Y-116270342D02*
X142179411Y-116175104D01*
X142179411Y-116175104D02*
X142227030Y-116079866D01*
X142227030Y-116079866D02*
X142274649Y-116032247D01*
X142274649Y-116032247D02*
X142369887Y-115984628D01*
X142369887Y-115984628D02*
X142560363Y-115937009D01*
X142560363Y-115937009D02*
X142655601Y-115889390D01*
X142655601Y-115889390D02*
X142703220Y-115841771D01*
X142703220Y-115841771D02*
X142750839Y-115746533D01*
X142750839Y-115746533D02*
X142750839Y-115651295D01*
X142750839Y-115651295D02*
X142703220Y-115556057D01*
X142703220Y-115556057D02*
X142655601Y-115508438D01*
X142655601Y-115508438D02*
X142560363Y-115460819D01*
X142560363Y-115460819D02*
X142322268Y-115460819D01*
X142322268Y-115460819D02*
X142179411Y-115508438D01*
X141846077Y-115460819D02*
X141607982Y-116460819D01*
X141607982Y-116460819D02*
X141417506Y-115746533D01*
X141417506Y-115746533D02*
X141227030Y-116460819D01*
X141227030Y-116460819D02*
X140988935Y-115460819D01*
X140084173Y-116460819D02*
X140655601Y-116460819D01*
X140369887Y-116460819D02*
X140369887Y-115460819D01*
X140369887Y-115460819D02*
X140465125Y-115603676D01*
X140465125Y-115603676D02*
X140560363Y-115698914D01*
X140560363Y-115698914D02*
X140655601Y-115746533D01*
X161800839Y-114032200D02*
X161657982Y-114079819D01*
X161657982Y-114079819D02*
X161419887Y-114079819D01*
X161419887Y-114079819D02*
X161324649Y-114032200D01*
X161324649Y-114032200D02*
X161277030Y-113984580D01*
X161277030Y-113984580D02*
X161229411Y-113889342D01*
X161229411Y-113889342D02*
X161229411Y-113794104D01*
X161229411Y-113794104D02*
X161277030Y-113698866D01*
X161277030Y-113698866D02*
X161324649Y-113651247D01*
X161324649Y-113651247D02*
X161419887Y-113603628D01*
X161419887Y-113603628D02*
X161610363Y-113556009D01*
X161610363Y-113556009D02*
X161705601Y-113508390D01*
X161705601Y-113508390D02*
X161753220Y-113460771D01*
X161753220Y-113460771D02*
X161800839Y-113365533D01*
X161800839Y-113365533D02*
X161800839Y-113270295D01*
X161800839Y-113270295D02*
X161753220Y-113175057D01*
X161753220Y-113175057D02*
X161705601Y-113127438D01*
X161705601Y-113127438D02*
X161610363Y-113079819D01*
X161610363Y-113079819D02*
X161372268Y-113079819D01*
X161372268Y-113079819D02*
X161229411Y-113127438D01*
X160896077Y-113079819D02*
X160657982Y-114079819D01*
X160657982Y-114079819D02*
X160467506Y-113365533D01*
X160467506Y-113365533D02*
X160277030Y-114079819D01*
X160277030Y-114079819D02*
X160038935Y-113079819D01*
X159705601Y-113175057D02*
X159657982Y-113127438D01*
X159657982Y-113127438D02*
X159562744Y-113079819D01*
X159562744Y-113079819D02*
X159324649Y-113079819D01*
X159324649Y-113079819D02*
X159229411Y-113127438D01*
X159229411Y-113127438D02*
X159181792Y-113175057D01*
X159181792Y-113175057D02*
X159134173Y-113270295D01*
X159134173Y-113270295D02*
X159134173Y-113365533D01*
X159134173Y-113365533D02*
X159181792Y-113508390D01*
X159181792Y-113508390D02*
X159753220Y-114079819D01*
X159753220Y-114079819D02*
X159134173Y-114079819D01*
X180850839Y-111647200D02*
X180707982Y-111694819D01*
X180707982Y-111694819D02*
X180469887Y-111694819D01*
X180469887Y-111694819D02*
X180374649Y-111647200D01*
X180374649Y-111647200D02*
X180327030Y-111599580D01*
X180327030Y-111599580D02*
X180279411Y-111504342D01*
X180279411Y-111504342D02*
X180279411Y-111409104D01*
X180279411Y-111409104D02*
X180327030Y-111313866D01*
X180327030Y-111313866D02*
X180374649Y-111266247D01*
X180374649Y-111266247D02*
X180469887Y-111218628D01*
X180469887Y-111218628D02*
X180660363Y-111171009D01*
X180660363Y-111171009D02*
X180755601Y-111123390D01*
X180755601Y-111123390D02*
X180803220Y-111075771D01*
X180803220Y-111075771D02*
X180850839Y-110980533D01*
X180850839Y-110980533D02*
X180850839Y-110885295D01*
X180850839Y-110885295D02*
X180803220Y-110790057D01*
X180803220Y-110790057D02*
X180755601Y-110742438D01*
X180755601Y-110742438D02*
X180660363Y-110694819D01*
X180660363Y-110694819D02*
X180422268Y-110694819D01*
X180422268Y-110694819D02*
X180279411Y-110742438D01*
X179946077Y-110694819D02*
X179707982Y-111694819D01*
X179707982Y-111694819D02*
X179517506Y-110980533D01*
X179517506Y-110980533D02*
X179327030Y-111694819D01*
X179327030Y-111694819D02*
X179088935Y-110694819D01*
X178803220Y-110694819D02*
X178184173Y-110694819D01*
X178184173Y-110694819D02*
X178517506Y-111075771D01*
X178517506Y-111075771D02*
X178374649Y-111075771D01*
X178374649Y-111075771D02*
X178279411Y-111123390D01*
X178279411Y-111123390D02*
X178231792Y-111171009D01*
X178231792Y-111171009D02*
X178184173Y-111266247D01*
X178184173Y-111266247D02*
X178184173Y-111504342D01*
X178184173Y-111504342D02*
X178231792Y-111599580D01*
X178231792Y-111599580D02*
X178279411Y-111647200D01*
X178279411Y-111647200D02*
X178374649Y-111694819D01*
X178374649Y-111694819D02*
X178660363Y-111694819D01*
X178660363Y-111694819D02*
X178755601Y-111647200D01*
X178755601Y-111647200D02*
X178803220Y-111599580D01*
X199900839Y-114032200D02*
X199757982Y-114079819D01*
X199757982Y-114079819D02*
X199519887Y-114079819D01*
X199519887Y-114079819D02*
X199424649Y-114032200D01*
X199424649Y-114032200D02*
X199377030Y-113984580D01*
X199377030Y-113984580D02*
X199329411Y-113889342D01*
X199329411Y-113889342D02*
X199329411Y-113794104D01*
X199329411Y-113794104D02*
X199377030Y-113698866D01*
X199377030Y-113698866D02*
X199424649Y-113651247D01*
X199424649Y-113651247D02*
X199519887Y-113603628D01*
X199519887Y-113603628D02*
X199710363Y-113556009D01*
X199710363Y-113556009D02*
X199805601Y-113508390D01*
X199805601Y-113508390D02*
X199853220Y-113460771D01*
X199853220Y-113460771D02*
X199900839Y-113365533D01*
X199900839Y-113365533D02*
X199900839Y-113270295D01*
X199900839Y-113270295D02*
X199853220Y-113175057D01*
X199853220Y-113175057D02*
X199805601Y-113127438D01*
X199805601Y-113127438D02*
X199710363Y-113079819D01*
X199710363Y-113079819D02*
X199472268Y-113079819D01*
X199472268Y-113079819D02*
X199329411Y-113127438D01*
X198996077Y-113079819D02*
X198757982Y-114079819D01*
X198757982Y-114079819D02*
X198567506Y-113365533D01*
X198567506Y-113365533D02*
X198377030Y-114079819D01*
X198377030Y-114079819D02*
X198138935Y-113079819D01*
X197329411Y-113413152D02*
X197329411Y-114079819D01*
X197567506Y-113032200D02*
X197805601Y-113746485D01*
X197805601Y-113746485D02*
X197186554Y-113746485D01*
X218950839Y-118797200D02*
X218807982Y-118844819D01*
X218807982Y-118844819D02*
X218569887Y-118844819D01*
X218569887Y-118844819D02*
X218474649Y-118797200D01*
X218474649Y-118797200D02*
X218427030Y-118749580D01*
X218427030Y-118749580D02*
X218379411Y-118654342D01*
X218379411Y-118654342D02*
X218379411Y-118559104D01*
X218379411Y-118559104D02*
X218427030Y-118463866D01*
X218427030Y-118463866D02*
X218474649Y-118416247D01*
X218474649Y-118416247D02*
X218569887Y-118368628D01*
X218569887Y-118368628D02*
X218760363Y-118321009D01*
X218760363Y-118321009D02*
X218855601Y-118273390D01*
X218855601Y-118273390D02*
X218903220Y-118225771D01*
X218903220Y-118225771D02*
X218950839Y-118130533D01*
X218950839Y-118130533D02*
X218950839Y-118035295D01*
X218950839Y-118035295D02*
X218903220Y-117940057D01*
X218903220Y-117940057D02*
X218855601Y-117892438D01*
X218855601Y-117892438D02*
X218760363Y-117844819D01*
X218760363Y-117844819D02*
X218522268Y-117844819D01*
X218522268Y-117844819D02*
X218379411Y-117892438D01*
X218046077Y-117844819D02*
X217807982Y-118844819D01*
X217807982Y-118844819D02*
X217617506Y-118130533D01*
X217617506Y-118130533D02*
X217427030Y-118844819D01*
X217427030Y-118844819D02*
X217188935Y-117844819D01*
X216331792Y-117844819D02*
X216807982Y-117844819D01*
X216807982Y-117844819D02*
X216855601Y-118321009D01*
X216855601Y-118321009D02*
X216807982Y-118273390D01*
X216807982Y-118273390D02*
X216712744Y-118225771D01*
X216712744Y-118225771D02*
X216474649Y-118225771D01*
X216474649Y-118225771D02*
X216379411Y-118273390D01*
X216379411Y-118273390D02*
X216331792Y-118321009D01*
X216331792Y-118321009D02*
X216284173Y-118416247D01*
X216284173Y-118416247D02*
X216284173Y-118654342D01*
X216284173Y-118654342D02*
X216331792Y-118749580D01*
X216331792Y-118749580D02*
X216379411Y-118797200D01*
X216379411Y-118797200D02*
X216474649Y-118844819D01*
X216474649Y-118844819D02*
X216712744Y-118844819D01*
X216712744Y-118844819D02*
X216807982Y-118797200D01*
X216807982Y-118797200D02*
X216855601Y-118749580D01*
X238000839Y-118797200D02*
X237857982Y-118844819D01*
X237857982Y-118844819D02*
X237619887Y-118844819D01*
X237619887Y-118844819D02*
X237524649Y-118797200D01*
X237524649Y-118797200D02*
X237477030Y-118749580D01*
X237477030Y-118749580D02*
X237429411Y-118654342D01*
X237429411Y-118654342D02*
X237429411Y-118559104D01*
X237429411Y-118559104D02*
X237477030Y-118463866D01*
X237477030Y-118463866D02*
X237524649Y-118416247D01*
X237524649Y-118416247D02*
X237619887Y-118368628D01*
X237619887Y-118368628D02*
X237810363Y-118321009D01*
X237810363Y-118321009D02*
X237905601Y-118273390D01*
X237905601Y-118273390D02*
X237953220Y-118225771D01*
X237953220Y-118225771D02*
X238000839Y-118130533D01*
X238000839Y-118130533D02*
X238000839Y-118035295D01*
X238000839Y-118035295D02*
X237953220Y-117940057D01*
X237953220Y-117940057D02*
X237905601Y-117892438D01*
X237905601Y-117892438D02*
X237810363Y-117844819D01*
X237810363Y-117844819D02*
X237572268Y-117844819D01*
X237572268Y-117844819D02*
X237429411Y-117892438D01*
X237096077Y-117844819D02*
X236857982Y-118844819D01*
X236857982Y-118844819D02*
X236667506Y-118130533D01*
X236667506Y-118130533D02*
X236477030Y-118844819D01*
X236477030Y-118844819D02*
X236238935Y-117844819D01*
X235429411Y-117844819D02*
X235619887Y-117844819D01*
X235619887Y-117844819D02*
X235715125Y-117892438D01*
X235715125Y-117892438D02*
X235762744Y-117940057D01*
X235762744Y-117940057D02*
X235857982Y-118082914D01*
X235857982Y-118082914D02*
X235905601Y-118273390D01*
X235905601Y-118273390D02*
X235905601Y-118654342D01*
X235905601Y-118654342D02*
X235857982Y-118749580D01*
X235857982Y-118749580D02*
X235810363Y-118797200D01*
X235810363Y-118797200D02*
X235715125Y-118844819D01*
X235715125Y-118844819D02*
X235524649Y-118844819D01*
X235524649Y-118844819D02*
X235429411Y-118797200D01*
X235429411Y-118797200D02*
X235381792Y-118749580D01*
X235381792Y-118749580D02*
X235334173Y-118654342D01*
X235334173Y-118654342D02*
X235334173Y-118416247D01*
X235334173Y-118416247D02*
X235381792Y-118321009D01*
X235381792Y-118321009D02*
X235429411Y-118273390D01*
X235429411Y-118273390D02*
X235524649Y-118225771D01*
X235524649Y-118225771D02*
X235715125Y-118225771D01*
X235715125Y-118225771D02*
X235810363Y-118273390D01*
X235810363Y-118273390D02*
X235857982Y-118321009D01*
X235857982Y-118321009D02*
X235905601Y-118416247D01*
X142750839Y-135434200D02*
X142607982Y-135481819D01*
X142607982Y-135481819D02*
X142369887Y-135481819D01*
X142369887Y-135481819D02*
X142274649Y-135434200D01*
X142274649Y-135434200D02*
X142227030Y-135386580D01*
X142227030Y-135386580D02*
X142179411Y-135291342D01*
X142179411Y-135291342D02*
X142179411Y-135196104D01*
X142179411Y-135196104D02*
X142227030Y-135100866D01*
X142227030Y-135100866D02*
X142274649Y-135053247D01*
X142274649Y-135053247D02*
X142369887Y-135005628D01*
X142369887Y-135005628D02*
X142560363Y-134958009D01*
X142560363Y-134958009D02*
X142655601Y-134910390D01*
X142655601Y-134910390D02*
X142703220Y-134862771D01*
X142703220Y-134862771D02*
X142750839Y-134767533D01*
X142750839Y-134767533D02*
X142750839Y-134672295D01*
X142750839Y-134672295D02*
X142703220Y-134577057D01*
X142703220Y-134577057D02*
X142655601Y-134529438D01*
X142655601Y-134529438D02*
X142560363Y-134481819D01*
X142560363Y-134481819D02*
X142322268Y-134481819D01*
X142322268Y-134481819D02*
X142179411Y-134529438D01*
X141846077Y-134481819D02*
X141607982Y-135481819D01*
X141607982Y-135481819D02*
X141417506Y-134767533D01*
X141417506Y-134767533D02*
X141227030Y-135481819D01*
X141227030Y-135481819D02*
X140988935Y-134481819D01*
X140703220Y-134481819D02*
X140036554Y-134481819D01*
X140036554Y-134481819D02*
X140465125Y-135481819D01*
X161800839Y-133097400D02*
X161657982Y-133145019D01*
X161657982Y-133145019D02*
X161419887Y-133145019D01*
X161419887Y-133145019D02*
X161324649Y-133097400D01*
X161324649Y-133097400D02*
X161277030Y-133049780D01*
X161277030Y-133049780D02*
X161229411Y-132954542D01*
X161229411Y-132954542D02*
X161229411Y-132859304D01*
X161229411Y-132859304D02*
X161277030Y-132764066D01*
X161277030Y-132764066D02*
X161324649Y-132716447D01*
X161324649Y-132716447D02*
X161419887Y-132668828D01*
X161419887Y-132668828D02*
X161610363Y-132621209D01*
X161610363Y-132621209D02*
X161705601Y-132573590D01*
X161705601Y-132573590D02*
X161753220Y-132525971D01*
X161753220Y-132525971D02*
X161800839Y-132430733D01*
X161800839Y-132430733D02*
X161800839Y-132335495D01*
X161800839Y-132335495D02*
X161753220Y-132240257D01*
X161753220Y-132240257D02*
X161705601Y-132192638D01*
X161705601Y-132192638D02*
X161610363Y-132145019D01*
X161610363Y-132145019D02*
X161372268Y-132145019D01*
X161372268Y-132145019D02*
X161229411Y-132192638D01*
X160896077Y-132145019D02*
X160657982Y-133145019D01*
X160657982Y-133145019D02*
X160467506Y-132430733D01*
X160467506Y-132430733D02*
X160277030Y-133145019D01*
X160277030Y-133145019D02*
X160038935Y-132145019D01*
X159515125Y-132573590D02*
X159610363Y-132525971D01*
X159610363Y-132525971D02*
X159657982Y-132478352D01*
X159657982Y-132478352D02*
X159705601Y-132383114D01*
X159705601Y-132383114D02*
X159705601Y-132335495D01*
X159705601Y-132335495D02*
X159657982Y-132240257D01*
X159657982Y-132240257D02*
X159610363Y-132192638D01*
X159610363Y-132192638D02*
X159515125Y-132145019D01*
X159515125Y-132145019D02*
X159324649Y-132145019D01*
X159324649Y-132145019D02*
X159229411Y-132192638D01*
X159229411Y-132192638D02*
X159181792Y-132240257D01*
X159181792Y-132240257D02*
X159134173Y-132335495D01*
X159134173Y-132335495D02*
X159134173Y-132383114D01*
X159134173Y-132383114D02*
X159181792Y-132478352D01*
X159181792Y-132478352D02*
X159229411Y-132525971D01*
X159229411Y-132525971D02*
X159324649Y-132573590D01*
X159324649Y-132573590D02*
X159515125Y-132573590D01*
X159515125Y-132573590D02*
X159610363Y-132621209D01*
X159610363Y-132621209D02*
X159657982Y-132668828D01*
X159657982Y-132668828D02*
X159705601Y-132764066D01*
X159705601Y-132764066D02*
X159705601Y-132954542D01*
X159705601Y-132954542D02*
X159657982Y-133049780D01*
X159657982Y-133049780D02*
X159610363Y-133097400D01*
X159610363Y-133097400D02*
X159515125Y-133145019D01*
X159515125Y-133145019D02*
X159324649Y-133145019D01*
X159324649Y-133145019D02*
X159229411Y-133097400D01*
X159229411Y-133097400D02*
X159181792Y-133049780D01*
X159181792Y-133049780D02*
X159134173Y-132954542D01*
X159134173Y-132954542D02*
X159134173Y-132764066D01*
X159134173Y-132764066D02*
X159181792Y-132668828D01*
X159181792Y-132668828D02*
X159229411Y-132621209D01*
X159229411Y-132621209D02*
X159324649Y-132573590D01*
X180850839Y-130735200D02*
X180707982Y-130782819D01*
X180707982Y-130782819D02*
X180469887Y-130782819D01*
X180469887Y-130782819D02*
X180374649Y-130735200D01*
X180374649Y-130735200D02*
X180327030Y-130687580D01*
X180327030Y-130687580D02*
X180279411Y-130592342D01*
X180279411Y-130592342D02*
X180279411Y-130497104D01*
X180279411Y-130497104D02*
X180327030Y-130401866D01*
X180327030Y-130401866D02*
X180374649Y-130354247D01*
X180374649Y-130354247D02*
X180469887Y-130306628D01*
X180469887Y-130306628D02*
X180660363Y-130259009D01*
X180660363Y-130259009D02*
X180755601Y-130211390D01*
X180755601Y-130211390D02*
X180803220Y-130163771D01*
X180803220Y-130163771D02*
X180850839Y-130068533D01*
X180850839Y-130068533D02*
X180850839Y-129973295D01*
X180850839Y-129973295D02*
X180803220Y-129878057D01*
X180803220Y-129878057D02*
X180755601Y-129830438D01*
X180755601Y-129830438D02*
X180660363Y-129782819D01*
X180660363Y-129782819D02*
X180422268Y-129782819D01*
X180422268Y-129782819D02*
X180279411Y-129830438D01*
X179946077Y-129782819D02*
X179707982Y-130782819D01*
X179707982Y-130782819D02*
X179517506Y-130068533D01*
X179517506Y-130068533D02*
X179327030Y-130782819D01*
X179327030Y-130782819D02*
X179088935Y-129782819D01*
X178660363Y-130782819D02*
X178469887Y-130782819D01*
X178469887Y-130782819D02*
X178374649Y-130735200D01*
X178374649Y-130735200D02*
X178327030Y-130687580D01*
X178327030Y-130687580D02*
X178231792Y-130544723D01*
X178231792Y-130544723D02*
X178184173Y-130354247D01*
X178184173Y-130354247D02*
X178184173Y-129973295D01*
X178184173Y-129973295D02*
X178231792Y-129878057D01*
X178231792Y-129878057D02*
X178279411Y-129830438D01*
X178279411Y-129830438D02*
X178374649Y-129782819D01*
X178374649Y-129782819D02*
X178565125Y-129782819D01*
X178565125Y-129782819D02*
X178660363Y-129830438D01*
X178660363Y-129830438D02*
X178707982Y-129878057D01*
X178707982Y-129878057D02*
X178755601Y-129973295D01*
X178755601Y-129973295D02*
X178755601Y-130211390D01*
X178755601Y-130211390D02*
X178707982Y-130306628D01*
X178707982Y-130306628D02*
X178660363Y-130354247D01*
X178660363Y-130354247D02*
X178565125Y-130401866D01*
X178565125Y-130401866D02*
X178374649Y-130401866D01*
X178374649Y-130401866D02*
X178279411Y-130354247D01*
X178279411Y-130354247D02*
X178231792Y-130306628D01*
X178231792Y-130306628D02*
X178184173Y-130211390D01*
X199900839Y-133148200D02*
X199757982Y-133195819D01*
X199757982Y-133195819D02*
X199519887Y-133195819D01*
X199519887Y-133195819D02*
X199424649Y-133148200D01*
X199424649Y-133148200D02*
X199377030Y-133100580D01*
X199377030Y-133100580D02*
X199329411Y-133005342D01*
X199329411Y-133005342D02*
X199329411Y-132910104D01*
X199329411Y-132910104D02*
X199377030Y-132814866D01*
X199377030Y-132814866D02*
X199424649Y-132767247D01*
X199424649Y-132767247D02*
X199519887Y-132719628D01*
X199519887Y-132719628D02*
X199710363Y-132672009D01*
X199710363Y-132672009D02*
X199805601Y-132624390D01*
X199805601Y-132624390D02*
X199853220Y-132576771D01*
X199853220Y-132576771D02*
X199900839Y-132481533D01*
X199900839Y-132481533D02*
X199900839Y-132386295D01*
X199900839Y-132386295D02*
X199853220Y-132291057D01*
X199853220Y-132291057D02*
X199805601Y-132243438D01*
X199805601Y-132243438D02*
X199710363Y-132195819D01*
X199710363Y-132195819D02*
X199472268Y-132195819D01*
X199472268Y-132195819D02*
X199329411Y-132243438D01*
X198996077Y-132195819D02*
X198757982Y-133195819D01*
X198757982Y-133195819D02*
X198567506Y-132481533D01*
X198567506Y-132481533D02*
X198377030Y-133195819D01*
X198377030Y-133195819D02*
X198138935Y-132195819D01*
X197234173Y-133195819D02*
X197805601Y-133195819D01*
X197519887Y-133195819D02*
X197519887Y-132195819D01*
X197519887Y-132195819D02*
X197615125Y-132338676D01*
X197615125Y-132338676D02*
X197710363Y-132433914D01*
X197710363Y-132433914D02*
X197805601Y-132481533D01*
X196615125Y-132195819D02*
X196519887Y-132195819D01*
X196519887Y-132195819D02*
X196424649Y-132243438D01*
X196424649Y-132243438D02*
X196377030Y-132291057D01*
X196377030Y-132291057D02*
X196329411Y-132386295D01*
X196329411Y-132386295D02*
X196281792Y-132576771D01*
X196281792Y-132576771D02*
X196281792Y-132814866D01*
X196281792Y-132814866D02*
X196329411Y-133005342D01*
X196329411Y-133005342D02*
X196377030Y-133100580D01*
X196377030Y-133100580D02*
X196424649Y-133148200D01*
X196424649Y-133148200D02*
X196519887Y-133195819D01*
X196519887Y-133195819D02*
X196615125Y-133195819D01*
X196615125Y-133195819D02*
X196710363Y-133148200D01*
X196710363Y-133148200D02*
X196757982Y-133100580D01*
X196757982Y-133100580D02*
X196805601Y-133005342D01*
X196805601Y-133005342D02*
X196853220Y-132814866D01*
X196853220Y-132814866D02*
X196853220Y-132576771D01*
X196853220Y-132576771D02*
X196805601Y-132386295D01*
X196805601Y-132386295D02*
X196757982Y-132291057D01*
X196757982Y-132291057D02*
X196710363Y-132243438D01*
X196710363Y-132243438D02*
X196615125Y-132195819D01*
X218950839Y-137847200D02*
X218807982Y-137894819D01*
X218807982Y-137894819D02*
X218569887Y-137894819D01*
X218569887Y-137894819D02*
X218474649Y-137847200D01*
X218474649Y-137847200D02*
X218427030Y-137799580D01*
X218427030Y-137799580D02*
X218379411Y-137704342D01*
X218379411Y-137704342D02*
X218379411Y-137609104D01*
X218379411Y-137609104D02*
X218427030Y-137513866D01*
X218427030Y-137513866D02*
X218474649Y-137466247D01*
X218474649Y-137466247D02*
X218569887Y-137418628D01*
X218569887Y-137418628D02*
X218760363Y-137371009D01*
X218760363Y-137371009D02*
X218855601Y-137323390D01*
X218855601Y-137323390D02*
X218903220Y-137275771D01*
X218903220Y-137275771D02*
X218950839Y-137180533D01*
X218950839Y-137180533D02*
X218950839Y-137085295D01*
X218950839Y-137085295D02*
X218903220Y-136990057D01*
X218903220Y-136990057D02*
X218855601Y-136942438D01*
X218855601Y-136942438D02*
X218760363Y-136894819D01*
X218760363Y-136894819D02*
X218522268Y-136894819D01*
X218522268Y-136894819D02*
X218379411Y-136942438D01*
X218046077Y-136894819D02*
X217807982Y-137894819D01*
X217807982Y-137894819D02*
X217617506Y-137180533D01*
X217617506Y-137180533D02*
X217427030Y-137894819D01*
X217427030Y-137894819D02*
X217188935Y-136894819D01*
X216284173Y-137894819D02*
X216855601Y-137894819D01*
X216569887Y-137894819D02*
X216569887Y-136894819D01*
X216569887Y-136894819D02*
X216665125Y-137037676D01*
X216665125Y-137037676D02*
X216760363Y-137132914D01*
X216760363Y-137132914D02*
X216855601Y-137180533D01*
X215331792Y-137894819D02*
X215903220Y-137894819D01*
X215617506Y-137894819D02*
X215617506Y-136894819D01*
X215617506Y-136894819D02*
X215712744Y-137037676D01*
X215712744Y-137037676D02*
X215807982Y-137132914D01*
X215807982Y-137132914D02*
X215903220Y-137180533D01*
X238000839Y-137847200D02*
X237857982Y-137894819D01*
X237857982Y-137894819D02*
X237619887Y-137894819D01*
X237619887Y-137894819D02*
X237524649Y-137847200D01*
X237524649Y-137847200D02*
X237477030Y-137799580D01*
X237477030Y-137799580D02*
X237429411Y-137704342D01*
X237429411Y-137704342D02*
X237429411Y-137609104D01*
X237429411Y-137609104D02*
X237477030Y-137513866D01*
X237477030Y-137513866D02*
X237524649Y-137466247D01*
X237524649Y-137466247D02*
X237619887Y-137418628D01*
X237619887Y-137418628D02*
X237810363Y-137371009D01*
X237810363Y-137371009D02*
X237905601Y-137323390D01*
X237905601Y-137323390D02*
X237953220Y-137275771D01*
X237953220Y-137275771D02*
X238000839Y-137180533D01*
X238000839Y-137180533D02*
X238000839Y-137085295D01*
X238000839Y-137085295D02*
X237953220Y-136990057D01*
X237953220Y-136990057D02*
X237905601Y-136942438D01*
X237905601Y-136942438D02*
X237810363Y-136894819D01*
X237810363Y-136894819D02*
X237572268Y-136894819D01*
X237572268Y-136894819D02*
X237429411Y-136942438D01*
X237096077Y-136894819D02*
X236857982Y-137894819D01*
X236857982Y-137894819D02*
X236667506Y-137180533D01*
X236667506Y-137180533D02*
X236477030Y-137894819D01*
X236477030Y-137894819D02*
X236238935Y-136894819D01*
X235334173Y-137894819D02*
X235905601Y-137894819D01*
X235619887Y-137894819D02*
X235619887Y-136894819D01*
X235619887Y-136894819D02*
X235715125Y-137037676D01*
X235715125Y-137037676D02*
X235810363Y-137132914D01*
X235810363Y-137132914D02*
X235905601Y-137180533D01*
X234953220Y-136990057D02*
X234905601Y-136942438D01*
X234905601Y-136942438D02*
X234810363Y-136894819D01*
X234810363Y-136894819D02*
X234572268Y-136894819D01*
X234572268Y-136894819D02*
X234477030Y-136942438D01*
X234477030Y-136942438D02*
X234429411Y-136990057D01*
X234429411Y-136990057D02*
X234381792Y-137085295D01*
X234381792Y-137085295D02*
X234381792Y-137180533D01*
X234381792Y-137180533D02*
X234429411Y-137323390D01*
X234429411Y-137323390D02*
X235000839Y-137894819D01*
X235000839Y-137894819D02*
X234381792Y-137894819D01*
X142750839Y-154484200D02*
X142607982Y-154531819D01*
X142607982Y-154531819D02*
X142369887Y-154531819D01*
X142369887Y-154531819D02*
X142274649Y-154484200D01*
X142274649Y-154484200D02*
X142227030Y-154436580D01*
X142227030Y-154436580D02*
X142179411Y-154341342D01*
X142179411Y-154341342D02*
X142179411Y-154246104D01*
X142179411Y-154246104D02*
X142227030Y-154150866D01*
X142227030Y-154150866D02*
X142274649Y-154103247D01*
X142274649Y-154103247D02*
X142369887Y-154055628D01*
X142369887Y-154055628D02*
X142560363Y-154008009D01*
X142560363Y-154008009D02*
X142655601Y-153960390D01*
X142655601Y-153960390D02*
X142703220Y-153912771D01*
X142703220Y-153912771D02*
X142750839Y-153817533D01*
X142750839Y-153817533D02*
X142750839Y-153722295D01*
X142750839Y-153722295D02*
X142703220Y-153627057D01*
X142703220Y-153627057D02*
X142655601Y-153579438D01*
X142655601Y-153579438D02*
X142560363Y-153531819D01*
X142560363Y-153531819D02*
X142322268Y-153531819D01*
X142322268Y-153531819D02*
X142179411Y-153579438D01*
X141846077Y-153531819D02*
X141607982Y-154531819D01*
X141607982Y-154531819D02*
X141417506Y-153817533D01*
X141417506Y-153817533D02*
X141227030Y-154531819D01*
X141227030Y-154531819D02*
X140988935Y-153531819D01*
X140084173Y-154531819D02*
X140655601Y-154531819D01*
X140369887Y-154531819D02*
X140369887Y-153531819D01*
X140369887Y-153531819D02*
X140465125Y-153674676D01*
X140465125Y-153674676D02*
X140560363Y-153769914D01*
X140560363Y-153769914D02*
X140655601Y-153817533D01*
X139750839Y-153531819D02*
X139131792Y-153531819D01*
X139131792Y-153531819D02*
X139465125Y-153912771D01*
X139465125Y-153912771D02*
X139322268Y-153912771D01*
X139322268Y-153912771D02*
X139227030Y-153960390D01*
X139227030Y-153960390D02*
X139179411Y-154008009D01*
X139179411Y-154008009D02*
X139131792Y-154103247D01*
X139131792Y-154103247D02*
X139131792Y-154341342D01*
X139131792Y-154341342D02*
X139179411Y-154436580D01*
X139179411Y-154436580D02*
X139227030Y-154484200D01*
X139227030Y-154484200D02*
X139322268Y-154531819D01*
X139322268Y-154531819D02*
X139607982Y-154531819D01*
X139607982Y-154531819D02*
X139703220Y-154484200D01*
X139703220Y-154484200D02*
X139750839Y-154436580D01*
X161800839Y-152132200D02*
X161657982Y-152179819D01*
X161657982Y-152179819D02*
X161419887Y-152179819D01*
X161419887Y-152179819D02*
X161324649Y-152132200D01*
X161324649Y-152132200D02*
X161277030Y-152084580D01*
X161277030Y-152084580D02*
X161229411Y-151989342D01*
X161229411Y-151989342D02*
X161229411Y-151894104D01*
X161229411Y-151894104D02*
X161277030Y-151798866D01*
X161277030Y-151798866D02*
X161324649Y-151751247D01*
X161324649Y-151751247D02*
X161419887Y-151703628D01*
X161419887Y-151703628D02*
X161610363Y-151656009D01*
X161610363Y-151656009D02*
X161705601Y-151608390D01*
X161705601Y-151608390D02*
X161753220Y-151560771D01*
X161753220Y-151560771D02*
X161800839Y-151465533D01*
X161800839Y-151465533D02*
X161800839Y-151370295D01*
X161800839Y-151370295D02*
X161753220Y-151275057D01*
X161753220Y-151275057D02*
X161705601Y-151227438D01*
X161705601Y-151227438D02*
X161610363Y-151179819D01*
X161610363Y-151179819D02*
X161372268Y-151179819D01*
X161372268Y-151179819D02*
X161229411Y-151227438D01*
X160896077Y-151179819D02*
X160657982Y-152179819D01*
X160657982Y-152179819D02*
X160467506Y-151465533D01*
X160467506Y-151465533D02*
X160277030Y-152179819D01*
X160277030Y-152179819D02*
X160038935Y-151179819D01*
X159134173Y-152179819D02*
X159705601Y-152179819D01*
X159419887Y-152179819D02*
X159419887Y-151179819D01*
X159419887Y-151179819D02*
X159515125Y-151322676D01*
X159515125Y-151322676D02*
X159610363Y-151417914D01*
X159610363Y-151417914D02*
X159705601Y-151465533D01*
X158277030Y-151513152D02*
X158277030Y-152179819D01*
X158515125Y-151132200D02*
X158753220Y-151846485D01*
X158753220Y-151846485D02*
X158134173Y-151846485D01*
X180850839Y-149747200D02*
X180707982Y-149794819D01*
X180707982Y-149794819D02*
X180469887Y-149794819D01*
X180469887Y-149794819D02*
X180374649Y-149747200D01*
X180374649Y-149747200D02*
X180327030Y-149699580D01*
X180327030Y-149699580D02*
X180279411Y-149604342D01*
X180279411Y-149604342D02*
X180279411Y-149509104D01*
X180279411Y-149509104D02*
X180327030Y-149413866D01*
X180327030Y-149413866D02*
X180374649Y-149366247D01*
X180374649Y-149366247D02*
X180469887Y-149318628D01*
X180469887Y-149318628D02*
X180660363Y-149271009D01*
X180660363Y-149271009D02*
X180755601Y-149223390D01*
X180755601Y-149223390D02*
X180803220Y-149175771D01*
X180803220Y-149175771D02*
X180850839Y-149080533D01*
X180850839Y-149080533D02*
X180850839Y-148985295D01*
X180850839Y-148985295D02*
X180803220Y-148890057D01*
X180803220Y-148890057D02*
X180755601Y-148842438D01*
X180755601Y-148842438D02*
X180660363Y-148794819D01*
X180660363Y-148794819D02*
X180422268Y-148794819D01*
X180422268Y-148794819D02*
X180279411Y-148842438D01*
X179946077Y-148794819D02*
X179707982Y-149794819D01*
X179707982Y-149794819D02*
X179517506Y-149080533D01*
X179517506Y-149080533D02*
X179327030Y-149794819D01*
X179327030Y-149794819D02*
X179088935Y-148794819D01*
X178184173Y-149794819D02*
X178755601Y-149794819D01*
X178469887Y-149794819D02*
X178469887Y-148794819D01*
X178469887Y-148794819D02*
X178565125Y-148937676D01*
X178565125Y-148937676D02*
X178660363Y-149032914D01*
X178660363Y-149032914D02*
X178755601Y-149080533D01*
X177279411Y-148794819D02*
X177755601Y-148794819D01*
X177755601Y-148794819D02*
X177803220Y-149271009D01*
X177803220Y-149271009D02*
X177755601Y-149223390D01*
X177755601Y-149223390D02*
X177660363Y-149175771D01*
X177660363Y-149175771D02*
X177422268Y-149175771D01*
X177422268Y-149175771D02*
X177327030Y-149223390D01*
X177327030Y-149223390D02*
X177279411Y-149271009D01*
X177279411Y-149271009D02*
X177231792Y-149366247D01*
X177231792Y-149366247D02*
X177231792Y-149604342D01*
X177231792Y-149604342D02*
X177279411Y-149699580D01*
X177279411Y-149699580D02*
X177327030Y-149747200D01*
X177327030Y-149747200D02*
X177422268Y-149794819D01*
X177422268Y-149794819D02*
X177660363Y-149794819D01*
X177660363Y-149794819D02*
X177755601Y-149747200D01*
X177755601Y-149747200D02*
X177803220Y-149699580D01*
X199900839Y-152132200D02*
X199757982Y-152179819D01*
X199757982Y-152179819D02*
X199519887Y-152179819D01*
X199519887Y-152179819D02*
X199424649Y-152132200D01*
X199424649Y-152132200D02*
X199377030Y-152084580D01*
X199377030Y-152084580D02*
X199329411Y-151989342D01*
X199329411Y-151989342D02*
X199329411Y-151894104D01*
X199329411Y-151894104D02*
X199377030Y-151798866D01*
X199377030Y-151798866D02*
X199424649Y-151751247D01*
X199424649Y-151751247D02*
X199519887Y-151703628D01*
X199519887Y-151703628D02*
X199710363Y-151656009D01*
X199710363Y-151656009D02*
X199805601Y-151608390D01*
X199805601Y-151608390D02*
X199853220Y-151560771D01*
X199853220Y-151560771D02*
X199900839Y-151465533D01*
X199900839Y-151465533D02*
X199900839Y-151370295D01*
X199900839Y-151370295D02*
X199853220Y-151275057D01*
X199853220Y-151275057D02*
X199805601Y-151227438D01*
X199805601Y-151227438D02*
X199710363Y-151179819D01*
X199710363Y-151179819D02*
X199472268Y-151179819D01*
X199472268Y-151179819D02*
X199329411Y-151227438D01*
X198996077Y-151179819D02*
X198757982Y-152179819D01*
X198757982Y-152179819D02*
X198567506Y-151465533D01*
X198567506Y-151465533D02*
X198377030Y-152179819D01*
X198377030Y-152179819D02*
X198138935Y-151179819D01*
X197234173Y-152179819D02*
X197805601Y-152179819D01*
X197519887Y-152179819D02*
X197519887Y-151179819D01*
X197519887Y-151179819D02*
X197615125Y-151322676D01*
X197615125Y-151322676D02*
X197710363Y-151417914D01*
X197710363Y-151417914D02*
X197805601Y-151465533D01*
X196377030Y-151179819D02*
X196567506Y-151179819D01*
X196567506Y-151179819D02*
X196662744Y-151227438D01*
X196662744Y-151227438D02*
X196710363Y-151275057D01*
X196710363Y-151275057D02*
X196805601Y-151417914D01*
X196805601Y-151417914D02*
X196853220Y-151608390D01*
X196853220Y-151608390D02*
X196853220Y-151989342D01*
X196853220Y-151989342D02*
X196805601Y-152084580D01*
X196805601Y-152084580D02*
X196757982Y-152132200D01*
X196757982Y-152132200D02*
X196662744Y-152179819D01*
X196662744Y-152179819D02*
X196472268Y-152179819D01*
X196472268Y-152179819D02*
X196377030Y-152132200D01*
X196377030Y-152132200D02*
X196329411Y-152084580D01*
X196329411Y-152084580D02*
X196281792Y-151989342D01*
X196281792Y-151989342D02*
X196281792Y-151751247D01*
X196281792Y-151751247D02*
X196329411Y-151656009D01*
X196329411Y-151656009D02*
X196377030Y-151608390D01*
X196377030Y-151608390D02*
X196472268Y-151560771D01*
X196472268Y-151560771D02*
X196662744Y-151560771D01*
X196662744Y-151560771D02*
X196757982Y-151608390D01*
X196757982Y-151608390D02*
X196805601Y-151656009D01*
X196805601Y-151656009D02*
X196853220Y-151751247D01*
X218950839Y-156897200D02*
X218807982Y-156944819D01*
X218807982Y-156944819D02*
X218569887Y-156944819D01*
X218569887Y-156944819D02*
X218474649Y-156897200D01*
X218474649Y-156897200D02*
X218427030Y-156849580D01*
X218427030Y-156849580D02*
X218379411Y-156754342D01*
X218379411Y-156754342D02*
X218379411Y-156659104D01*
X218379411Y-156659104D02*
X218427030Y-156563866D01*
X218427030Y-156563866D02*
X218474649Y-156516247D01*
X218474649Y-156516247D02*
X218569887Y-156468628D01*
X218569887Y-156468628D02*
X218760363Y-156421009D01*
X218760363Y-156421009D02*
X218855601Y-156373390D01*
X218855601Y-156373390D02*
X218903220Y-156325771D01*
X218903220Y-156325771D02*
X218950839Y-156230533D01*
X218950839Y-156230533D02*
X218950839Y-156135295D01*
X218950839Y-156135295D02*
X218903220Y-156040057D01*
X218903220Y-156040057D02*
X218855601Y-155992438D01*
X218855601Y-155992438D02*
X218760363Y-155944819D01*
X218760363Y-155944819D02*
X218522268Y-155944819D01*
X218522268Y-155944819D02*
X218379411Y-155992438D01*
X218046077Y-155944819D02*
X217807982Y-156944819D01*
X217807982Y-156944819D02*
X217617506Y-156230533D01*
X217617506Y-156230533D02*
X217427030Y-156944819D01*
X217427030Y-156944819D02*
X217188935Y-155944819D01*
X216284173Y-156944819D02*
X216855601Y-156944819D01*
X216569887Y-156944819D02*
X216569887Y-155944819D01*
X216569887Y-155944819D02*
X216665125Y-156087676D01*
X216665125Y-156087676D02*
X216760363Y-156182914D01*
X216760363Y-156182914D02*
X216855601Y-156230533D01*
X215950839Y-155944819D02*
X215284173Y-155944819D01*
X215284173Y-155944819D02*
X215712744Y-156944819D01*
X238000839Y-156897200D02*
X237857982Y-156944819D01*
X237857982Y-156944819D02*
X237619887Y-156944819D01*
X237619887Y-156944819D02*
X237524649Y-156897200D01*
X237524649Y-156897200D02*
X237477030Y-156849580D01*
X237477030Y-156849580D02*
X237429411Y-156754342D01*
X237429411Y-156754342D02*
X237429411Y-156659104D01*
X237429411Y-156659104D02*
X237477030Y-156563866D01*
X237477030Y-156563866D02*
X237524649Y-156516247D01*
X237524649Y-156516247D02*
X237619887Y-156468628D01*
X237619887Y-156468628D02*
X237810363Y-156421009D01*
X237810363Y-156421009D02*
X237905601Y-156373390D01*
X237905601Y-156373390D02*
X237953220Y-156325771D01*
X237953220Y-156325771D02*
X238000839Y-156230533D01*
X238000839Y-156230533D02*
X238000839Y-156135295D01*
X238000839Y-156135295D02*
X237953220Y-156040057D01*
X237953220Y-156040057D02*
X237905601Y-155992438D01*
X237905601Y-155992438D02*
X237810363Y-155944819D01*
X237810363Y-155944819D02*
X237572268Y-155944819D01*
X237572268Y-155944819D02*
X237429411Y-155992438D01*
X237096077Y-155944819D02*
X236857982Y-156944819D01*
X236857982Y-156944819D02*
X236667506Y-156230533D01*
X236667506Y-156230533D02*
X236477030Y-156944819D01*
X236477030Y-156944819D02*
X236238935Y-155944819D01*
X235334173Y-156944819D02*
X235905601Y-156944819D01*
X235619887Y-156944819D02*
X235619887Y-155944819D01*
X235619887Y-155944819D02*
X235715125Y-156087676D01*
X235715125Y-156087676D02*
X235810363Y-156182914D01*
X235810363Y-156182914D02*
X235905601Y-156230533D01*
X234762744Y-156373390D02*
X234857982Y-156325771D01*
X234857982Y-156325771D02*
X234905601Y-156278152D01*
X234905601Y-156278152D02*
X234953220Y-156182914D01*
X234953220Y-156182914D02*
X234953220Y-156135295D01*
X234953220Y-156135295D02*
X234905601Y-156040057D01*
X234905601Y-156040057D02*
X234857982Y-155992438D01*
X234857982Y-155992438D02*
X234762744Y-155944819D01*
X234762744Y-155944819D02*
X234572268Y-155944819D01*
X234572268Y-155944819D02*
X234477030Y-155992438D01*
X234477030Y-155992438D02*
X234429411Y-156040057D01*
X234429411Y-156040057D02*
X234381792Y-156135295D01*
X234381792Y-156135295D02*
X234381792Y-156182914D01*
X234381792Y-156182914D02*
X234429411Y-156278152D01*
X234429411Y-156278152D02*
X234477030Y-156325771D01*
X234477030Y-156325771D02*
X234572268Y-156373390D01*
X234572268Y-156373390D02*
X234762744Y-156373390D01*
X234762744Y-156373390D02*
X234857982Y-156421009D01*
X234857982Y-156421009D02*
X234905601Y-156468628D01*
X234905601Y-156468628D02*
X234953220Y-156563866D01*
X234953220Y-156563866D02*
X234953220Y-156754342D01*
X234953220Y-156754342D02*
X234905601Y-156849580D01*
X234905601Y-156849580D02*
X234857982Y-156897200D01*
X234857982Y-156897200D02*
X234762744Y-156944819D01*
X234762744Y-156944819D02*
X234572268Y-156944819D01*
X234572268Y-156944819D02*
X234477030Y-156897200D01*
X234477030Y-156897200D02*
X234429411Y-156849580D01*
X234429411Y-156849580D02*
X234381792Y-156754342D01*
X234381792Y-156754342D02*
X234381792Y-156563866D01*
X234381792Y-156563866D02*
X234429411Y-156468628D01*
X234429411Y-156468628D02*
X234477030Y-156421009D01*
X234477030Y-156421009D02*
X234572268Y-156373390D01*
X142750839Y-173563200D02*
X142607982Y-173610819D01*
X142607982Y-173610819D02*
X142369887Y-173610819D01*
X142369887Y-173610819D02*
X142274649Y-173563200D01*
X142274649Y-173563200D02*
X142227030Y-173515580D01*
X142227030Y-173515580D02*
X142179411Y-173420342D01*
X142179411Y-173420342D02*
X142179411Y-173325104D01*
X142179411Y-173325104D02*
X142227030Y-173229866D01*
X142227030Y-173229866D02*
X142274649Y-173182247D01*
X142274649Y-173182247D02*
X142369887Y-173134628D01*
X142369887Y-173134628D02*
X142560363Y-173087009D01*
X142560363Y-173087009D02*
X142655601Y-173039390D01*
X142655601Y-173039390D02*
X142703220Y-172991771D01*
X142703220Y-172991771D02*
X142750839Y-172896533D01*
X142750839Y-172896533D02*
X142750839Y-172801295D01*
X142750839Y-172801295D02*
X142703220Y-172706057D01*
X142703220Y-172706057D02*
X142655601Y-172658438D01*
X142655601Y-172658438D02*
X142560363Y-172610819D01*
X142560363Y-172610819D02*
X142322268Y-172610819D01*
X142322268Y-172610819D02*
X142179411Y-172658438D01*
X141846077Y-172610819D02*
X141607982Y-173610819D01*
X141607982Y-173610819D02*
X141417506Y-172896533D01*
X141417506Y-172896533D02*
X141227030Y-173610819D01*
X141227030Y-173610819D02*
X140988935Y-172610819D01*
X140084173Y-173610819D02*
X140655601Y-173610819D01*
X140369887Y-173610819D02*
X140369887Y-172610819D01*
X140369887Y-172610819D02*
X140465125Y-172753676D01*
X140465125Y-172753676D02*
X140560363Y-172848914D01*
X140560363Y-172848914D02*
X140655601Y-172896533D01*
X139607982Y-173610819D02*
X139417506Y-173610819D01*
X139417506Y-173610819D02*
X139322268Y-173563200D01*
X139322268Y-173563200D02*
X139274649Y-173515580D01*
X139274649Y-173515580D02*
X139179411Y-173372723D01*
X139179411Y-173372723D02*
X139131792Y-173182247D01*
X139131792Y-173182247D02*
X139131792Y-172801295D01*
X139131792Y-172801295D02*
X139179411Y-172706057D01*
X139179411Y-172706057D02*
X139227030Y-172658438D01*
X139227030Y-172658438D02*
X139322268Y-172610819D01*
X139322268Y-172610819D02*
X139512744Y-172610819D01*
X139512744Y-172610819D02*
X139607982Y-172658438D01*
X139607982Y-172658438D02*
X139655601Y-172706057D01*
X139655601Y-172706057D02*
X139703220Y-172801295D01*
X139703220Y-172801295D02*
X139703220Y-173039390D01*
X139703220Y-173039390D02*
X139655601Y-173134628D01*
X139655601Y-173134628D02*
X139607982Y-173182247D01*
X139607982Y-173182247D02*
X139512744Y-173229866D01*
X139512744Y-173229866D02*
X139322268Y-173229866D01*
X139322268Y-173229866D02*
X139227030Y-173182247D01*
X139227030Y-173182247D02*
X139179411Y-173134628D01*
X139179411Y-173134628D02*
X139131792Y-173039390D01*
X161800839Y-171182200D02*
X161657982Y-171229819D01*
X161657982Y-171229819D02*
X161419887Y-171229819D01*
X161419887Y-171229819D02*
X161324649Y-171182200D01*
X161324649Y-171182200D02*
X161277030Y-171134580D01*
X161277030Y-171134580D02*
X161229411Y-171039342D01*
X161229411Y-171039342D02*
X161229411Y-170944104D01*
X161229411Y-170944104D02*
X161277030Y-170848866D01*
X161277030Y-170848866D02*
X161324649Y-170801247D01*
X161324649Y-170801247D02*
X161419887Y-170753628D01*
X161419887Y-170753628D02*
X161610363Y-170706009D01*
X161610363Y-170706009D02*
X161705601Y-170658390D01*
X161705601Y-170658390D02*
X161753220Y-170610771D01*
X161753220Y-170610771D02*
X161800839Y-170515533D01*
X161800839Y-170515533D02*
X161800839Y-170420295D01*
X161800839Y-170420295D02*
X161753220Y-170325057D01*
X161753220Y-170325057D02*
X161705601Y-170277438D01*
X161705601Y-170277438D02*
X161610363Y-170229819D01*
X161610363Y-170229819D02*
X161372268Y-170229819D01*
X161372268Y-170229819D02*
X161229411Y-170277438D01*
X160896077Y-170229819D02*
X160657982Y-171229819D01*
X160657982Y-171229819D02*
X160467506Y-170515533D01*
X160467506Y-170515533D02*
X160277030Y-171229819D01*
X160277030Y-171229819D02*
X160038935Y-170229819D01*
X159705601Y-170325057D02*
X159657982Y-170277438D01*
X159657982Y-170277438D02*
X159562744Y-170229819D01*
X159562744Y-170229819D02*
X159324649Y-170229819D01*
X159324649Y-170229819D02*
X159229411Y-170277438D01*
X159229411Y-170277438D02*
X159181792Y-170325057D01*
X159181792Y-170325057D02*
X159134173Y-170420295D01*
X159134173Y-170420295D02*
X159134173Y-170515533D01*
X159134173Y-170515533D02*
X159181792Y-170658390D01*
X159181792Y-170658390D02*
X159753220Y-171229819D01*
X159753220Y-171229819D02*
X159134173Y-171229819D01*
X158515125Y-170229819D02*
X158419887Y-170229819D01*
X158419887Y-170229819D02*
X158324649Y-170277438D01*
X158324649Y-170277438D02*
X158277030Y-170325057D01*
X158277030Y-170325057D02*
X158229411Y-170420295D01*
X158229411Y-170420295D02*
X158181792Y-170610771D01*
X158181792Y-170610771D02*
X158181792Y-170848866D01*
X158181792Y-170848866D02*
X158229411Y-171039342D01*
X158229411Y-171039342D02*
X158277030Y-171134580D01*
X158277030Y-171134580D02*
X158324649Y-171182200D01*
X158324649Y-171182200D02*
X158419887Y-171229819D01*
X158419887Y-171229819D02*
X158515125Y-171229819D01*
X158515125Y-171229819D02*
X158610363Y-171182200D01*
X158610363Y-171182200D02*
X158657982Y-171134580D01*
X158657982Y-171134580D02*
X158705601Y-171039342D01*
X158705601Y-171039342D02*
X158753220Y-170848866D01*
X158753220Y-170848866D02*
X158753220Y-170610771D01*
X158753220Y-170610771D02*
X158705601Y-170420295D01*
X158705601Y-170420295D02*
X158657982Y-170325057D01*
X158657982Y-170325057D02*
X158610363Y-170277438D01*
X158610363Y-170277438D02*
X158515125Y-170229819D01*
X180850839Y-168797200D02*
X180707982Y-168844819D01*
X180707982Y-168844819D02*
X180469887Y-168844819D01*
X180469887Y-168844819D02*
X180374649Y-168797200D01*
X180374649Y-168797200D02*
X180327030Y-168749580D01*
X180327030Y-168749580D02*
X180279411Y-168654342D01*
X180279411Y-168654342D02*
X180279411Y-168559104D01*
X180279411Y-168559104D02*
X180327030Y-168463866D01*
X180327030Y-168463866D02*
X180374649Y-168416247D01*
X180374649Y-168416247D02*
X180469887Y-168368628D01*
X180469887Y-168368628D02*
X180660363Y-168321009D01*
X180660363Y-168321009D02*
X180755601Y-168273390D01*
X180755601Y-168273390D02*
X180803220Y-168225771D01*
X180803220Y-168225771D02*
X180850839Y-168130533D01*
X180850839Y-168130533D02*
X180850839Y-168035295D01*
X180850839Y-168035295D02*
X180803220Y-167940057D01*
X180803220Y-167940057D02*
X180755601Y-167892438D01*
X180755601Y-167892438D02*
X180660363Y-167844819D01*
X180660363Y-167844819D02*
X180422268Y-167844819D01*
X180422268Y-167844819D02*
X180279411Y-167892438D01*
X179946077Y-167844819D02*
X179707982Y-168844819D01*
X179707982Y-168844819D02*
X179517506Y-168130533D01*
X179517506Y-168130533D02*
X179327030Y-168844819D01*
X179327030Y-168844819D02*
X179088935Y-167844819D01*
X178755601Y-167940057D02*
X178707982Y-167892438D01*
X178707982Y-167892438D02*
X178612744Y-167844819D01*
X178612744Y-167844819D02*
X178374649Y-167844819D01*
X178374649Y-167844819D02*
X178279411Y-167892438D01*
X178279411Y-167892438D02*
X178231792Y-167940057D01*
X178231792Y-167940057D02*
X178184173Y-168035295D01*
X178184173Y-168035295D02*
X178184173Y-168130533D01*
X178184173Y-168130533D02*
X178231792Y-168273390D01*
X178231792Y-168273390D02*
X178803220Y-168844819D01*
X178803220Y-168844819D02*
X178184173Y-168844819D01*
X177231792Y-168844819D02*
X177803220Y-168844819D01*
X177517506Y-168844819D02*
X177517506Y-167844819D01*
X177517506Y-167844819D02*
X177612744Y-167987676D01*
X177612744Y-167987676D02*
X177707982Y-168082914D01*
X177707982Y-168082914D02*
X177803220Y-168130533D01*
X199900839Y-171182200D02*
X199757982Y-171229819D01*
X199757982Y-171229819D02*
X199519887Y-171229819D01*
X199519887Y-171229819D02*
X199424649Y-171182200D01*
X199424649Y-171182200D02*
X199377030Y-171134580D01*
X199377030Y-171134580D02*
X199329411Y-171039342D01*
X199329411Y-171039342D02*
X199329411Y-170944104D01*
X199329411Y-170944104D02*
X199377030Y-170848866D01*
X199377030Y-170848866D02*
X199424649Y-170801247D01*
X199424649Y-170801247D02*
X199519887Y-170753628D01*
X199519887Y-170753628D02*
X199710363Y-170706009D01*
X199710363Y-170706009D02*
X199805601Y-170658390D01*
X199805601Y-170658390D02*
X199853220Y-170610771D01*
X199853220Y-170610771D02*
X199900839Y-170515533D01*
X199900839Y-170515533D02*
X199900839Y-170420295D01*
X199900839Y-170420295D02*
X199853220Y-170325057D01*
X199853220Y-170325057D02*
X199805601Y-170277438D01*
X199805601Y-170277438D02*
X199710363Y-170229819D01*
X199710363Y-170229819D02*
X199472268Y-170229819D01*
X199472268Y-170229819D02*
X199329411Y-170277438D01*
X198996077Y-170229819D02*
X198757982Y-171229819D01*
X198757982Y-171229819D02*
X198567506Y-170515533D01*
X198567506Y-170515533D02*
X198377030Y-171229819D01*
X198377030Y-171229819D02*
X198138935Y-170229819D01*
X197805601Y-170325057D02*
X197757982Y-170277438D01*
X197757982Y-170277438D02*
X197662744Y-170229819D01*
X197662744Y-170229819D02*
X197424649Y-170229819D01*
X197424649Y-170229819D02*
X197329411Y-170277438D01*
X197329411Y-170277438D02*
X197281792Y-170325057D01*
X197281792Y-170325057D02*
X197234173Y-170420295D01*
X197234173Y-170420295D02*
X197234173Y-170515533D01*
X197234173Y-170515533D02*
X197281792Y-170658390D01*
X197281792Y-170658390D02*
X197853220Y-171229819D01*
X197853220Y-171229819D02*
X197234173Y-171229819D01*
X196853220Y-170325057D02*
X196805601Y-170277438D01*
X196805601Y-170277438D02*
X196710363Y-170229819D01*
X196710363Y-170229819D02*
X196472268Y-170229819D01*
X196472268Y-170229819D02*
X196377030Y-170277438D01*
X196377030Y-170277438D02*
X196329411Y-170325057D01*
X196329411Y-170325057D02*
X196281792Y-170420295D01*
X196281792Y-170420295D02*
X196281792Y-170515533D01*
X196281792Y-170515533D02*
X196329411Y-170658390D01*
X196329411Y-170658390D02*
X196900839Y-171229819D01*
X196900839Y-171229819D02*
X196281792Y-171229819D01*
X218950839Y-175947200D02*
X218807982Y-175994819D01*
X218807982Y-175994819D02*
X218569887Y-175994819D01*
X218569887Y-175994819D02*
X218474649Y-175947200D01*
X218474649Y-175947200D02*
X218427030Y-175899580D01*
X218427030Y-175899580D02*
X218379411Y-175804342D01*
X218379411Y-175804342D02*
X218379411Y-175709104D01*
X218379411Y-175709104D02*
X218427030Y-175613866D01*
X218427030Y-175613866D02*
X218474649Y-175566247D01*
X218474649Y-175566247D02*
X218569887Y-175518628D01*
X218569887Y-175518628D02*
X218760363Y-175471009D01*
X218760363Y-175471009D02*
X218855601Y-175423390D01*
X218855601Y-175423390D02*
X218903220Y-175375771D01*
X218903220Y-175375771D02*
X218950839Y-175280533D01*
X218950839Y-175280533D02*
X218950839Y-175185295D01*
X218950839Y-175185295D02*
X218903220Y-175090057D01*
X218903220Y-175090057D02*
X218855601Y-175042438D01*
X218855601Y-175042438D02*
X218760363Y-174994819D01*
X218760363Y-174994819D02*
X218522268Y-174994819D01*
X218522268Y-174994819D02*
X218379411Y-175042438D01*
X218046077Y-174994819D02*
X217807982Y-175994819D01*
X217807982Y-175994819D02*
X217617506Y-175280533D01*
X217617506Y-175280533D02*
X217427030Y-175994819D01*
X217427030Y-175994819D02*
X217188935Y-174994819D01*
X216855601Y-175090057D02*
X216807982Y-175042438D01*
X216807982Y-175042438D02*
X216712744Y-174994819D01*
X216712744Y-174994819D02*
X216474649Y-174994819D01*
X216474649Y-174994819D02*
X216379411Y-175042438D01*
X216379411Y-175042438D02*
X216331792Y-175090057D01*
X216331792Y-175090057D02*
X216284173Y-175185295D01*
X216284173Y-175185295D02*
X216284173Y-175280533D01*
X216284173Y-175280533D02*
X216331792Y-175423390D01*
X216331792Y-175423390D02*
X216903220Y-175994819D01*
X216903220Y-175994819D02*
X216284173Y-175994819D01*
X215950839Y-174994819D02*
X215331792Y-174994819D01*
X215331792Y-174994819D02*
X215665125Y-175375771D01*
X215665125Y-175375771D02*
X215522268Y-175375771D01*
X215522268Y-175375771D02*
X215427030Y-175423390D01*
X215427030Y-175423390D02*
X215379411Y-175471009D01*
X215379411Y-175471009D02*
X215331792Y-175566247D01*
X215331792Y-175566247D02*
X215331792Y-175804342D01*
X215331792Y-175804342D02*
X215379411Y-175899580D01*
X215379411Y-175899580D02*
X215427030Y-175947200D01*
X215427030Y-175947200D02*
X215522268Y-175994819D01*
X215522268Y-175994819D02*
X215807982Y-175994819D01*
X215807982Y-175994819D02*
X215903220Y-175947200D01*
X215903220Y-175947200D02*
X215950839Y-175899580D01*
X238000839Y-175947200D02*
X237857982Y-175994819D01*
X237857982Y-175994819D02*
X237619887Y-175994819D01*
X237619887Y-175994819D02*
X237524649Y-175947200D01*
X237524649Y-175947200D02*
X237477030Y-175899580D01*
X237477030Y-175899580D02*
X237429411Y-175804342D01*
X237429411Y-175804342D02*
X237429411Y-175709104D01*
X237429411Y-175709104D02*
X237477030Y-175613866D01*
X237477030Y-175613866D02*
X237524649Y-175566247D01*
X237524649Y-175566247D02*
X237619887Y-175518628D01*
X237619887Y-175518628D02*
X237810363Y-175471009D01*
X237810363Y-175471009D02*
X237905601Y-175423390D01*
X237905601Y-175423390D02*
X237953220Y-175375771D01*
X237953220Y-175375771D02*
X238000839Y-175280533D01*
X238000839Y-175280533D02*
X238000839Y-175185295D01*
X238000839Y-175185295D02*
X237953220Y-175090057D01*
X237953220Y-175090057D02*
X237905601Y-175042438D01*
X237905601Y-175042438D02*
X237810363Y-174994819D01*
X237810363Y-174994819D02*
X237572268Y-174994819D01*
X237572268Y-174994819D02*
X237429411Y-175042438D01*
X237096077Y-174994819D02*
X236857982Y-175994819D01*
X236857982Y-175994819D02*
X236667506Y-175280533D01*
X236667506Y-175280533D02*
X236477030Y-175994819D01*
X236477030Y-175994819D02*
X236238935Y-174994819D01*
X235905601Y-175090057D02*
X235857982Y-175042438D01*
X235857982Y-175042438D02*
X235762744Y-174994819D01*
X235762744Y-174994819D02*
X235524649Y-174994819D01*
X235524649Y-174994819D02*
X235429411Y-175042438D01*
X235429411Y-175042438D02*
X235381792Y-175090057D01*
X235381792Y-175090057D02*
X235334173Y-175185295D01*
X235334173Y-175185295D02*
X235334173Y-175280533D01*
X235334173Y-175280533D02*
X235381792Y-175423390D01*
X235381792Y-175423390D02*
X235953220Y-175994819D01*
X235953220Y-175994819D02*
X235334173Y-175994819D01*
X234477030Y-175328152D02*
X234477030Y-175994819D01*
X234715125Y-174947200D02*
X234953220Y-175661485D01*
X234953220Y-175661485D02*
X234334173Y-175661485D01*
X121501006Y-187503034D02*
X121215292Y-187008162D01*
X120492123Y-187755598D02*
X121358149Y-187255598D01*
X119979364Y-186676996D02*
X119961934Y-186742045D01*
X119961934Y-186742045D02*
X119992123Y-186889572D01*
X119992123Y-186889572D02*
X120039742Y-186972051D01*
X120039742Y-186972051D02*
X120152410Y-187071959D01*
X120152410Y-187071959D02*
X120282508Y-187106819D01*
X120282508Y-187106819D02*
X120388796Y-187100439D01*
X120388796Y-187100439D02*
X120577563Y-187046440D01*
X120577563Y-187046440D02*
X120701281Y-186975012D01*
X120701281Y-186975012D02*
X120842428Y-186838535D01*
X120842428Y-186838535D02*
X120901097Y-186749676D01*
X120901097Y-186749676D02*
X120935957Y-186619579D01*
X120935957Y-186619579D02*
X120905768Y-186472051D01*
X120905768Y-186472051D02*
X120858149Y-186389572D01*
X120858149Y-186389572D02*
X120745481Y-186289664D01*
X120745481Y-186289664D02*
X120680432Y-186272234D01*
X119420695Y-185899829D02*
X119706409Y-186394701D01*
X119563552Y-186147265D02*
X120429577Y-185647265D01*
X120429577Y-185647265D02*
X120353478Y-185801172D01*
X120353478Y-185801172D02*
X120318619Y-185931270D01*
X120318619Y-185931270D02*
X120324999Y-186037558D01*
X152296077Y-194228819D02*
X151724649Y-194228819D01*
X152010363Y-195228819D02*
X152010363Y-194228819D01*
X150819887Y-195133580D02*
X150867506Y-195181200D01*
X150867506Y-195181200D02*
X151010363Y-195228819D01*
X151010363Y-195228819D02*
X151105601Y-195228819D01*
X151105601Y-195228819D02*
X151248458Y-195181200D01*
X151248458Y-195181200D02*
X151343696Y-195085961D01*
X151343696Y-195085961D02*
X151391315Y-194990723D01*
X151391315Y-194990723D02*
X151438934Y-194800247D01*
X151438934Y-194800247D02*
X151438934Y-194657390D01*
X151438934Y-194657390D02*
X151391315Y-194466914D01*
X151391315Y-194466914D02*
X151343696Y-194371676D01*
X151343696Y-194371676D02*
X151248458Y-194276438D01*
X151248458Y-194276438D02*
X151105601Y-194228819D01*
X151105601Y-194228819D02*
X151010363Y-194228819D01*
X151010363Y-194228819D02*
X150867506Y-194276438D01*
X150867506Y-194276438D02*
X150819887Y-194324057D01*
X150438934Y-194324057D02*
X150391315Y-194276438D01*
X150391315Y-194276438D02*
X150296077Y-194228819D01*
X150296077Y-194228819D02*
X150057982Y-194228819D01*
X150057982Y-194228819D02*
X149962744Y-194276438D01*
X149962744Y-194276438D02*
X149915125Y-194324057D01*
X149915125Y-194324057D02*
X149867506Y-194419295D01*
X149867506Y-194419295D02*
X149867506Y-194514533D01*
X149867506Y-194514533D02*
X149915125Y-194657390D01*
X149915125Y-194657390D02*
X150486553Y-195228819D01*
X150486553Y-195228819D02*
X149867506Y-195228819D01*
X171346077Y-191844819D02*
X170774649Y-191844819D01*
X171060363Y-192844819D02*
X171060363Y-191844819D01*
X169869887Y-192749580D02*
X169917506Y-192797200D01*
X169917506Y-192797200D02*
X170060363Y-192844819D01*
X170060363Y-192844819D02*
X170155601Y-192844819D01*
X170155601Y-192844819D02*
X170298458Y-192797200D01*
X170298458Y-192797200D02*
X170393696Y-192701961D01*
X170393696Y-192701961D02*
X170441315Y-192606723D01*
X170441315Y-192606723D02*
X170488934Y-192416247D01*
X170488934Y-192416247D02*
X170488934Y-192273390D01*
X170488934Y-192273390D02*
X170441315Y-192082914D01*
X170441315Y-192082914D02*
X170393696Y-191987676D01*
X170393696Y-191987676D02*
X170298458Y-191892438D01*
X170298458Y-191892438D02*
X170155601Y-191844819D01*
X170155601Y-191844819D02*
X170060363Y-191844819D01*
X170060363Y-191844819D02*
X169917506Y-191892438D01*
X169917506Y-191892438D02*
X169869887Y-191940057D01*
X169536553Y-191844819D02*
X168917506Y-191844819D01*
X168917506Y-191844819D02*
X169250839Y-192225771D01*
X169250839Y-192225771D02*
X169107982Y-192225771D01*
X169107982Y-192225771D02*
X169012744Y-192273390D01*
X169012744Y-192273390D02*
X168965125Y-192321009D01*
X168965125Y-192321009D02*
X168917506Y-192416247D01*
X168917506Y-192416247D02*
X168917506Y-192654342D01*
X168917506Y-192654342D02*
X168965125Y-192749580D01*
X168965125Y-192749580D02*
X169012744Y-192797200D01*
X169012744Y-192797200D02*
X169107982Y-192844819D01*
X169107982Y-192844819D02*
X169393696Y-192844819D01*
X169393696Y-192844819D02*
X169488934Y-192797200D01*
X169488934Y-192797200D02*
X169536553Y-192749580D01*
X190396077Y-191844819D02*
X189824649Y-191844819D01*
X190110363Y-192844819D02*
X190110363Y-191844819D01*
X188919887Y-192749580D02*
X188967506Y-192797200D01*
X188967506Y-192797200D02*
X189110363Y-192844819D01*
X189110363Y-192844819D02*
X189205601Y-192844819D01*
X189205601Y-192844819D02*
X189348458Y-192797200D01*
X189348458Y-192797200D02*
X189443696Y-192701961D01*
X189443696Y-192701961D02*
X189491315Y-192606723D01*
X189491315Y-192606723D02*
X189538934Y-192416247D01*
X189538934Y-192416247D02*
X189538934Y-192273390D01*
X189538934Y-192273390D02*
X189491315Y-192082914D01*
X189491315Y-192082914D02*
X189443696Y-191987676D01*
X189443696Y-191987676D02*
X189348458Y-191892438D01*
X189348458Y-191892438D02*
X189205601Y-191844819D01*
X189205601Y-191844819D02*
X189110363Y-191844819D01*
X189110363Y-191844819D02*
X188967506Y-191892438D01*
X188967506Y-191892438D02*
X188919887Y-191940057D01*
X188062744Y-192178152D02*
X188062744Y-192844819D01*
X188300839Y-191797200D02*
X188538934Y-192511485D01*
X188538934Y-192511485D02*
X187919887Y-192511485D01*
X272178295Y-147684095D02*
X271797342Y-147417428D01*
X272178295Y-147226952D02*
X271378295Y-147226952D01*
X271378295Y-147226952D02*
X271378295Y-147531714D01*
X271378295Y-147531714D02*
X271416390Y-147607904D01*
X271416390Y-147607904D02*
X271454485Y-147645999D01*
X271454485Y-147645999D02*
X271530676Y-147684095D01*
X271530676Y-147684095D02*
X271644961Y-147684095D01*
X271644961Y-147684095D02*
X271721152Y-147645999D01*
X271721152Y-147645999D02*
X271759247Y-147607904D01*
X271759247Y-147607904D02*
X271797342Y-147531714D01*
X271797342Y-147531714D02*
X271797342Y-147226952D01*
X271759247Y-148026952D02*
X271759247Y-148293618D01*
X272178295Y-148407904D02*
X272178295Y-148026952D01*
X272178295Y-148026952D02*
X271378295Y-148026952D01*
X271378295Y-148026952D02*
X271378295Y-148407904D01*
X272140200Y-148712666D02*
X272178295Y-148826952D01*
X272178295Y-148826952D02*
X272178295Y-149017428D01*
X272178295Y-149017428D02*
X272140200Y-149093619D01*
X272140200Y-149093619D02*
X272102104Y-149131714D01*
X272102104Y-149131714D02*
X272025914Y-149169809D01*
X272025914Y-149169809D02*
X271949723Y-149169809D01*
X271949723Y-149169809D02*
X271873533Y-149131714D01*
X271873533Y-149131714D02*
X271835438Y-149093619D01*
X271835438Y-149093619D02*
X271797342Y-149017428D01*
X271797342Y-149017428D02*
X271759247Y-148865047D01*
X271759247Y-148865047D02*
X271721152Y-148788857D01*
X271721152Y-148788857D02*
X271683057Y-148750762D01*
X271683057Y-148750762D02*
X271606866Y-148712666D01*
X271606866Y-148712666D02*
X271530676Y-148712666D01*
X271530676Y-148712666D02*
X271454485Y-148750762D01*
X271454485Y-148750762D02*
X271416390Y-148788857D01*
X271416390Y-148788857D02*
X271378295Y-148865047D01*
X271378295Y-148865047D02*
X271378295Y-149055524D01*
X271378295Y-149055524D02*
X271416390Y-149169809D01*
X271759247Y-149512667D02*
X271759247Y-149779333D01*
X272178295Y-149893619D02*
X272178295Y-149512667D01*
X272178295Y-149512667D02*
X271378295Y-149512667D01*
X271378295Y-149512667D02*
X271378295Y-149893619D01*
X271378295Y-150122191D02*
X271378295Y-150579334D01*
X272178295Y-150350762D02*
X271378295Y-150350762D01*
X115873195Y-164003386D02*
X116336443Y-164043850D01*
X116101767Y-164399284D02*
X116794587Y-163999284D01*
X116794587Y-163999284D02*
X116642206Y-163735352D01*
X116642206Y-163735352D02*
X116571119Y-163688417D01*
X116571119Y-163688417D02*
X116519080Y-163674473D01*
X116519080Y-163674473D02*
X116434050Y-163679577D01*
X116434050Y-163679577D02*
X116335075Y-163736720D01*
X116335075Y-163736720D02*
X116288140Y-163807806D01*
X116288140Y-163807806D02*
X116274196Y-163859845D01*
X116274196Y-163859845D02*
X116279300Y-163944876D01*
X116279300Y-163944876D02*
X116431681Y-164208807D01*
X116064672Y-163496940D02*
X115931339Y-163265999D01*
X115511290Y-163376549D02*
X115701767Y-163706463D01*
X115701767Y-163706463D02*
X116394587Y-163306463D01*
X116394587Y-163306463D02*
X116204111Y-162976549D01*
X115391901Y-163093569D02*
X115301766Y-163013643D01*
X115301766Y-163013643D02*
X115206528Y-162848685D01*
X115206528Y-162848685D02*
X115201424Y-162763655D01*
X115201424Y-162763655D02*
X115215368Y-162711616D01*
X115215368Y-162711616D02*
X115262303Y-162640529D01*
X115262303Y-162640529D02*
X115328286Y-162602434D01*
X115328286Y-162602434D02*
X115413317Y-162597330D01*
X115413317Y-162597330D02*
X115465356Y-162611274D01*
X115465356Y-162611274D02*
X115536443Y-162658209D01*
X115536443Y-162658209D02*
X115645625Y-162771127D01*
X115645625Y-162771127D02*
X115716711Y-162818063D01*
X115716711Y-162818063D02*
X115768750Y-162832006D01*
X115768750Y-162832006D02*
X115853781Y-162826903D01*
X115853781Y-162826903D02*
X115919764Y-162788807D01*
X115919764Y-162788807D02*
X115966699Y-162717721D01*
X115966699Y-162717721D02*
X115980643Y-162665682D01*
X115980643Y-162665682D02*
X115975539Y-162580651D01*
X115975539Y-162580651D02*
X115880301Y-162415694D01*
X115880301Y-162415694D02*
X115790167Y-162335767D01*
X115321815Y-162210273D02*
X115188482Y-161979332D01*
X114768433Y-162089882D02*
X114958909Y-162419796D01*
X114958909Y-162419796D02*
X115651729Y-162019796D01*
X115651729Y-162019796D02*
X115461253Y-161689882D01*
X115346967Y-161491933D02*
X115118396Y-161096036D01*
X114539861Y-161693984D02*
X115232681Y-161293984D01*
%TO.C,J1*%
X102896693Y-161855552D02*
X107183519Y-159380552D01*
X108566532Y-160776000D02*
X114566532Y-171168305D01*
X108133519Y-161026000D02*
X107183519Y-159380552D01*
X103370379Y-163776000D02*
X103803392Y-163526000D01*
X108566532Y-160776000D02*
X108133519Y-161026000D01*
X114566532Y-171168305D02*
X109370379Y-174168305D01*
X109370379Y-174168305D02*
X103370379Y-163776000D01*
X103803392Y-163526000D02*
X102853392Y-161880552D01*
%TO.C,MCU-MAIN1*%
X117974000Y-119761000D02*
X117974000Y-150241000D01*
X117974000Y-150241000D02*
X115434000Y-150241000D01*
X115434000Y-117221000D02*
X133214000Y-117221000D01*
X130674000Y-150241000D02*
X130674000Y-119761000D01*
X115434000Y-150241000D02*
X115434000Y-119761000D01*
X130674000Y-119761000D02*
X133214000Y-119761000D01*
X133214000Y-150241000D02*
X130674000Y-150241000D01*
X133214000Y-119761000D02*
X133214000Y-150241000D01*
X115434000Y-150241000D02*
X115434000Y-117221000D01*
X115434000Y-119761000D02*
X117974000Y-119761000D01*
X133214000Y-117221000D02*
X133214000Y-150241000D01*
%TO.C,DOWN*%
X289398000Y-164890000D02*
X284348000Y-164936000D01*
X286873000Y-171315000D02*
X284323000Y-171315000D01*
X278498000Y-162890000D02*
X278498000Y-166835000D01*
X282318000Y-175240000D02*
X282318000Y-175940000D01*
X286898000Y-171339999D02*
X286898000Y-175940000D01*
X278498000Y-166844000D02*
X282108000Y-166844000D01*
X289398000Y-160936000D02*
X280773000Y-160936000D01*
X282023000Y-169115000D02*
X277323000Y-169115000D01*
X286873000Y-175965000D02*
X282323000Y-175965000D01*
X289398000Y-164844000D02*
X289398000Y-160936000D01*
X277323000Y-169140000D02*
X277298001Y-173740000D01*
X281098000Y-173765000D02*
X277323000Y-173765000D01*
X280773000Y-160936001D02*
G75*
G03*
X278509001Y-162820000I-190000J-2073999D01*
G01*
X282028001Y-169140000D02*
G75*
G03*
X284398000Y-171309999I2269999J100000D01*
G01*
X284373000Y-164940001D02*
G75*
G03*
X282113001Y-166819999I-190001J-2069997D01*
G01*
X282318000Y-175190000D02*
G75*
G03*
X281098000Y-173770000I-1320000J100000D01*
G01*
%TO.C,LEFT*%
X262973000Y-169115000D02*
X258273000Y-169115000D01*
X263268000Y-175240000D02*
X263268000Y-175940000D01*
X258273000Y-169140000D02*
X258248001Y-173740000D01*
X267848000Y-171339999D02*
X267848000Y-175940000D01*
X267823000Y-175965000D02*
X263273000Y-175965000D01*
X270348000Y-160936000D02*
X261723000Y-160936000D01*
X270348000Y-164844000D02*
X270348000Y-160936000D01*
X267823000Y-171315000D02*
X265273000Y-171315000D01*
X270348000Y-164890000D02*
X265298000Y-164936000D01*
X259448000Y-166844000D02*
X263058000Y-166844000D01*
X262048000Y-173765000D02*
X258273000Y-173765000D01*
X259448000Y-162890000D02*
X259448000Y-166835000D01*
X263268000Y-175190000D02*
G75*
G03*
X262048000Y-173770000I-1320000J100000D01*
G01*
X261723000Y-160936001D02*
G75*
G03*
X259459001Y-162820000I-190000J-2073999D01*
G01*
X262978001Y-169140000D02*
G75*
G03*
X265348000Y-171309999I2269999J100000D01*
G01*
X265323000Y-164940001D02*
G75*
G03*
X263063001Y-166819999I-190001J-2069997D01*
G01*
%TO.C,RIGHT*%
X308448000Y-164890000D02*
X303398000Y-164936000D01*
X305923000Y-171315000D02*
X303373000Y-171315000D01*
X296373000Y-169140000D02*
X296348001Y-173740000D01*
X308448000Y-160936000D02*
X299823000Y-160936000D01*
X300148000Y-173765000D02*
X296373000Y-173765000D01*
X305923000Y-175965000D02*
X301373000Y-175965000D01*
X297548000Y-162890000D02*
X297548000Y-166835000D01*
X297548000Y-166844000D02*
X301158000Y-166844000D01*
X308448000Y-164844000D02*
X308448000Y-160936000D01*
X301073000Y-169115000D02*
X296373000Y-169115000D01*
X305948000Y-171339999D02*
X305948000Y-175940000D01*
X301368000Y-175240000D02*
X301368000Y-175940000D01*
X299823000Y-160936001D02*
G75*
G03*
X297559001Y-162820000I-190000J-2073999D01*
G01*
X303423000Y-164940001D02*
G75*
G03*
X301163001Y-166819999I-190001J-2069997D01*
G01*
X301078001Y-169140000D02*
G75*
G03*
X303448000Y-171309999I2269999J100000D01*
G01*
X301368000Y-175190000D02*
G75*
G03*
X300148000Y-173770000I-1320000J100000D01*
G01*
%TO.C,UP*%
X286898000Y-152289999D02*
X286898000Y-156890000D01*
X286873000Y-152265000D02*
X284323000Y-152265000D01*
X281098000Y-154715000D02*
X277323000Y-154715000D01*
X282023000Y-150065000D02*
X277323000Y-150065000D01*
X286873000Y-156915000D02*
X282323000Y-156915000D01*
X289398000Y-145794000D02*
X289398000Y-141886000D01*
X289398000Y-145840000D02*
X284348000Y-145886000D01*
X278498000Y-143840000D02*
X278498000Y-147785000D01*
X277323000Y-150090000D02*
X277298001Y-154690000D01*
X278498000Y-147794000D02*
X282108000Y-147794000D01*
X289398000Y-141886000D02*
X280773000Y-141886000D01*
X282318000Y-156190000D02*
X282318000Y-156890000D01*
X284373000Y-145890001D02*
G75*
G03*
X282113001Y-147769999I-190001J-2069997D01*
G01*
X282028001Y-150090000D02*
G75*
G03*
X284398000Y-152259999I2269999J100000D01*
G01*
X280773000Y-141886001D02*
G75*
G03*
X278509001Y-143770000I-190000J-2073999D01*
G01*
X282318000Y-156140000D02*
G75*
G03*
X281098000Y-154720000I-1320000J100000D01*
G01*
%TO.C,MC1*%
X259448000Y-105740000D02*
X259448000Y-109685000D01*
X267823000Y-118815000D02*
X263273000Y-118815000D01*
X263268000Y-118090000D02*
X263268000Y-118790000D01*
X270348000Y-107740000D02*
X265298000Y-107786000D01*
X270348000Y-103786000D02*
X261723000Y-103786000D01*
X267848000Y-114189999D02*
X267848000Y-118790000D01*
X267823000Y-114165000D02*
X265273000Y-114165000D01*
X270348000Y-107694000D02*
X270348000Y-103786000D01*
X258273000Y-111990000D02*
X258248001Y-116590000D01*
X262973000Y-111965000D02*
X258273000Y-111965000D01*
X259448000Y-109694000D02*
X263058000Y-109694000D01*
X262048000Y-116615000D02*
X258273000Y-116615000D01*
X265323000Y-107790001D02*
G75*
G03*
X263063001Y-109669999I-190001J-2069997D01*
G01*
X262978001Y-111990000D02*
G75*
G03*
X265348000Y-114159999I2269999J100000D01*
G01*
X263268000Y-118040000D02*
G75*
G03*
X262048000Y-116620000I-1320000J100000D01*
G01*
X261723000Y-103786001D02*
G75*
G03*
X259459001Y-105670000I-190000J-2073999D01*
G01*
%TO.C,MC2*%
X277323000Y-111990000D02*
X277298001Y-116590000D01*
X281098000Y-116615000D02*
X277323000Y-116615000D01*
X286873000Y-114165000D02*
X284323000Y-114165000D01*
X278498000Y-109694000D02*
X282108000Y-109694000D01*
X282318000Y-118090000D02*
X282318000Y-118790000D01*
X289398000Y-103786000D02*
X280773000Y-103786000D01*
X278498000Y-105740000D02*
X278498000Y-109685000D01*
X289398000Y-107740000D02*
X284348000Y-107786000D01*
X289398000Y-107694000D02*
X289398000Y-103786000D01*
X286898000Y-114189999D02*
X286898000Y-118790000D01*
X282023000Y-111965000D02*
X277323000Y-111965000D01*
X286873000Y-118815000D02*
X282323000Y-118815000D01*
X284373000Y-107790001D02*
G75*
G03*
X282113001Y-109669999I-190001J-2069997D01*
G01*
X280773000Y-103786001D02*
G75*
G03*
X278509001Y-105670000I-190000J-2073999D01*
G01*
X282318000Y-118040000D02*
G75*
G03*
X281098000Y-116620000I-1320000J100000D01*
G01*
X282028001Y-111990000D02*
G75*
G03*
X284398000Y-114159999I2269999J100000D01*
G01*
%TO.C,MC3*%
X297548000Y-109694000D02*
X301158000Y-109694000D01*
X300148000Y-116615000D02*
X296373000Y-116615000D01*
X301073000Y-111965000D02*
X296373000Y-111965000D01*
X308448000Y-107694000D02*
X308448000Y-103786000D01*
X297548000Y-105740000D02*
X297548000Y-109685000D01*
X308448000Y-107740000D02*
X303398000Y-107786000D01*
X305923000Y-114165000D02*
X303373000Y-114165000D01*
X296373000Y-111990000D02*
X296348001Y-116590000D01*
X301368000Y-118090000D02*
X301368000Y-118790000D01*
X305948000Y-114189999D02*
X305948000Y-118790000D01*
X308448000Y-103786000D02*
X299823000Y-103786000D01*
X305923000Y-118815000D02*
X301373000Y-118815000D01*
X299823000Y-103786001D02*
G75*
G03*
X297559001Y-105670000I-190000J-2073999D01*
G01*
X301368000Y-118040000D02*
G75*
G03*
X300148000Y-116620000I-1320000J100000D01*
G01*
X303423000Y-107790001D02*
G75*
G03*
X301163001Y-109669999I-190001J-2069997D01*
G01*
X301078001Y-111990000D02*
G75*
G03*
X303448000Y-114159999I2269999J100000D01*
G01*
%TO.C,MC4*%
X259448000Y-124790000D02*
X259448000Y-128735000D01*
X267823000Y-137865000D02*
X263273000Y-137865000D01*
X267823000Y-133215000D02*
X265273000Y-133215000D01*
X262048000Y-135665000D02*
X258273000Y-135665000D01*
X259448000Y-128744000D02*
X263058000Y-128744000D01*
X270348000Y-126744000D02*
X270348000Y-122836000D01*
X258273000Y-131040000D02*
X258248001Y-135640000D01*
X270348000Y-126790000D02*
X265298000Y-126836000D01*
X262973000Y-131015000D02*
X258273000Y-131015000D01*
X267848000Y-133239999D02*
X267848000Y-137840000D01*
X263268000Y-137140000D02*
X263268000Y-137840000D01*
X270348000Y-122836000D02*
X261723000Y-122836000D01*
X261723000Y-122836001D02*
G75*
G03*
X259459001Y-124720000I-190000J-2073999D01*
G01*
X263268000Y-137090000D02*
G75*
G03*
X262048000Y-135670000I-1320000J100000D01*
G01*
X265323000Y-126840001D02*
G75*
G03*
X263063001Y-128719999I-190001J-2069997D01*
G01*
X262978001Y-131040000D02*
G75*
G03*
X265348000Y-133209999I2269999J100000D01*
G01*
%TO.C,MC5*%
X286873000Y-133215000D02*
X284323000Y-133215000D01*
X289398000Y-126790000D02*
X284348000Y-126836000D01*
X278498000Y-124790000D02*
X278498000Y-128735000D01*
X289398000Y-126744000D02*
X289398000Y-122836000D01*
X286873000Y-137865000D02*
X282323000Y-137865000D01*
X282318000Y-137140000D02*
X282318000Y-137840000D01*
X289398000Y-122836000D02*
X280773000Y-122836000D01*
X277323000Y-131040000D02*
X277298001Y-135640000D01*
X282023000Y-131015000D02*
X277323000Y-131015000D01*
X286898000Y-133239999D02*
X286898000Y-137840000D01*
X278498000Y-128744000D02*
X282108000Y-128744000D01*
X281098000Y-135665000D02*
X277323000Y-135665000D01*
X282028001Y-131040000D02*
G75*
G03*
X284398000Y-133209999I2269999J100000D01*
G01*
X282318000Y-137090000D02*
G75*
G03*
X281098000Y-135670000I-1320000J100000D01*
G01*
X284373000Y-126840001D02*
G75*
G03*
X282113001Y-128719999I-190001J-2069997D01*
G01*
X280773000Y-122836001D02*
G75*
G03*
X278509001Y-124720000I-190000J-2073999D01*
G01*
%TO.C,MC6*%
X308448000Y-122836000D02*
X299823000Y-122836000D01*
X296373000Y-131040000D02*
X296348001Y-135640000D01*
X301073000Y-131015000D02*
X296373000Y-131015000D01*
X301368000Y-137140000D02*
X301368000Y-137840000D01*
X308448000Y-126790000D02*
X303398000Y-126836000D01*
X297548000Y-124790000D02*
X297548000Y-128735000D01*
X300148000Y-135665000D02*
X296373000Y-135665000D01*
X297548000Y-128744000D02*
X301158000Y-128744000D01*
X305923000Y-133215000D02*
X303373000Y-133215000D01*
X305948000Y-133239999D02*
X305948000Y-137840000D01*
X305923000Y-137865000D02*
X301373000Y-137865000D01*
X308448000Y-126744000D02*
X308448000Y-122836000D01*
X301368000Y-137090000D02*
G75*
G03*
X300148000Y-135670000I-1320000J100000D01*
G01*
X301078001Y-131040000D02*
G75*
G03*
X303448000Y-133209999I2269999J100000D01*
G01*
X299823000Y-122836001D02*
G75*
G03*
X297559001Y-124720000I-190000J-2073999D01*
G01*
X303423000Y-126840001D02*
G75*
G03*
X301163001Y-128719999I-190001J-2069997D01*
G01*
%TO.C,SW1*%
X144060000Y-115706000D02*
X144060000Y-116406000D01*
X151140000Y-101402000D02*
X142515000Y-101402000D01*
X151140000Y-105310000D02*
X151140000Y-101402000D01*
X148615000Y-111781000D02*
X146065000Y-111781000D01*
X151140000Y-105356000D02*
X146090000Y-105402000D01*
X148615000Y-116431000D02*
X144065000Y-116431000D01*
X139065000Y-109606000D02*
X139040001Y-114206000D01*
X142840000Y-114231000D02*
X139065000Y-114231000D01*
X140240000Y-107310000D02*
X143850000Y-107310000D01*
X148640000Y-111805999D02*
X148640000Y-116406000D01*
X143765000Y-109581000D02*
X139065000Y-109581000D01*
X140240000Y-103356000D02*
X140240000Y-107301000D01*
X144060000Y-115656000D02*
G75*
G03*
X142840000Y-114236000I-1320000J100000D01*
G01*
X146115000Y-105406001D02*
G75*
G03*
X143855001Y-107285999I-190001J-2069997D01*
G01*
X143770001Y-109606000D02*
G75*
G03*
X146140000Y-111775999I2269999J100000D01*
G01*
X142515000Y-101402001D02*
G75*
G03*
X140251001Y-103286000I-190000J-2073999D01*
G01*
%TO.C,SW2*%
X158115000Y-107225000D02*
X158090001Y-111825000D01*
X170190000Y-102929000D02*
X170190000Y-99021000D01*
X167665000Y-114050000D02*
X163115000Y-114050000D01*
X170190000Y-102975000D02*
X165140000Y-103021000D01*
X159290000Y-100975000D02*
X159290000Y-104920000D01*
X167690000Y-109424999D02*
X167690000Y-114025000D01*
X162815000Y-107200000D02*
X158115000Y-107200000D01*
X170190000Y-99021000D02*
X161565000Y-99021000D01*
X163110000Y-113325000D02*
X163110000Y-114025000D01*
X161890000Y-111850000D02*
X158115000Y-111850000D01*
X159290000Y-104929000D02*
X162900000Y-104929000D01*
X167665000Y-109400000D02*
X165115000Y-109400000D01*
X161565000Y-99021001D02*
G75*
G03*
X159301001Y-100905000I-190000J-2073999D01*
G01*
X165165000Y-103025001D02*
G75*
G03*
X162905001Y-104904999I-190001J-2069997D01*
G01*
X162820001Y-107225000D02*
G75*
G03*
X165190000Y-109394999I2269999J100000D01*
G01*
X163110000Y-113275000D02*
G75*
G03*
X161890000Y-111855000I-1320000J100000D01*
G01*
%TO.C,SW3*%
X189240000Y-96636000D02*
X180615000Y-96636000D01*
X189240000Y-100590000D02*
X184190000Y-100636000D01*
X181865000Y-104815000D02*
X177165000Y-104815000D01*
X178340000Y-98590000D02*
X178340000Y-102535000D01*
X178340000Y-102544000D02*
X181950000Y-102544000D01*
X186715000Y-107015000D02*
X184165000Y-107015000D01*
X177165000Y-104840000D02*
X177140001Y-109440000D01*
X186740000Y-107039999D02*
X186740000Y-111640000D01*
X180940000Y-109465000D02*
X177165000Y-109465000D01*
X182160000Y-110940000D02*
X182160000Y-111640000D01*
X186715000Y-111665000D02*
X182165000Y-111665000D01*
X189240000Y-100544000D02*
X189240000Y-96636000D01*
X181870001Y-104840000D02*
G75*
G03*
X184240000Y-107009999I2269999J100000D01*
G01*
X182160000Y-110890000D02*
G75*
G03*
X180940000Y-109470000I-1320000J100000D01*
G01*
X180615000Y-96636001D02*
G75*
G03*
X178351001Y-98520000I-190000J-2073999D01*
G01*
X184215000Y-100640001D02*
G75*
G03*
X181955001Y-102519999I-190001J-2069997D01*
G01*
%TO.C,SW4*%
X196215000Y-107225000D02*
X196190001Y-111825000D01*
X205765000Y-109400000D02*
X203215000Y-109400000D01*
X197390000Y-100975000D02*
X197390000Y-104920000D01*
X201210000Y-113325000D02*
X201210000Y-114025000D01*
X208290000Y-102929000D02*
X208290000Y-99021000D01*
X208290000Y-99021000D02*
X199665000Y-99021000D01*
X199990000Y-111850000D02*
X196215000Y-111850000D01*
X200915000Y-107200000D02*
X196215000Y-107200000D01*
X205765000Y-114050000D02*
X201215000Y-114050000D01*
X208290000Y-102975000D02*
X203240000Y-103021000D01*
X197390000Y-104929000D02*
X201000000Y-104929000D01*
X205790000Y-109424999D02*
X205790000Y-114025000D01*
X203265000Y-103025001D02*
G75*
G03*
X201005001Y-104904999I-190001J-2069997D01*
G01*
X201210000Y-113275000D02*
G75*
G03*
X199990000Y-111855000I-1320000J100000D01*
G01*
X200920001Y-107225000D02*
G75*
G03*
X203290000Y-109394999I2269999J100000D01*
G01*
X199665000Y-99021001D02*
G75*
G03*
X197401001Y-100905000I-190000J-2073999D01*
G01*
%TO.C,SW5*%
X220260000Y-118090000D02*
X220260000Y-118790000D01*
X219965000Y-111965000D02*
X215265000Y-111965000D01*
X227340000Y-107740000D02*
X222290000Y-107786000D01*
X224840000Y-114189999D02*
X224840000Y-118790000D01*
X224815000Y-118815000D02*
X220265000Y-118815000D01*
X219040000Y-116615000D02*
X215265000Y-116615000D01*
X216440000Y-109694000D02*
X220050000Y-109694000D01*
X224815000Y-114165000D02*
X222265000Y-114165000D01*
X227340000Y-107694000D02*
X227340000Y-103786000D01*
X216440000Y-105740000D02*
X216440000Y-109685000D01*
X227340000Y-103786000D02*
X218715000Y-103786000D01*
X215265000Y-111990000D02*
X215240001Y-116590000D01*
X219970001Y-111990000D02*
G75*
G03*
X222340000Y-114159999I2269999J100000D01*
G01*
X222315000Y-107790001D02*
G75*
G03*
X220055001Y-109669999I-190001J-2069997D01*
G01*
X220260000Y-118040000D02*
G75*
G03*
X219040000Y-116620000I-1320000J100000D01*
G01*
X218715000Y-103786001D02*
G75*
G03*
X216451001Y-105670000I-190000J-2073999D01*
G01*
%TO.C,SW6*%
X234315000Y-111990000D02*
X234290001Y-116590000D01*
X239310000Y-118090000D02*
X239310000Y-118790000D01*
X246390000Y-103786000D02*
X237765000Y-103786000D01*
X235490000Y-109694000D02*
X239100000Y-109694000D01*
X246390000Y-107740000D02*
X241340000Y-107786000D01*
X246390000Y-107694000D02*
X246390000Y-103786000D01*
X238090000Y-116615000D02*
X234315000Y-116615000D01*
X239015000Y-111965000D02*
X234315000Y-111965000D01*
X243865000Y-114165000D02*
X241315000Y-114165000D01*
X243865000Y-118815000D02*
X239315000Y-118815000D01*
X243890000Y-114189999D02*
X243890000Y-118790000D01*
X235490000Y-105740000D02*
X235490000Y-109685000D01*
X239310000Y-118040000D02*
G75*
G03*
X238090000Y-116620000I-1320000J100000D01*
G01*
X239020001Y-111990000D02*
G75*
G03*
X241390000Y-114159999I2269999J100000D01*
G01*
X241365000Y-107790001D02*
G75*
G03*
X239105001Y-109669999I-190001J-2069997D01*
G01*
X237765000Y-103786001D02*
G75*
G03*
X235501001Y-105670000I-190000J-2073999D01*
G01*
%TO.C,SW7*%
X140240000Y-126331000D02*
X143850000Y-126331000D01*
X139065000Y-128627000D02*
X139040001Y-133227000D01*
X148640000Y-130826999D02*
X148640000Y-135427000D01*
X142840000Y-133252000D02*
X139065000Y-133252000D01*
X151140000Y-124377000D02*
X146090000Y-124423000D01*
X148615000Y-130802000D02*
X146065000Y-130802000D01*
X148615000Y-135452000D02*
X144065000Y-135452000D01*
X140240000Y-122377000D02*
X140240000Y-126322000D01*
X151140000Y-124331000D02*
X151140000Y-120423000D01*
X143765000Y-128602000D02*
X139065000Y-128602000D01*
X151140000Y-120423000D02*
X142515000Y-120423000D01*
X144060000Y-134727000D02*
X144060000Y-135427000D01*
X146115000Y-124427001D02*
G75*
G03*
X143855001Y-126306999I-190001J-2069997D01*
G01*
X142515000Y-120423001D02*
G75*
G03*
X140251001Y-122307000I-190000J-2073999D01*
G01*
X144060000Y-134677000D02*
G75*
G03*
X142840000Y-133257000I-1320000J100000D01*
G01*
X143770001Y-128627000D02*
G75*
G03*
X146140000Y-130796999I2269999J100000D01*
G01*
%TO.C,SW8*%
X170190000Y-118086200D02*
X161565000Y-118086200D01*
X170190000Y-122040200D02*
X165140000Y-122086200D01*
X167690000Y-128490199D02*
X167690000Y-133090200D01*
X159290000Y-120040200D02*
X159290000Y-123985200D01*
X167665000Y-128465200D02*
X165115000Y-128465200D01*
X161890000Y-130915200D02*
X158115000Y-130915200D01*
X163110000Y-132390200D02*
X163110000Y-133090200D01*
X158115000Y-126290200D02*
X158090001Y-130890200D01*
X162815000Y-126265200D02*
X158115000Y-126265200D01*
X167665000Y-133115200D02*
X163115000Y-133115200D01*
X170190000Y-121994200D02*
X170190000Y-118086200D01*
X159290000Y-123994200D02*
X162900000Y-123994200D01*
X161565000Y-118086201D02*
G75*
G03*
X159301001Y-119970200I-190000J-2073999D01*
G01*
X163110000Y-132340200D02*
G75*
G03*
X161890000Y-130920200I-1320000J100000D01*
G01*
X165165000Y-122090201D02*
G75*
G03*
X162905001Y-123970199I-190001J-2069997D01*
G01*
X162820001Y-126290200D02*
G75*
G03*
X165190000Y-128460199I2269999J100000D01*
G01*
%TO.C,SW9*%
X189240000Y-115724000D02*
X180615000Y-115724000D01*
X180940000Y-128553000D02*
X177165000Y-128553000D01*
X186715000Y-130753000D02*
X182165000Y-130753000D01*
X186715000Y-126103000D02*
X184165000Y-126103000D01*
X178340000Y-121632000D02*
X181950000Y-121632000D01*
X189240000Y-119632000D02*
X189240000Y-115724000D01*
X182160000Y-130028000D02*
X182160000Y-130728000D01*
X178340000Y-117678000D02*
X178340000Y-121623000D01*
X186740000Y-126127999D02*
X186740000Y-130728000D01*
X181865000Y-123903000D02*
X177165000Y-123903000D01*
X177165000Y-123928000D02*
X177140001Y-128528000D01*
X189240000Y-119678000D02*
X184190000Y-119724000D01*
X184215000Y-119728001D02*
G75*
G03*
X181955001Y-121607999I-190001J-2069997D01*
G01*
X180615000Y-115724001D02*
G75*
G03*
X178351001Y-117608000I-190000J-2073999D01*
G01*
X181870001Y-123928000D02*
G75*
G03*
X184240000Y-126097999I2269999J100000D01*
G01*
X182160000Y-129978000D02*
G75*
G03*
X180940000Y-128558000I-1320000J100000D01*
G01*
%TO.C,SW10*%
X196215000Y-126341000D02*
X196190001Y-130941000D01*
X208290000Y-118137000D02*
X199665000Y-118137000D01*
X200915000Y-126316000D02*
X196215000Y-126316000D01*
X205765000Y-128516000D02*
X203215000Y-128516000D01*
X199990000Y-130966000D02*
X196215000Y-130966000D01*
X201210000Y-132441000D02*
X201210000Y-133141000D01*
X205765000Y-133166000D02*
X201215000Y-133166000D01*
X208290000Y-122045000D02*
X208290000Y-118137000D01*
X197390000Y-124045000D02*
X201000000Y-124045000D01*
X197390000Y-120091000D02*
X197390000Y-124036000D01*
X205790000Y-128540999D02*
X205790000Y-133141000D01*
X208290000Y-122091000D02*
X203240000Y-122137000D01*
X199665000Y-118137001D02*
G75*
G03*
X197401001Y-120021000I-190000J-2073999D01*
G01*
X200920001Y-126341000D02*
G75*
G03*
X203290000Y-128510999I2269999J100000D01*
G01*
X203265000Y-122141001D02*
G75*
G03*
X201005001Y-124020999I-190001J-2069997D01*
G01*
X201210000Y-132391000D02*
G75*
G03*
X199990000Y-130971000I-1320000J100000D01*
G01*
%TO.C,SW11*%
X215265000Y-131040000D02*
X215240001Y-135640000D01*
X219965000Y-131015000D02*
X215265000Y-131015000D01*
X227340000Y-126790000D02*
X222290000Y-126836000D01*
X216440000Y-128744000D02*
X220050000Y-128744000D01*
X227340000Y-126744000D02*
X227340000Y-122836000D01*
X220260000Y-137140000D02*
X220260000Y-137840000D01*
X224840000Y-133239999D02*
X224840000Y-137840000D01*
X224815000Y-137865000D02*
X220265000Y-137865000D01*
X216440000Y-124790000D02*
X216440000Y-128735000D01*
X219040000Y-135665000D02*
X215265000Y-135665000D01*
X227340000Y-122836000D02*
X218715000Y-122836000D01*
X224815000Y-133215000D02*
X222265000Y-133215000D01*
X222315000Y-126840001D02*
G75*
G03*
X220055001Y-128719999I-190001J-2069997D01*
G01*
X220260000Y-137090000D02*
G75*
G03*
X219040000Y-135670000I-1320000J100000D01*
G01*
X219970001Y-131040000D02*
G75*
G03*
X222340000Y-133209999I2269999J100000D01*
G01*
X218715000Y-122836001D02*
G75*
G03*
X216451001Y-124720000I-190000J-2073999D01*
G01*
%TO.C,SW12*%
X246390000Y-126744000D02*
X246390000Y-122836000D01*
X235490000Y-128744000D02*
X239100000Y-128744000D01*
X239310000Y-137140000D02*
X239310000Y-137840000D01*
X243865000Y-133215000D02*
X241315000Y-133215000D01*
X239015000Y-131015000D02*
X234315000Y-131015000D01*
X243865000Y-137865000D02*
X239315000Y-137865000D01*
X246390000Y-122836000D02*
X237765000Y-122836000D01*
X238090000Y-135665000D02*
X234315000Y-135665000D01*
X234315000Y-131040000D02*
X234290001Y-135640000D01*
X246390000Y-126790000D02*
X241340000Y-126836000D01*
X243890000Y-133239999D02*
X243890000Y-137840000D01*
X235490000Y-124790000D02*
X235490000Y-128735000D01*
X237765000Y-122836001D02*
G75*
G03*
X235501001Y-124720000I-190000J-2073999D01*
G01*
X239020001Y-131040000D02*
G75*
G03*
X241390000Y-133209999I2269999J100000D01*
G01*
X241365000Y-126840001D02*
G75*
G03*
X239105001Y-128719999I-190001J-2069997D01*
G01*
X239310000Y-137090000D02*
G75*
G03*
X238090000Y-135670000I-1320000J100000D01*
G01*
%TO.C,SW13*%
X148615000Y-154502000D02*
X144065000Y-154502000D01*
X151140000Y-143427000D02*
X146090000Y-143473000D01*
X143765000Y-147652000D02*
X139065000Y-147652000D01*
X151140000Y-143381000D02*
X151140000Y-139473000D01*
X142840000Y-152302000D02*
X139065000Y-152302000D01*
X148640000Y-149876999D02*
X148640000Y-154477000D01*
X140240000Y-141427000D02*
X140240000Y-145372000D01*
X144060000Y-153777000D02*
X144060000Y-154477000D01*
X148615000Y-149852000D02*
X146065000Y-149852000D01*
X140240000Y-145381000D02*
X143850000Y-145381000D01*
X139065000Y-147677000D02*
X139040001Y-152277000D01*
X151140000Y-139473000D02*
X142515000Y-139473000D01*
X143770001Y-147677000D02*
G75*
G03*
X146140000Y-149846999I2269999J100000D01*
G01*
X144060000Y-153727000D02*
G75*
G03*
X142840000Y-152307000I-1320000J100000D01*
G01*
X146115000Y-143477001D02*
G75*
G03*
X143855001Y-145356999I-190001J-2069997D01*
G01*
X142515000Y-139473001D02*
G75*
G03*
X140251001Y-141357000I-190000J-2073999D01*
G01*
%TO.C,SW14*%
X167665000Y-152150000D02*
X163115000Y-152150000D01*
X170190000Y-141075000D02*
X165140000Y-141121000D01*
X159290000Y-143029000D02*
X162900000Y-143029000D01*
X162815000Y-145300000D02*
X158115000Y-145300000D01*
X170190000Y-137121000D02*
X161565000Y-137121000D01*
X163110000Y-151425000D02*
X163110000Y-152125000D01*
X167665000Y-147500000D02*
X165115000Y-147500000D01*
X159290000Y-139075000D02*
X159290000Y-143020000D01*
X158115000Y-145325000D02*
X158090001Y-149925000D01*
X161890000Y-149950000D02*
X158115000Y-149950000D01*
X170190000Y-141029000D02*
X170190000Y-137121000D01*
X167690000Y-147524999D02*
X167690000Y-152125000D01*
X161565000Y-137121001D02*
G75*
G03*
X159301001Y-139005000I-190000J-2073999D01*
G01*
X163110000Y-151375000D02*
G75*
G03*
X161890000Y-149955000I-1320000J100000D01*
G01*
X162820001Y-145325000D02*
G75*
G03*
X165190000Y-147494999I2269999J100000D01*
G01*
X165165000Y-141125001D02*
G75*
G03*
X162905001Y-143004999I-190001J-2069997D01*
G01*
%TO.C,SW15*%
X189240000Y-134736000D02*
X180615000Y-134736000D01*
X186740000Y-145139999D02*
X186740000Y-149740000D01*
X186715000Y-145115000D02*
X184165000Y-145115000D01*
X186715000Y-149765000D02*
X182165000Y-149765000D01*
X182160000Y-149040000D02*
X182160000Y-149740000D01*
X189240000Y-138690000D02*
X184190000Y-138736000D01*
X177165000Y-142940000D02*
X177140001Y-147540000D01*
X189240000Y-138644000D02*
X189240000Y-134736000D01*
X180940000Y-147565000D02*
X177165000Y-147565000D01*
X178340000Y-136690000D02*
X178340000Y-140635000D01*
X178340000Y-140644000D02*
X181950000Y-140644000D01*
X181865000Y-142915000D02*
X177165000Y-142915000D01*
X180615000Y-134736001D02*
G75*
G03*
X178351001Y-136620000I-190000J-2073999D01*
G01*
X182160000Y-148990000D02*
G75*
G03*
X180940000Y-147570000I-1320000J100000D01*
G01*
X181870001Y-142940000D02*
G75*
G03*
X184240000Y-145109999I2269999J100000D01*
G01*
X184215000Y-138740001D02*
G75*
G03*
X181955001Y-140619999I-190001J-2069997D01*
G01*
%TO.C,SW16*%
X205790000Y-147524999D02*
X205790000Y-152125000D01*
X208290000Y-141029000D02*
X208290000Y-137121000D01*
X196215000Y-145325000D02*
X196190001Y-149925000D01*
X197390000Y-143029000D02*
X201000000Y-143029000D01*
X208290000Y-141075000D02*
X203240000Y-141121000D01*
X205765000Y-152150000D02*
X201215000Y-152150000D01*
X205765000Y-147500000D02*
X203215000Y-147500000D01*
X208290000Y-137121000D02*
X199665000Y-137121000D01*
X200915000Y-145300000D02*
X196215000Y-145300000D01*
X197390000Y-139075000D02*
X197390000Y-143020000D01*
X201210000Y-151425000D02*
X201210000Y-152125000D01*
X199990000Y-149950000D02*
X196215000Y-149950000D01*
X199665000Y-137121001D02*
G75*
G03*
X197401001Y-139005000I-190000J-2073999D01*
G01*
X203265000Y-141125001D02*
G75*
G03*
X201005001Y-143004999I-190001J-2069997D01*
G01*
X201210000Y-151375000D02*
G75*
G03*
X199990000Y-149955000I-1320000J100000D01*
G01*
X200920001Y-145325000D02*
G75*
G03*
X203290000Y-147494999I2269999J100000D01*
G01*
%TO.C,SW17*%
X224840000Y-152289999D02*
X224840000Y-156890000D01*
X220260000Y-156190000D02*
X220260000Y-156890000D01*
X219965000Y-150065000D02*
X215265000Y-150065000D01*
X224815000Y-152265000D02*
X222265000Y-152265000D01*
X216440000Y-143840000D02*
X216440000Y-147785000D01*
X227340000Y-145840000D02*
X222290000Y-145886000D01*
X219040000Y-154715000D02*
X215265000Y-154715000D01*
X227340000Y-141886000D02*
X218715000Y-141886000D01*
X224815000Y-156915000D02*
X220265000Y-156915000D01*
X216440000Y-147794000D02*
X220050000Y-147794000D01*
X215265000Y-150090000D02*
X215240001Y-154690000D01*
X227340000Y-145794000D02*
X227340000Y-141886000D01*
X222315000Y-145890001D02*
G75*
G03*
X220055001Y-147769999I-190001J-2069997D01*
G01*
X220260000Y-156140000D02*
G75*
G03*
X219040000Y-154720000I-1320000J100000D01*
G01*
X219970001Y-150090000D02*
G75*
G03*
X222340000Y-152259999I2269999J100000D01*
G01*
X218715000Y-141886001D02*
G75*
G03*
X216451001Y-143770000I-190000J-2073999D01*
G01*
%TO.C,SW18*%
X246390000Y-145794000D02*
X246390000Y-141886000D01*
X235490000Y-147794000D02*
X239100000Y-147794000D01*
X246390000Y-145840000D02*
X241340000Y-145886000D01*
X238090000Y-154715000D02*
X234315000Y-154715000D01*
X243890000Y-152289999D02*
X243890000Y-156890000D01*
X243865000Y-152265000D02*
X241315000Y-152265000D01*
X243865000Y-156915000D02*
X239315000Y-156915000D01*
X239310000Y-156190000D02*
X239310000Y-156890000D01*
X239015000Y-150065000D02*
X234315000Y-150065000D01*
X246390000Y-141886000D02*
X237765000Y-141886000D01*
X235490000Y-143840000D02*
X235490000Y-147785000D01*
X234315000Y-150090000D02*
X234290001Y-154690000D01*
X239020001Y-150090000D02*
G75*
G03*
X241390000Y-152259999I2269999J100000D01*
G01*
X237765000Y-141886001D02*
G75*
G03*
X235501001Y-143770000I-190000J-2073999D01*
G01*
X241365000Y-145890001D02*
G75*
G03*
X239105001Y-147769999I-190001J-2069997D01*
G01*
X239310000Y-156140000D02*
G75*
G03*
X238090000Y-154720000I-1320000J100000D01*
G01*
%TO.C,SW19*%
X143765000Y-166731000D02*
X139065000Y-166731000D01*
X140240000Y-164460000D02*
X143850000Y-164460000D01*
X148615000Y-173581000D02*
X144065000Y-173581000D01*
X142840000Y-171381000D02*
X139065000Y-171381000D01*
X151140000Y-158552000D02*
X142515000Y-158552000D01*
X148640000Y-168955999D02*
X148640000Y-173556000D01*
X148615000Y-168931000D02*
X146065000Y-168931000D01*
X139065000Y-166756000D02*
X139040001Y-171356000D01*
X151140000Y-162506000D02*
X146090000Y-162552000D01*
X140240000Y-160506000D02*
X140240000Y-164451000D01*
X151140000Y-162460000D02*
X151140000Y-158552000D01*
X144060000Y-172856000D02*
X144060000Y-173556000D01*
X144060000Y-172806000D02*
G75*
G03*
X142840000Y-171386000I-1320000J100000D01*
G01*
X142515000Y-158552001D02*
G75*
G03*
X140251001Y-160436000I-190000J-2073999D01*
G01*
X146115000Y-162556001D02*
G75*
G03*
X143855001Y-164435999I-190001J-2069997D01*
G01*
X143770001Y-166756000D02*
G75*
G03*
X146140000Y-168925999I2269999J100000D01*
G01*
%TO.C,SW20*%
X167665000Y-166550000D02*
X165115000Y-166550000D01*
X159290000Y-162079000D02*
X162900000Y-162079000D01*
X167690000Y-166574999D02*
X167690000Y-171175000D01*
X158115000Y-164375000D02*
X158090001Y-168975000D01*
X170190000Y-160125000D02*
X165140000Y-160171000D01*
X159290000Y-158125000D02*
X159290000Y-162070000D01*
X163110000Y-170475000D02*
X163110000Y-171175000D01*
X162815000Y-164350000D02*
X158115000Y-164350000D01*
X161890000Y-169000000D02*
X158115000Y-169000000D01*
X170190000Y-160079000D02*
X170190000Y-156171000D01*
X167665000Y-171200000D02*
X163115000Y-171200000D01*
X170190000Y-156171000D02*
X161565000Y-156171000D01*
X161565000Y-156171001D02*
G75*
G03*
X159301001Y-158055000I-190000J-2073999D01*
G01*
X165165000Y-160175001D02*
G75*
G03*
X162905001Y-162054999I-190001J-2069997D01*
G01*
X162820001Y-164375000D02*
G75*
G03*
X165190000Y-166544999I2269999J100000D01*
G01*
X163110000Y-170425000D02*
G75*
G03*
X161890000Y-169005000I-1320000J100000D01*
G01*
%TO.C,SW21*%
X177165000Y-161990000D02*
X177140001Y-166590000D01*
X186715000Y-164165000D02*
X184165000Y-164165000D01*
X181865000Y-161965000D02*
X177165000Y-161965000D01*
X189240000Y-157740000D02*
X184190000Y-157786000D01*
X178340000Y-159694000D02*
X181950000Y-159694000D01*
X180940000Y-166615000D02*
X177165000Y-166615000D01*
X189240000Y-153786000D02*
X180615000Y-153786000D01*
X182160000Y-168090000D02*
X182160000Y-168790000D01*
X189240000Y-157694000D02*
X189240000Y-153786000D01*
X186715000Y-168815000D02*
X182165000Y-168815000D01*
X186740000Y-164189999D02*
X186740000Y-168790000D01*
X178340000Y-155740000D02*
X178340000Y-159685000D01*
X182160000Y-168040000D02*
G75*
G03*
X180940000Y-166620000I-1320000J100000D01*
G01*
X184215000Y-157790001D02*
G75*
G03*
X181955001Y-159669999I-190001J-2069997D01*
G01*
X180615000Y-153786001D02*
G75*
G03*
X178351001Y-155670000I-190000J-2073999D01*
G01*
X181870001Y-161990000D02*
G75*
G03*
X184240000Y-164159999I2269999J100000D01*
G01*
%TO.C,SW22*%
X196215000Y-164375000D02*
X196190001Y-168975000D01*
X205765000Y-166550000D02*
X203215000Y-166550000D01*
X208290000Y-160079000D02*
X208290000Y-156171000D01*
X200915000Y-164350000D02*
X196215000Y-164350000D01*
X197390000Y-158125000D02*
X197390000Y-162070000D01*
X205790000Y-166574999D02*
X205790000Y-171175000D01*
X199990000Y-169000000D02*
X196215000Y-169000000D01*
X197390000Y-162079000D02*
X201000000Y-162079000D01*
X208290000Y-160125000D02*
X203240000Y-160171000D01*
X201210000Y-170475000D02*
X201210000Y-171175000D01*
X208290000Y-156171000D02*
X199665000Y-156171000D01*
X205765000Y-171200000D02*
X201215000Y-171200000D01*
X201210000Y-170425000D02*
G75*
G03*
X199990000Y-169005000I-1320000J100000D01*
G01*
X199665000Y-156171001D02*
G75*
G03*
X197401001Y-158055000I-190000J-2073999D01*
G01*
X200920001Y-164375000D02*
G75*
G03*
X203290000Y-166544999I2269999J100000D01*
G01*
X203265000Y-160175001D02*
G75*
G03*
X201005001Y-162054999I-190001J-2069997D01*
G01*
%TO.C,SW23*%
X216440000Y-162890000D02*
X216440000Y-166835000D01*
X220260000Y-175240000D02*
X220260000Y-175940000D01*
X219040000Y-173765000D02*
X215265000Y-173765000D01*
X216440000Y-166844000D02*
X220050000Y-166844000D01*
X215265000Y-169140000D02*
X215240001Y-173740000D01*
X227340000Y-164890000D02*
X222290000Y-164936000D01*
X219965000Y-169115000D02*
X215265000Y-169115000D01*
X224815000Y-171315000D02*
X222265000Y-171315000D01*
X224840000Y-171339999D02*
X224840000Y-175940000D01*
X227340000Y-160936000D02*
X218715000Y-160936000D01*
X227340000Y-164844000D02*
X227340000Y-160936000D01*
X224815000Y-175965000D02*
X220265000Y-175965000D01*
X220260000Y-175190000D02*
G75*
G03*
X219040000Y-173770000I-1320000J100000D01*
G01*
X218715000Y-160936001D02*
G75*
G03*
X216451001Y-162820000I-190000J-2073999D01*
G01*
X219970001Y-169140000D02*
G75*
G03*
X222340000Y-171309999I2269999J100000D01*
G01*
X222315000Y-164940001D02*
G75*
G03*
X220055001Y-166819999I-190001J-2069997D01*
G01*
%TO.C,SW24*%
X239015000Y-169115000D02*
X234315000Y-169115000D01*
X243890000Y-171339999D02*
X243890000Y-175940000D01*
X246390000Y-164844000D02*
X246390000Y-160936000D01*
X234315000Y-169140000D02*
X234290001Y-173740000D01*
X243865000Y-171315000D02*
X241315000Y-171315000D01*
X243865000Y-175965000D02*
X239315000Y-175965000D01*
X235490000Y-166844000D02*
X239100000Y-166844000D01*
X238090000Y-173765000D02*
X234315000Y-173765000D01*
X246390000Y-160936000D02*
X237765000Y-160936000D01*
X235490000Y-162890000D02*
X235490000Y-166835000D01*
X246390000Y-164890000D02*
X241340000Y-164936000D01*
X239310000Y-175240000D02*
X239310000Y-175940000D01*
X239020001Y-169140000D02*
G75*
G03*
X241390000Y-171309999I2269999J100000D01*
G01*
X239310000Y-175190000D02*
G75*
G03*
X238090000Y-173770000I-1320000J100000D01*
G01*
X237765000Y-160936001D02*
G75*
G03*
X235501001Y-162820000I-190000J-2073999D01*
G01*
X241365000Y-164940001D02*
G75*
G03*
X239105001Y-166819999I-190001J-2069997D01*
G01*
%TO.C,TC1*%
X134471010Y-189682922D02*
X137855437Y-187728922D01*
X137855437Y-187728922D02*
X133542937Y-180259453D01*
X134431172Y-189705922D02*
X131866335Y-185355494D01*
X130713223Y-179266245D02*
X127296753Y-181238745D01*
X122595197Y-186955411D02*
X120707697Y-183686165D01*
X127288959Y-181243245D02*
X129093959Y-184369597D01*
X127604459Y-190731708D02*
X126329459Y-188523343D01*
X127084715Y-185431485D02*
X124734715Y-181361165D01*
X124713064Y-181373665D02*
X120716848Y-183652015D01*
X123577441Y-193056708D02*
X121302441Y-189116292D01*
X127595309Y-190765858D02*
X123611592Y-193065858D01*
X121927809Y-188749462D02*
X121321592Y-189099462D01*
X121971111Y-188724461D02*
G75*
G03*
X122590866Y-186957911I-573402J1193154D01*
G01*
X133542937Y-180259453D02*
G75*
G03*
X130779345Y-179240771I-1891137J-872455D01*
G01*
X127065564Y-185448314D02*
G75*
G03*
X126371289Y-188585795I1221603J-1915878D01*
G01*
X131875371Y-185379144D02*
G75*
G03*
X129117245Y-184361927I-1887672J-870456D01*
G01*
%TO.C,TC2*%
X153510000Y-194474000D02*
X153510000Y-195174000D01*
X148515000Y-188374000D02*
X148490001Y-192974000D01*
X160590000Y-184124000D02*
X155540000Y-184170000D01*
X152290000Y-192999000D02*
X148515000Y-192999000D01*
X158065000Y-190549000D02*
X155515000Y-190549000D01*
X149690000Y-182124000D02*
X149690000Y-186069000D01*
X149690000Y-186078000D02*
X153300000Y-186078000D01*
X153215000Y-188349000D02*
X148515000Y-188349000D01*
X158065000Y-195199000D02*
X153515000Y-195199000D01*
X160590000Y-180170000D02*
X151965000Y-180170000D01*
X160590000Y-184078000D02*
X160590000Y-180170000D01*
X158090000Y-190573999D02*
X158090000Y-195174000D01*
X153220001Y-188374000D02*
G75*
G03*
X155590000Y-190543999I2269999J100000D01*
G01*
X151965000Y-180170001D02*
G75*
G03*
X149701001Y-182054000I-190000J-2073999D01*
G01*
X155565000Y-184174001D02*
G75*
G03*
X153305001Y-186053999I-190001J-2069997D01*
G01*
X153510000Y-194424000D02*
G75*
G03*
X152290000Y-193004000I-1320000J100000D01*
G01*
%TO.C,TC3*%
X179640000Y-181740000D02*
X174590000Y-181786000D01*
X168740000Y-179740000D02*
X168740000Y-183685000D01*
X177115000Y-188165000D02*
X174565000Y-188165000D01*
X167565000Y-185990000D02*
X167540001Y-190590000D01*
X177115000Y-192815000D02*
X172565000Y-192815000D01*
X172560000Y-192090000D02*
X172560000Y-192790000D01*
X171340000Y-190615000D02*
X167565000Y-190615000D01*
X177140000Y-188189999D02*
X177140000Y-192790000D01*
X168740000Y-183694000D02*
X172350000Y-183694000D01*
X179640000Y-177786000D02*
X171015000Y-177786000D01*
X179640000Y-181694000D02*
X179640000Y-177786000D01*
X172265000Y-185965000D02*
X167565000Y-185965000D01*
X172270001Y-185990000D02*
G75*
G03*
X174640000Y-188159999I2269999J100000D01*
G01*
X172560000Y-192040000D02*
G75*
G03*
X171340000Y-190620000I-1320000J100000D01*
G01*
X171015000Y-177786001D02*
G75*
G03*
X168751001Y-179670000I-190000J-2073999D01*
G01*
X174615000Y-181790001D02*
G75*
G03*
X172355001Y-183669999I-190001J-2069997D01*
G01*
%TO.C,TC4*%
X187790000Y-179740000D02*
X187790000Y-183685000D01*
X196190000Y-188189999D02*
X196190000Y-192790000D01*
X187790000Y-183694000D02*
X191400000Y-183694000D01*
X198690000Y-181740000D02*
X193640000Y-181786000D01*
X198690000Y-181694000D02*
X198690000Y-177786000D01*
X198690000Y-177786000D02*
X190065000Y-177786000D01*
X191610000Y-192090000D02*
X191610000Y-192790000D01*
X186615000Y-185990000D02*
X186590001Y-190590000D01*
X196165000Y-192815000D02*
X191615000Y-192815000D01*
X196165000Y-188165000D02*
X193615000Y-188165000D01*
X190390000Y-190615000D02*
X186615000Y-190615000D01*
X191315000Y-185965000D02*
X186615000Y-185965000D01*
X191610000Y-192040000D02*
G75*
G03*
X190390000Y-190620000I-1320000J100000D01*
G01*
X191320001Y-185990000D02*
G75*
G03*
X193690000Y-188159999I2269999J100000D01*
G01*
X193665000Y-181790001D02*
G75*
G03*
X191405001Y-183669999I-190001J-2069997D01*
G01*
X190065000Y-177786001D02*
G75*
G03*
X187801001Y-179670000I-190000J-2073999D01*
G01*
%TO.C,RSW-MACRO1*%
X273616000Y-145846000D02*
X272916000Y-145846000D01*
X273616000Y-151846000D02*
X272916000Y-151846000D01*
X273616000Y-145846000D02*
X273616000Y-151746000D01*
X270116000Y-151846000D02*
X270716000Y-151846000D01*
X270116000Y-151846000D02*
X270116000Y-145846000D01*
X273616000Y-145846000D02*
X273616000Y-151846000D01*
X270116000Y-145846000D02*
X270716000Y-145846000D01*
%TO.C,RSW1*%
X118578243Y-164564076D02*
X118058628Y-164864076D01*
X112547154Y-161117924D02*
X113153372Y-160767924D01*
X115578243Y-159367924D02*
X115058628Y-159667924D01*
X115547154Y-166314076D02*
X112547154Y-161117924D01*
X115547154Y-166314076D02*
X116153372Y-165964076D01*
X115578243Y-159367924D02*
X118578243Y-164564076D01*
X115547154Y-166314076D02*
X112597154Y-161204526D01*
%TD*%
D12*
%TO.C,MCU-MAIN1*%
X133742815Y-122426745D03*
X133742815Y-124966745D03*
X133742815Y-127506745D03*
X133742815Y-130046745D03*
X133742815Y-132586745D03*
X133742815Y-135126745D03*
X133742815Y-137666745D03*
X133742815Y-140206745D03*
X133742815Y-142746745D03*
X133742815Y-145286745D03*
X133742815Y-147826745D03*
X133742815Y-150366745D03*
X118502815Y-150366745D03*
X118502815Y-147826745D03*
X118502815Y-145286745D03*
X118502815Y-142746745D03*
X118502815Y-140206745D03*
X118502815Y-137666745D03*
X118502815Y-135126745D03*
X118502815Y-132586745D03*
X118502815Y-130046745D03*
X118502815Y-127506745D03*
X118502815Y-124966745D03*
X118502815Y-122426745D03*
%TD*%
%TO.C,MCU-MACRO1*%
X309168255Y-155849815D03*
X306628255Y-155849815D03*
X304088255Y-155849815D03*
X301548255Y-155849815D03*
X299008255Y-155849815D03*
X296468255Y-155849815D03*
X309168255Y-140609815D03*
X306628255Y-140609815D03*
X304088255Y-140609815D03*
X301548255Y-140609815D03*
X299008255Y-140609815D03*
X296468255Y-140609815D03*
%TD*%
M02*
