M48
; DRILL file {KiCad 7.0.10} date Sun Mar 24 21:28:32 2024
; FORMAT={2:4/ absolute / inch / suppress leading zeros}
; #@! TF.CreationDate,2024-03-24T21:28:32-04:00
; #@! TF.GenerationSoftware,Kicad,Pcbnew,7.0.10
; #@! TF.FileFunction,MixedPlating,1,2
FMAT,2
INCH,TZ
; #@! TA.AperFunction,Plated,PTH,ViaDrill
T1C0.0079
; #@! TA.AperFunction,Plated,PTH,ComponentDrill
T2C0.0118
; #@! TA.AperFunction,Plated,PTH,ViaDrill
T3C0.0157
; #@! TA.AperFunction,Plated,PTH,ComponentDrill
T4C0.0320
; #@! TA.AperFunction,Plated,PTH,ComponentDrill
T5C0.0512
; #@! TA.AperFunction,Plated,PTH,ComponentDrill
T6C0.0866
; #@! TA.AperFunction,Plated,PTH,ComponentDrill
T7C0.1260
; #@! TA.AperFunction,NonPlated,NPTH,ComponentDrill
T8C0.0039
; #@! TA.AperFunction,NonPlated,NPTH,ComponentDrill
T9C0.0472
; #@! TA.AperFunction,NonPlated,NPTH,ComponentDrill
T10C0.0669
; #@! TA.AperFunction,NonPlated,NPTH,ComponentDrill
T11C0.0748
; #@! TA.AperFunction,NonPlated,NPTH,ComponentDrill
T12C0.1181
; #@! TA.AperFunction,NonPlated,NPTH,ComponentDrill
T13C0.1200
; #@! TA.AperFunction,NonPlated,NPTH,ComponentDrill
T14C0.1570
; #@! TA.AperFunction,NonPlated,NPTH,ComponentDrill
T15C0.1575
%
G90
G05
T1
X47308Y-57387
X48972Y-70759
X49714Y-74239
X50764Y-56195
X50964Y-69739
X51000Y-55199
X51350Y-50717
X51350Y-53709
X51350Y-54693
X51350Y-55717
X51350Y-56701
X51350Y-57724
X51350Y-58709
X51389Y-47724
X51389Y-48741
X51389Y-51740
X51389Y-52764
X53490Y-59196
X53687Y-58172
X53874Y-57646
X53899Y-54897
X54264Y-63139
X54464Y-75639
X54714Y-42889
X54714Y-58189
X54914Y-50389
X55252Y-65731
X57564Y-51489
X57564Y-66489
X57614Y-44039
X57614Y-59039
X58064Y-71739
X60314Y-49939
X60414Y-42289
X60964Y-55589
X60964Y-63189
X61314Y-75089
X61768Y-64693
X61864Y-62189
X61925Y-41450
X62214Y-49239
X62398Y-57156
X64564Y-71589
X65114Y-43139
X65114Y-65589
X65164Y-50689
X65164Y-58089
X65614Y-70789
X68064Y-56509
X68114Y-49139
X68164Y-41639
X68464Y-62339
X69047Y-74106
X69200Y-40532
X69314Y-61389
X69425Y-63878
X69714Y-55889
X70164Y-48839
X72164Y-70889
X72564Y-42189
X72564Y-64589
X72664Y-49689
X72664Y-57139
X73146Y-72720
X75414Y-40489
X75449Y-48274
X75564Y-55589
X76014Y-61389
X76364Y-74139
X76925Y-41578
X77214Y-56639
X77264Y-64689
X77289Y-49514
X79661Y-70396
X80114Y-50639
X80114Y-65589
X80164Y-58139
X80214Y-42989
X82964Y-49039
X83164Y-41589
X83164Y-56389
X83164Y-63989
X84064Y-64139
X84764Y-51139
X84814Y-43789
X84939Y-59014
X87564Y-44989
X87614Y-52489
X87664Y-59989
X87664Y-67489
X90134Y-69136
X90464Y-58339
X90514Y-43539
X90514Y-50839
X91114Y-64139
X91714Y-63989
X91925Y-58350
X92214Y-43789
X92314Y-51189
X93598Y-69609
X95064Y-60039
X95114Y-45039
X95164Y-52539
X95214Y-67339
X97914Y-51089
X98008Y-47955
X98064Y-43389
X98064Y-58439
X98444Y-64189
X98795Y-57798
X98913Y-56065
X98935Y-56380
X98953Y-54491
X99016Y-58034
X99110Y-52601
X99128Y-52229
X100183Y-52221
X100314Y-52601
X100370Y-54569
X100415Y-58113
X100419Y-57798
X100488Y-56105
X100514Y-56401
X100944Y-48152
X101157Y-46774
X101357Y-51060
X101578Y-66039
X101778Y-43839
X104578Y-45039
X104578Y-52539
X104578Y-67439
X106276Y-46774
X106409Y-48118
X106507Y-46583
X107578Y-43439
X107578Y-66039
X107678Y-50739
X108559Y-61971
X108559Y-63309
X108978Y-66239
X108978Y-66239
X109071Y-61971
X109071Y-63309
X109178Y-43639
X109178Y-58839
X109330Y-51487
X111978Y-67439
X112178Y-45039
X112178Y-52439
X112178Y-60039
X114415Y-62138
X114415Y-63343
X114923Y-62130
X114923Y-63339
X114978Y-43439
X114978Y-51039
X114978Y-58439
X114978Y-66039
X116578Y-43639
X116578Y-43639
X116578Y-66239
X116778Y-51239
X118126Y-47680
X119578Y-45039
X119578Y-52439
X119578Y-67439
X122378Y-66039
X122578Y-43439
X122578Y-50839
T3
X46264Y-60951
X47254Y-49646
X47308Y-51195
X47647Y-57054
X51310Y-49654
X56276Y-69294
X98953Y-69372
X99110Y-58349
X100345Y-58418
T4
X45946Y-47650
X45946Y-48650
X45946Y-49650
X45946Y-50650
X45946Y-51650
X45946Y-52650
X45946Y-53650
X45946Y-54650
X45946Y-55650
X45946Y-56650
X45946Y-57650
X45946Y-58650
X46655Y-48200
X46655Y-49200
X46655Y-50200
X46655Y-51200
X46655Y-52200
X46655Y-53200
X46655Y-54200
X46655Y-55200
X46655Y-56200
X46655Y-57200
X46655Y-58200
X46655Y-59200
X51946Y-47650
X51946Y-48650
X51946Y-49650
X51946Y-50650
X51946Y-51650
X51946Y-52650
X51946Y-53650
X51946Y-54650
X51946Y-55650
X51946Y-56650
X51946Y-57650
X51946Y-58650
X52655Y-48200
X52655Y-49200
X52655Y-50200
X52655Y-51200
X52655Y-52200
X52655Y-53200
X52655Y-54200
X52655Y-55200
X52655Y-56200
X52655Y-57200
X52655Y-58200
X52655Y-59200
X116720Y-55358
X116720Y-61358
X117720Y-55358
X117720Y-61358
X118720Y-55358
X118720Y-61358
X119720Y-55358
X119720Y-61358
X120720Y-55358
X120720Y-61358
X121720Y-55358
X121720Y-61358
T5
X44874Y-62993
X46154Y-65209
X107014Y-57321
X107014Y-59880
T6
X99719Y-53506
X99719Y-55317
X99719Y-57128
X109914Y-62701
X111827Y-62719
X113598Y-62719
T7
X56092Y-70713
X61376Y-53319
X61376Y-60827
X61394Y-45750
X76352Y-52461
X76352Y-59985
X76354Y-45042
X91368Y-54780
X91368Y-62284
X91394Y-47246
X108283Y-47286
X108309Y-54788
X115803Y-47365
T8
X51136Y-71800
X52642Y-74408
X56108Y-41585
X56108Y-49074
X56108Y-56574
X56108Y-64085
X59120Y-41585
X59120Y-49074
X59120Y-56574
X59120Y-64085
X59829Y-72596
X62841Y-72596
X63608Y-40648
X63608Y-48154
X63608Y-55648
X63608Y-63148
X66620Y-40648
X66620Y-48154
X66620Y-55648
X66620Y-63148
X67329Y-71657
X70341Y-71657
X71108Y-39709
X71108Y-47224
X71108Y-54709
X71108Y-62209
X74120Y-39709
X74120Y-47224
X74120Y-54709
X74120Y-62209
X74829Y-71657
X77841Y-71657
X78608Y-40648
X78608Y-48174
X78608Y-55648
X78608Y-63148
X81620Y-40648
X81620Y-48174
X81620Y-55648
X81620Y-63148
X86108Y-42524
X86108Y-50024
X86108Y-57524
X86108Y-65024
X89120Y-42524
X89120Y-50024
X89120Y-57524
X89120Y-65024
X93608Y-42524
X93608Y-50024
X93608Y-57524
X93608Y-65024
X96620Y-42524
X96620Y-50024
X96620Y-57524
X96620Y-65024
X103041Y-42524
X103041Y-50024
X103041Y-65024
X106052Y-42524
X106052Y-50024
X106052Y-65024
X110541Y-42524
X110541Y-50024
X110541Y-57524
X110541Y-65024
X113552Y-42524
X113552Y-50024
X113552Y-57524
X113552Y-65024
X118041Y-42524
X118041Y-50024
X118041Y-65024
X121052Y-42524
X121052Y-50024
X121052Y-65024
T9
X42015Y-64400
X42612Y-64055
X43393Y-66786
X43990Y-66442
T10
X50009Y-71880
X52009Y-75344
X55614Y-42601
X55614Y-50089
X55614Y-57589
X55614Y-65101
X59335Y-73612
X59614Y-42601
X59614Y-50089
X59614Y-57589
X59614Y-65101
X63114Y-41663
X63114Y-49169
X63114Y-56663
X63114Y-64163
X63335Y-73612
X66835Y-72673
X67114Y-41663
X67114Y-49169
X67114Y-56663
X67114Y-64163
X70614Y-40724
X70614Y-48239
X70614Y-55724
X70614Y-63224
X70835Y-72673
X74335Y-72673
X74614Y-40724
X74614Y-48239
X74614Y-55724
X74614Y-63224
X78114Y-41663
X78114Y-49189
X78114Y-56663
X78114Y-64163
X78335Y-72673
X82114Y-41663
X82114Y-49189
X82114Y-56663
X82114Y-64163
X85614Y-43539
X85614Y-51039
X85614Y-58539
X85614Y-66039
X89614Y-43539
X89614Y-51039
X89614Y-58539
X89614Y-66039
X93114Y-43539
X93114Y-51039
X93114Y-58539
X93114Y-66039
X97114Y-43539
X97114Y-51039
X97114Y-58539
X97114Y-66039
X102546Y-43539
X102546Y-51039
X102546Y-66039
X106546Y-43539
X106546Y-51039
X106546Y-66039
X110046Y-43539
X110046Y-51039
X110046Y-58539
X110046Y-66039
X114046Y-43539
X114046Y-51039
X114046Y-58539
X114046Y-66039
X117546Y-43539
X117546Y-51039
X117546Y-66039
X121546Y-43539
X121546Y-51039
X121546Y-66039
T11
X49926Y-71737
X52092Y-75487
X55449Y-42601
X55449Y-50089
X55449Y-57589
X55449Y-65101
X59169Y-73612
X59780Y-42601
X59780Y-50089
X59780Y-57589
X59780Y-65101
X62949Y-41663
X62949Y-49169
X62949Y-56663
X62949Y-64163
X63500Y-73612
X66669Y-72673
X67280Y-41663
X67280Y-49169
X67280Y-56663
X67280Y-64163
X70449Y-40724
X70449Y-48239
X70449Y-55724
X70449Y-63224
X71000Y-72673
X74169Y-72673
X74780Y-40724
X74780Y-48239
X74780Y-55724
X74780Y-63224
X77949Y-41663
X77949Y-49189
X77949Y-56663
X77949Y-64163
X78500Y-72673
X82280Y-41663
X82280Y-49189
X82280Y-56663
X82280Y-64163
X85449Y-43539
X85449Y-51039
X85449Y-58539
X85449Y-66039
X89780Y-43539
X89780Y-51039
X89780Y-58539
X89780Y-66039
X92949Y-43539
X92949Y-51039
X92949Y-58539
X92949Y-66039
X97280Y-43539
X97280Y-51039
X97280Y-58539
X97280Y-66039
X102381Y-43539
X102381Y-51039
X102381Y-66039
X106712Y-43539
X106712Y-51039
X106712Y-66039
X109881Y-43539
X109881Y-51039
X109881Y-58539
X109881Y-66039
X114212Y-43539
X114212Y-51039
X114212Y-58539
X114212Y-66039
X117381Y-43539
X117381Y-51039
X117381Y-66039
X121712Y-43539
X121712Y-51039
X121712Y-66039
T12
X48763Y-72635
X48997Y-74773
X50732Y-76045
X51125Y-71813
X52241Y-71746
X52625Y-74411
X52625Y-74411
X53241Y-73478
X55646Y-44057
X55646Y-51546
X55646Y-59046
X55646Y-66557
X56114Y-41601
X56114Y-49089
X56114Y-56589
X56114Y-64101
X56614Y-40601
X56614Y-48089
X56614Y-55589
X56614Y-63101
X57614Y-44924
X57614Y-52412
X57614Y-59912
X57614Y-67424
X58614Y-40601
X58614Y-48089
X58614Y-55589
X58614Y-63101
X59114Y-41601
X59114Y-41601
X59114Y-49089
X59114Y-49089
X59114Y-56589
X59114Y-56589
X59114Y-64101
X59114Y-64101
X59366Y-75069
X59583Y-44057
X59583Y-51546
X59583Y-59046
X59583Y-66557
X59835Y-72612
X60335Y-71612
X61335Y-75935
X62335Y-71612
X62835Y-72612
X62835Y-72612
X63146Y-43120
X63146Y-50626
X63146Y-58120
X63146Y-65620
X63303Y-75069
X63614Y-40663
X63614Y-48169
X63614Y-55663
X63614Y-63163
X64114Y-39663
X64114Y-47169
X64114Y-54663
X64114Y-62163
X65114Y-43986
X65114Y-51492
X65114Y-58986
X65114Y-66486
X66114Y-39663
X66114Y-47169
X66114Y-54663
X66114Y-62163
X66614Y-40663
X66614Y-40663
X66614Y-48169
X66614Y-48169
X66614Y-55663
X66614Y-55663
X66614Y-63163
X66614Y-63163
X66866Y-74130
X67083Y-43120
X67083Y-50626
X67083Y-58120
X67083Y-65620
X67335Y-71673
X67835Y-70673
X68835Y-74996
X69835Y-70673
X70335Y-71673
X70335Y-71673
X70646Y-42181
X70646Y-49696
X70646Y-57181
X70646Y-64681
X70803Y-74130
X71114Y-39724
X71114Y-47239
X71114Y-54724
X71114Y-62224
X71614Y-38724
X71614Y-46239
X71614Y-53724
X71614Y-61224
X72614Y-43047
X72614Y-50562
X72614Y-58047
X72614Y-65547
X73614Y-38724
X73614Y-46239
X73614Y-53724
X73614Y-61224
X74114Y-39724
X74114Y-39724
X74114Y-47239
X74114Y-47239
X74114Y-54724
X74114Y-54724
X74114Y-62224
X74114Y-62224
X74366Y-74130
X74583Y-42181
X74583Y-49696
X74583Y-57181
X74583Y-64681
X74835Y-71673
X75335Y-70673
X76335Y-74996
X77335Y-70673
X77835Y-71673
X77835Y-71673
X78146Y-43120
X78146Y-50646
X78146Y-58120
X78146Y-65620
X78303Y-74130
X78614Y-40663
X78614Y-48189
X78614Y-55663
X78614Y-63163
X79114Y-39663
X79114Y-47189
X79114Y-54663
X79114Y-62163
X80114Y-43986
X80114Y-51512
X80114Y-58986
X80114Y-66486
X81114Y-39663
X81114Y-47189
X81114Y-54663
X81114Y-62163
X81614Y-40663
X81614Y-40663
X81614Y-48189
X81614Y-48189
X81614Y-55663
X81614Y-55663
X81614Y-63163
X81614Y-63163
X82083Y-43120
X82083Y-50646
X82083Y-58120
X82083Y-65620
X85646Y-44996
X85646Y-52496
X85646Y-59996
X85646Y-67496
X86114Y-42539
X86114Y-50039
X86114Y-57539
X86114Y-65039
X86614Y-41539
X86614Y-49039
X86614Y-56539
X86614Y-64039
X87614Y-45862
X87614Y-53362
X87614Y-60862
X87614Y-68362
X88614Y-41539
X88614Y-49039
X88614Y-56539
X88614Y-64039
X89114Y-42539
X89114Y-42539
X89114Y-50039
X89114Y-50039
X89114Y-57539
X89114Y-57539
X89114Y-65039
X89114Y-65039
X89583Y-44996
X89583Y-52496
X89583Y-59996
X89583Y-67496
X93146Y-44996
X93146Y-52496
X93146Y-59996
X93146Y-67496
X93614Y-42539
X93614Y-50039
X93614Y-57539
X93614Y-65039
X94114Y-41539
X94114Y-49039
X94114Y-56539
X94114Y-64039
X95114Y-45862
X95114Y-53362
X95114Y-60862
X95114Y-68362
X96114Y-41539
X96114Y-49039
X96114Y-56539
X96114Y-64039
X96614Y-42539
X96614Y-42539
X96614Y-50039
X96614Y-50039
X96614Y-57539
X96614Y-57539
X96614Y-65039
X96614Y-65039
X97083Y-44996
X97083Y-52496
X97083Y-59996
X97083Y-67496
X102578Y-44996
X102578Y-52496
X102578Y-67496
X103046Y-42539
X103046Y-50039
X103046Y-65039
X103546Y-41539
X103546Y-49039
X103546Y-64039
X104546Y-45862
X104546Y-53362
X104546Y-68362
X105546Y-41539
X105546Y-49039
X105546Y-64039
X106046Y-42539
X106046Y-42539
X106046Y-50039
X106046Y-50039
X106046Y-65039
X106046Y-65039
X106515Y-44996
X106515Y-52496
X106515Y-67496
X110078Y-44996
X110078Y-52496
X110078Y-59996
X110078Y-67496
X110546Y-42539
X110546Y-50039
X110546Y-57539
X110546Y-65039
X111046Y-41539
X111046Y-49039
X111046Y-56539
X111046Y-64039
X112046Y-45862
X112046Y-53362
X112046Y-60862
X112046Y-68362
X113046Y-41539
X113046Y-49039
X113046Y-56539
X113046Y-64039
X113546Y-42539
X113546Y-42539
X113546Y-50039
X113546Y-50039
X113546Y-57539
X113546Y-57539
X113546Y-65039
X113546Y-65039
X114015Y-44996
X114015Y-52496
X114015Y-59996
X114015Y-67496
X117578Y-44996
X117578Y-52496
X117578Y-67496
X118046Y-42539
X118046Y-50039
X118046Y-65039
X118546Y-41539
X118546Y-49039
X118546Y-64039
X119546Y-45862
X119546Y-53362
X119546Y-68362
X120546Y-41539
X120546Y-49039
X120546Y-64039
X121046Y-42539
X121046Y-42539
X121046Y-50039
X121046Y-50039
X121046Y-65039
X121046Y-65039
X121515Y-44996
X121515Y-52496
X121515Y-67496
T13
X51048Y-68179
X55733Y-76294
T14
X45852Y-71179
X50537Y-79294
T15
X51009Y-73612
X57614Y-42601
X57614Y-50089
X57614Y-57589
X57614Y-65101
X61335Y-73612
X65114Y-41663
X65114Y-49169
X65114Y-56663
X65114Y-64163
X68835Y-72673
X72614Y-40724
X72614Y-48239
X72614Y-55724
X72614Y-63224
X76335Y-72673
X80114Y-41663
X80114Y-49189
X80114Y-56663
X80114Y-64163
X87614Y-43539
X87614Y-51039
X87614Y-58539
X87614Y-66039
X95114Y-43539
X95114Y-51039
X95114Y-58539
X95114Y-66039
X104546Y-43539
X104546Y-51039
X104546Y-66039
X112046Y-43539
X112046Y-51039
X112046Y-58539
X112046Y-66039
X119546Y-43539
X119546Y-51039
X119546Y-66039
T2
G00X41526Y-65205
M15
G01X41781Y-65648
M16
G05
G00X42116Y-66228
M15
G01X42372Y-66671
M16
G05
G00X42903Y-67592
M15
G01X43159Y-68035
M16
G05
G00X43554Y-64034
M15
G01X43810Y-64477
M16
G05
G00X43795Y-67759
M15
G01X44051Y-68202
M16
G05
G00X44145Y-65057
M15
G01X44401Y-65500
M16
G05
G00X44631Y-67276
M15
G01X44887Y-67720
M16
G05
G00X44932Y-66421
M15
G01X45188Y-66864
M16
G05
M30
